<?xml version="1.0" encoding="UTF-8" standalone="no"?>
<svg xmlns:dc="http://purl.org/dc/elements/1.1/" xmlns:cc="http://creativecommons.org/ns#" xmlns:rdf="http://www.w3.org/1999/02/22-rdf-syntax-ns#" xmlns:svg="http://www.w3.org/2000/svg" xmlns="http://www.w3.org/2000/svg" xmlns:sodipodi="http://sodipodi.sourceforge.net/DTD/sodipodi-0.dtd" xmlns:inkscape="http://www.inkscape.org/namespaces/inkscape" onload="initSVG();" xml:space="preserve" width="841.89" height="595.276" viewBox="0 0 841.89 595.276" color-interpolation-filters="sRGB" id="root" sodipodi:version="0.32" inkscape:version="0.46+devel" sodipodi:docname="aegisub_logo.svg" inkscape:output_extension="org.inkscape.output.svg.inkscape"><metadata id="metadata107"><rdf:RDF><cc:Work rdf:about=""><dc:format>image/svg+xml</dc:format><dc:type rdf:resource="http://purl.org/dc/dcmitype/StillImage" /><dc:title>aegisub_logo -- Page 1</dc:title></cc:Work></rdf:RDF></metadata><sodipodi:namedview pagecolor="#ffffff" bordercolor="#ffffff" borderopacity="1" objecttolerance="10" gridtolerance="10" guidetolerance="10" inkscape:pageopacity="0" inkscape:pageshadow="2" inkscape:window-width="640" inkscape:window-height="480" id="namedview105" showgrid="false" inkscape:zoom="0.44013197" inkscape:cx="420.94501" inkscape:cy="297.638" inkscape:window-x="253" inkscape:window-y="253" inkscape:current-layer="root" />
 Converted with TEXTCAFE (tm) http://www.texterity.com 
  <title id="title3">aegisub_logo -- Page 1</title>
  <defs id="defs5"><inkscape:perspective sodipodi:type="inkscape:persp3d" inkscape:vp_x="0 : 297.638 : 1" inkscape:vp_y="0 : 1000 : 0" inkscape:vp_z="841.89001 : 297.638 : 1" inkscape:persp3d-origin="420.94501 : 198.42533 : 1" id="perspective109" />
    <style type="text/css" id="style7">

text{unicode-bidi:bidi-override}
clipPath{shape-rendering:crispEdges}
image{shape-rendering:crispEdges}

    </style>
    <clipPath id="id6">
      <path clip-rule="nonzero" d="M0 595.276h841.89v-595.276h-841.89Z" id="path10" />
    </clipPath>
    <clipPath id="id10">
      <path clip-rule="nonzero" d="M733.794 266.176C733.794 265.477 735.554 263.933 739.075 261.542C742.595 259.15 746.774 257.716 751.611 257.232C761.985 257.232 769.311 260.791 773.584 267.906C777.857 275.021 779.994 285.995 779.994 300.819C779.994 313.172 778.15 322.637 774.47 329.217C770.786 335.798 763.517 339.088 752.659 339.088C746.64 338.656 741.989 337.664 738.712 336.107C735.431 334.547 733.794 333.449 733.794 332.804ZM702.856 396.593L733.794 396.593L733.794 347.709C741.193 351.421 750.629 353.281 762.104 353.281C769.878 353.281 776.784 352.098 782.816 349.736C788.85 347.371 793.941 342.256 798.099 334.39C802.253 326.52 804.331 315.231 804.331 300.516C804.331 284.674 802.134 272.453 797.744 263.862C793.352 255.271 787.796 249.524 781.076 246.624C774.354 243.724 766.846 242.222 758.547 242.112C751.234 242.112 745.576 243.021 741.573 244.842C737.567 246.659 734.974 248.158 733.794 249.337L733.794 242.73L702.856 242.73Z" id="path13" />
    </clipPath>
    <clipPath id="id9">
      <path clip-rule="nonzero" d="M623.901 273.756C623.901 269.186 625.577 265.399 628.935 262.389C632.293 259.379 636.44 257.877 641.384 257.877C649.547 258.09 655.374 260.023 658.867 263.678C662.357 267.333 664.452 270.368 665.151 272.789L665.151 352.662L688.251 352.662L688.251 242.73L665.151 242.73L665.151 252.963C663.057 251.174 658.522 248.954 651.548 246.299C644.574 243.643 634.945 242.318 622.66 242.318C613.537 242.641 606.306 245.409 600.969 250.626C595.632 255.841 592.964 263.208 592.964 272.728L592.964 352.662L623.901 352.662Z" id="path16" />
    </clipPath>
    <linearGradient spreadMethod="pad" x2="1" y2="0" x1="0" y1="0" id="id8" gradientUnits="userSpaceOnUse">
      <stop stop-color="#bec9eb" offset="0" id="stop19" />
      <stop stop-color="#bec9eb" offset=".0842697" id="stop21" />
      <stop stop-color="#eaeff9" offset=".202247" id="stop23" />
      <stop stop-color="#eaeff9" offset=".202247" id="stop25" />
      <stop stop-color="#a6b2e1" offset=".314607" id="stop27" />
      <stop stop-color="#4d6fab" offset="1" id="stop29" />
    </linearGradient>
    <clipPath id="id3">
      <path clip-rule="nonzero" d="M0 595.276h841.89v-595.276h-841.89Z" id="path32" />
    </clipPath>
    <clipPath id="id7">
      <path clip-rule="nonzero" d="M517.653 325.869C517.653 321.625 521.417 318.441 528.949 316.32C536.48 314.196 544.211 312.208 552.146 310.355C560.08 308.499 566.953 305.382 572.771 301.006C578.584 296.626 581.626 289.843 581.897 280.655C581.897 267.22 578.288 257.574 571.072 251.719C563.856 245.86 553.383 242.425 539.651 241.403C537.931 241.19 535.301 241.081 531.762 241.081C522.43 241.081 514.383 241.822 507.621 243.298C500.86 244.777 496.168 246.002 493.538 246.972L489.274 266.176C491.688 264.51 496.116 262.415 502.562 259.892C509.004 257.365 516.761 256.05 525.836 255.943C535.497 255.943 542.062 257.407 545.522 260.336C548.984 263.266 550.799 267.849 550.96 274.084C550.96 281.287 548.529 286.043 543.67 288.357C538.811 290.668 530.947 292.898 520.077 295.048C509.203 297.197 501.018 300.288 495.514 304.319C490.01 308.351 487.261 315.447 487.261 325.608C488.066 343.291 502.017 352.752 529.113 353.99C530.025 353.99 531.285 354.042 532.896 354.151C534.505 354.257 535.658 354.312 536.357 354.312C546.174 354.312 554.089 353.609 560.099 352.211C566.109 350.809 570.189 349.649 572.335 348.734L577.56 330.871C575.468 332.211 571.365 333.864 565.255 335.824C559.146 337.783 550.863 338.766 540.408 338.766C533.332 338.766 527.812 337.944 523.844 336.307C519.877 334.667 517.814 331.187 517.653 325.869" id="path35" />
    </clipPath>
    <clipPath id="id4">
      <path clip-rule="nonzero" d="M0 595.276h841.89v-595.276h-841.89Z" id="path38" />
    </clipPath>
    <clipPath id="id2">
      <rect width="841.89" height="595.276" y="0" x="0" id="rect41" />
    </clipPath>
    <clipPath id="id5">
      <path clip-rule="nonzero" d="M0 595.276h841.89v-595.276h-841.89Z" id="path44" />
    </clipPath>
  </defs>
  <defs id="defs46" />
  <g id="g48">
    <g transform="matrix(1 0 0 -1 0 595.276)" clip-path="url(#id2)" id="main">
      <g clip-path="url(#id3)" id="g51">
        <path stroke-width="5" d="M26.259 229.531L827.335 229.531" stroke-miterlimit="4" stroke="#221e1f" stroke-linejoin="miter" fill="none" stroke-linecap="butt" id="path53" />
      </g>
      <g clip-path="url(#id4)" id="g55">
        <path d="M480.024 457.29L480.024 143.351" fill-rule="nonzero" stroke="none" fill="#ebeff9" id="path57" />
        <path d="M478.53 457.431L478.53 335.686L478.53 162.743L478.53 143.492C478.53 141.571 481.519 141.276 481.519 143.209L481.519 264.954L481.519 437.897L481.519 457.148C481.519 459.068 478.53 459.363 478.53 457.431" fill-rule="nonzero" stroke="none" fill="#758b98" id="path59" />
      </g>
      <g clip-path="url(#id5)" id="g61">
        <path d="M266.457 338.236C251.481 337.749 243.995 326.818 243.995 305.442L291.819 305.442C291.819 327.305 283.363 338.236 266.457 338.236M243.995 291.005C244.478 285.21 246.463 277.885 249.95 269.036C253.437 260.187 259.795 255.546 269.025 255.117C280.292 255.117 289.115 256.551 295.502 259.423C301.886 262.291 306.043 264.691 307.977 266.625L303.308 247.521C303.308 246.394 300.111 244.901 293.724 243.048C287.333 241.195 279.199 240.268 269.321 240.268C265.403 240.268 262.341 240.338 260.14 240.474C244.14 241.653 232.422 246.262 224.987 254.299C217.549 262.336 213.753 275.22 213.592 292.958C213.592 313.273 217.817 328.162 226.273 337.624C234.729 347.082 247.117 351.894 263.437 352.055C283.031 352.055 296.318 346.898 303.298 336.592C309.257 328.052 312.238 316.509 312.238 301.958C312.238 299.219 312.157 296.896 311.996 294.991C311.835 293.083 311.699 291.756 311.593 291.005Z" fill-rule="nonzero" stroke="none" fill="#40a73b" id="path63" />
        <path stroke-width="5" d="M266.457 338.236C251.481 337.749 243.995 326.818 243.995 305.442L291.819 305.442C291.819 327.305 283.363 338.236 266.457 338.236ZM243.995 291.005C244.478 285.21 246.463 277.885 249.95 269.036C253.437 260.187 259.795 255.546 269.025 255.117C280.292 255.117 289.115 256.551 295.502 259.423C301.886 262.291 306.043 264.691 307.977 266.625L303.308 247.521C303.308 246.394 300.111 244.901 293.724 243.048C287.333 241.195 279.199 240.268 269.321 240.268C265.403 240.268 262.341 240.338 260.14 240.474C244.14 241.653 232.422 246.262 224.987 254.299C217.549 262.336 213.753 275.22 213.592 292.958C213.592 313.273 217.817 328.162 226.273 337.624C234.729 347.082 247.117 351.894 263.437 352.055C283.031 352.055 296.318 346.898 303.298 336.592C309.257 328.052 312.238 316.509 312.238 301.958C312.238 299.219 312.157 296.896 311.996 294.991C311.835 293.083 311.699 291.756 311.593 291.005L243.995 291.005Z" stroke-miterlimit="4" stroke="#221e1f" stroke-linejoin="miter" fill="none" stroke-linecap="butt" id="path65" />
        <path d="M394.438 327.952C394.438 328.542 392.582 329.979 388.873 332.261C385.163 334.542 380.97 336.089 376.294 336.895C369.301 336.895 363.752 335.458 359.64 332.583C355.527 329.708 352.595 325.358 350.848 319.532C349.102 313.705 348.093 305.958 347.825 296.29C347.825 283.238 349.733 273.045 353.549 265.713C357.364 258.382 364.596 254.718 375.244 254.718C380.89 255.092 385.27 256.02 388.389 257.495C391.508 258.972 393.522 260.142 394.438 261.002ZM369.872 204.987C387.403 206.844 393.178 215.094 393.384 219.425L394.438 246.493C386.597 242.571 377.013 240.612 365.688 240.612C357.419 240.935 350.371 242.288 344.545 244.679C338.718 247.067 333.752 252.381 329.646 260.621C325.541 268.858 323.488 280.979 323.488 296.976C323.917 313.508 326.546 325.816 331.38 333.895C336.211 341.974 341.673 347.021 347.768 349.035C353.861 351.046 360.829 352.055 368.667 352.055C373.014 351.839 377 351.114 380.625 349.876C384.248 348.639 387.483 347.266 390.332 345.761C393.878 343.877 393.522 347.276 393.522 346.406L394.438 351.436L425.169 351.436L425.169 225.71C423.084 203.543 414.421 190.344 382.247 185.806C370.603 184.164 354.948 185.141 347.184 186.631C338.106 188.373 329.034 191.168 312.534 195.706C312.534 195.706 280.909 205.33 247.359 206.431C213.809 207.531 158.81 189.931 158.81 189.931C158.81 189.931 197.309 220.731 243.509 219.631C289.709 218.53 316.041 210.762 316.041 210.762C330.065 207.875 336.282 205.421 343.472 204.781C352.753 203.956 360.791 204.025 369.872 204.987" fill-rule="nonzero" stroke="none" fill="#788ace" id="path67" />
        <path stroke-width="5" d="M394.438 327.952C394.438 328.542 392.582 329.979 388.873 332.261C385.163 334.542 380.97 336.089 376.294 336.895C369.301 336.895 363.752 335.458 359.64 332.583C355.527 329.708 352.595 325.358 350.848 319.532C349.102 313.705 348.093 305.958 347.825 296.29C347.825 283.238 349.733 273.045 353.549 265.713C357.364 258.382 364.596 254.718 375.244 254.718C380.89 255.092 385.27 256.02 388.389 257.495C391.508 258.972 393.522 260.142 394.438 261.002L394.438 327.952ZM369.872 204.987C387.403 206.844 393.178 215.094 393.384 219.425L394.438 246.493C386.597 242.571 377.013 240.612 365.688 240.612C357.419 240.935 350.371 242.288 344.545 244.679C338.718 247.067 333.752 252.381 329.646 260.621C325.541 268.858 323.488 280.979 323.488 296.976C323.917 313.508 326.546 325.816 331.38 333.895C336.211 341.974 341.673 347.021 347.768 349.035C353.861 351.046 360.829 352.055 368.667 352.055C373.014 351.839 377 351.114 380.625 349.876C384.248 348.639 387.483 347.266 390.332 345.761C393.878 343.877 393.522 347.276 393.522 346.406L394.438 351.436L425.169 351.436L425.169 225.71C423.084 203.543 414.421 190.344 382.247 185.806C370.603 184.164 354.948 185.141 347.184 186.631C338.106 188.373 329.034 191.168 312.534 195.706C312.534 195.706 280.909 205.33 247.359 206.431C213.809 207.531 158.81 189.931 158.81 189.931C158.81 189.931 197.309 220.731 243.509 219.631C289.709 218.53 316.041 210.762 316.041 210.762C330.065 207.875 336.282 205.421 343.472 204.781C352.753 203.956 360.791 204.025 369.872 204.987Z" stroke-miterlimit="4" stroke="#221e1f" stroke-linejoin="miter" fill="none" stroke-linecap="butt" id="path69" />
        <path d="M440.629 351.436h30.731v-109.931h-30.731ZM456.197 395.573C461.679 395.573 465.965 393.855 469.059 390.423C472.149 386.991 473.696 382.889 473.696 378.116C473.696 373.237 472.124 369.054 468.979 365.567C465.833 362.08 461.463 360.34 455.872 360.34C450.496 360.34 446.22 362.096 443.049 365.609C439.878 369.122 438.292 373.182 438.292 377.797C438.292 382.515 439.878 386.656 443.049 390.224C446.22 393.788 450.603 395.573 456.197 395.573" fill-rule="nonzero" stroke="none" fill="#fad107" id="path71" />
        <path stroke-width="5" d="M440.629 241.505L440.629 351.436L471.36 351.436L471.36 241.505L440.629 241.505ZM456.197 395.573C461.679 395.573 465.965 393.855 469.059 390.423C472.149 386.991 473.696 382.889 473.696 378.116C473.696 373.237 472.124 369.054 468.979 365.567C465.833 362.08 461.463 360.34 455.872 360.34C450.496 360.34 446.22 362.096 443.049 365.609C439.878 369.122 438.292 373.182 438.292 377.797C438.292 382.515 439.878 386.656 443.049 390.224C446.22 393.788 450.603 395.573 456.197 395.573Z" stroke-miterlimit="4" stroke="#221e1f" stroke-linejoin="miter" fill="none" stroke-linecap="butt" id="path73" />
        <path d="M157.04 300.148L140.163 363.609L113.88 299.36ZM102.941 277.668C94.436 257.083 96.629 256.416 66.876 207.588C43.687 169.531 12.51 142.629 12.51 142.629C40.149 181.204 40.671 178.861 56.38 211.284C79.609 259.23 140.163 448.299 140.163 448.299L212.75 240.955L177.81 240.955L164.288 277.668Z" fill-rule="nonzero" stroke="none" fill="#ea1d24" id="path75" />
        <path stroke-width="5" d="M157.04 300.148L140.163 363.609L113.88 299.36L157.04 300.148ZM102.941 277.668C94.436 257.083 96.629 256.416 66.876 207.588C43.687 169.531 12.51 142.629 12.51 142.629C40.149 181.204 40.671 178.861 56.38 211.284C79.609 259.23 140.163 448.299 140.163 448.299L212.75 240.955L177.81 240.955L164.288 277.668L102.941 277.668Z" stroke-miterlimit="4" stroke="#221e1f" stroke-linejoin="miter" fill="none" stroke-linecap="butt" id="path77" />
      </g>
      <g clip-path="url(#id6)" id="g79">
        <g clip-path="url(#id7)" id="g81">
          <g transform="matrix(0 -26.3999023 -26.3999023 0 534.5791016 333.480957)" id="g83">
            <path d="M12.631901 20.249283L-9.916516 20.249283L-9.916516 -11.640607L12.631901 -11.640607Z" fill="url(#id8)" id="path85" />
          </g>
        </g>
        <path stroke-width="5" d="M517.653 325.869C517.653 321.625 521.417 318.441 528.949 316.32C536.48 314.196 544.211 312.208 552.146 310.355C560.08 308.499 566.953 305.382 572.771 301.006C578.584 296.626 581.626 289.843 581.897 280.655C581.897 267.22 578.288 257.574 571.072 251.719C563.856 245.86 553.383 242.425 539.651 241.403C537.931 241.19 535.301 241.081 531.762 241.081C522.43 241.081 514.383 241.822 507.621 243.298C500.86 244.777 496.168 246.002 493.538 246.972L489.274 266.176C491.688 264.51 496.116 262.415 502.562 259.892C509.004 257.365 516.761 256.05 525.836 255.943C535.497 255.943 542.062 257.407 545.522 260.336C548.984 263.266 550.799 267.849 550.96 274.084C550.96 281.287 548.529 286.043 543.67 288.357C538.811 290.668 530.947 292.898 520.077 295.048C509.203 297.197 501.018 300.288 495.514 304.319C490.01 308.351 487.261 315.447 487.261 325.608C488.066 343.291 502.017 352.752 529.113 353.99C530.025 353.99 531.285 354.042 532.896 354.151C534.505 354.257 535.658 354.312 536.357 354.312C546.174 354.312 554.089 353.609 560.099 352.211C566.109 350.809 570.189 349.649 572.335 348.734L577.56 330.871C575.468 332.211 571.365 333.864 565.255 335.824C559.146 337.783 550.863 338.766 540.408 338.766C533.332 338.766 527.812 337.944 523.844 336.307C519.877 334.667 517.814 331.187 517.653 325.869Z" stroke-miterlimit="4" stroke="#415880" stroke-linejoin="miter" fill="none" stroke-linecap="butt" id="path87" />
        <g clip-path="url(#id9)" id="g89">
          <g transform="matrix(0 -26.3999634 -26.3999634 0 640.6074219 333.480957)" id="g91">
            <path d="M12.631872 24.265466L-9.916493 24.265466L-9.916493 -7.624351L12.631872 -7.624351Z" fill="url(#id8)" id="path93" />
          </g>
        </g>
        <path stroke-width="5" d="M623.901 273.756C623.901 269.186 625.577 265.399 628.935 262.389C632.293 259.379 636.44 257.877 641.384 257.877C649.547 258.09 655.374 260.023 658.867 263.678C662.357 267.333 664.452 270.368 665.151 272.789L665.151 352.662L688.251 352.662L688.251 242.73L665.151 242.73L665.151 252.963C663.057 251.174 658.522 248.954 651.548 246.299C644.574 243.643 634.945 242.318 622.66 242.318C613.537 242.641 606.306 245.409 600.969 250.626C595.632 255.841 592.964 263.208 592.964 272.728L592.964 352.662L623.901 352.662L623.901 273.756Z" stroke-miterlimit="4" stroke="#415880" stroke-linejoin="miter" fill="none" stroke-linecap="butt" id="path95" />
        <g clip-path="url(#id10)" id="g97">
          <g transform="matrix(0 -26.3999481 -26.3999481 0 753.59375 333.480957)" id="g99">
            <path d="M12.631879 28.545274L-9.916498 28.545274L-9.916498 -3.344561L12.631879 -3.344561Z" fill="url(#id8)" id="path101" />
          </g>
        </g>
        <path stroke-width="5" d="M733.794 266.176C733.794 265.477 735.554 263.933 739.075 261.542C742.595 259.15 746.774 257.716 751.611 257.232C761.985 257.232 769.311 260.791 773.584 267.906C777.857 275.021 779.994 285.995 779.994 300.819C779.994 313.172 778.15 322.637 774.47 329.217C770.786 335.798 763.517 339.088 752.659 339.088C746.64 338.656 741.989 337.664 738.712 336.107C735.431 334.547 733.794 333.449 733.794 332.804L733.794 266.176ZM702.856 396.593L733.794 396.593L733.794 347.709C741.193 351.421 750.629 353.281 762.104 353.281C769.878 353.281 776.784 352.098 782.816 349.736C788.85 347.371 793.941 342.256 798.099 334.39C802.253 326.52 804.331 315.231 804.331 300.516C804.331 284.674 802.134 272.453 797.744 263.862C793.352 255.271 787.796 249.524 781.076 246.624C774.354 243.724 766.846 242.222 758.547 242.112C751.234 242.112 745.576 243.021 741.573 244.842C737.567 246.659 734.974 248.158 733.794 249.337L733.794 242.73L702.856 242.73L702.856 396.593Z" stroke-miterlimit="4" stroke="#415880" stroke-linejoin="miter" fill="none" stroke-linecap="butt" id="path103" />
      </g>
    </g>
  </g>
</svg>