/* XPM */
static char *appico_xpm[] = {
/* columns rows colors chars-per-pixel */
"32 32 254 2",
"   c black",
".  c #121508",
"X  c #1E1913",
"o  c #222200",
"O  c #252817",
"+  c #313117",
"@  c #15152A",
"#  c #2A002A",
"$  c #3F003F",
"%  c #3F1F3F",
"&  c #332023",
"*  c #26392C",
"=  c #333223",
"-  c #322E36",
";  c #2C3939",
":  c #4D313F",
">  c #55383E",
",  c #555500",
"<  c #464F2B",
"1  c #54542A",
"2  c #4D4E3F",
"3  c #575937",
"4  c #5E672D",
"5  c #6D7029",
"6  c #362B56",
"7  c #363571",
"8  c #4C355F",
"9  c #583B55",
"0  c #443579",
"q  c #3C4575",
"w  c #4A4757",
"e  c #644D5D",
"r  c #6A5D5A",
"t  c #50624A",
"y  c #626448",
"u  c #626D51",
"i  c #787A55",
"p  c #554875",
"a  c #67537A",
"s  c #70517F",
"d  c #756C60",
"f  c #7F7C65",
"g  c #626D75",
"h  c #637479",
"j  c #AB713F",
"k  c #AF7D4C",
"l  c #8F7662",
"z  c #9C7277",
"x  c #E76F5B",
"c  c #81992A",
"v  c #D3B80F",
"b  c #EFBE0F",
"n  c #C1A821",
"m  c #F5CE11",
"M  c #DDCC22",
"N  c #90805C",
"B  c #97A447",
"V  c #8BBB4C",
"C  c #91B648",
"Z  c #99AA55",
"A  c #91BB5D",
"S  c #A5B859",
"D  c #8B8F65",
"F  c #959469",
"G  c #878B7D",
"H  c #989970",
"J  c #AB956B",
"K  c #BABC6D",
"L  c #ACA977",
"P  c #B8B376",
"I  c #C7814B",
"U  c #EB8D50",
"Y  c #DB8A69",
"T  c #DAA87A",
"R  c #A0C64B",
"E  c #BEC254",
"W  c #A9D058",
"Q  c #AEC96B",
"!  c #AAD071",
"~  c #D1D647",
"^  c #DBDF5C",
"/  c #CCE252",
"(  c #D8ED5F",
")  c #E5EC56",
"_  c #E2F35A",
"`  c #FEFE59",
"'  c #CECF6F",
"]  c #C6D460",
"[  c #D7DC65",
"{  c #CFD47E",
"}  c #D5D879",
"|  c #CAE365",
" . c #D3EB6C",
".. c #D0EA72",
"X. c #E3E864",
"o. c #EBF268",
"O. c #FDFD66",
"+. c #E3E976",
"@. c #E8F376",
"#. c #FDFD74",
"$. c #3B3D8E",
"%. c #3B3CA8",
"&. c #413DB3",
"*. c #554887",
"=. c #405587",
"-. c #494197",
";. c #544894",
":. c #5E5896",
">. c #654F9C",
",. c #655A9B",
"<. c #785E98",
"1. c #577494",
"2. c #67718D",
"3. c #78778A",
"4. c #65639A",
"5. c #756499",
"6. c #667F99",
"7. c #73769E",
"8. c #4C4BB1",
"9. c #6E5CA1",
"0. c #745DA2",
"q. c #615AB9",
"w. c #6B66A8",
"e. c #7B65A7",
"r. c #797BA3",
"t. c #6B66B7",
"y. c #7565B2",
"u. c #7A7BB5",
"i. c #4443C6",
"p. c #6E63CC",
"a. c #796BC6",
"s. c #7673C2",
"d. c #6B64D8",
"f. c #766DD7",
"g. c #7C74D6",
"h. c #7C74E0",
"j. c #816CAF",
"k. c #8964B8",
"l. c #867AB6",
"z. c #8479D8",
"x. c #917BD3",
"c. c #887BE7",
"v. c #917BE8",
"b. c #8D79F4",
"n. c #987CF9",
"m. c #6481A1",
"M. c #7B83B8",
"N. c #868289",
"B. c #979D80",
"V. c #888695",
"C. c #8C929A",
"Z. c #9A9898",
"A. c #A69898",
"S. c #98BF95",
"D. c #B3AE8E",
"F. c #B7B98C",
"G. c #ACAB96",
"H. c #B6B792",
"J. c #8A88A8",
"K. c #9285AA",
"L. c #9996A3",
"P. c #8480BE",
"I. c #978EBC",
"U. c #9E9DBA",
"Y. c #A39BB6",
"T. c #93B8B1",
"R. c #A8A0A6",
"E. c #B3A9AF",
"W. c #B4B0A4",
"Q. c #A8A6B6",
"!. c #B3AFBF",
"~. c #B9B6B6",
"^. c #D3AC80",
"/. c #DABC98",
"(. c #E1AC82",
"). c #FFBB89",
"_. c #E9BD91",
"`. c #C5B7A7",
"'. c #BEC18C",
"]. c #A6C19D",
"[. c #98C6B1",
"{. c #A4C7AA",
"}. c #C8C385",
"|. c #D1D28E",
" X c #C7C998",
".X c #CCD59C",
"XX c #FFC18C",
"oX c #E9C994",
"OX c #F4C890",
"+X c #E9D198",
"@X c #FFD698",
"#X c #DAE082",
"$X c #D8ED9A",
"%X c #FFE19F",
"&X c #F0F09E",
"*X c #D5CEA3",
"=X c #D9D9A5",
"-X c #C7C3B8",
";X c #D4C8BB",
":X c #DCD8B8",
">X c #EBCAA2",
",X c #FADBA1",
"<X c #DDE1A9",
"1X c #E6E5AC",
"2X c #FCE6A8",
"3X c #FFF3AE",
"4X c #E8E7B6",
"5X c #F5EAB2",
"6X c #FDFAB9",
"7X c #9789CB",
"8X c #9D96CC",
"9X c #8D85D7",
"0X c #9889D4",
"qX c #9790DB",
"wX c #AA9BC8",
"eX c #A496D7",
"rX c #ABA5C4",
"tX c #B4A5C8",
"yX c #B2B5C7",
"uX c #B4ABD7",
"iX c #8D83EB",
"pX c #9686E9",
"aX c #9B92E9",
"sX c #8B82F2",
"dX c #9886F4",
"fX c #9C90F8",
"gX c #A38FE7",
"hX c #A899E9",
"jX c #A38CFE",
"kX c #A593FE",
"lX c #B19BFF",
"zX c #AFBBE0",
"xX c #ACA6F7",
"cX c #B5ABFE",
"vX c #BAB2FE",
"bX c #A9D8C4",
"nX c #D3CFC5",
"mX c #CED9CB",
"MX c #DAD7C6",
"NX c #CCC6D5",
"BX c #EAECC5",
"VX c #F0ECC4",
"CX c #ECF1CD",
"ZX c #FEFEC6",
"AX c #FFFED0",
"SX c #C4C7EF",
"DX c #C9C1FF",
"FX c #D0CCFE",
"GX c #D8D8FE",
"HX c #CEE0E3",
"JX c #DCF1E9",
"KX c #E0E0E7",
"LX c #E5E3FF",
"PX c #F9FBFB",
/* pixels */
"                    | @.#.o.S w.a.s.u.Z ( |                     ",
"                Q  .#.#.#.#.' 7Xn.dX9X} O.o.W                   ",
"              ..+.#.#.#.#.#.#.K tX7X} #.O.O.[ C.M.6.            ",
"             .@.#.#.#.#.#.#.#.) #.[ O.O.O.O.O.W.aXz.2.          ",
"          R o.#.#.#.O.O.#.O.X.[ ^ o.O.O.` ` ` [ kXkXpXu.        ",
"          _ O.O.O.O.O.O.O.O.A.7Xr D.O.` ` ` ` O.I.kXkXpXM.      ",
"        / O.O.O.O.O.O.} A.l.n.k.z v.L O.` ` ` ` F.kXjXkXdXu.    ",
"        ~ O.O.O.O.[ R.0Xb.n.pXA.;XpX5.}.` ` ` ` } aXkXkXkXl.    ",
"      5 O.O.o.} V.hXlXkXa.dXwX4X:XpXJ.0X} ` ` ` [ eXcXvXxXGXf   ",
"    1 E ` @.CXKXzXDXkXaXa.v.MX4X4XeXL.eXeX#X` ` ) rXvXLXHXPXmX, ",
"    {.$XBXPXGXxXdXjXdXU.c.tX4X6XZXwXQ.~.jXgX{ ` ` G.kXkXaXGXNXd ",
"    JXPXFXcXkXc.jXdXeXR.g.nX=XZXZXE.Q.*Xx.kXeX}.` K kXkXpXkXqX5.",
"  h SXaXdXdXjXb.jXv.;XV.8XZX=XZXZX:XL.ZXZ.pXjXkXG.] 0XkXz.kXkXe.",
"@ qXiXpXc.kXdXdXb.l.5XY.!.ZX=XZXZXZXG 6X:XP.dXkXpX8XpXkXz.kXkXe.",
"*.z.g.fXc.kXdXdXpXMXZXN.ZX6X1XZXZXZX X=XZX-XpXdXsXkXkXkXz.kXkX<.",
"e.pX;.kXz.kXdXdXhXBXZXB.ZX6X4XZXZXZX1X4XZXZXrXkXc.kXkXkXz.kXkX5.",
"5.9.0.kXc.kXiXpXyXZXZX4XZXZX6X6XZXZXZX6XZXZXBXrXz.kXkXkXz.kXkX<.",
"4.,.y.kXc.kXc.z.MXZXZX5X6XZXZX6XZXZXZX6X6XZXZX4Xz.kXkXkXg.kXkX<.",
"5.# z.kXiXkXh.t.ZX=XF D F.ZX6X6X6X6X6X}.P |.ZX=XkXjXkXjXf.kXpX0.",
"w   pXkXdXdXd.r.H =     3 2X2X@X@X2X}.+ . O i G.kXkXkXdXf.kXx.s ",
"  $ dXkXs.pXq.G O 2  XZX6X%XXX).).).OXoXL y X   kXkXkXc.f.kXx.: ",
"  $ dXkX3.uXP. X X5X6XZX6X2X@X@X@X,X,X3XZXZX'.w kXkXkXg.h.kXe.  ",
"    pXj.3.~.Q.=X6X6X6X6XZX6X6X6X6X6X6XZX6X6X5XwXkXkXdXp.c.kX8   ",
"    z.<.0.7.Z. X5X2X2X6XZXZX,XT (.^.ZXZX6X3X+XeXkXkXiXq.sXz.%   ",
"    ,.5.>.i.%.7 ,X,X,X6XZXZXoXx x Y ZXZX6X@X_.eXkXkXg.q.h.w.    ",
"    p 9 ;.i.&.0 l >X2X6XZXZX6XoX_.5XZXZX6X2X/.0XkXc.t.q.t.9X    ",
"    &   *.i.&.0 6 6 K.-XVXAXZXZXZXZXZXZX4X`.:.z.kX8.8.p e 5.    ",
"        -.i.%.9 6 6 &.8.w.V. XZXZX2XG.J.w.8.8.c.iX8.-.a > 9     ",
"        7 %.7   X X 7 %.=.T.N I I j 1.1.$.7 8.c.t.%.6 -         ",
"        ; $.B v c c t m.[.[.J U U k [.T.u H.Z.7Xg q t o         ",
"          * v m m +.! [.bX[.k U U J ].4X<XZXAX X4 <             ",
"        C V v m m &X$XA [.bXk U J {.S..X5X1XZXZXn b M           "
};
