/* XPM */
static char *l__xpm[] = {
/* columns rows colors chars-per-pixel */
"16 15 3 1",
"  c gray20",
". c #12120000FFFF",
"X c None",
/* pixels */
"XX.XXXXXXXXXXXXX",
"XX.XXXXXXXXXXXXX",
".....XXXXXXXXXXX",
"XX.XXXXXXXXXXXXX",
"XX.XX  XXXXXXXXX",
"XXXXX  XXXXXXXXX",
"XXXXX  XXXXXXXXX",
"XXXXX  XXXXXXXXX",
"XXXXX  XXXXXXXXX",
"XXXXX  XXXXXXXXX",
"XXXXX  XXXXXXXXX",
"XXXXX  XXXXXXXXX",
"XXXXX       XXXX",
"XXXXX       XXXX",
"XXXXXXXXXXXXXXXX"
};
