/* XPM */
static char *n__xpm[] = {
/* columns rows colors chars-per-pixel */
"16 15 3 1",
"  c gray20",
". c #12120000FFFF",
"X c None",
/* pixels */
"XX.XXXXXXXXXXXXX",
"XX.XXXXXXXXXXXXX",
".....XXXXXXXXXXX",
"XX.XXXXXXXXXXXXX",
"XX.XX  XXXX  XXX",
"XXXXX   XXX  XXX",
"XXXXX    XX  XXX",
"XXXXX    XX  XXX",
"XXXXX  X  X  XXX",
"XXXXX  X  X  XXX",
"XXXXX  XX    XXX",
"XXXXX  XX    XXX",
"XXXXX  XXX   XXX",
"XXXXX  XXXX  XXX",
"XXXXXXXXXXXXXXXX"
};
