/* XPM */
static char *nut__xpm[] = {
/* columns rows colors chars-per-pixel */
"16 15 55 1",
"  c #7F7F00000000",
". c #000013137F7F",
"X c #030315157F7F",
"o c #6C6C41416060",
"O c #808007070707",
"+ c #808009090909",
"@ c #838313131313",
"# c #848412121212",
"$ c #868618181818",
"% c #88881D1D1D1D",
"& c #88881E1E1E1E",
"* c #8A8A24242424",
"= c #8E8E30303030",
"- c #92923C3C3C3C",
"; c #949442424242",
": c #969648484848",
"> c #98984E4E4E4E",
", c #9A9A54545454",
"< c #9D9D5A5A5A5A",
"1 c #A1A165656565",
"2 c #A3A36B6B6B6B",
"3 c #A5A56F6F6F6F",
"4 c #A5A571717171",
"5 c #A7A777777777",
"6 c #A9A97D7D7D7D",
"7 c #0A0A1C1C8181",
"8 c #0C0C1C1C8080",
"9 c #0D0D1F1F8282",
"0 c #151525258484",
"q c #151525258585",
"w c #171728288686",
"e c #1F1F2F2F8888",
"r c #242432328A8A",
"t c #2A2A38388C8C",
"y c #2D2D3B3B8D8D",
"u c #61616A6A9F9F",
"i c #64646C6CA0A0",
"p c #74747C7CA6A6",
"a c #77777E7EA7A7",
"s c #AFAF8F8F8F8F",
"d c #B3B39B9B9B9B",
"f c #83838989ABAB",
"g c #89898E8EADAD",
"h c #8D8D9292AEAE",
"j c #8F8F9494AFAF",
"k c #9B9B9F9FB3B3",
"l c #B5B5A1A1A1A1",
"z c #B7B7A7A7A7A7",
"x c #B9B9ADADADAD",
"c c #A7A7A9A9B7B7",
"v c #BBBBB3B3B3B3",
"b c #B3B3B4B4BBBB",
"n c #BDBDB9B9B9B9",
"m c #B9B9BABABDBD",
"M c None",
/* pixels */
"#         @nMMMM",
" MMMMebMMM:5MMMM",
" MMMc9.MMMs=MMMM",
" ......pMMM#xMMM",
" h........0<1MMM",
" Mc......tkd*MMM",
" MMuX....bMM&lMM",
" MMy.....jMM1<MM",
" MM......rMMx#MM",
"+>d7.MM...fMM=sM",
"z4*$,dMMa.wmM5:M",
"MMMz2*$,dgqiMv#n",
"MMMMMMz2*$o8MM;6",
"MMMMMMMMMz2*$,3-",
"MMMMMMMMMMMMz2%O"
};
