/* XPM */
const char *add_xpm[] = {
/* columns rows colors chars-per-pixel */
"16 15 3 1",
"  c black",
". c #99999999FFFF",
"X c None",
/* pixels */
"XXXXX      XXXXX",
"XXXXX .... XXXXX",
"XXXXX .... XXXXX",
"XXXXX .... XXXXX",
"X     ....     X",
"X ............ X",
"X ............ X",
"X ............ X",
"X ............ X",
"X     ....     X",
"XXXXX .... XXXXX",
"XXXXX .... XXXXX",
"XXXXX .... XXXXX",
"XXXXX      XXXXX",
"XXXXXXXXXXXXXXXX"
};
