/* XPM */
const char *arr__xpm[] = {
/* columns rows colors chars-per-pixel */
"16 15 43 1",
"  c black",
". c gray1",
"X c gray2",
"o c gray9",
"O c #282828282828",
"+ c #2A2A2A2A2A2A",
"@ c #3A3A3A3A3A3A",
"# c #3C3C3C3C3C3C",
"$ c #494949494949",
"% c gray35",
"& c #747473737373",
"* c #777777777777",
"= c #888887878787",
"- c #8F8F8E8E8E8E",
"; c gray60",
": c #9D9D9D9D9D9D",
"> c #A2A29F9F9F9F",
", c #B6B6B6B6B6B6",
"< c gray74",
"1 c #C5C5C5C5C5C5",
"2 c #C9C9C9C9CACA",
"3 c gray80",
"4 c #CDCDCDCDCDCD",
"5 c #CECECECECECE",
"6 c #D0D0D0D0D0D0",
"7 c #D1D1D1D1D0D0",
"8 c gray82",
"9 c gray83",
"0 c #D7D7D7D7D6D6",
"q c #D7D7D7D7D7D7",
"w c gainsboro",
"e c #DFDFDFDFDFDF",
"r c #E2E2E2E2E2E2",
"t c gray90",
"y c #E6E6E6E6E6E6",
"u c #EAEAEAEAEAEA",
"i c #ECECECECECEC",
"p c gray93",
"a c #F2F2F3F3F2F2",
"s c #F9F9F9F9F9F9",
"d c gray99",
"f c gray100",
"g c None",
/* pixels */
"ggggyggggggggggg",
"gggg-9gggggggggg",
"gggg- 8ggggggggg",
"gggg-0 5gggggggg",
"gggg-f,#5ggggggg",
"gggg-fs* 5gggggg",
"gggg-dp,* 4ggggg",
"gggg-ae2>* 5gggg",
"gggg-t7X    uggg",
"gggg-0% X193gggg",
"gggg-$<@ &gggggg",
"gggg-6w: oqggggg",
"ggggiggrO =ggggg",
"gggggggw;.+pgggg",
"ggggggggt +ugggg"
};
