/* XPM */
const char *delcross_xpm[] = {
/* columns rows colors chars-per-pixel */
"16 15 85 1",
"  c #3F3F14141818",
". c #4C4C19192121",
"X c #656522222626",
"o c #797927272C2C",
"O c #6E6E24243333",
"+ c #82822A2A2D2D",
"@ c #919130303434",
"# c #949431313535",
"$ c #979732323434",
"% c #979732323B3B",
"& c #9E9E35353D3D",
"* c #9E9E34343F3F",
"= c #A0A036363939",
"- c #A5A538383C3C",
"; c #A7A73A3A3E3E",
": c #ACAC3B3B3E3E",
"> c #B5B53D3D3D3D",
", c #9E9E34344848",
"< c #A5A539394242",
"1 c #AEAE3D3D4040",
"2 c #A3A337374D4D",
"3 c #B7B73F3F4343",
"4 c #B3B33F3F4747",
"5 c #B5B53F3F4545",
"6 c #B3B33C3C5353",
"7 c #B1B13D3D5454",
"8 c #B3B33C3C5656",
"9 c #B5B53D3D5959",
"0 c #B7B740404141",
"q c #BDBD42424545",
"w c #B7B741414848",
"e c #B3B340405C5C",
"r c #BFBF45455E5E",
"t c #C3C345454C4C",
"y c #D0D04B4B5252",
"u c #C9C948486666",
"i c #CFCF4B4B6868",
"p c #D0D04C4C6A6A",
"a c #D2D24C4C6C6C",
"s c #E4E457577575",
"d c #E2E258587676",
"f c #E7E75B5B7979",
"g c #EAEA5B5B7A7A",
"h c #E8E85C5C7979",
"j c #EAEA5C5C7A7A",
"k c #F1F160607B7B",
"l c #F1F162627F7F",
"z c #F4F464648080",
"x c #F6F666668080",
"c c #F5F564648282",
"v c #F7F766668585",
"b c #FAFA69698484",
"n c #FFFF6D6D8686",
"m c #FCFC6B6B8888",
"M c #FFFF6D6D8989",
"N c #FFFF6F6F8B8B",
"B c #FFFF71718989",
"V c #FFFF74748F8F",
"C c #FFFF83839B9B",
"Z c #FFFF89899B9B",
"A c #FFFF89899D9D",
"S c #FFFF8D8DA2A2",
"D c #FFFF9393A5A5",
"F c #FFFF9595A6A6",
"G c #FFFF9E9EA7A7",
"H c #FFFFA6A6ABAB",
"J c #FFFFA5A5B1B1",
"K c #FFFFAFAFB1B1",
"L c #FFFFADADB4B4",
"P c #FFFFB0B0B2B2",
"I c #FFFFB0B0B9B9",
"U c #FFFFB5B5B8B8",
"Y c #FFFFB4B4BCBC",
"T c #FFFFBBBBBBBB",
"R c #FFFFBCBCBBBB",
"E c #FFFFB8B8BDBD",
"W c #FFFFC0C0BEBE",
"Q c #FFFFC0C0C2C2",
"! c #FFFFC4C4C2C2",
"~ c #FFFFC3C3C4C4",
"^ c #FFFFC4C4C7C7",
"/ c #FFFFC7C7C6C6",
"( c #FFFFC7C7C7C7",
") c #FFFFCCCCC9C9",
"_ c None",
/* pixels */
"_^jY____________",
"_DqtJ________S__",
"_Fh;5C_____Iym__",
"__Eg10l___c4V___",
"____Aw3vQN>M____",
"_____~p-&<d_____",
"______L%:7______",
"_____(9@#=6_____",
"____/8+sUa$Z____",
"___)eXi___z*/___",
"___fO2T____rx___",
"__G.oB_____W,!__",
"__n uR______bK__",
"__PkH___________",
"________________"
};
