/* XPM */
static char *del__xpm[] = {
/* columns rows colors chars-per-pixel */
"16 15 69 1",
"  c black",
". c #0C0C0C0C0C0C",
"X c gray5",
"o c gray9",
"O c #191919191919",
"+ c gray11",
"@ c #262625252424",
"# c #313131313131",
"$ c #323232323232",
"% c #353534343232",
"& c #373735353333",
"* c #373737373737",
"= c #383838383737",
"- c #3E3E3E3E3E3E",
"; c #414141414141",
": c #575755555252",
"> c #555555555555",
", c #5D5D5A5A5757",
"< c gray35",
"1 c gray36",
"2 c #646464646464",
"3 c gray42",
"4 c #70706E6E6A6A",
"5 c #71716F6F6B6B",
"6 c #818181818181",
"7 c #868686868686",
"8 c #878787878686",
"9 c #888888888787",
"0 c #8F8F8C8C8787",
"q c gray55",
"w c #8F8F8E8E8D8D",
"e c #979793938D8D",
"r c gray57",
"t c #969695959292",
"y c gray59",
"u c #9F9F9F9F9F9F",
"i c #A3A39F9F9999",
"p c #A0A0A0A0A0A0",
"a c gray64",
"s c #AAAAA6A6A0A0",
"d c #AEAEACACA7A7",
"f c #A9A9A9A9A9A9",
"g c #B1B1AEAEA7A7",
"h c #B3B3B0B0A9A9",
"j c #B7B7B4B4ADAD",
"k c #B9B9B7B7B1B1",
"l c #BEBEBBBBB5B5",
"z c #BCBCBCBCBCBC",
"x c #C2C2BFBFB8B8",
"c c #C3C3C0C0B8B8",
"v c #C3C3C0C0B9B9",
"b c #C7C7C3C3BBBB",
"n c #C6C6C3C3BCBC",
"m c gray78",
"M c #CBCBC8C8C0C0",
"N c #CFCFCBCBC4C4",
"B c #C8C8C8C8C8C8",
"V c gray80",
"C c #D2D2CECEC6C6",
"Z c #D3D3CFCFC7C7",
"A c #D0D0D0D0D0D0",
"S c LightGray",
"D c gray86",
"F c #DDDDDDDDDDDD",
"G c gray90",
"H c gray93",
"J c #F4F4F4F4F4F4",
"K c #F6F6F6F6F6F6",
"L c None",
/* pixels */
"LLLLN*LLLLLLLLLL",
"LLLLk=0LLLLLLLLL",
"LLLZt &LLLLLLLLL",
"LLLv9<-iLLLLLLLL",
"LLZtB1p%LL     L",
"LLlyH1F$eLLLLLLL",
"LCwAH1Ff@cLLLLLL",
"LdaJHuFS>5LLLLLL",
"n8KJH FSm+sLLLLL",
"LrqJHDFS3:xLLLLL",
"Lb#DHGFzohLLLLLL",
"LL46HGF2,LLLLLLL",
"LLgOHGF LLLLLLLL",
"LLX..X...LLLLLLL",
"LLM;V7.XjLLLLLLL"
};
