/* XPM */
const char *m__xpm[] = {
/* columns rows colors chars-per-pixel */
"16 15 3 1",
"  c gray20",
". c #12120000FFFF",
"X c None",
/* pixels */
"XX.XXXXXXXXXXXXX",
"XX.XXXXXXXXXXXXX",
".....XXXXXXXXXXX",
"XX.XXXXXXXXXXXXX",
"XX.XXXXXXXXXXXXX",
"XXXXX   XXX   XX",
"XXXXX   XXX   XX",
"XXXXX    X    XX",
"XXXXX    X    XX",
"XXXXX  X X X  XX",
"XXXXX  X X X  XX",
"XXXXX  X   X  XX",
"XXXXX  X   X  XX",
"XXXXX  XX XX  XX",
"XXXXXXXXXXXXXXXX"
};
