/* XPM */
static char *new__xpm[] = {
/* columns rows colors chars-per-pixel */
"16 15 64 1",
"  c black",
". c gray10",
"X c #373737373737",
"o c #434343434343",
"O c #464646464646",
"+ c #484848484848",
"@ c #525251515050",
"# c #565656565656",
"$ c #595958585353",
"% c #5F5F5F5F5F5F",
"& c #606060606060",
"* c gray38",
"= c #676767676767",
"- c DimGray",
"; c #6A6A6A6A6A6A",
": c #6E6E6D6D6A6A",
"> c gray43",
", c #6F6F6F6F6F6F",
"< c gray44",
"1 c #767676767676",
"2 c #797979797979",
"3 c #7C7C7C7C7C7C",
"4 c #7F7F7F7F7F7F",
"5 c #818181818181",
"6 c #8D8D8D8D8D8D",
"7 c #8E8E8E8E8E8E",
"8 c #939393939393",
"9 c gray58",
"0 c #959595959595",
"q c gray59",
"w c gray60",
"e c #9A9A9A9A9A9A",
"r c #A4A4A1A19696",
"t c #A8A8A6A69C9C",
"y c #A7A7A7A7A7A7",
"u c gray66",
"i c #B1B1AFAFA5A5",
"p c #B3B3B1B1A8A8",
"a c #BDBDBBBBAFAF",
"s c gray70",
"d c #CDCDCACABCBC",
"f c #C8C8C8C8C8C8",
"g c #CACACACACACA",
"h c #CDCDCDCDCDCD",
"j c gray81",
"k c gray83",
"l c #D5D5D5D5D5D5",
"z c #D7D7D7D7D7D7",
"x c #D8D8D8D8D8D8",
"c c gray86",
"v c #DFDFDFDFDFDF",
"b c #E7E7E4E4D3D3",
"n c #E4E4E4E4E4E4",
"m c #E7E7E7E7E7E7",
"M c gray91",
"N c gray92",
"B c #EEEEEEEEEEEE",
"V c #EFEFEFEFEFEF",
"C c #F1F1F1F1F1F1",
"Z c gray95",
"A c #F3F3F3F3F3F3",
"S c #F6F6F6F6F6F6",
"D c gray100",
"F c None",
/* pixels */
"FFFFFFFFFFFFFFFF",
"FFFFFFFFFFFFFFFF",
"FFFFFFFa@-------",
"FFFFFFaOZBnzhf,;",
"FFFFFaOZCmcjf<0$",
"FFFFaOZANvkf<y=t",
"FFFaOZABnzg<e3:d",
"FFaOZACmch#ewXiF",
"Fa>9755>%+2q.rFF",
"b;sxxxklf*6.rFFF",
"p8SSSSSSu4.rFFFF",
"1MDDDDDV&.rFFFFF",
"ooooooo+ rFFFFFF",
"FFFFFFFFFFFFFFFF",
"FFFFFFFFFFFFFFFF"
};
