/* XPM */
static char *pan_both_xpm[] = {
/* columns rows colors chars-per-pixel */
"24 15 76 1",
"  c #1B1B22225353",
". c #0D0D0D0D6767",
"X c #0F0F14146161",
"o c #111115156464",
"O c #121219196262",
"+ c #131313136969",
"@ c #131314146C6C",
"# c #111115156F6F",
"$ c #19191A1A6E6E",
"% c #1E1E1E1E6F6F",
"& c #1D1D21217878",
"* c #232330306262",
"= c #282837376262",
"- c #2A2A2A2A7575",
"; c #3C3C3C3C7E7E",
": c #36364A4A6464",
"> c #606060606060",
", c #C1C14B4B2B2B",
"< c #CFCF55553636",
"1 c #CBCB75752424",
"2 c #BABA6D6D6666",
"3 c #CCCC69695656",
"4 c #C9C973736666",
"5 c #FFFF7F7F7F7F",
"6 c #EDEDA0A04C4C",
"7 c #EFEFA5A54F4F",
"8 c #484848488484",
"9 c #5A5A5A5A8E8E",
"0 c #45454B4B9696",
"q c #5F5F5F5F9090",
"w c #656565659292",
"e c #777777779B9B",
"r c #7E7E7E7E9F9F",
"t c #B2B20000FFFF",
"y c #7D7D89899E9E",
"u c #7B7B8888B1B1",
"i c #83838383A1A1",
"p c #89899999AFAF",
"a c #8A8A9A9AAEAE",
"s c #9B9B9B9BADAD",
"d c #9696A3A3B4B4",
"f c #A1A1A1A1B0B0",
"g c #A7A7A7A7B3B3",
"h c #B9B9B9B9BCBC",
"j c #D3D396968D8D",
"k c #D2D297978D8D",
"l c #DDDDA5A59B9B",
"z c #E8E8C3C39393",
"x c #9090A5A5C3C3",
"c c #9191A5A5C3C3",
"v c #9191A5A5C4C4",
"b c #9292A6A6C5C5",
"n c #9292A7A7C5C5",
"m c #9191A5A5C6C6",
"M c #9393A7A7C6C6",
"N c #9393A7A7C7C7",
"B c #9898AAAAC5C5",
"V c #9595A8A8CFCF",
"C c #AAAAB3B3D4D4",
"Z c #D4D4C3C3D0D0",
"A c #C0C0CACAE3E3",
"S c #CDCDDADAE9E9",
"D c #D2D2D8D8E2E2",
"F c #D6D6DCDCE6E6",
"G c #E1E1E5E5ECEC",
"H c #F2F2E2E2E2E2",
"J c #F5F5E5E5E2E2",
"K c #F1F1E9E9ECEC",
"L c #EBEBEFEFFBFB",
"P c #EFEFF5F5F9F9",
"I c #F1F1F4F4FAFA",
"U c #F2F2F5F5FCFC",
"Y c #FAFAFBFBFEFE",
"T c #FDFDFEFEFEFE",
"R c gray100",
"E c None",
/* pixels */
"EEEEE>EEEEEmMMNMMcccBEEE",
"EEEEE>EEEEEMRTRIJljK:EEE",
"EEEEE>EEEEEbRRIIkz72:EEE",
"EEEEE>EEEEEMRRPP461,:EEE",
"E>>>>>>>>>EnRRFSH3<Z:EEE",
"E>EEE>555>EbRDpyu$@0*EEE",
"E>EEE>555>EvGaUCott O%sE",
"E>EEE>555>EvdYA&tttttt-f",
"E>EEE>555>ExLV#tttttttt+",
"E>>>>>>>>>Ec::=Xttttttw9",
"E>EEEEEEE>EEEEEe8ttttt-h",
"E>EEEEEEE>EEEEEE9wttt-sE",
"E>EEEEEEE>EEEEEEE;itqqEE",
"E>EEEEEEE>EEEEEEEh-r-hEE",
"E>>>>>>>>>EEEEEEEEg.fEEE"
};
