/* XPM */
static char *pan_shape_xpm[] = {
/* columns rows colors chars-per-pixel */
"30 15 42 1",
"  c black",
". c #010101010101",
"X c #070707070707",
"o c #0C0C0C0C0C0C",
"O c #484848484848",
"+ c #FFFF00006E6E",
"@ c #121223238585",
"# c #141424248585",
"$ c #181829298787",
"% c #1D1D2E2E8989",
"& c #1E1E2E2E8989",
"* c #2A2A39398D8D",
"= c #30303E3E8F8F",
"- c #363644449191",
"; c #3A3A48489292",
": c #3C3C49499393",
"> c #42424E4E9595",
", c #484854549797",
"< c #4E4E59599999",
"1 c #5A5A64649D9D",
"2 c #66666F6FA2A2",
"3 c #78787F7FA8A8",
"4 c #39395050D3D3",
"5 c #3C3C5252D4D4",
"6 c #3F3F5555D5D5",
"7 c #42425858D6D6",
"8 c #45455A5AD7D7",
"9 c #47475C5CD7D7",
"0 c #4B4B6060D9D9",
"q c #54546868DCDC",
"w c #5A5A6D6DDEDE",
"e c #5D5D7070DFDF",
"r c #60607373E0E0",
"t c #84848A8AACAC",
"y c #8A8A8F8FAEAE",
"u c #90909595B0B0",
"i c #A2A2A5A5B6B6",
"p c #A8A8AAAAB8B8",
"a c #AEAEB0B0BABA",
"s c #B4B4B5B5BCBC",
"d c #BABABBBBBEBE",
"f c None",
/* pixels */
"ffffOfffffffffffffffffffffffff",
"ffff fffffffffffffffffffffffff",
"ffff fffffffffffffffu%3fffffff",
"ffff fffffffffffffi:=9,$3fffff",
"X       .fffffffa<&7rrrq,$3fff",
" fff +++ fffffd2&4rrrrrrrq,$3f",
" fff +++ fffft&1wrrrrrrrrrrq,=",
" fff +++ fff#;qrrrrrrrrrrrrr5,",
" fff +++ fff>6rrrrrrrrrrrq1@,p",
"         fffy-rrrrrrrrr8:$2aff",
" fffffff fffd@wrrrrre4&-tfffff",
" fffffff ffff,5rrrq1@<ifffffff",
" fffffff ffffy-r0:$2sfffffffff",
" fffffff ffffd&=*tffffffffffff",
"o       offfffffffffffffffffff"
};
