/* XPM */
static char *pan_bg_xpm[] = {
/* columns rows colors chars-per-pixel */
"24 15 66 1",
"  c #2A2A35354D4D",
". c #2C2C38384B4B",
"X c #36364A4A6464",
"o c #474757576E6E",
"O c #4D4D5C5C7272",
"+ c #5E5E66667171",
"@ c #606060606060",
"# c #C1C14B4B2B2B",
"$ c #CFCF55553636",
"% c #CBCB75752424",
"& c #BABA6D6D6666",
"* c #CCCC69695656",
"= c #C9C973736666",
"- c #FFFF7F7F7F7F",
"; c #EDEDA0A04C4C",
": c #EFEFA5A54F4F",
"> c #585866668585",
", c #646475759696",
"< c #7D7D89899E9E",
"1 c #72728383A7A7",
"2 c #80808A8A9D9D",
"3 c #86868E8E9D9D",
"4 c #89899999AFAF",
"5 c #8A8A9A9AAEAE",
"6 c #81819292BABA",
"7 c #9696A3A3B4B4",
"8 c #9D9DA7A7BBBB",
"9 c #A3A3ABABBABA",
"0 c #D3D396968D8D",
"q c #D2D297978D8D",
"w c #DDDDA5A59B9B",
"e c #E8E8C3C39393",
"r c #83839999C7C7",
"t c #9090A5A5C3C3",
"y c #9191A5A5C3C3",
"u c #9191A5A5C4C4",
"i c #9292A6A6C5C5",
"p c #9292A7A7C5C5",
"a c #9191A5A5C6C6",
"s c #9393A7A7C6C6",
"d c #9393A7A7C7C7",
"f c #9898A8A8C5C5",
"g c #9898AAAAC5C5",
"h c #9797A7A7C9C9",
"j c #9595A8A8CFCF",
"k c #9B9BB1B1DFDF",
"l c #AAAAB4B4C7C7",
"z c #D4D4C3C3D0D0",
"x c #CDCDDADAE9E9",
"c c #D2D2D8D8E2E2",
"v c #D6D6DCDCE6E6",
"b c #C8C8DADAFDFD",
"n c #D2D2DDDDF0F0",
"m c #D5D5DFDFF1F1",
"M c #E1E1E5E5ECEC",
"N c #F2F2E2E2E2E2",
"B c #F5F5E5E5E2E2",
"V c #F1F1E9E9ECEC",
"C c #EBEBEFEFFBFB",
"Z c #EFEFF5F5F9F9",
"A c #F1F1F4F4FAFA",
"S c #F2F2F5F5FCFC",
"D c #FAFAFBFBFEFE",
"F c #FDFDFEFEFEFE",
"G c gray100",
"H c None",
/* pixels */
"HHHHH@HHHHHHHHHHHHHHHHHH",
"HHHHH@HHHHHHHHHHHHHHHHHH",
"HHHHH@HHHHHHHHHHHHHHHHHH",
"HHHHH@HHHHHHassdssyyygHH",
"H@@@@@@@@@HHsGFGABw0VXHH",
"H@HHH@---@HHiGGAAqe:&XHH",
"H@HHH@---@HHsGGZZ=;%#XHH",
"H@HHH@---@HHpGGvxN*$zXHH",
"H@HHH@---@HHiGc4<f98bXHH",
"H@@@@@@@@@HHuM5Sno23 XHH",
"H@HHHHHHH@HHu7DmkhOl+XHH",
"H@HHHHHHH@HHtCjr61,>.XHH",
"H@HHHHHHH@HHyXXXXXXXXXHH",
"H@HHHHHHH@HHHHHHHHHHHHHH",
"H@@@@@@@@@HHHHHHHHHHHHHH"
};
