/* XPM */
const char *pan_shp_xpm[] = {
/* columns rows colors chars-per-pixel */
"24 15 36 1",
"  c #0D0D0D0D6767",
". c #131313136969",
"X c #181818186C6C",
"o c #1A1A1A1A6E6E",
"O c #1E1E1E1E6F6F",
"+ c #242424247272",
"@ c #2A2A2A2A7575",
"# c #303030307878",
"$ c #363636367B7B",
"% c #3C3C3C3C7E7E",
"& c #606060606060",
"* c #FFFF7F7F7F7F",
"= c #424242428181",
"- c #484848488484",
"; c #5A5A5A5A8E8E",
": c #5F5F5F5F9090",
"> c #656565659292",
", c #777777779B9B",
"< c #7D7D7D7D9E9E",
"1 c #7E7E7E7E9F9F",
"2 c #A1A14949D3D3",
"3 c #A6A64D4DD6D6",
"4 c #A9A95050D7D7",
"5 c #AAAA5151D8D8",
"6 c #ACAC5353D9D9",
"7 c #AFAF5656DADA",
"8 c #B5B55C5CDDDD",
"9 c #B8B85F5FDFDF",
"0 c #83838383A1A1",
"q c #8F8F8F8FA7A7",
"w c #9B9B9B9BADAD",
"e c #A1A1A1A1B0B0",
"r c #A7A7A7A7B3B3",
"t c #ADADADADB6B6",
"y c #B9B9B9B9BCBC",
"u c None",
/* pixels */
"uuuuu&uuuuuuuuuuuuuuuuuu",
"uuuuu&uuuuuuuuuuuuuuuuuu",
"uuuuu&uuuuuuuuuuuuuuuuuu",
"uuuuu&uuuuuuuuwOX=<uuuuu",
"u&&&&&&&&&uuuw#46<=Owuuu",
"u&uuu&***&uut+799994@euu",
"u&uuu&***&uuo29999995.uu",
"u&uuu&***&uuq$899999>;uu",
"u&uuu&***&uuu,-99993@yuu",
"u&&&&&&&&&uuuu;>998@wuuu",
"u&uuuuuuu&uuuuu%09::uuuu",
"u&uuuuuuu&uuuuuy@1@yuuuu",
"u&uuuuuuu&uuuuuur euuuuu",
"u&uuuuuuu&uuuuuuuuuuuuuu",
"u&&&&&&&&&uuuuuuuuuuuuuu"
};
