/* XPM */
const char *preview__xpm[] = {
/* columns rows colors chars-per-pixel */
"16 15 79 1",
"  c gray20",
". c #353535353535",
"X c gray21",
"o c gray22",
"O c gray23",
"+ c #3C3C3C3C3C3C",
"@ c #3E3E3E3E3E3E",
"# c #3F3F3F3F3F3F",
"$ c gray25",
"% c #414141414141",
"& c gray26",
"* c #434343434343",
"= c gray27",
"- c #464646464646",
"; c #484848484848",
": c #494949494949",
"> c gray29",
", c #4B4B4B4B4B4B",
"< c #4C4C4C4C4C4C",
"1 c gray30",
"2 c #505050505050",
"3 c gray32",
"4 c gray33",
"5 c #555555555555",
"6 c #565656565656",
"7 c gray34",
"8 c gray35",
"9 c #5A5A5A5A5A5A",
"0 c #5B5B5B5B5B5B",
"q c #5D5D5D5D5D5D",
"w c #676767676767",
"e c #6D6D6D6D6D6D",
"r c gray43",
"t c #6F6F6F6F6F6F",
"y c gray44",
"u c #727272727272",
"i c gray46",
"p c #777777777777",
"a c gray47",
"s c #7B7B7B7B7B7B",
"d c gray49",
"f c #7E7E7E7E7E7E",
"g c #808080808080",
"h c #848484848484",
"j c #898989898989",
"k c gray54",
"l c #8B8B8B8B8B8B",
"z c gray55",
"x c #8D8D8D8D8D8D",
"c c #909090909090",
"v c gray57",
"b c gray58",
"n c gray59",
"m c #979797979797",
"M c #9A9A9A9A9A9A",
"N c #9B9B9B9B9B9B",
"B c #9D9D9D9D9D9D",
"V c #9F9F9F9F9F9F",
"C c #A0A0A0A0A0A0",
"Z c gray63",
"A c gray64",
"S c #A4A4A4A4A4A4",
"D c #A5A5A5A5A5A5",
"F c gray65",
"G c #A7A7A7A7A7A7",
"H c #A9A9A9A9A9A9",
"J c gray67",
"K c #ACACACACACAC",
"L c gray68",
"P c #AEAEAEAEAEAE",
"I c #B4B4B4B4B4B4",
"U c gray71",
"Y c #B9B9B9B9B9B9",
"T c gray73",
"R c #BBBBBBBBBBBB",
"E c gray74",
"W c gray",
"Q c gray75",
"! c None",
/* pixels */
"!!!!!!!!d.6Q!!!!",
"!!!!!!!coI4j!!!!",
"!!!r,51%P!zq!E!!",
"!!B*DCAW!!F@a$&S",
"!!V:!!!!!!QguJk6",
"!!!-m!!!!!!!!!k0",
"!!!st!!!!!!!!sXG",
"!!Y+n!!!!!!l*5K!",
"!R=f!!!!!!x#N!!!",
"!5t!!!!!!!wp!!!!",
"N+!!!!!!!!HoM!!!",
"8l!!!y5t!!!ZO!!!",
"3n!!99G2h!!b<!!!",
"vOAe>!!L RU.B!!!",
"!h>7T!!!i;=f!!!!"
};
