/* XPM */
const char *rot__xpm[] = {
/* columns rows colors chars-per-pixel */
"16 15 81 1",
"  c #62625858C4C4",
". c #62625959C4C4",
"X c #64645A5AC4C4",
"o c #65655B5BC4C4",
"O c #65655B5BC5C5",
"+ c #66665C5CC4C4",
"@ c #66665D5DC5C5",
"# c #67675D5DC5C5",
"$ c #67675E5EC5C5",
"% c #68685E5EC5C5",
"& c #69695F5FC5C5",
"* c #69696060C6C6",
"= c #6A6A6161C6C6",
"- c #6E6E6565C7C7",
"; c #6F6F6767C7C7",
": c #73736A6AC7C7",
"> c #77776E6EC7C7",
", c #73736A6AC8C8",
"< c #73736B6BC8C8",
"1 c #74746B6BC8C8",
"2 c #76766D6DC8C8",
"3 c #7D7D7474C9C9",
"4 c #7E7E7575C9C9",
"5 c #7E7E7676C9C9",
"6 c #7E7E7676CBCB",
"7 c #7F7F7676CBCB",
"8 c #80807777CACA",
"9 c #81817878CBCB",
"0 c #81817979CDCD",
"q c #82827A7ACCCC",
"w c #87877F7FCCCC",
"e c #88887F7FCCCC",
"r c #88888080CDCD",
"t c #8E8E8686CDCD",
"y c #91918989CFCF",
"u c #93938A8ACECE",
"i c #92928A8ACFCF",
"p c #96968E8ECECE",
"a c #92928B8BD0D0",
"s c #A1A19999D0D0",
"d c #A3A39B9BD3D3",
"f c #A4A49D9DD3D3",
"g c #A5A59E9ED2D2",
"h c #A7A79F9FD3D3",
"j c #A3A39D9DD4D4",
"k c #A4A49D9DD4D4",
"l c #A6A69E9ED5D5",
"z c #A7A7A0A0D4D4",
"x c #ABABA4A4D2D2",
"c c #A8A8A1A1D5D5",
"v c #A9A9A2A2D4D4",
"b c #AAAAA3A3D7D7",
"n c #A7A7A0A0D8D8",
"m c #B1B1ABABD5D5",
"M c #B7B7B0B0D7D7",
"N c #BABAB3B3D7D7",
"B c #BBBBB5B5D5D5",
"V c #BFBFB9B9D6D6",
"C c #BFBFBABAD9D9",
"Z c #C3C3BDBDDADA",
"A c #C2C2BDBDDEDE",
"S c #C4C4BFBFDCDC",
"D c #C5C5C0C0DCDC",
"F c #C7C7C2C2DEDE",
"G c #C8C8C2C2DADA",
"H c #CACAC5C5D8D8",
"J c #C9C9C4C4DADA",
"K c #CBCBC6C6DBDB",
"L c #CCCCC7C7DFDF",
"P c #D1D1CCCCDCDC",
"I c #D4D4CFCFDEDE",
"U c #D6D6D1D1DDDD",
"Y c #D0D0CACAE1E1",
"T c #D2D2CCCCE1E1",
"R c #D4D4CFCFE0E0",
"E c #D3D3CECEE4E4",
"W c #D6D6D1D1E1E1",
"Q c #D8D8D3D3E1E1",
"! c #D8D8D2D2E3E3",
"~ c #DBDBD7D7E5E5",
"^ c None",
/* pixels */
"^^^^^^^^^^^^^^^^",
"^^En0&+^^^^^^^^^",
"^A9O   ~^^^^^^^^",
"TqO7bY^^^^^^!^^^",
"c*6L^^^^^^^WkF^^",
"rOl^^^^^^^Wj<aF^",
"1 S^^^^^^Rd,$=iD",
"1 Q^^^^^^z;@@@$y",
"1 Z^^^^^^^I1Xv^^",
"wOf^^^^^^^M-2C^^",
"g&3G^^^^^Ut#u^^^",
"K8O3hJ^Pme#:N^^^",
"^B4O  .   :x^^^^",
"^^Hs5%oo>pV^^^^^",
"^^^^^^^^^^^^^^^^"
};
