/* XPM */
const char *s__xpm[] = {
/* columns rows colors chars-per-pixel */
"16 15 3 1",
"  c gray20",
". c #12120000FFFF",
"X c None",
/* pixels */
"XX.XXXXXXXXXXXXX",
"XX.XXXXXXXXXXXXX",
".....XXXXXXXXXXX",
"XX.XXXXXXXXXXXXX",
"XX.XXX     XXXXX",
"XXXXX       XXXX",
"XXXXX  XXX  XXXX",
"XXXXX  XXXXXXXXX",
"XXXXX      XXXXX",
"XXXXXX      XXXX",
"XXXXXXXXXX  XXXX",
"XXXXX  XXX  XXXX",
"XXXXX       XXXX",
"XXXXXX     XXXXX",
"XXXXXXXXXXXXXXXX"
};
