/* XPM */
const char *sc_rot__xpm[] = {
/* columns rows colors chars-per-pixel */
"16 15 119 2",
"   c #212126264747",
".  c #2B2B2B2B4848",
"X  c #363636364D4D",
"o  c #3B3B3B3B5C5C",
"O  c #141425256565",
"+  c #0B0B27277D7D",
"@  c #282828286262",
"#  c #373737376060",
"$  c #363636366363",
"%  c #323232327878",
"&  c #3C3C4C4C5858",
"*  c #35354F4F6161",
"=  c #2F2F56567373",
"-  c #303055557070",
";  c #404040405454",
":  c #41414F4F5959",
">  c #505050505050",
",  c #505050505959",
"<  c #585858585858",
"1  c #434343437F7F",
"2  c #4B4B4B4B7979",
"3  c #6F6F6F6F7676",
"4  c #686868687D7D",
"5  c gray44",
"6  c gray47",
"7  c #7C7C7C7C7C7C",
"8  c #0B0B27279C9C",
"9  c #202020208C8C",
"0  c #16161C1CA0A0",
"q  c #00003737A0A0",
"w  c #00003737ACAC",
"e  c #0B0B2727BBBB",
"r  c #00003737B9B9",
"t  c #22222222A2A2",
"y  c #25252525A5A5",
"u  c #28282828A8A8",
"i  c #2F2F2F2FAFAF",
"p  c #35353535A2A2",
"a  c #37373737B7B7",
"s  c #3B3B3B3BBBBB",
"d  c #3E3E3E3EBEBE",
"f  c #181843438585",
"g  c #28285F5F8888",
"h  c #1F1F67679E9E",
"j  c #202062629595",
"k  c #242465659494",
"l  c #222267679A9A",
"z  c #222268689A9A",
"x  c #00004747B0B0",
"c  c #00005050B9B9",
"v  c #16167777BDBD",
"b  c #20206A6AA0A0",
"n  c #4B4B4B4B8686",
"m  c #474747478888",
"M  c #474747478D8D",
"N  c #474747478F8F",
"B  c #525252528D8D",
"V  c #474747479393",
"C  c #414141419595",
"Z  c #474747479494",
"A  c #474747479595",
"S  c #474747479A9A",
"D  c #474747479B9B",
"F  c #474747479C9C",
"G  c #5E5E5E5E9090",
"H  c #5E5E5E5E9292",
"J  c #696969698080",
"K  c #606060608A8A",
"L  c #6A6A6A6A9898",
"P  c #797979799696",
"I  c #757575759D9D",
"U  c #767676769E9E",
"Y  c #47474747A0A0",
"T  c #47474747A1A1",
"R  c #47474747A3A3",
"E  c #44444444A5A5",
"W  c #47474747A6A6",
"Q  c #47474747A7A7",
"!  c #47474747ACAC",
"~  c #47474747AEAE",
"^  c #47474747AFAF",
"/  c #47474747B4B4",
"(  c #47474747B9B9",
")  c #47474747BABA",
"_  c #00003737C5C5",
"`  c #00003737CCCC",
"'  c #00003737D2D2",
"]  c #00003737D8D8",
"[  c #00003737DFDF",
"{  c #00005A5AC3C3",
"}  c #00006C6CD6D6",
"|  c #00007F7FE9E9",
" . c #47474747C0C0",
".. c #47474747C1C1",
"X. c #44444444C4C4",
"o. c #46464646C6C6",
"O. c #47474747C6C6",
"+. c #47474747C7C7",
"@. c #00009191FCFC",
"#. c #00009494FFFF",
"$. c #909090909090",
"%. c #80808080A2A2",
"&. c #82828282A3A3",
"*. c #8C8C8C8CA8A8",
"=. c #8F8F8F8FA9A9",
"-. c #98989898ADAD",
";. c #99999999AEAE",
":. c #A4A4A4A4A4A4",
">. c gray66",
",. c #ACACACACACAC",
"<. c #A3A3A3A3B2B2",
"1. c #A4A4A4A4B3B3",
"2. c #A7A7A7A7B4B4",
"3. c #B0B0B0B0B8B8",
"4. c #B1B1B1B1B9B9",
"5. c #BCBCBCBCBDBD",
"6. c #BCBCBCBCBEBE",
"7. c gray75",
"8. c None",
/* pixels */
": * = g j b b : 7 >.8.8.8.8.8.8.",
"k v z -   O c f 4 , > 6 >.8.8.8.",
"b #.#.@.q ] ` 8 D N n 2 o ; 3 ,.",
"b #.#.| w [ [ e +.+. ./ W C % . ",
"b #.#.} r [ [ e +.+.+.+.+.+.) G ",
"b #.#.{ _ [ [ e +.+.+.+.+.+.~ I ",
"b #.#.x ' [ [ e +.+.+.+.+.+.T *.",
"& l h + e e e 0 X.+.+.+.+.+.Z 1.",
"$.5 <.A +.+.+.d t o.+.+.+.O.m 6.",
"8.< P R +.+.+.+.a u +.+.+.( H 8.",
"8.:.# ^ +.+.+.+.+.i i +.+.! U 8.",
"8.8.$ p +.+.+.+.+.+.u a +.Y =.8.",
"8.5.J @ M S Q / ..+.o.y s V 2.8.",
"8.8.8.8.4.;.&.L B N F E 9 1 7.8.",
"8.8.8.8.8.8.8.8.8.3.-.%.K X 8.8."
};
