/* XPM */
static char *transform_xpm[] = {
/* columns rows colors chars-per-pixel */
"224 56 3 1",
"  c black",
". c red",
"X c gray100",
/* pixels */
"................................................................................................................................................................................................................................",
".XXXXXXXXXXXXXXXXXXXXXXXXXXXXXXXXXXXXXXXXXXXXXXXXXXXXXXXXXXXXXXXXXXXXXXXXXXXXXXXXXXXXXXXXXXXXXXXXXXXXXXXXXXXXXXXXXXXXXXXXXXXXXXXXXXXXXXXXXXXXXXXXXXXXXXXXXXXXXXXXXXXXXXXXXXXXXXXXXXXXXXXXXXXXXXXXXXXXXXXXXXXXXXXXXXXXXXXXXXXXXX.",
".XXXXXXXXXXXXXXXXXXXXXXXXXXXXXXXXXXXXXXXXXXXXXXXXXXXXXXXXXXXXXXXXXXXXXXXXXXXXXXXXXXXXXXXXXXXXXXXXXXXXXXXXXXXXXXXXXXXXXXXXXXXXXXXXXXXXXXXXXXXXXXXXXXXXXXXXXXXXXXXXXXXXXXXXXXXXXXXXXXXXXXXXXXXXXXXXXXXXXXXXXXXXXXXXXXXXXXXXXXXXXX.",
".XXXXXXXXXXXXXXXXXXXXXXXXXXXXXXXXXXXXXXXXXXXXXXXXXXXXXXXXXXXXXXXXXXXXXXXXXXXXXXXXXXXXXXXXXXXXXXXXXXXXXXXXXXXXXXXXXXXXXXXXXXXXXXXXXXXXXXXXXXXXXXXXXXXXXXXXXXXXXXXXXXXXXXXXXXXXXXXXXXXXXXXXXXXXXXXXXXXXXXXXXXXXXXXXXXXXXXXXXXXXXX.",
".XXXXXXXXXXXXXXXXXXXXXXXXXXXXXXXXXXXXXXXXXXXXXXXXXXXXXXXXXXXXXXXXXXXXXXXXXXXXXXXXXXXXXXXXXXXXXXXXXXXXXXXXXXXXXXXXXXXXXXXXXXXXXXXXXXXXXXXXXXXXXXXXXXXXXXXXXXXXXXXXXXXXXXXXXXXXXXXXXXXXXXXXXXXXXXXXXXXXXXXXXXXXXXXXXXXXXXXXXXXXXX.",
".XXXXXXXXXXXXXXXXXXXXXXXXXXXXXXXXXXXXXXXXXXXXXXXXXXXXXXXXXXXXXXXXXXXXXXXXXXXXXXXXXXXXXXXXXXXXXXXXXXXXXXXXXXXXXXXXXXXXXXXXXXXXXXXXXXXXXXXXXXXXXXXXXXXXXXXXXXXXXXXXXXXXXXXXXXXXXXXXXXXXXXXXXXXXXXXXXXXXXXXXXXXXXXXXXXXXXXXXXXXXXX.",
".XXXXXXXXXXXXXXXXXXXXXXXXXXXXXXXXXXXXXXXXXXXXXXXXXXXXXXXXXXXXXXXXXXXXXXXXXXXXXXXXXXXXXXXXXXXXXXXXXXXXXXXXXXXXXXXXXXXXXXXXXXXXXXXXXXXXXXXXXXXXXXXXXXXXXXXXXXXXXXXXXXXXXXXXXXXXXXXXXXXXXXXXXXXXXXXXXXXXXXXXXXXXXXXXXXXXXXXXXXXXXX.",
".XXXXX    XXXXXXXXXX    XXXXXXXXXXXXXXX    XXXXXXXXXXXXXXXXXXXXXXXXXXXXXXXXXXXXXXXXXXXXXXXXXXXXXXXXXXXXXXXXXXXXXXXXX    XX    XXXXXXXXXXXXXXXXXXXXXXXXXXXXXXXXXXXXXXXXXXXXXXXXXX    XXXXXXXXXXXXX    XXXXXXXXXXXXXXXXX    XXXXX.",
".XXXXX    XXXXXXXXXX    XXXXXXXXXXXXXXX    XXXXXXXXXXXXXXXXXXXXXXXXXXXXXXXXXXXXXXXXXXXXXXXXXXXXXXXXXXXXXXXXXXXXXXXXX    XX    XXXXXXXXXXXXXXXXXXXXXXXXXXXXXXXXXXXXXXXXXXXXXXXXXX    XXXXXXXXXXXXX    XXXXXXXXXXXXXXXXX    XXXXX.",
".XXXXX    XXXXXXXXXX    XXXXXXXXXXXXXXX    XXXXXXXXXXXXXXXXXXXXXXXXXXXXXXXXXXXXXXXXXXXXXXXXXXXXXXXXXXXXXXXXXXXXXXXXX    XX    XXXXXXXXXXXXXXXXXXXXXXXXXXXXXXXXXXXXXXXXXXXXXXXXXX    XXXXXXXXXXXXX    XXXXXXXXXXXXXXXXX    XXXXX.",
".XXXXX XXXXXXXXXXXXXXX  XXXXXXXXXXXXXXX XXXXXXXXXXXXXXXXXXXXXXXXXXXXXXXXXXXXXXXXXXXXXXXXXXXXXXXXXXXXXXXXXXXXXXXXXXXXXX  XX XXXXXXXXXXXXXXXXXXXXXXXXXXXXXXXXXXXXXXXXXXXXXXXXXXXXXXX  XXXXXXXXXXXXX XXXXXXXXXXXXXXXXXXXXXX  XXXXX.",
".XXXXX XXXXXXXXXXXXXXX  XXXXXXXXXXXXXXX XXXXXXXXXXXXXXXXXXXXXXXXXXXXXXXXXXXXXXXXXXXXXXXXXXXXXXXXXXXXXXXXXXXXXXXXXXXXXX  XX XXXXXXXXXXXXXXXXXXXXXXXXXXXXXXXXXXXXXXXXXXXXXXXXXXXXXXX  XXXXXXXXXXXXX XXXXXXXXXXXXXXXXXXXXXX  XXXXX.",
".XXXXX XXXXXXXXXXXXXXX  XXXXXXXXXXXXXXX XXXXXXXXXXXXXXXXXXXXXXXXXXXXXXXXXXXXXXXXXXXXXXXXXXXXXXXXXXXXXXXXXXXXXXXXXXXXXX  XX XXXXXX XXXXXXXXXXXXXXXXXXXXXXXXXXXXXXXXXXXXXXXXX XXXXXX  XXXXXXXXXXXXX XXXXXXXXXXXXXXXXXXXXXX  XXXXX.",
".XXXXX XXXXXXXXXXXXXXX  XXXXXXXXXXXXXXX XXXXXXXXXXXXXXXXXXXX XXXXXXX XXXXXXXXXXXXXXXXXXXXXXXXXXXXXXXXX XXXXX   XXXXXXX  XX XXXXXXXXXXXXXXXXXXXXXXXXXXXXXXXXXXXXXXXXXXXXXXXXXXXXXXX  XXXXXXXXXXXXX XXXXXXXXXXXXXXXXXXXXXX  XXXXX.",
".XXXXX XXXXXXXXXXXXXXX  XXXXXXXXXXXXXXX XXXXXXXXXXXXXXXXXX   XXXXX   XXXXXXXXXXXXXXXXXXXXXXXXXXXXXXX   XXXX XXX XXXXXX  XX XXXXX XXXXXXXXXXXXXXXXXXXXXXXXXXXXXXXXXXXXXXXXXXX XXXXX  XXXXXXXXXXXXX XXXXXXXXXXXXXXXXXXXXXX  XXXXX.",
".XXXXX XXXXXXXXXXXXXXX  XXXXXXXXXXXXXXX XXXXXXXXXXXXXXXXXXXX XXXXXXX XXXXXXXXXXXXXXXXXXXXXXXXXXXXXXXXX XXXX XXXX XXXXX  XX XXXXXXXXXXXXXXXXXXXXXXXXXXXXXXXXXXXXXXXXXXXXXXXXX XXXXX  XXXXXXXXXXXXX XXXXXXXXXXXXXXXXXXXXXX  XXXXX.",
".XXXXX XXXXXXXXXXXXXXX  XXXXXXXXXXXXXXX XXXXXXXXXXXXXXXXXXXX XXXXXXX XXXXXXXXXXXXXXXXXXXXXXXXXXXXXXXXX XXXXXXXXX XXXXX  XX XXXX XXXXXXXXXXXXXXXXXXXXXXXXXXXXXXXXXXXXXXXXXXXXX XXXX  XXXXXXXXXXXXX XXXXXXXXXXXXXXXXXXXXXX  XXXXX.",
".XXXXX XXXX   X   XXXX  XXXXXXXXXXXXXXX XXXXXX X  XX  XXXXXX XXXXXXX XXXXXXXXXXXXXXXXXXX X  XX  XXXXXX XXXXXXXXX XXXXX  XX XXXX XXXX   X   XXXXXXXXXXXXXX X  XX  XX   X   XXX XXXX  XXXXXXXXXXXXX XXXXX X  XX   X   XXXX  XXXXX.",
".XXXXX XXXXX XXX XXXXX  XXXXXXXXXXXXXXX XXXXX   XX  XX XXXXX XXXXXXX XXXXXXXXXXXXXXXXXX   XX  XX XXXXX XXXXXXXX XXXXXX  XX XXXX XXXXX XXX XXXXXXXXXXXXXX   XX  XX XX XXX XXXX XXXX  XXXXXXXXXXXXX XXXX   XX XX XXX XXXXX  XXXXX.",
".XXXXX XXXXXX X XXXXXX  XXXXXXXXXXXXXXX XXXXXX XXX XXX XXXXX XXXXXXX XXXXXXXXXXXXXXXXXXX XXX XXX XXXXX XXXXXXX XXXXXXX  XX XXXX XXXXXX X XXXX         XXX XXX XXX XXX X XXXXX XXXX  XXXXXXXXXXXXX XXXXX XXX XXX X XXXXXX  XXXXX.",
".XXXXX XXXXXXX XXXXXXX  XXXXXXXXXXXXXXX XXXXXX XXX XXX XXXXX XXXXXXX XXXXXXXXXXXXXXXXXXX XXX XXX XXXXX XXXXXX XXXXXXXX  XX XXXX XXXXXXX XXXXXXXXXXXXXXXXX XXX XXX XXXX XXXXXX XXXX  XXXXXXXXXXXXX XXXXX XXX XXXX XXXXXXX  XXXXX.",
".XXXXX XXXXXX X XXXXXX  XXXXXXXXXXXXXXX XXXXXX XXX XXX XXXXX XXXXXXX XXXXXXXXXXXXXXXXXXX XXX XXX XXXXX XXXXX XXXXXXXXX  XX XXXX XXXXXX X XXXXXXXXXXXXXXXX XXX XXX XXX X XXXXX XXXX  XXXXXXXXXXXXX XXXXX XXX XXX X XXXXXX  XXXXX.",
".XXXXX XXXXX XXX XXXXX  XXXXXXXXXXXXXXX XXXXXX XXX XXX XXXXX XXXXXXX XXXXXXXXXXXXXXXXXXX XXX XXX XXXXX XXXX XXXX XXXXX  XX XXXXXXXXXX XXX XXXXXXXXXXXXXXX XXX XXX XX XXX XXXXXXXXX  XXXXXXXXXXXXX XXXXX XXX XX XXX XXXXX  XXXXX.",
".XXXXX XXXX   X   XXXX  XXXXXXXXXXXXXXX XXXXX   X   X   XXX   XXXXX   XXXXXXXXXXXXXXXXX   X   X   XXX   XXX      XXXXX  XX XXXXX XXX   X   XXXXXXXXXXXXX   X   X      X   XX XXXXX  XXXXXXXXXXXXX XXXX   X      X   XXXX  XXXXX.",
".XXXXX XXXXXXXXXXXXXXX  XXXXXXXXXXXXXXX XXXXXXXXXXXXXXXXXXXXXXXXXXXXXXXXXXXXXXXXXXXXXXXXXXXXXXXXXXXXXXXXXXXXXXXXXXXXXX  XX XXXXX XXXXXXXXXXXXXXXXXXXXXXXXXXXXXXXXXXXXXXXXXXX XXXXX  XXXXXX XXXXXX XXXXXXXXXXXXXXXXXXXXXX  XXXXX.",
".XXXXX XXXXXXXXXXXXXXX  XXXXX XXXXXXXXX XXXXXXXXXXXXXXXXXXXXXXXXXXXXXXXXXXXXXXXXXXXXXXXXXXXXXXXXXXXXXXXXXXXXXXXXXXXXXX  XX XXXXXXXXXXXXXXXXXXXXXXXXXXXXXXXXXXXXXXXXXXXXXXXXXXXXXXX  XXXXXX XXXXXX XXXXXXXXXXXXXXXXXXXXXX  XXXXX.",
".XXXXX XXXXXXXXXXXXXXX  XXXX XXXXXXXXXX XXXXXXXXXXXXXXXXXXXXXXXXXXXXXXXXXXXXXXXXXXXXXXXXXXXXXXXXXXXXXXXXXXXXXXXXXXXXXX  XX XXXXXX XXXXXXXXXXXXXXXXXXXXXXXXXXXXXXXXXXXXXXXXX XXXXXX  XXXXXX XXXXXX XXXXXXXXXXXXXXXXXXXXXX  XXXXX.",
".XXXXX XXXXXXXXXXXXXXX  XXX          XX XXXXXXXXXXXXXXXXXXXXXXXXXXXXXXXXXXXXXXXXXXXXXXXXXXXXXXXXXXXXXXXXXXXXXXXXXXXXXX  XX XXXXXXXXXXXXXXXXXXXXXXXXXXXXXXXXXXXXXXXXXXXXXXXXXXXXXXX  XXXXXX XXXXXX XXXXXXXXXXXXXXXXXXXXXX  XXXXX.",
".XXXXX XXXXXXXXXXXXXXX  XX XXXXXXXXXXXX XXXXXXXXXXXXXXXXXXXXXXXXXXXXXXXXXXXXXXXXXXXXXXXXXXXXXXXXXXXXXXXXXXXXXXXXXXXXXX  XX XXXXXXXXXXXXXXXXXXXXXXXXXXXXXXXXXXXXXXXXXXXXXXXXXXXXXXX  XX         XX XXXXXXXXXXXXXXXXXXXXXX  XXXXX.",
".XXXXX XXXXXXXXXXXXXXX  XXX          XX XXXXXXXXXXXXXXXXXXXXXXXXXXXXXXXXXXXXXXXXXXXXXXXXXXXXXXXXXXXXXXXXXXXXXXXXXXXXXX  XX XXXXXXXXXXXXXXXXXXXXXXXXXXXXXXXXXXXXXXXXXXXXXXXXXXXXXXX  XXXXXX XXXXXX XXXXXXXXXXXXXXXXXXXXXX  XXXXX.",
".XXXXX XXXXXXXXXXXXXXX  XXXX XXXXXXXXXX XXXXXXXXXXXXXXXXXXXXXXXXXXXXXXXXXXXXXXXXXXXXXXXXXXXXXXXXXXXXXXXXXXXXXXXXXXXXXX  XX XXXXXXXXXXXXXXXXXXXXXXXXXXXXXXXXXXXXXXXXXXXXXXXXXXXXXXX  XXXXXX XXXXXX XXXXXXXXXXXXXXXXXXXXXX  XXXXX.",
".XXXXX XXXXXXXXXXXXXXX  XXXXX XXXXXXXXX XXXXXXXXXXXXXXXXXXXXXXXXXXXXXXXXXXXXXXXXXXXXXXXXXXXXXXXXXXXXXXXXXXXXXXXXXXXXXX  XX XXXXXXXXXXXXXXXXXXXXXXXXXXXXXXXXXXXXXXXXXXXXXXXXXXXXXXX  XXXXXX XXXXXX XXXXXXXXXXXXXXXXXXXXXX  XXXXX.",
".XXXXX XXXXXXXXXXXXXXX  XXXXXXXXXXXXXXX XXXXXXXXXXXXXXXXXXXXXXXXXXXXXXXXXXXXXXXXXXXXXXXXXXXXXXXXXXXXXXXXXXXXXXXXXXXXXX  XX XXXXXXXXXXXXXXXXXXXXXXXXXXXXXXXXXXXXXXXXXXXXXXXXXXXXXXX  XXXXXX XXXXXX XXXXXXXXXXXXXXXXXXXXXX  XXXXX.",
".XXXXX XXXXXXXXXXXXXXX  XXXXXXXXXXXXXXX XXXXXXXXXXXXXXXXXXXXXXXXXXXXXXXXXXXXXXXXXXXXXXXXXXXXXXXXXXXXXXXXXXXXXXXXXXXXXX  XX XXXXXX XXXXXXXXXXXXXXXXXXXXXXXXXXXXXXXXXXXXXXXXX XXXXXX  XXXXXXXXXXXXX XXXXXXXXXXXXXXXXXXXXXX  XXXXX.",
".XXXXX XXXXXXXXXXXXXXX  XXXXXXXXXXXXXXX XXXXXXXXXXXXXXXXXX   XXXXXXX XXXXXXXXXXXXXXXXXXXXXXXXXXXXXXX   XXXXX   XXXXXXX  XX XXXXXXXXXXXXXXXXXXXXXXXXXXXXXXXXXXXXXXXXXXXXXXXXXXXXXXX  XXXXXXXXXXXXX XXXXXXXXXXXXXXXXXXXXXX  XXXXX.",
".XXXXX XXXXXXXXXXXXXXX  XXXXXXXXXXXXXXX XXXXXXXXXXXXXXXXX XXX XXXX   XXXXXXXXXXXXXXXXXXXXXXXXXXXXXX XXX XXX XXX XXXXXX  XX XXXXX XXXXXXXXXXXXXXXXXXXXXXXXXXXXXXXXXXXXXXXXXXX XXXXX  XXXXXXXXXXXXX XXXXXXXXXXXXXXXXXXXXXX  XXXXX.",
".XXXXX XXXXXXXXXXXXXXX  XXXXXXXXXXXXXXX XXXXXXXXXXXXXXXXX XXXX XXXXX XXXXXXXXXXXXXXXXXXXXXXXXXXXXXX XXXX XX XXXX XXXXX  XX XXXXXXXXXXXXXXXXXXXXXXXXXXXXXXXXXXXXXXXXXXXXXXXXX XXXXX  XXXXXXXXXXXXX XXXXXXXXXXXXXXXXXXXXXX  XXXXX.",
".XXXXX XXXXXXXXXXXXXXX  XXXXXXXXXXXXXXX XXXXXXXXXXXXXXXXXXXXXX XXXXX XXXXXXXXXXXXXXXXXXXXXXXXXXXXXXXXXXX XXXXXXX XXXXX  XX XXXX XXXXXXXXXXXXXXXXXXXXXXXXXXXXXXXXXXXXXXXXXXXXX XXXX  XXXXXXXXXXXXX XXXXXXXXXXXXXXXXXXXXXX  XXXXX.",
".XXXXX XXXX   X   XXXX  XXXXXXXXXXXXXXX XXXXXX X  XX  XXXXXXXX XXXXX XXXXXXXXXXXXXXXXXXX X  XX  XXXXXXXX XXXXXXX XXXXX  XX XXXX XXXX   X   XXXXXXXXXXXXXX X  XX  XX   X   XXX XXXX  XXXXXXXXXXXXX XXXXX X  XX   X   XXXX  XXXXX.",
".XXXXX XXXXX XXX XXXXX  XXXXXXXXXXXXXXX XXXXX   XX  XX XXXXXX XXXXXX XXXXXXXXXXXXXXXXXX   XX  XX XXXXXX XXXXXXX XXXXXX  XX XXXX XXXXX XXX XXXXXXXXXXXXXX   XX  XX XX XXX XXXX XXXX  XXXXXXXXXXXXX XXXX   XX XX XXX XXXXX  XXXXX.",
".XXXXX XXXXX XXX XXXXX  XXXXXXXXXXXXXXX XXXXXX XXX XXX XXXXX XXXXXXX XXXXXXXXXXXXXXXXXXX XXX XXX XXXXX XXXXXXX XXXXXXX  XX XXXX XXXXX XXX XXX         XXX XXX XXX XX XXX XXXX XXXX  XXXXXXXXXXXXX XXXXX XXX XX XXX XXXXX  XXXXX.",
".XXXXX XXXXXX X XXXXXX  XXXXXXXXXXXXXXX XXXXXX XXX XXX XXXX XXXXXXXX XXXXXXXXXXXXXXXXXXX XXX XXX XXXX XXXXXXX XXXXXXXX  XX XXXX XXXXXX X XXXXXXXXXXXXXXXX XXX XXX XXX X XXXXX XXXX  XXXXXXXXXXXXX XXXXX XXX XXX X XXXXXX  XXXXX.",
".XXXXX XXXXXX X XXXXXX  XXXXXXXXXXXXXXX XXXXXX XXX XXX XXX XXXXXXXXX XXXXXXXXXXXXXXXXXXX XXX XXX XXX XXXXXXX XXXXXXXXX  XX XXXX XXXXXX X XXXXXXXXXXXXXXXX XXX XXX XXX X XXXXX XXXX  XXXXXXXXXXXXX XXXXX XXX XXX X XXXXXX  XXXXX.",
".XXXXX XXXXXXX  XXXXXX  XXXXXXXXXXXXXXX XXXXXX XXX XXX XX XXXX XXXXX XXXXXXXXXXXXXXXXXXX XXX XXX XX XXXX XX XXXX XXXXX  XX XXXXXXXXXXXX  XXXXXXXXXXXXXXXX XXX XXX XXXX  XXXXXXXXXX  XXXXXXXXXXXXX XXXXX XXX XXXX  XXXXXX  XXXXX.",
".XXXXX XXXXXXX XXXXXXX  XXXXXXXXXXXXXXX XXXXX   X   X   X      XXXX   XXXXXXXXXXXXXXXXX   X   X   X      XX      XXXXX  XX XXXXX XXXXXX XXXXXXXXXXXXXXXX   X   X   XXX XXXXX XXXXX  XXXXXXXXXXXXX XXXX   X   XXX XXXXXXX  XXXXX.",
".XXXXX XXXXXXX XXXXXXX  XXXXXXXXXXXXXXX XXXXXXXXXXXXXXXXXXXXXXXXXXXXXXXXXXXXXXXXXXXXXXXXXXXXXXXXXXXXXXXXXXXXXXXXXXXXXX  XX XXXXX XXXXXX XXXXXXXXXXXXXXXXXXXXXXXXXXXXXX XXXXX XXXXX  XXXXXXXXXXXXX XXXXXXXXXXXXXX XXXXXXX  XXXXX.",
".XXXXX XXXXXX XXXXXXXX  XXXXXXXXXXXXXXX XXXXXXXXXXXXXXXXXXXXXXXXXXXXXXXXXXXXXXXXXXXXXXXXXXXXXXXXXXXXXXXXXXXXXXXXXXXXXX  XX XXXXXXXXXXX XXXXXXXXXXXXXXXXXXXXXXXXXXXXXX XXXXXXXXXXXX  XXXXXXXXXXXXX XXXXXXXXXXXXX XXXXXXXX  XXXXX.",
".XXXXX XXXX  XXXXXXXXX  XXXXXXXXXXXXXXX XXXXXXXXXXXXXXXXXXXXXXXXXXXXXXXXXXXXXXXXXXXXXXXXXXXXXXXXXXXXXXXXXXXXXXXXXXXXXX  XX XXXXXX XX  XXXXXXXXXXXXXXXXXXXXXXXXXXXXX  XXXXXX XXXXXX  XXXXXXXXXXXXX XXXXXXXXXXX  XXXXXXXXX  XXXXX.",
".XXXXX    XXXXXXXXXX    XXXXXXXXXXXXXXX    XXXXXXXXXXXXXXXXXXXXXXXXXXXXXXXXXXXXXXXXXXXXXXXXXXXXXXXXXXXXXXXXXXXXXXXXX    XX    XXXXXXXXXXXXXXXXXXXXXXXXXXXXXXXXXXXXXXXXXXXXXXXXXX    XXXXXXXXXXXXX    XXXXXXXXXXXXXXXXX    XXXXX.",
".XXXXX    XXXXXXXXXX    XXXXXXXXXXXXXXX    XXXXXXXXXXXXXXXXXXXXXXXXXXXXXXXXXXXXXXXXXXXXXXXXXXXXXXXXXXXXXXXXXXXXXXXXX    XX    XXXXXXXXXXXXXXXXXXXXXXXXXXXXXXXXXXXXXXXXXXXXXXXXXX    XXXXXXXXXXXXX    XXXXXXXXXXXXXXXXX    XXXXX.",
".XXXXX    XXXXXXXXXX    XXXXXXXXXXXXXXX    XXXXXXXXXXXXXXXXXXXXXXXXXXXXXXXXXXXXXXXXXXXXXXXXXXXXXXXXXXXXXXXXXXXXXXXXX    XX    XXXXXXXXXXXXXXXXXXXXXXXXXXXXXXXXXXXXXXXXXXXXXXXXXX    XXXXXXXXXXXXX    XXXXXXXXXXXXXXXXX    XXXXX.",
".XXXXXXXXXXXXXXXXXXXXXXXXXXXXXXXXXXXXXXXXXXXXXXXXXXXXXXXXXXXXXXXXXXXXXXXXXXXXXXXXXXXXXXXXXXXXXXXXXXXXXXXXXXXXXXXXXXXXXXXXXXXXXXXXXXXXXXXXXXXXXXXXXXXXXXXXXXXXXXXXXXXXXXXXXXXXXXXXXXXXXXXXXXXXXXXXXXXXXXXXXXXXXXXXXXXXXXXXXXXXXX.",
".XXXXXXXXXXXXXXXXXXXXXXXXXXXXXXXXXXXXXXXXXXXXXXXXXXXXXXXXXXXXXXXXXXXXXXXXXXXXXXXXXXXXXXXXXXXXXXXXXXXXXXXXXXXXXXXXXXXXXXXXXXXXXXXXXXXXXXXXXXXXXXXXXXXXXXXXXXXXXXXXXXXXXXXXXXXXXXXXXXXXXXXXXXXXXXXXXXXXXXXXXXXXXXXXXXXXXXXXXXXXXX.",
".XXXXXXXXXXXXXXXXXXXXXXXXXXXXXXXXXXXXXXXXXXXXXXXXXXXXXXXXXXXXXXXXXXXXXXXXXXXXXXXXXXXXXXXXXXXXXXXXXXXXXXXXXXXXXXXXXXXXXXXXXXXXXXXXXXXXXXXXXXXXXXXXXXXXXXXXXXXXXXXXXXXXXXXXXXXXXXXXXXXXXXXXXXXXXXXXXXXXXXXXXXXXXXXXXXXXXXXXXXXXXX.",
".XXXXXXXXXXXXXXXXXXXXXXXXXXXXXXXXXXXXXXXXXXXXXXXXXXXXXXXXXXXXXXXXXXXXXXXXXXXXXXXXXXXXXXXXXXXXXXXXXXXXXXXXXXXXXXXXXXXXXXXXXXXXXXXXXXXXXXXXXXXXXXXXXXXXXXXXXXXXXXXXXXXXXXXXXXXXXXXXXXXXXXXXXXXXXXXXXXXXXXXXXXXXXXXXXXXXXXXXXXXXXX.",
"................................................................................................................................................................................................................................"
};
