/* XPM */
static char *aegisub[] = {
/* columns rows colors chars-per-pixel */
"32 32 198 2",
"   c #010000",
".  c #0C0303",
"X  c #140303",
"o  c #1B0303",
"O  c #160909",
"+  c #1A0909",
"@  c #010513",
"#  c #030817",
"$  c #090A14",
"%  c #010618",
"&  c #0B0C19",
"*  c #100E12",
"=  c #0D111C",
"-  c #131313",
";  c #191212",
":  c #16171C",
">  c #240101",
",  c #2C0404",
"<  c #230D0D",
"1  c #2B0D0D",
"2  c #3D0000",
"3  c #340F0F",
"4  c #3A0B0B",
"5  c #3D1515",
"6  c #3F1818",
"7  c #010C2F",
"8  c #0D1325",
"9  c #1D1426",
"0  c #010D31",
"q  c #010F3B",
"w  c #041037",
"e  c #242222",
"r  c #2C2525",
"t  c #2D2D2D",
"y  c #3F2222",
"u  c #322F2F",
"i  c #343434",
"p  c #393737",
"a  c gray24",
"s  c #440000",
"d  c #450808",
"f  c #4E0A0A",
"g  c #520202",
"h  c #560C0C",
"j  c #580808",
"k  c #421111",
"l  c #4E1515",
"z  c #421919",
"x  c #491818",
"c  c #561414",
"v  c #541E1E",
"b  c #591B1B",
"n  c #630303",
"m  c #6D0404",
"M  c #670D0D",
"N  c #730000",
"B  c #780000",
"V  c #720909",
"C  c #790909",
"Z  c #691010",
"A  c #661818",
"S  c #6A1C1C",
"D  c #741111",
"F  c #7E1E1E",
"G  c #551D2D",
"H  c #422424",
"J  c #482525",
"K  c #462929",
"L  c #522525",
"P  c #522929",
"I  c #4A3030",
"U  c #6A2222",
"Y  c #612F2F",
"T  c #6A2D2D",
"R  c #722222",
"E  c #623E3E",
"W  c #6C3F3F",
"Q  c #051440",
"!  c #0B1740",
"~  c #02144C",
"^  c #091B54",
"/  c #031A66",
"(  c #031B69",
")  c #062072",
"_  c #03207A",
"`  c #102A7E",
"'  c #444343",
"]  c #4A4646",
"[  c #4D4A4A",
"{  c #504E4E",
"}  c #5E4C4C",
"|  c #555353",
" . c #6D4545",
".. c #615A5C",
"X. c #50566B",
"o. c #646262",
"O. c gray42",
"+. c #706C6F",
"@. c #7C7B7B",
"#. c #840000",
"$. c #890101",
"%. c #890D0D",
"&. c #930000",
"*. c #9F0000",
"=. c #901E1E",
"-. c #9F1E1E",
";. c #A30404",
":. c #A60909",
">. c #A90C0C",
",. c #A41414",
"<. c #AE1212",
"1. c #A51818",
"2. c #AB1B1B",
"3. c #B11515",
"4. c #B51C1C",
"5. c #B81E1E",
"6. c #842222",
"7. c #8A2424",
"8. c #852B2B",
"9. c #882F2F",
"0. c #942626",
"q. c #902F2F",
"w. c #9E2C2C",
"e. c #823131",
"r. c #9B3737",
"t. c #AC2525",
"y. c #A82F2F",
"u. c #B22727",
"i. c #BD2323",
"p. c #B42E2E",
"a. c #BC2C2C",
"s. c #A73434",
"d. c #AE3535",
"f. c #B53232",
"g. c #B73D3D",
"h. c #BF3F3F",
"j. c #C02727",
"k. c #C42C2C",
"l. c #CB3333",
"z. c #C13C3C",
"x. c #CF3838",
"c. c #D33D3D",
"v. c #AE4242",
"b. c #B54242",
"n. c #CD4545",
"m. c #C84949",
"M. c #D64141",
"N. c #DB4545",
"B. c #D34A4A",
"V. c #DE4A4A",
"C. c #D55151",
"Z. c #E24E4E",
"A. c #E65252",
"S. c #EA5757",
"D. c #EB5858",
"F. c #04258F",
"G. c #042590",
"H. c #092D9F",
"J. c #18379F",
"K. c #263D88",
"L. c #052BA4",
"P. c #0B31AB",
"I. c #1133A0",
"U. c #052EB1",
"Y. c #0531BC",
"T. c #1438B0",
"R. c #27449D",
"E. c #2546B1",
"W. c #4C5983",
"Q. c #76798A",
"!. c #5064A3",
"~. c #4E68BD",
"^. c #5F76BF",
"/. c #0533C5",
"(. c #0534C8",
"). c #0537D3",
"_. c #6D82C6",
"`. c #808080",
"'. c gray58",
"]. c #96989C",
"[. c #9B9B9B",
"{. c #8C92A5",
"}. c #8391BE",
"|. c #919CBE",
" X c gray64",
".X c #ABABAB",
"XX c #B4B4B4",
"oX c gray73",
"OX c #99A4C6",
"+X c #A4AECD",
"@X c #BEBFC3",
"#X c #C2C2C2",
"$X c #CCCCCC",
"%X c #D4D4D4",
"&X c gray85",
"*X c #E4E4E4",
"=X c #F2F2F2",
"-X c None",
/* pixels */
"-X-X-X-X-X-X-X-X-X-X-X-X-X-X-X-X-X-X-X-X-X-X-X-X-X-X-X-X-X-X-X-X",
"-X-X-X-X-X-X-X-X-X-X-X-X-X-X-X-X-X-X-X-X-X-X-X-X-X-X-X-X-X-X-X-X",
"-X-X-X-X-X-X-X-X-X  z z 6 6 6 6 5 6 6 5 5 5   -X-X-X-X-X-X-X-X-X",
"-X-X-X-X-X-X-X. -X+ v.D.S.A.A.Z.Z.V.V.N.N.d.O -X. -X-X-X-X-X-X-X",
"-X-X-X-X-X-X-X+ O -X1 S.A.A.Z.Z.N.V.N.M.M.3 -XO O -X-X-X-X-X-X-X",
"-X-X-X-X-X-X+ C.x -XO r.Z.Z.N.Z.N.N.M.M.s.O -Xd p.O -X-X-X-X-X-X",
"-X-X-X-X-X-Xe.D.m.+ -X+ V.V.V.N.N.M.M.c.3 -XO p.l.A -X-X-X-X-X-X",
"-X-X-X-X-X< A.S.A.v -XO 8.N.N.M.c.c.c.y.X -Xc l.k.k.+ -X-X-X-X-X",
"-X-X-X-XO b.A.A.Z.n.O -XO M.M.c.c.c.c., -XO a.k.k.k.=.X -X-X-X-X",
"-X-X-X-Xv A.Z.Z.V.V.U -X-XR M.c.c.x.0.O -XS k.k.k.j.i.4 -X-X-X-X",
"-X-X-X+ B.Z.Z.V.N.N.z.X = $ $ & 9 G + -X+ k.k.j.j.i.i.2.X -X-X-X",
"-X-XO 9.Z.V.V.N.s.L & ! ) w @ # q ^ 8 : x t.j.i.i.5.5.4.M X -X-X",
"-X-X1 Z.V.N.s.y r Q.L.Y.#         q U.` +.r y F 4.5.4.4.3.+ -X-X",
"-XO g.V.h.P r  X=X_.Y.(             F.L.+X*X X| r S 1.3.<.%.X -X",
"-XO q.L e @.&X*X=X~./.~             _ L.}.*X&X$X.Xo.u J Z V . -X",
"-X-X- e `.#X$X&X*X^././             F.L.|.%X$X#XXX.X[.o.i i ; -X",
"-X-X-X-Xt | .X$X%XOXY.Y.@         7 Y.H.@X#XoXXX.X'.O.' a i -X-X",
"-X. U S v K p @.oX@XE.(.U.q     ~ Y.U.!.oX.X X`.| I I x g g . -X",
"-XO f.x.x.l.f.E ' @.{.T./.).).).(.U.R.].@...] E 8.:.:.:.;.$.. -X",
"-X-X3 l.l.l.k.k.y.W [ ..W.J.P.I.K.X.| [ W 7.,.:.:.;.*.*.*.> -X-X",
"-X-XO 7.k.l.k.k.j.j.u.T ' | [ }  .Y r X C :.:.;.;.;.*.;.m . -X-X",
"-X-X-Xo a.k.j.j.i.i.4.o -XX 1.<.<.<.o -Xo :.:.;.*.*.;.&.X -X-X-X",
"-X-X-X-Xh j.j.j.i.5.Z -X-Xh 3.3.<.>.V . X n ;.*.*.*.*.s -X-X-X-X",
"-X-X-X-XX -.i.5.5.2.X -XX ,.<.>.>.:.:.o -XX &.;.*.*.#.X -X-X-X-X",
"-X-X-X-X-X, i.4.3.h -X-Xj >.:.:.:.;.;.m X -Xg *.*.*.o -X-X-X-X-X",
"-X-X-X-X-XX D 2.1.X -XX >.>.:.:.;.;.;.;.o -X. &.*.n X -X-X-X-X-X",
"-X-X-X-X-X-XX ,.d -X-Xn >.:.:.;.;.*.*.*.N X -X2 &.X -X-X-X-X-X-X",
"-X-X-X-X-X-X-X, X -XO :.:.:.;.;.*.;.*.*.;.o -XX > -X-X-X-X-X-X-X",
"-X-X-X-X-X-X-X. -XX m :.;.;.*.*.*.*.*.*.*.B X -X. -X-X-X-X-X-X-X",
"-X-X-X-X-X-X-X-X-X  s s s s s s s s s s s s   -X-X-X-X-X-X-X-X-X",
"-X-X-X-X-X-X-X-X-X-X-X-X-X-X-X-X-X-X-X-X-X-X-X-X-X-X-X-X-X-X-X-X",
"-X-X-X-X-X-X-X-X-X-X-X-X-X-X-X-X-X-X-X-X-X-X-X-X-X-X-X-X-X-X-X-X"
};
