<?xml version="1.0" encoding="UTF-8" standalone="no"?>
<!-- Created with Inkscape (http://www.inkscape.org/) -->
<svg
   xmlns:svg="http://www.w3.org/2000/svg"
   xmlns="http://www.w3.org/2000/svg"
   version="1.0"
   width="64"
   height="64"
   id="svg2383">
  <defs
     id="defs5" />
  <path
     d="M 36.5,13 C 44.5,15.5 51,22 51,31 C 51,37.5 48,43.5 43,47 L 40,42 L 32,55.5 L 48,55.5 L 45.5,51 C 52,46.5 56,39.5 56,31 C 56,21 49,12 38.5,8.5 C 35,7.5 33.5,12 36.5,13 z M 16,8 L 18.5,12.5 C 12,17 8,24 8,32.5 C 8,42.5 15,51.5 25.5,55 C 29,56 30.5,51.5 27.5,50.5 C 19.5,48 13,41.5 13,32.5 C 13,26 16,20 21,16.5 L 24,21.5 L 32,8 L 16,8 z"
     id="path2386"
     style="fill:#000000;stroke:#000000;stroke-width:2;stroke-linecap:round;stroke-linejoin:round" />
</svg>
