<?xml version="1.0" encoding="UTF-8" standalone="no"?>
<!-- Created with Inkscape (http://www.inkscape.org/) -->
<svg
   xmlns:svg="http://www.w3.org/2000/svg"
   xmlns="http://www.w3.org/2000/svg"
   version="1.0"
   width="64"
   height="64"
   id="svg2383">
  <defs
     id="defs5" />
  <path
     d="M 16,7.5 L 18.5,12 C 12.013637,16.294255 8,23.641019 8,32 C 8.0339017,42.995528 15.588297,51.974475 26,55 C 29,56.5 31,52 28,50.5 C 19.440326,48.654155 13,41.10908 13,32 C 13,25.493514 16.002939,19.421778 21,16 L 24,21 L 32,7.5 L 16,7.5 z M 36.9375,7.5 C 34.585938,7.3769532 33.375,11 36,12.3125 C 44.559674,14.158345 51,21.70342 51,30.8125 C 51,37.318987 47.997061,43.390722 43,46.8125 L 40,41.8125 L 32,55.3125 L 48,55.3125 L 45.5,50.8125 C 51.986363,46.518244 56,39.171481 56,30.8125 C 55.966098,19.816973 48.411703,10.838025 38,7.8125 C 37.625,7.625 37.273438,7.5175781 36.9375,7.5 z"
     id="path2386"
     style="fill:#000000;stroke:none" />
</svg>
