<?xml version="1.0" encoding="UTF-8" standalone="no"?>
<!-- Created with Inkscape (http://www.inkscape.org/) -->
<svg
   xmlns:svg="http://www.w3.org/2000/svg"
   xmlns="http://www.w3.org/2000/svg"
   xmlns:xlink="http://www.w3.org/1999/xlink"
   version="1.0"
   width="64"
   height="64"
   id="svg2385">
  <defs
     id="defs2387" />
  <image
     xlink:href="tsukasa.png"
     x="-70"
     y="0"
     width="64"
     height="64"
     id="image2750" />
  <path
     d="M 19.056407,61.76057 L 25.337924,54.87931 L 40.078973,54.626787 L 47.907195,61.76057 L 19.056407,61.76057 z"
     id="path3588"
     style="fill:#860e25;fill-opacity:1;fill-rule:nonzero;stroke:#670311;stroke-width:0.5;stroke-linecap:round;stroke-linejoin:round;marker:none;marker-start:none;marker-mid:none;marker-end:none;stroke-miterlimit:4;stroke-dasharray:none;stroke-dashoffset:0;stroke-opacity:1;visibility:visible;display:inline;overflow:visible;enable-background:accumulate" />
  <path
     d="M 14.52982,38.96057 C 10.610247,35.674862 9.6908902,51.200671 18.32982,50.00432 C 18.037658,53.079084 23.328222,56.424542 29.878257,57.12932 C 29.648363,58.597922 28.85906,60.197019 28.18607,61.76057 L 39.34857,61.76057 C 38.33158,60.08164 37.872912,58.392626 37.715757,56.713695 C 43.049015,55.631723 47.092573,54.441807 49.645256,50.011517 C 55.055301,40.622152 54.261764,27.512345 46.82982,18.446508 C 43.549065,14.444488 39.610233,13.196403 34.034507,12.805883 C 18.081788,11.688564 14.494047,26.652057 14.52982,38.96057 z"
     id="path3576"
     style="fill:#f4d3c5;fill-opacity:1;fill-rule:nonzero;stroke:#d48d78;stroke-width:0.5;stroke-linecap:round;stroke-linejoin:round;marker:none;marker-start:none;marker-mid:none;marker-end:none;stroke-miterlimit:4;stroke-dasharray:none;stroke-dashoffset:0;stroke-opacity:1;visibility:visible;display:inline;overflow:visible;enable-background:accumulate" />
  <path
     d="M 22.6875,32.1875 C 20.852322,32.158932 18.860794,34.68991 18.71875,37.65625 C 18.534755,41.498675 20.701205,44.751176 22.71875,44.6875 C 24.681314,44.953164 27.225109,41.261591 26.75,37.5 C 26.377862,34.553667 24.82194,32.220728 22.6875,32.1875 z M 44.0625,32.21875 C 41.92806,32.251978 40.372138,34.584918 40,37.53125 C 39.524891,41.292841 42.099938,44.984415 44.0625,44.71875 C 46.080045,44.782426 48.215247,41.561176 48.03125,37.71875 C 47.889206,34.75241 45.897676,32.19018 44.0625,32.21875 z"
     id="path2771"
     style="fill:#000080;fill-opacity:1;fill-rule:nonzero;stroke:#000000;stroke-width:0.25;stroke-linecap:round;stroke-linejoin:round;marker:none;marker-start:none;marker-mid:none;marker-end:none;stroke-miterlimit:4;stroke-dashoffset:0;stroke-opacity:1;visibility:visible;display:inline;overflow:visible;enable-background:accumulate" />
  <path
     d="M 21.28125,37.8125 C 20.609249,37.939187 20.244809,40.500148 20.3125,41.227878 C 20.333596,42.191084 21.507144,44.823586 22.78125,44.6875 C 24.321045,44.523036 25.022048,42.394227 25.15625,41.196628 C 25.202447,40.669841 25.302404,38.505394 24.53125,37.90625 C 24.485813,38.336967 24.102566,40.859531 22.84375,40.759128 C 21.11615,40.621338 21.296461,38.155561 21.28125,37.8125 z M 45.53125,37.9375 C 45.516039,38.280561 45.696349,40.746334 43.96875,40.884128 C 42.709934,40.984531 42.326685,38.461967 42.28125,38.03125 C 41.510096,38.630394 41.610054,40.794837 41.65625,41.321628 C 41.790452,42.519227 42.491452,44.616786 44.03125,44.78125 C 45.305356,44.917336 46.478902,42.31608 46.5,41.352878 C 46.567691,40.625148 46.203253,38.064188 45.53125,37.9375 z"
     id="path2778"
     style="fill:#8787de;fill-opacity:1;fill-rule:nonzero;stroke:#303794;stroke-width:0.25;stroke-linecap:round;stroke-linejoin:round;marker:none;marker-start:none;marker-mid:none;marker-end:none;stroke-miterlimit:4;stroke-dashoffset:0;stroke-opacity:1;visibility:visible;display:inline;overflow:visible;enable-background:accumulate" />
  <path
     d="M 37.163684,51.404034 C 36.491212,53.409694 36.178649,53.623592 34.217429,53.859247 C 32.803335,54.029161 31.718502,53.834903 30.86941,51.537955 C 29.946955,49.042544 30.577228,48.13862 33.994227,47.966736 C 37.000712,47.815501 38.135288,48.506209 37.163684,51.404034 z"
     id="path2792"
     style="fill:#9a3542;fill-opacity:1;fill-rule:nonzero;stroke:#d48d78;stroke-width:0.25;stroke-linecap:round;stroke-linejoin:round;marker:none;marker-start:none;marker-mid:none;marker-end:none;stroke-miterlimit:4;stroke-dashoffset:0;stroke-opacity:1;visibility:visible;display:inline;overflow:visible;enable-background:accumulate" />
  <path
     d="M 22.3125,29 C 21.457739,28.998809 20.605941,29.237312 19.78125,29.6875 C 18.095227,30.899182 16.895069,33.143191 16.3125,36.5 C 17.091517,36.801001 17.527981,37.835006 18.0625,38.625 C 17.51604,36.283004 19.335816,32.851546 20.5625,32.09375 C 21.886653,31.27574 23.469101,30.695905 25.65625,33.09375 C 25.487177,32.165618 25.500334,31.82279 26.3125,30.84375 C 25.137699,29.616854 23.737101,29.001985 22.3125,29 z M 44.3125,29 C 42.887899,29.001985 41.4873,29.616854 40.3125,30.84375 C 41.124666,31.82279 41.137823,32.165618 40.96875,33.09375 C 43.155899,30.695905 44.738345,31.27574 46.0625,32.09375 C 47.289184,32.851546 49.140208,36.283004 48.59375,38.625 C 49.128269,37.835006 49.533485,36.801001 50.3125,36.5 C 49.729931,33.143191 48.529773,30.899182 46.84375,29.6875 C 46.019059,29.237312 45.167261,28.998809 44.3125,29 z"
     id="path2795"
     style="fill:#220055;fill-opacity:1;fill-rule:nonzero;stroke:none;stroke-width:2;stroke-linecap:round;stroke-linejoin:round;marker:none;stroke-miterlimit:4;stroke-dasharray:none;stroke-dashoffset:0;stroke-opacity:1;visibility:visible;display:inline;overflow:visible;enable-background:accumulate" />
  <path
     d="M 13.59364,41.984947 C 15.119125,42.365582 15.582919,42.925542 15.64709,43.547355 C 15.732446,44.374428 15.15631,44.877195 14.798925,45.556165 C 14.228845,46.639223 15.627053,47.201123 16.897017,47.431055"
     id="path3574"
     style="fill:#f4d3c5;fill-opacity:1;fill-rule:nonzero;stroke:#d48d78;stroke-width:1;stroke-linecap:round;stroke-linejoin:round;marker:none;marker-start:none;marker-mid:none;marker-end:none;stroke-miterlimit:4;stroke-dasharray:none;stroke-dashoffset:0;stroke-opacity:1;visibility:visible;display:inline;overflow:visible;enable-background:accumulate" />
  <path
     d="M 29.922568,57.138945 C 32.780302,57.289777 35.379482,57.232888 37.806263,56.710104"
     id="path3579"
     style="fill:#f4d3c5;fill-opacity:1;fill-rule:nonzero;stroke:#d48d78;stroke-width:0.5;stroke-linecap:round;stroke-linejoin:round;marker:none;marker-start:none;marker-mid:none;marker-end:none;stroke-miterlimit:4;stroke-dasharray:none;stroke-dashoffset:0;stroke-opacity:1;visibility:visible;display:inline;overflow:visible;enable-background:accumulate" />
  <path
     d="M 24.000132,46.055883 C 22.564771,46.055883 21.574239,47.145423 21.41732,48.46057 C 21.244565,49.908442 21.288267,51.456467 24.000132,50.865258 C 25.579838,50.52087 26.938486,50.762605 26.612632,48.46057 C 26.427002,47.149167 25.435496,46.055883 24.000132,46.055883 z M 43.653257,46.144945 C 42.217894,46.144947 41.183806,47.230015 41.070445,48.549633 C 40.949756,49.954565 40.992084,50.48106 43.653257,50.924633 C 46.036159,51.321822 46.316097,49.914377 46.265757,48.549633 C 46.216938,47.226055 45.08862,46.144944 43.653257,46.144945 z"
     id="path3606"
     style="fill:#f0bdb5;fill-opacity:1;fill-rule:nonzero;stroke:none;stroke-width:0.5;stroke-linecap:round;stroke-linejoin:round;marker:none;marker-start:none;marker-mid:none;marker-end:none;stroke-miterlimit:4;stroke-dashoffset:0;stroke-opacity:1;visibility:visible;display:inline;overflow:visible;enable-background:accumulate" />
  <path
     d="M 31.516693,9.0209227 C 28.707649,8.9893563 25.884125,7.9480419 24.798338,5.8961063"
     id="path3598"
     style="fill:#f4e181;fill-opacity:1;fill-rule:nonzero;stroke:#bca044;stroke-width:0.47499999;stroke-linecap:round;stroke-linejoin:round;marker:none;marker-start:none;marker-mid:none;marker-end:none;stroke-miterlimit:4;stroke-dasharray:none;stroke-dashoffset:0;stroke-opacity:1;visibility:visible;display:inline;overflow:visible;enable-background:accumulate" />
  <path
     d="M 35.288793,7.1460328 C 36.21678,7.7031401 36.09021,8.8515406 36.069997,9.467325"
     id="path3600"
     style="fill:#f4e181;fill-opacity:1;fill-rule:nonzero;stroke:#bca044;stroke-width:0.47499999;stroke-linecap:round;stroke-linejoin:round;marker:none;marker-start:none;marker-mid:none;marker-end:none;stroke-miterlimit:4;stroke-dasharray:none;stroke-dashoffset:0;stroke-opacity:1;visibility:visible;display:inline;overflow:visible;enable-background:accumulate" />
  <path
     d="M 32.230937,6.8558713 C 31.636172,7.1680903 31.227108,8.2593698 31.516694,9.0432424"
     id="path3602"
     style="fill:#f4e181;fill-opacity:1;fill-rule:nonzero;stroke:#bca044;stroke-width:0.47499999;stroke-linecap:round;stroke-linejoin:round;marker:none;marker-start:none;marker-mid:none;marker-end:none;stroke-miterlimit:4;stroke-dasharray:none;stroke-dashoffset:0;stroke-opacity:1;visibility:visible;display:inline;overflow:visible;enable-background:accumulate" />
  <path
     d="M 31.025651,51.515635 C 30.258115,49.311374 37.831271,49.174345 37.029764,51.404033 C 36.438356,52.917513 36.433521,53.631694 34.205466,53.766891 C 33.235586,53.76591 31.939921,54.23043 31.025651,51.515635 z"
     id="path2417"
     style="fill:#d37781;fill-opacity:1;fill-rule:nonzero;stroke:none;stroke-width:0.25;stroke-linecap:round;stroke-linejoin:round;marker:none;marker-start:none;marker-mid:none;marker-end:none;stroke-miterlimit:4;stroke-dashoffset:0;stroke-opacity:1;visibility:visible;display:inline;overflow:visible;enable-background:accumulate" />
  <path
     d="M 24.77969,56.422539 L 23.088059,58.992876 C 22.439125,57.999214 21.55892,57.46809 20.677486,56.939425 C 20.149227,57.985484 19.7638,59.117244 20.409645,60.867766 C 18.432922,59.825453 16.824759,57.493186 15.320658,54.796694 C 14.566832,56.443501 14.713211,58.810471 15.142098,61.403448 C 9.8331956,57.528573 9.1513949,53.771633 8.1218334,47.170262 C 7.5235643,48.33506 6.7947897,50.936772 6.6604521,53.725328 C 4.8736712,47.129822 5.2129949,35.945352 6.018309,28.407266 C 4.1528168,28.106151 3.6500275,29.651749 2.4893812,30.690967 C 4.7107292,23.57273 7.1897685,18.399891 11.303037,12.477751 C 16.32679,5.2447251 24.587839,2.3588159 31.926826,2.2104969 C 45.574673,1.9346776 52.135415,7.1272045 55.67543,12.477751 C 60.344194,19.53434 61.202534,26.610226 61.478662,32.922977 C 61.77643,39.730458 61.031189,48.309648 58.328735,54.618132 C 58.194125,52.721232 57.97363,49.746248 55.946355,46.700365 C 55.473182,55.937956 53.765321,59.709264 49.961481,61.76057 C 50.008138,60.17304 51.590786,56.565777 49.284829,54.016664 C 48.616432,55.773962 45.87982,57.267315 44.06897,57.653669 C 49.599226,49.543947 51.328034,38.666657 50.943566,32.655137 C 44.264519,27.590609 42.625962,21.80357 38.533581,14.799043 C 40.521952,20.802419 41.164484,25.203612 41.968529,30.733257 C 37.415322,25.18294 34.193869,20.510357 31.926825,13.816958 C 27.165114,18.016352 26.384636,21.562358 24.370878,28.684506 C 23.233075,25.629914 22.719079,22.323248 24.070145,18.638104 C 18.888989,24.672975 15.379607,32.246057 14.375829,38.450416 C 10.153221,35.627016 9.1508464,51.301439 18.095051,50.426907 C 18.077679,53.656249 21.756001,55.070975 24.77969,56.422539 z"
     id="path2419"
     style="opacity:1;fill:#b08ae7;fill-opacity:1;fill-rule:nonzero;stroke:#7354b6;stroke-width:0.5;stroke-linecap:round;stroke-linejoin:round;marker:none;marker-start:none;marker-mid:none;marker-end:none;stroke-miterlimit:4;stroke-dasharray:none;stroke-dashoffset:0;stroke-opacity:1;visibility:visible;display:inline;overflow:visible;enable-background:accumulate" />
  <path
     d="M 18.102302,15.716958 C 25.408465,5.3986221 40.424084,4.1573393 48.189821,16.431203 C 40.14187,10.249455 30.884918,7.6947112 18.102302,15.716958 z"
     id="path3594"
     style="fill:#f4e181;fill-opacity:1;fill-rule:nonzero;stroke:#bca044;stroke-width:0.5;stroke-linecap:round;stroke-linejoin:round;marker:none;marker-start:none;marker-mid:none;marker-end:none;stroke-miterlimit:4;stroke-dasharray:none;stroke-dashoffset:0;stroke-opacity:1;visibility:visible;display:inline;overflow:visible;enable-background:accumulate" />
  <path
     d="M 32.208617,6.788911 C 30.861443,5.1141401 29.365953,3.5983642 26.405386,2.7712898 C 22.905421,1.7935272 18.275536,1.441837 17.834461,2.8605702 C 17.098601,5.2274947 19.964114,8.3827197 22.923448,10.717252 C 24.01102,11.575205 24.964866,12.427717 27.476752,12.145739 C 29.374664,11.932684 31.254647,11.816731 31.762215,10.27085 C 32.886526,11.824598 34.244751,11.039221 35.601275,10.27085 C 37.481426,11.331692 39.770426,11.757707 42.565151,10.806532 C 46.192932,9.57183 49.644686,6.2165477 49.529028,3.3069726 C 49.459933,1.5687374 43.712839,1.8016225 39.618896,2.5034484 C 37.293824,2.9020363 36.136073,4.1983008 35.244154,7.0567524 C 34.701209,6.4481282 33.655906,5.3627616 32.208617,6.788911 z"
     id="path3596"
     style="fill:#f4e181;fill-opacity:1;fill-rule:nonzero;stroke:#bca044;stroke-width:0.5;stroke-linecap:round;stroke-linejoin:round;marker:none;marker-start:none;marker-mid:none;marker-end:none;stroke-miterlimit:4;stroke-dasharray:none;stroke-dashoffset:0;stroke-opacity:1;visibility:visible;display:inline;overflow:visible;enable-background:accumulate" />
  <path
     d="M 14.472834,17.104258 C 7.5564865,25.984665 6.5843546,37.330308 8.3641703,47.083701 C 11.656348,36.18634 12.140014,25.875703 20.299559,18.51395"
     id="path3193"
     style="opacity:1;fill:none;fill-opacity:1;fill-rule:nonzero;stroke:#7354b6;stroke-width:0.5;stroke-linecap:round;stroke-linejoin:round;marker:none;marker-start:none;marker-mid:none;marker-end:none;stroke-miterlimit:4;stroke-dasharray:none;stroke-dashoffset:0;stroke-opacity:1;visibility:visible;display:inline;overflow:visible;enable-background:accumulate" />
  <path
     d="M 44.828194,16.82232 C 48.645307,22.032579 53.034024,31.30658 53.756241,37.12188 C 54.956017,30.96564 52.778592,19.462108 49.245228,15.036711"
     id="path3195"
     style="opacity:1;fill:none;fill-opacity:1;fill-rule:nonzero;stroke:#7354b6;stroke-width:0.5;stroke-linecap:round;stroke-linejoin:round;marker:none;marker-start:none;marker-mid:none;marker-end:none;stroke-miterlimit:4;stroke-dasharray:none;stroke-dashoffset:0;stroke-opacity:1;visibility:visible;display:inline;overflow:visible;enable-background:accumulate" />
  <path
     d="M 55.729809,21.051395 C 60.091331,32.712539 58.792809,43.241675 58.361233,53.9442"
     id="path3197"
     style="opacity:1;fill:none;fill-opacity:1;fill-rule:nonzero;stroke:#7354b6;stroke-width:0.5;stroke-linecap:round;stroke-linejoin:round;marker:none;marker-start:none;marker-mid:none;marker-end:none;stroke-miterlimit:4;stroke-dasharray:none;stroke-dashoffset:0;stroke-opacity:1;visibility:visible;display:inline;overflow:visible;enable-background:accumulate" />
  <path
     d="M 31.95301,13.908957 C 29.242565,19.249026 29.081856,24.196827 29.603524,29.039648"
     id="path3199"
     style="opacity:1;fill:none;fill-opacity:1;fill-rule:nonzero;stroke:#7354b6;stroke-width:0.5;stroke-linecap:round;stroke-linejoin:round;marker:none;marker-start:none;marker-mid:none;marker-end:none;stroke-miterlimit:4;stroke-dasharray:none;stroke-dashoffset:0;stroke-opacity:1;visibility:visible;display:inline;overflow:visible;enable-background:accumulate" />
  <path
     d="M 24.058737,18.419971 C 25.468429,15.329483 26.87812,14.521056 28.287812,13.345081"
     id="path3201"
     style="opacity:1;fill:none;fill-opacity:1;fill-rule:nonzero;stroke:#7354b6;stroke-width:0.5;stroke-linecap:round;stroke-linejoin:round;marker:none;marker-start:none;marker-mid:none;marker-end:none;stroke-miterlimit:4;stroke-dasharray:none;stroke-dashoffset:0;stroke-opacity:1;visibility:visible;display:inline;overflow:visible;enable-background:accumulate" />
  <path
     d="M 33.080763,44.613803 C 33.345455,44.388098 33.672157,44.368067 33.809104,44.590308"
     id="path3205"
     style="opacity:1;fill:none;fill-opacity:1;fill-rule:nonzero;stroke:#d48d78;stroke-width:0.5;stroke-linecap:round;stroke-linejoin:round;marker:none;marker-start:none;marker-mid:none;marker-end:none;stroke-miterlimit:4;stroke-dasharray:none;stroke-dashoffset:0;stroke-opacity:1;visibility:visible;display:inline;overflow:visible;enable-background:accumulate" />
  <path
     d="M 43,32.9375 C 42.596465,33.01453 42.179602,33.321872 41.875,33.78125 C 41.387639,34.516255 41.398232,35.3819 41.90625,35.71875 C 42.414268,36.055603 43.23139,35.735003 43.71875,35 C 44.206112,34.264995 44.16427,33.399354 43.65625,33.0625 C 43.465744,32.93618 43.242121,32.891282 43,32.9375 z M 21.8125,33.0625 C 21.348129,33.045726 20.803022,33.386247 20.4375,33.9375 C 19.950139,34.672505 19.960732,35.538146 20.46875,35.875 C 20.976768,36.211853 21.79389,35.891254 22.28125,35.15625 C 22.768612,34.421245 22.758018,33.555604 22.25,33.21875 C 22.122996,33.134537 21.96729,33.068091 21.8125,33.0625 z"
     id="path3226"
     style="fill:#ffffff;fill-opacity:1;fill-rule:nonzero;stroke:none;stroke-width:0.25;stroke-linecap:round;stroke-linejoin:round;marker:none;marker-start:none;marker-mid:none;marker-end:none;stroke-miterlimit:4;stroke-dashoffset:0;stroke-opacity:1;visibility:visible;display:inline;overflow:visible;enable-background:accumulate" />
</svg>
