<?xml version="1.0" encoding="UTF-8" standalone="no"?>
<!-- Created with Inkscape (http://www.inkscape.org/) -->
<svg
   xmlns:svg="http://www.w3.org/2000/svg"
   xmlns="http://www.w3.org/2000/svg"
   version="1.0"
   width="64"
   height="64"
   id="svg2385">
  <defs
     id="defs2387" />
  <path
     d="M 19.056,61.76 C 19.51,58.558 22.762,56.905 25.337,54.87 L 40.078,54.626 C 43.115,56.435 46.32,58.019 47.907,61.76 L 19.056,61.76 z"
     id="path3588"
     style="fill:#860e25;stroke:#670311;stroke-width:1;stroke-linecap:round;stroke-linejoin:round" />
  <path
     d="M 16,33 C 12.158,33.028 8.4074,44.339 8.28,47 C 8.7307,54.552 11.358,58.775 15.15,61.4 C 14.993,59 14.431,56.455 15.34,54.75 C 16.777,57.444 18.357,59.788 20.4,60.8 C 19.739,59.423 19.341,58.055 20,56.9 C 22.035,56.83 22.459,57.737 23.03,59 C 23.597,58.14 25.393,55.636 25,54.96 C 21.674,53.212 19.568,51.918 19.34,49.46 C 18.69,49.179 9.769,47.569 15.21,39.3 C 14.156,38.222 14.854,36.52 16,33.09 C 16.251,33.068 16.123,33.063 16,33 z M 54.1,39.4 L 49.28,54 C 51.147,55.999 50.48,58.866 49.9,61.6 C 52.305,59.784 57.047,57.45 58,43.96 L 54.1,39.4 z"
     id="path3347"
     style="fill:#854ada;stroke:#48317b;stroke-width:1;stroke-linecap:round;stroke-linejoin:round" />
  <path
     d="M 50,61.541 C 51.739,58.622 53.832,54.448 53.97,48.857 M 15.412,54.79 C 13.674,52.543 13.715,49.379 13.72,47.506 M 20,56.929 C 20.188,56.037 21.573,54.548 22.132,54.273"
     id="path3359"
     style="fill:none;stroke:#48317b;stroke-width:1;stroke-linecap:round;stroke-linejoin:round" />
  <path
     d="M 14.52,38.96 C 10.61,35.674 9.6908,51.2 18.32,50 C 18.037,53.079 23.328,56.424 29.878,57.12 C 29.648,58.597 28.85,60.197 28.18,61.76 L 39.34,61.76 C 38.33,60.08 37.872,58.392 37.715,56.713 C 43.049,55.631 47.092,54.441 49.645,50.011 C 55.055,40.622 54.261,27.512 46.82,18.446 C 43.549,14.444 39.61,13.196 34.034,12.805 C 18.081,11.688 14.494,26.652 14.52,38.96 z"
     id="path3576"
     style="fill:#f4d3c5;stroke:#d48d78;stroke-width:1;stroke-linecap:round;stroke-linejoin:round" />
  <path
     d="M 22.6,32.1 C 20.852,32.158 18.86,34.68 18.71,37.65 C 18.534,41.498 20.701,44.751 22.71,44.6 C 24.681,44.953 27.225,41.261 26.75,37.5 C 26.377,34.553 24.82,32.22 22.6,32.1 z M 44,32.21 C 41.92,32.251 40.372,34.584 40,37.53 C 39.524,41.292 42.099,44.984 44,44.71 C 46.08,44.782 48.215,41.561 48.03,37.71 C 47.889,34.75 45.897,32.19 44,32.21 z"
     id="path2771"
     style="fill:#000080;stroke:#d48d78;stroke-width:0.5;stroke-linecap:round;stroke-linejoin:round" />
  <path
     d="M 21.28,37.53 C 20.609,37.657 20.244,40.21 20.3,40.94 C 20.333,41.909 21.507,44.541 22.78,44.405 C 24.321,44.241 25.022,42.112 25.15,40.91 C 25.202,40.387 25.302,38.223 24.53,37.624 C 24.485,38.055 24.102,40.577 22.84,40.47 C 21.11,40.3 21.296,37.873 21.28,37.53 z M 45.53,37.655 C 45.516,37.998 45.696,40.464 43.96,40.6 C 42.709,40.702 42.326,38.18 42.28,37.749 C 41.51,38.348 41.61,40.512 41.65,41.03 C 41.79,42.237 42.491,44.334 44.03,44.499 C 45.305,44.635 46.478,42.034 46.5,41.07 C 46.567,40.34 46.203,37.78 45.53,37.655 z"
     id="path2778"
     style="fill:#8787de;stroke:#303794;stroke-width:0.5;stroke-linecap:round;stroke-linejoin:round" />
  <path
     d="M 37.163,51.404 C 36.491,53.409 36.178,53.623 34.217,53.859 C 32.803,54.029 31.718,53.834 30.86,51.537 C 29.946,49.042 30.577,48.13 33.994,47.966 C 37,47.815 38.135,48.506 37.163,51.404 z"
     id="path2792"
     style="fill:#9a3542;stroke:#d48d78;stroke-width:0.5;stroke-linecap:round;stroke-linejoin:round" />
  <path
     d="M 19.78,29.821 C 17.954,30.882 16.895,33.143 16.3,36.5 C 16.763,37.178 17.444,37.918 18,38 C 17.51,36.283 19.335,32.851 20.5,32.09 C 21.886,31.27 23.469,30.695 25.65,33.09 C 25.487,32.165 25.5,31.82 26.3,30.84 C 24.329,28.923 22.085,28.482 19.78,29.821 z M 40.3,30.84 C 41.124,31.82 41.137,32.165 40.96,33.09 C 43.155,30.695 44.738,31.27 46,32.09 C 47.289,32.851 49.14,36.283 48.59,38 C 49.166,37.8513 49.903,36.96 50.3,36.5 C 49.729,33.143 48.54,30.974 46.717,29.895 C 44.373422,28.508 42.319,29.231 40.3,30.84 z"
     id="path2795"
     style="fill:#220055;stroke:none;stroke-width:2;stroke-linecap:round;stroke-linejoin:round" />
  <path
     d="M 13.59,41.984 C 15.119,42.365 15.582,42.925 15.64,43.547 C 15.732,44.374 15.15,44.877 14.798,45.556 C 14.228,46.639 15.627,47.201 16.897,47.431"
     id="path3574"
     style="fill:#f4d3c5;stroke:#d48d78;stroke-width:1;stroke-linecap:round;stroke-linejoin:round" />
  <path
     d="M 24,46.055 C 22.564,46.055 21.574,47.145 21.41,48.46 C 21.244,49.908 21.288,51.456 24,50.865 C 25.579,50.52 26.938,50.762 26.612,48.46 C 26.427,47.149 25.435,46.055 24,46.055 z M 43.653,46.144 C 42.217,46.144 41.183,47.23 41.07,48.549 C 40.949,49.954 40.992,50.48 43.653,50.924 C 46.036,51.321 46.316,49.914 46.265,48.549 C 46.216,47.226 45.08,46.144 43.653,46.144 z"
     id="path3606"
     style="fill:#f0bdb5;stroke:#f0bdb5;stroke-width:0.5;stroke-linecap:round;stroke-linejoin:round" />
  <path
     d="M 31.025,51.515 C 30.258,49.311 37.831,49.174 37.029,51.404 C 36.438,52.917 36.433,53.631 34.205,53.766 C 33.235,53.76 31.939,54.23 31.025,51.515 z"
     id="path2417"
     style="fill:#d37781;stroke:none;stroke-width:0.25;stroke-linecap:round;stroke-linejoin:round" />
  <path
     d="M 33.08,44.613 C 33.345,44.388 33.672,44.368 33.809,44.59 M 29.922,57.138 C 32.78,57.289 35.379,57.232 37.806,56.71"
     id="path3205"
     style="fill:none;stroke:#d48d78;stroke-width:1;stroke-linecap:round;stroke-linejoin:round" />
  <path
     d="M 9.667,57.86 C 4.5846,51.609 4.0923,36.598 6.1592,28.924 C 2.8349,34.211 3.574,37.286 2.2544,40.558 C -0.2183,22.737 9.332,14.96 11.303,12.477 C 13.213,10.071 24.527,2.074 31.926,2.2104 C 45.422,2.46 51.368,7.512 55.67,12.477 C 61.211,18.872 61.202,26.61 61.478,32.922 C 61.77,39.73 60.732,49.306 58.029,55.614 C 57.6,50.788 57.229,45.367 55.032,40.985 C 54.055,46.65 51.257,50.82 49.284,54.016 C 48.25,55.319 45.773,57.134 44.06,57.653 C 49.599,49.543 51.328,38.666 50.943,32.655 C 44.264,27.59 42.625,21.8 38.533,14.799 C 40.521,20.802 41.164,25.203 41.968,30.733 C 37.415,25.18 34.193,20.51 31.926,13.816 C 27.597,18.416 25.341,25.53 23.337,31.785 C 20.765,25.147 22.537,19.997 25.761,16.476 C 16.002,25.109 11.011,42.491 9.667,57.86 z"
     id="path2419"
     style="fill:#b08ae7;stroke:#7354b6;stroke-width:1;stroke-linecap:round;stroke-linejoin:round" />
  <path
     d="M 25.761,16.48 C 26.388,15.72 27.262,14.494 28.653,13.943 M 31.95,13.908 C 29.242,19.249 29.081,24.196 29.603,29.039 M 14.472,17.104 C 7.5564,25.984 7.3361,32.819 9.116,42.572 C 10.048,34.763 10.75,27.645 19.767,21.304 M 44.828,16.82 C 48.645,22.032 52.934,28.64 53.656,34.46 C 54.856,28.3 52.778,19.462 49.245,15.036 M 55.729,21.051 C 60.091,32.712 58.493,44.936 58.062,55.638 M 55.011,41.055 C 55.35,39.474 55.835,37.21 55.97,32.276 M 6.1475,28.906 C 6.639,26.011 7.5703,22.371 9.751,19.861 M 50.936,32.61 C 50.978,30.116 50.714,26.965 50.119,24.851"
     id="path3201"
     style="fill:none;stroke:#7354b6;stroke-width:1;stroke-linecap:round;stroke-linejoin:round" />
  <path
     d="M 18.102,15.716 C 25.408,5.3986 40.424,4.1573 48.189,16.431 C 40.14,10.249 30.884,7.6947 18.102,15.716 z"
     id="path3594"
     style="fill:#f4e181;stroke:#bca044;stroke-width:1;stroke-linecap:round;stroke-linejoin:round" />
  <path
     d="M 32.208,6.788 C 30.861,5.1141 29.365,3.5983 26.405,2.7712 C 22.905,1.7935 18.275,1.441 17.834,2.8605 C 17.098,5.2274 19.964,8.3827 22.923,10.717 C 24.01,11.575 24.964,12.427 27.476,12.145 C 29.374,11.932 31.254,11.816 31.762,10.27 C 32.886,11.824 34.244,11.039 35.601,10.27 C 37.481,11.331 39.77,11.757 42.565,10.806 C 46.192,9.57 49.644,6.2165 49.529,3.3069 C 49.459,1.5687 43.712,1.8016 39.618,2.5034 C 37.293,2.902 36.136,4.1983 35.244,7.0567 C 34.701,6.4481 33.655,5.3627 32.208,6.788 z"
     id="path3596"
     style="fill:#f4e181;stroke:#bca044;stroke-width:1;stroke-linecap:round;stroke-linejoin:round" />
  <path
     d="M 31.516,9.0209 C 28.707,8.9893 25.884,7.948 24.798,5.8961 M 35.288,7.146 C 36.21,7.7031 36.09,8.8515 36.069,9.467 M 32.23,6.8558 C 31.636,7.168 31.227,8.2593 31.516,9.043"
     id="path3598"
     style="fill:none;stroke:#bca044;stroke-width:1;stroke-linecap:round;stroke-linejoin:round" />
  <path
     d="M 21.625,33.281 C 21.25,33.234 20.875,33.625 20.5,34 C 20,34.5 19.5,35.5 20,36 C 20.5,36.5 21,36 21.5,35.5 C 22.085,34.915 22.5,34 22,33.5 C 21.875,33.375 21.75,33.297 21.625,33.281 z M 42.844,33.281 C 42.469,33.234 42.094,33.625 41.719,34 C 41.219,34.5 40.719,35.5 41.219,36 C 41.719,36.5 42.219,36 42.719,35.5 C 43.219,35 43.719,34 43.219,33.5 C 43.094,33.375 42.969,33.297 42.844,33.281 z"
     id="path2400"
     style="fill:#ffffff;stroke:none" />
</svg>
