<?xml version="1.0" encoding="UTF-8" standalone="no"?>
<!-- Created with Inkscape (http://www.inkscape.org/) -->
<svg
   xmlns:svg="http://www.w3.org/2000/svg"
   xmlns="http://www.w3.org/2000/svg"
   version="1.0"
   width="64"
   height="64"
   id="svg2385">
  <defs
     id="defs5" />
  <path
     d="M 12.158117,12.908117 C 7.7386995,17.327534 6.324486,24.398602 11.98134,30.055456 L 32.487437,50.561553 L 36.022971,47.026019 L 15.516874,26.519922 C 12.688447,23.691495 12.688447,19.448855 15.693651,16.443651 C 18.698855,13.438447 22.941495,13.438447 25.769922,16.266874 L 49.104446,39.601398 C 50.51866,41.015611 51.225767,43.136932 49.104446,45.258252 C 46.983126,47.379572 44.861806,46.672466 43.447592,45.258252 L 20.466622,22.277282 C 20.113068,21.923728 20.289821,21.393422 20.466622,21.216622 C 20.643737,21.039506 21.173728,20.863068 21.527282,21.216622 L 41.679825,41.369165 L 45.215359,37.833631 L 25.062816,17.681088 C 22.234389,14.852661 19.052408,15.206214 16.754311,17.504311 C 14.456214,19.802408 14.102661,22.984389 16.931088,25.812816 L 39.912058,48.793786 C 42.740485,51.622213 48.397339,53.036427 52.63998,48.793786 C 56.882621,44.551145 55.468407,38.894291 52.63998,36.065864 L 29.305456,12.73134 C 23.65649,7.0823737 16.577534,8.4886995 12.158117,12.908117 z"
     id="rect3171"
     style="fill:#cccccc;stroke:#000000;stroke-width:2;stroke-linecap:butt;stroke-linejoin:round" />
</svg>
