<?xml version="1.0" encoding="UTF-8" standalone="no"?>
<!-- Created with Inkscape (http://www.inkscape.org/) -->
<svg
   xmlns:svg="http://www.w3.org/2000/svg"
   xmlns="http://www.w3.org/2000/svg"
   version="1.0"
   width="64"
   height="64"
   id="svg2385">
  <defs
     id="defs2387" />
  <path
     d="M 31.75,2.0625 L 31.03125,5.59375 L 31.75,2.0625 z M 51.25,10.84375 L 48.4375,13.65625 L 51.25,10.84375 z M 5.59375,31.0625 L 2.03125,31.75 L 5.59375,31.0625 z M 43.233,50.327 L 46.045,51.714 L 43.233,50.327 z M 56.906,33.469 L 61.843,31.344 L 56.906,33.469 z M 13.34375,48.75 L 10.53125,51.5625 L 13.34375,48.75 z M 33.15625,57.21875 L 31.03125,62.15625 L 33.15625,57.21875 z M 50.125,43.094 L 51.531,45.906"
     id="path3526"
     style="fill:none;stroke:#000000;stroke-width:1;stroke-linecap:round;stroke-linejoin:round" />
  <path
     d="M 31.03125,5.59375 L 32.4375,9.84375 L 31.03125,5.59375 z M 48.4375,13.65625 L 48.4375,20.75 L 48.4375,13.65625 z M 48.4375,29.21875 L 56.90625,33.46875 L 48.4375,29.21875 z M 5.59375,31.0625 L 9.8125,32.46875 L 5.59375,31.0625 z M 13.34375,48.75 L 20.4375,48.75 L 13.34375,48.75 z M 28.90625,48.75 L 33.15625,57.21875 L 28.90625,48.75 z"
     id="path3528"
     style="fill:none;stroke:#000000;stroke-width:2;stroke-linecap:round;stroke-linejoin:round" />
  <path
     d="M 32.4375,9.84375 L 31.375,13.03125 L 32.4375,9.84375 z M 48.4375,20.75 L 42.78125,22.15625 L 48.4375,20.75 z M 48.4375,29.21875 L 46.59375,32.46875 L 48.4375,29.21875 z M 13,31.40625 L 9.8125,32.46875 L 13,31.40625 z M 21.84375,43.09375 L 20.4375,48.75 L 21.84375,43.09375 z M 32.15625,46.90625 L 28.90625,48.75 L 32.15625,46.90625 z"
     id="path3530"
     style="fill:none;stroke:#000000;stroke-width:3;stroke-linecap:round;stroke-linejoin:round" />
  <path
     d="M 35.985127,36.008047 C 35.594804,36.398369 30.526263,31.963396 24.671418,26.108552 C 19.542995,20.980128 13.711263,17.976824 14.771923,15.855503 C 14.9487,15.325173 15.302254,14.97162 15.832584,14.794843 C 17.953904,13.734183 20.912307,19.521013 26.085632,24.694338 C 31.940476,30.549182 36.37545,35.617724 35.985127,36.008047 z"
     id="path3291"
     style="fill:#000000;stroke:#333333;stroke-width:0.75;stroke-linecap:round;stroke-linejoin:round" />
  <path
     d="M 40.227768,19.037484 C 32.655518,11.465234 22.516,9.1940078 16.53969,14.44129 C 17.967665,17.015131 24.259447,23.30146 40.934874,40.957794 C 46.789719,35.10295 48.034226,26.843943 40.227768,19.037484 z M 40.934874,40.957794 C 23.27854,24.282367 16.992211,17.990585 14.41837,16.56261 C 9.1710888,22.53892 11.442315,32.678438 19.014564,40.250687 C 26.821023,48.057146 35.08003,46.812638 40.934874,40.957794 z"
     id="path3242"
     style="fill:#ff0000;stroke:#800000;stroke-width:0.75;stroke-linecap:round;stroke-linejoin:round" />
  <path
     d="M 44.470408,44.493328 C 41.312629,47.651107 33.694101,47.859156 31.742486,45.907541 C 29.790872,43.955927 32.827348,39.165826 35.985127,36.008047 C 39.142906,32.850267 43.933007,29.813791 45.884622,31.765406 C 47.836237,33.717021 47.628187,41.335549 44.470408,44.493328 z"
     id="path3245"
     style="fill:#000000;stroke:#333333;stroke-width:0.75;stroke-linecap:round;stroke-linejoin:round" />
  <path
     d="M 46.250116,46.273036 C 44.128536,48.394616 40.934874,49.443075 39.520661,48.028862 C 38.106447,46.614648 38.813554,43.079114 40.934874,40.957794 C 43.056195,38.836474 46.591729,38.129367 48.005942,39.54358 C 49.420156,40.957794 48.371697,44.151455 46.250116,46.273036 z"
     id="path3248"
     style="fill:#000000;stroke:#333333;stroke-width:0.75;stroke-linecap:round;stroke-linejoin:round" />
  <path
     d="M 46.945282,39.897134 C 46.588967,39.60711 46.238175,39.54358 45.707845,40.073911 C 45.000738,40.781017 45.707845,40.427464 46.414952,41.134571 C 47.122059,41.841677 46.768505,42.548784 47.475612,41.841677 C 48.182719,41.134571 47.829165,40.781017 47.298835,40.250687 C 47.166253,40.118105 47.064054,39.993809 46.945282,39.897134 z M 40.51503,45.443503 C 40.436309,45.385497 40.316156,45.4656 40.050991,45.730765 C 39.322122,46.459633 39.697438,46.791425 40.227768,47.321755 C 40.758098,47.852085 41.111651,48.205639 41.818758,47.498532 C 42.525865,46.791425 41.818758,47.144978 41.111651,46.437872 C 40.669709,45.99593 40.646231,45.540178 40.51503,45.443503 z"
     id="path3271"
     style="fill:#666666;stroke:#666666;stroke-width:0.75;stroke-linecap:round;stroke-linejoin:round" />
  <path
     d="M 40.227768,21.865911 C 39.447122,21.085265 38.179986,21.085265 37.39934,21.865911 C 36.618695,22.646557 36.618695,23.913692 37.39934,24.694338 C 38.179986,25.474984 39.447122,25.474984 40.227768,24.694338 C 41.008413,23.913692 41.008413,22.646557 40.227768,21.865911 z M 29.621166,14.087736 C 28.84052,13.30709 27.573385,13.30709 26.792739,14.087736 C 26.012093,14.868382 26.012093,16.135518 26.792739,16.916163 C 27.573385,17.696809 28.84052,17.696809 29.621166,16.916163 C 30.401812,16.135518 30.401812,14.868382 29.621166,14.087736 z M 31.742486,21.865911 C 30.96184,21.085265 29.694705,21.085265 28.914059,21.865911 C 28.133413,22.646557 28.133413,23.913692 28.914059,24.694338 C 29.694705,25.474984 30.96184,25.474984 31.742486,24.694338 C 32.523132,23.913692 32.523132,22.646557 31.742486,21.865911 z M 35.985127,30.351192 C 33.863807,28.229872 33.863807,31.058299 32.449593,32.472513 C 30.888301,34.033804 28.206952,33.886726 30.328273,36.008047 C 31.108919,36.788692 33.716728,36.862232 35.27802,35.30094 C 36.839312,33.739648 36.765773,31.131838 35.985127,30.351192 z M 24.671418,28.936979 C 23.890773,28.156333 22.623637,28.156333 21.842991,28.936979 C 21.062345,29.717625 21.062345,30.98476 21.842991,31.765406 C 22.623637,32.546052 23.890773,32.546052 24.671418,31.765406 C 25.452064,30.98476 25.452064,29.717625 24.671418,28.936979 z M 16.893244,26.815658 C 16.112598,26.035013 14.845463,26.035013 14.064817,26.815658 C 13.284171,27.596304 13.284171,28.86344 14.064817,29.644086 C 14.845463,30.424731 16.112598,30.424731 16.893244,29.644086 C 17.67389,28.86344 17.67389,27.596304 16.893244,26.815658 z M 24.671418,37.42226 C 23.890773,36.641614 22.623637,36.641614 21.842991,37.42226 C 21.062345,38.202906 21.062345,39.470041 21.842991,40.250687 C 22.623637,41.031333 23.890773,41.031333 24.671418,40.250687 C 25.452064,39.470041 25.452064,38.202906 24.671418,37.42226 z"
     id="path3401"
     style="fill:#000000;stroke:#000000;stroke-width:0.75;stroke-linecap:round;stroke-linejoin:round" />
  <path
     d="M 50.127263,43.079114 L 48.293204,42.65927 L 50.127263,43.079114 z M 42.63635,48.316124 L 43.232971,50.326959 L 42.63635,48.316124 z"
     id="path3475"
     style="fill:none;stroke:#000000;stroke-width:1.5;stroke-linecap:round;stroke-linejoin:round" />
  <path
     d="M 37.25,31.8125 C 36.814639,31.994444 36.57577,33.067211 36.34375,33.53125 C 36.185636,33.847477 35.979473,34.229474 36.15625,34.40625 C 36.333027,34.583026 36.855393,34.050857 37.5625,33.34375 C 37.812499,33.09375 38.447304,32.822303 38.09375,32.46875 C 37.96117,32.247781 37.861866,32.109794 37.75,32 C 37.554233,31.807859 37.39512,31.751852 37.25,31.8125 z M 45.03125,32.40625 C 44.745695,32.452934 44.608007,33.703399 43.75,33.875 C 41.982233,34.228554 41.80463,34.970291 42.6875,35.65625 C 43.48336,36.274606 45.484677,37.827823 45.875,37.4375 C 46.582108,36.730393 45.894607,33.175856 45.1875,32.46875 C 45.13809,32.41934 45.072044,32.399581 45.03125,32.40625 z M 34.21875,36.125 C 34.019414,36.112802 33.737171,36.256415 33.5,36.375 C 32.792892,36.728554 30.669733,37.06434 32.4375,38.125 C 32.791053,38.478552 33.093751,37.84375 33.34375,37.59375 C 34.050856,36.886643 34.583026,36.364277 34.40625,36.1875 C 34.362055,36.143306 34.285195,36.129066 34.21875,36.125 z M 45.1875,41.875 C 45.054918,41.875 44.900888,41.942861 44.8125,42.03125 C 44.635722,42.208025 44.635723,42.541973 44.8125,42.71875 C 44.989275,42.895529 45.354474,42.895527 45.53125,42.71875 C 45.708028,42.541975 45.708027,42.208027 45.53125,42.03125 C 45.442863,41.942861 45.320082,41.875 45.1875,41.875 z M 34.90625,42.21875 C 34.471244,42.154065 34.107019,42.621153 33.875,43.78125 C 33.678883,44.76183 32.042215,44.792215 32.4375,45.1875 C 33.144607,45.894605 36.699144,46.613357 37.40625,45.90625 C 37.796571,45.51593 36.243354,43.514609 35.625,42.71875 C 35.539256,42.608393 35.461253,42.544985 35.375,42.46875 C 35.224058,42.335339 35.051252,42.240312 34.90625,42.21875 z M 42.34375,44.71875 C 42.211168,44.71875 42.088388,44.755362 42,44.84375 C 41.823221,45.020526 41.823223,45.385723 42,45.5625 C 42.176774,45.739276 42.510724,45.739277 42.6875,45.5625 C 42.864277,45.385722 42.864277,45.020527 42.6875,44.84375 C 42.599112,44.755362 42.476332,44.71875 42.34375,44.71875 z"
     id="path3336"
     style="fill:#f4eed7;stroke:#f4eed7;stroke-width:0.75;stroke-linecap:round;stroke-linejoin:round" />
</svg>
