<?xml version="1.0" encoding="UTF-8" standalone="no"?>
<!-- Created with Inkscape (http://www.inkscape.org/) -->
<svg
   xmlns:svg="http://www.w3.org/2000/svg"
   xmlns="http://www.w3.org/2000/svg"
   version="1.0"
   width="64"
   height="64"
   id="svg2383">
  <defs
     id="defs2385" />
  <path
     d="M 8,2 L 8,8 L 2,8 L 2,11 L 8,11 L 8,17 L 11,17 L 11,11 L 17,11 L 17,8 L 11,8 L 11,2 L 8,2 z M 17,16 C 16.5,16 16,16.5 16,17 C 16,17.5 16.5,18 17,18 C 17.5,18 18,17.5 18,17 C 18,16.5 17.5,16 17,16 z M 23,17 L 23,23 L 17,23 L 17,26 L 23,26 L 23,32 L 26,32 L 26,26 L 32,26 L 32,23 L 26,23 L 26,17 L 23,17 z M 32,31 C 31.5,31 31,31.5 31,32 C 31,32.5 31.5,33 32,33 C 32.5,33 33,32.5 33,32 C 33,31.5 32.5,31 32,31 z M 38,32 L 38,38 L 32,38 L 32,41 L 38,41 L 38,47 L 41,47 L 41,41 L 47,41 L 47,38 L 41,38 L 41,32 L 38,32 z M 47,46 C 46.5,46 46,46.5 46,47 C 46,47.5 46.5,48 47,48 C 47.5,48 48,47.5 48,47 C 48,46.5 47.5,46 47,46 z M 53,47 L 53,53 L 47,53 L 47,56 L 53,56 L 53,62 L 56,62 L 56,56 L 62,56 L 62,53 L 56,53 L 56,47 L 53,47 z"
     id="path2396"
     style="fill:#000000;stroke:#000000;stroke-width:1;stroke-linecap:round;stroke-linejoin:round" />
</svg>
