<?xml version="1.0" encoding="UTF-8" standalone="no"?>
<!-- Created with Inkscape (http://www.inkscape.org/) -->
<svg
   xmlns:svg="http://www.w3.org/2000/svg"
   xmlns="http://www.w3.org/2000/svg"
   version="1.0"
   width="64"
   height="64"
   id="svg2385">
  <defs
     id="defs2387" />
  <path
     d="M 17.125,14.625 C 12.875,25.822917 8.625,37.020833 4.375,48.21875 C 6.3333333,48.21875 8.2916667,48.21875 10.25,48.21875 C 11.485949,45.185654 12.614496,42.110584 13.8125,39.0625 C 17.458333,39.0625 21.104167,39.0625 24.75,39.0625 C 25.927083,42.114583 27.104167,45.166667 28.28125,48.21875 C 30.25,48.21875 32.21875,48.21875 34.1875,48.21875 C 29.9375,37.020833 25.6875,25.822917 21.4375,14.625 C 20,14.625 18.5625,14.625 17.125,14.625 z M 36.5,14.65625 C 36.5,25.854167 36.5,37.052083 36.5,48.25 C 40.713893,48.218867 44.93206,48.314801 49.143057,48.197266 C 55.169263,47.587289 59.846373,40.644338 57.421583,34.913549 C 56.55425,32.715838 54.571847,31.185135 52.46875,30.25 C 56.242899,27.505308 57.199749,21.644536 54.723621,17.752702 C 52.3495,14.707597 48.062448,14.659696 44.537008,14.65625 C 41.858005,14.65625 39.179003,14.65625 36.5,14.65625 z"
     id="text3813"
     style="fill:#ff0000;stroke:#ff0000;stroke-width:4;stroke-linecap:butt;stroke-linejoin:miter;stroke-miterlimit:4" />
  <path
     d="M 17.125,14.625 C 12.875001,25.828125 8.6249997,37.015625 4.375,48.21875 C 6.3359376,48.21875 8.2890627,48.21875 10.25,48.21875 C 11.440443,45.165241 12.619808,42.115191 13.8125,39.0625 C 17.453125,39.0625 21.109374,39.0625 24.75,39.0625 C 25.929686,42.117187 27.101563,45.164063 28.28125,48.21875 C 30.25,48.21875 32.21875,48.21875 34.1875,48.21875 C 29.9375,37.015625 25.6875,25.828125 21.4375,14.625 C 20,14.625 18.5625,14.625 17.125,14.625 z M 36.5,14.65625 C 36.5,25.859375 36.5,37.046875 36.5,48.25 C 39.884825,48.25 43.271424,48.25 46.65625,48.25 C 48.706101,48.317306 50.82792,48.160089 52.625,47.0625 C 56.355851,45.061826 58.812453,40.633443 57.875,36.40625 C 57.411316,33.514636 55.059625,31.350242 52.46875,30.25 C 54.106502,29.045619 55.293066,27.26484 55.75,25.28125 C 56.378789,22.422239 56.204185,18.979799 53.90625,16.875 C 51.394618,14.757057 47.936345,14.689891 44.8125,14.65625 C 42.039062,14.65625 39.273438,14.65625 36.5,14.65625 z M 42.34375,20.125 C 42.683127,20.125 43.035623,20.125 43.375,20.125 C 44.939644,20.172271 46.511728,20.037069 48.0625,20.25 C 50.289762,20.819789 50.745519,23.749637 49.59375,25.46875 C 48.057973,27.85803 44.98524,28.412252 42.34375,28.3125 C 42.34375,25.585937 42.34375,22.851563 42.34375,20.125 z M 19.28125,24.34375 C 20.442302,27.409363 21.531781,30.50662 22.71875,33.5625 C 20.390624,33.5625 18.078125,33.5625 15.75,33.5625 C 16.929687,30.492188 18.101564,27.414062 19.28125,24.34375 z M 42.34375,33.8125 C 43.776096,33.810166 45.205633,33.804967 46.625,34.03125 C 48.728977,34.360514 51.305561,35.102226 52.0625,37.34375 C 52.829072,39.794555 50.621073,42.285624 48.28125,42.71875 C 46.303292,42.833799 44.326361,42.751872 42.34375,42.78125 C 42.34375,39.796875 42.34375,36.796875 42.34375,33.8125 z"
     id="text2397"
     style="fill:#000000;stroke:none" />
</svg>
