<?xml version="1.0" encoding="UTF-8" standalone="no"?>
<!-- Created with Inkscape (http://www.inkscape.org/) -->
<svg
   xmlns:svg="http://www.w3.org/2000/svg"
   xmlns="http://www.w3.org/2000/svg"
   version="1.0"
   width="64"
   height="64"
   id="svg2385">
  <defs
     id="defs2387" />
  <path
     d="M 18,16 C 10,16 4,24 4,28 C 4,31 6,32 8,32 C 10,32 11,30 12,28 C 13,26 16,24 18,24 C 22,24 24,26 27.5,32 C 31,38 36,48 46,48 C 54,48 60,40 60,36 C 60,33 58,32 56,32 C 54,32 53,34 52,36 C 51,38 48,40 46,40 C 42,40 40,38 36.5,32 C 33,26 28,16 18,16 z"
     id="path2395"
     style="fill:#ff0000;stroke:#800000;stroke-width:2;stroke-linecap:round;stroke-linejoin:round" />
  <path
     d="M 44.5,10.5 L 44.5,16.5 L 38.5,16.5 L 38.5,19.5 L 44.5,19.5 L 44.5,25.5 L 47.5,25.5 L 47.5,19.5 L 53.5,19.5 L 53.5,16.5 L 47.5,16.5 L 47.5,10.5 L 44.5,10.5 z M 16.5,38.5 L 16.5,44.5 L 10.5,44.5 L 10.5,47.5 L 16.5,47.5 L 16.5,53.5 L 19.5,53.5 L 19.5,47.5 L 25.5,47.5 L 25.5,44.5 L 19.5,44.5 L 19.5,38.5 L 16.5,38.5 z"
     id="path2401"
     style="fill:#000000;stroke:#000000;stroke-width:1;stroke-linecap:butt;stroke-linejoin:round" />
</svg>
