<?xml version="1.0" encoding="UTF-8" standalone="no"?>
<!-- Created with Inkscape (http://www.inkscape.org/) -->
<svg
   xmlns:svg="http://www.w3.org/2000/svg"
   xmlns="http://www.w3.org/2000/svg"
   version="1.0"
   width="64"
   height="64"
   id="svg2385">
  <defs
     id="defs2387" />
  <path
     d="M 21.125,18.625 C 16.875001,29.828125 12.625,41.015625 8.375,52.21875 C 10.335938,52.21875 12.289062,52.21875 14.25,52.21875 C 15.440443,49.165241 16.619807,46.115191 17.8125,43.0625 C 21.453125,43.0625 25.109375,43.0625 28.75,43.0625 C 29.929686,46.117187 31.101563,49.164063 32.28125,52.21875 C 34.25,52.21875 36.21875,52.21875 38.1875,52.21875 C 33.9375,41.015625 29.6875,29.828125 25.4375,18.625 C 24,18.625 22.5625,18.625 21.125,18.625 z M 40.5,18.65625 C 40.5,29.859375 40.5,41.046875 40.5,52.25 C 43.884825,52.25 47.271424,52.25 50.65625,52.25 C 52.706101,52.317306 54.82792,52.160089 56.625,51.0625 C 60.355851,49.061826 62.812453,44.633443 61.875,40.40625 C 61.411316,37.514636 59.059625,35.350242 56.46875,34.25 C 58.106502,33.045619 59.293066,31.26484 59.75,29.28125 C 60.378789,26.422239 60.204185,22.979799 57.90625,20.875 C 55.394618,18.757057 51.936345,18.689891 48.8125,18.65625 C 46.039062,18.65625 43.273438,18.65625 40.5,18.65625 z"
     id="text2397"
     style="fill:#ff0000;stroke:none" />
  <path
     d="M 17.125,14.625 C 12.875001,25.828125 8.6249997,37.015625 4.375,48.21875 C 6.3359376,48.21875 8.2890627,48.21875 10.25,48.21875 C 11.440443,45.165241 12.619808,42.115191 13.8125,39.0625 C 17.453125,39.0625 21.109374,39.0625 24.75,39.0625 C 25.929686,42.117187 27.101563,45.164063 28.28125,48.21875 C 30.25,48.21875 32.21875,48.21875 34.1875,48.21875 C 29.9375,37.015625 25.6875,25.828125 21.4375,14.625 C 20,14.625 18.5625,14.625 17.125,14.625 z M 36.5,14.65625 C 36.5,25.859375 36.5,37.046875 36.5,48.25 C 39.884825,48.25 43.271424,48.25 46.65625,48.25 C 48.706101,48.317306 50.82792,48.160089 52.625,47.0625 C 56.355851,45.061826 58.812453,40.633443 57.875,36.40625 C 57.411316,33.514636 55.059625,31.350242 52.46875,30.25 C 54.106502,29.045619 55.293066,27.26484 55.75,25.28125 C 56.378789,22.422239 56.204185,18.979799 53.90625,16.875 C 51.394618,14.757057 47.936345,14.689891 44.8125,14.65625 C 42.039062,14.65625 39.273438,14.65625 36.5,14.65625 z M 42.34375,20.125 C 42.683127,20.125 43.035623,20.125 43.375,20.125 C 44.939644,20.172271 46.511728,20.037069 48.0625,20.25 C 50.289762,20.819789 50.745519,23.749637 49.59375,25.46875 C 48.057973,27.85803 44.98524,28.412252 42.34375,28.3125 C 42.34375,25.585937 42.34375,22.851563 42.34375,20.125 z M 19.28125,24.34375 C 20.442302,27.409363 21.531781,30.50662 22.71875,33.5625 C 20.390624,33.5625 18.078125,33.5625 15.75,33.5625 C 16.929687,30.492188 18.101564,27.414062 19.28125,24.34375 z M 42.34375,33.8125 C 43.776096,33.810166 45.205633,33.804967 46.625,34.03125 C 48.728977,34.360514 51.305561,35.102226 52.0625,37.34375 C 52.829072,39.794555 50.621073,42.285624 48.28125,42.71875 C 46.303292,42.833799 44.326361,42.751872 42.34375,42.78125 C 42.34375,39.796875 42.34375,36.796875 42.34375,33.8125 z"
     id="text3220"
     style="fill:#000000;stroke:none" />
</svg>
