<?xml version="1.0" encoding="UTF-8" standalone="no"?>
<!-- Created with Inkscape (http://www.inkscape.org/) -->
<svg
   xmlns:svg="http://www.w3.org/2000/svg"
   xmlns="http://www.w3.org/2000/svg"
   version="1.0"
   width="64"
   height="64"
   id="svg2385">
  <defs
     id="defs2387" />
  <path
     d="M 17.125,14.625 C 12.875,25.822917 8.625,37.020833 4.375,48.21875 C 6.3333333,48.21875 8.2916667,48.21875 10.25,48.21875 C 11.485949,45.185654 12.614496,42.110584 13.8125,39.0625 C 17.458333,39.0625 21.104167,39.0625 24.75,39.0625 C 25.927083,42.114583 27.104167,45.166667 28.28125,48.21875 C 30.25,48.21875 32.21875,48.21875 34.1875,48.21875 C 29.9375,37.020833 25.6875,25.822917 21.4375,14.625 C 20,14.625 18.5625,14.625 17.125,14.625 z M 19.28125,24.34375 C 20.438016,27.412601 21.545507,30.499833 22.71875,33.5625 C 20.395833,33.5625 18.072917,33.5625 15.75,33.5625 C 16.927083,30.489583 18.104167,27.416667 19.28125,24.34375 z"
     id="path2393"
     style="fill:#000000;stroke:none" />
  <path
     d="M 42.347,20.131187 C 42.347,22.85775 42.347,25.584312 42.347,28.310875 C 44.98849,28.410627 48.053411,27.864217 49.589188,25.474937 C 50.740957,23.755824 50.290072,20.806282 48.06281,20.236493 C 46.512037,20.023561 44.929775,20.178458 43.365131,20.131187 C 43.025754,20.131187 42.686377,20.131187 42.347,20.131187 z M 42.347,33.818687 C 42.347,36.803062 42.347,39.787437 42.347,42.771812 C 44.329611,42.742434 46.318861,42.834131 48.296819,42.719082 C 50.636641,42.285956 52.820529,39.799224 52.053957,37.348419 C 51.29702,35.106895 48.741678,34.351941 46.637701,34.022677 C 45.218332,33.796395 43.779346,33.816353 42.347,33.818687 z M 44.807938,14.646812 C 47.931783,14.680453 51.402496,14.75545 53.914128,16.873393 C 56.212062,18.978191 56.382039,22.428426 55.75325,25.287437 C 55.296316,27.271027 54.109752,29.051806 52.472,30.256187 C 55.062875,31.356429 57.400206,33.503376 57.86389,36.39499 C 58.801345,40.622182 56.347907,45.076406 52.617056,47.07708 C 50.819978,48.174669 48.691951,48.323493 46.6421,48.256187 C 43.257275,48.256187 39.87245,48.256187 36.487625,48.256187 C 36.487625,37.053062 36.487625,25.849937 36.487625,14.646812 C 39.261063,14.646812 42.0345,14.646812 44.807938,14.646812 z"
     id="text2401"
     style="fill:#ff0000;stroke:none" />
</svg>
