<?xml version="1.0" encoding="UTF-8" standalone="no"?>
<!-- Created with Inkscape (http://www.inkscape.org/) -->
<svg
   xmlns:svg="http://www.w3.org/2000/svg"
   xmlns="http://www.w3.org/2000/svg"
   version="1.0"
   width="64"
   height="64"
   id="svg2383">
  <defs
     id="defs5" />
  <path
     d="M 19.59375,13.84375 C 19.59375,19.021788 19.59375,24.196961 19.59375,29.375 C 19.657144,32.394218 19.390864,35.440962 19.84375,38.4375 C 20.398351,41.8681 22.563604,45.142418 25.875,46.4375 C 30.091305,48.184646 35.108853,48.111914 39.21875,46.09375 C 43.06179,44.377553 45.414005,40.261369 45.5,36.125 C 45.558548,28.705914 45.515012,21.263544 45.53125,13.84375 C 43.585938,13.84375 41.632812,13.84375 39.6875,13.84375 C 39.6875,19.873004 39.6875,25.908244 39.6875,31.9375 C 39.615677,34.31663 40.072189,36.932718 38.59375,39 C 36.701541,41.957521 32.704442,42.821918 29.5,41.78125 C 26.942926,41.094306 25.457489,38.437095 25.4375,35.90625 C 25.390804,28.55081 25.41941,21.199791 25.40625,13.84375 C 23.460938,13.84375 21.539062,13.84375 19.59375,13.84375 z M 14,52 L 14,55 L 51,55 L 51,52 L 14,52 z"
     id="path2387"
     style="fill:#000000;stroke:none" />
</svg>
