<?xml version="1.0" encoding="UTF-8" standalone="no"?>
<!-- Created with Inkscape (http://www.inkscape.org/) -->
<svg
   xmlns:svg="http://www.w3.org/2000/svg"
   xmlns="http://www.w3.org/2000/svg"
   version="1.0"
   width="64"
   height="64"
   id="svg2383">
  <defs
     id="defs7" />
  <path
     d="M 6,30 L 6,34 L 11,34 L 11,30 L 6,30 z M 14,30 L 14,34 L 19,34 L 19,30 L 14,30 z M 22,30 L 22,34 L 27,34 L 27,30 L 22,30 z M 30,30 L 30,34 L 35,34 L 35,30 L 30,30 z M 38,30 L 38,34 L 43,34 L 43,30 L 38,30 z M 46,30 L 46,34 L 51,34 L 51,30 L 46,30 z"
     id="path3220"
     style="fill:#ff0000;stroke:none" />
  <path
     d="M 59,14 L 59,18 L 55,18 L 55,46 L 59,46 L 59,50 L 51,50 L 51,14 L 59,14 z"
     id="path3138"
     style="fill:#0000ff;stroke:none" />
  <path
     d="M 26,18 L 41,32 L 26,46 L 26,18 z"
     id="rect2391"
     style="fill:#000000;stroke:none" />
</svg>
