<?xml version="1.0" encoding="UTF-8" standalone="no"?>
<!-- Created with Inkscape (http://www.inkscape.org/) -->
<svg
   xmlns:svg="http://www.w3.org/2000/svg"
   xmlns="http://www.w3.org/2000/svg"
   version="1.0"
   width="64"
   height="64"
   id="svg2383">
  <defs
     id="defs5" />
  <path
     d="M 32.3125,13.65625 C 28.001442,13.572465 23.317423,16.437533 22.757079,20.931656 C 22.378036,23.971695 23.809289,27.016909 26.09375,29 C 21.729167,29 17.364583,29 13,29 C 13,30 13,31 13,32 C 18.75,32 24.5,32 30.25,32 C 32.595388,33.470354 35.548065,35.063201 36.033194,38.096685 C 36.347442,40.061659 34.855965,41.73325 32.930721,42.043947 C 30.642862,42.413163 28.448256,41.677399 26.522733,40.535235 C 25.92626,40.181425 25.043732,39.635776 24.594,39.312 C 23.415492,40.608551 22.267273,42.225836 21.125,43.65625 C 23.806048,45.865826 27.175974,47.40363 30.624262,47.668823 C 34.948821,48.001407 39.934433,45.74198 41.46875,41.40625 C 42.604965,38.195492 41.596507,34.49956 39.34375,32 C 43.5625,32 47.78125,32 52,32 C 52,31 52,30 52,29 C 46.697917,29 41.395833,29 36.09375,29 C 33.792663,27.208813 31.084101,25.854921 29.184199,23.582533 C 27.408989,21.459284 29.865357,19.409311 32.062491,19.371115 C 34.451005,19.329591 36.614625,20.314589 38.65625,21.375 C 39.552083,19.854167 40.447917,18.333333 41.34375,16.8125 C 38.936619,14.566949 35.542008,13.719015 32.3125,13.65625 z"
     id="text3299"
     style="fill:#000000;stroke:none" />
</svg>
