<?xml version="1.0" encoding="UTF-8" standalone="no"?>
<!-- Created with Inkscape (http://www.inkscape.org/) -->
<svg
   xmlns:svg="http://www.w3.org/2000/svg"
   xmlns="http://www.w3.org/2000/svg"
   version="1.0"
   width="64"
   height="64"
   id="svg2383">
  <defs
     id="defs5" />
  <path
     d="M 27.534775,19.336426 C 27.534775,22.062988 27.534775,24.789551 27.534775,27.516113 C 30.255673,27.627076 33.480286,27.012529 34.919779,24.434456 C 35.937304,22.667537 35.313981,19.824649 33.089451,19.40383 C 31.248139,19.262569 29.383348,19.369941 27.534775,19.336426 z M 27.534775,33.023926 C 27.534775,36.008301 27.534775,38.992676 27.534775,41.977051 C 29.517352,41.947104 31.506684,42.040176 33.484593,41.92432 C 35.966966,41.487209 38.250149,38.666008 37.08793,36.153751 C 35.946144,33.904632 33.174794,33.374951 30.895305,33.113652 C 29.778086,33.003734 28.655572,33.025306 27.534775,33.023926 z M 29.995712,13.852051 C 33.192999,13.891911 36.844084,13.95834 39.316689,16.283702 C 41.541881,18.579568 41.587162,22.169444 40.776218,25.074231 C 40.260068,26.834247 39.124706,28.370955 37.659775,29.461426 C 40.360669,30.591113 42.742962,32.897355 43.108566,35.916542 C 44.224773,41.837431 38.771337,47.829643 32.801584,47.461426 C 29.092856,47.461426 25.384128,47.461426 21.6754,47.461426 C 21.6754,36.258301 21.6754,25.055176 21.6754,13.852051 C 24.448837,13.852051 27.222275,13.852051 29.995712,13.852051 z"
     id="text3299"
     style="fill:#000000;stroke:#000000;stroke-width:4;stroke-linecap:butt;stroke-linejoin:miter;stroke-miterlimit:4" />
</svg>
