<?xml version="1.0" encoding="UTF-8" standalone="no"?>
<!-- Created with Inkscape (http://www.inkscape.org/) -->
<svg
   xmlns:svg="http://www.w3.org/2000/svg"
   xmlns="http://www.w3.org/2000/svg"
   version="1.0"
   width="64"
   height="64"
   id="svg2383">
  <defs
     id="defs2385" />
  <path
     d="M 14,8 L 14,14 L 8,14 L 8,17 L 14,17 L 14,23 L 17,23 L 17,17 L 23,17 L 23,14 L 17,14 L 17,8 L 14,8 z M 46,20 L 46,26 L 40,26 L 40,29 L 46,29 L 46,35 L 49,35 L 49,29 L 55,29 L 55,26 L 49,26 L 49,20 L 46,20 z M 22,42 L 22,48 L 16,48 L 16,51 L 22,51 L 22,57 L 25,57 L 25,51 L 31,51 L 31,48 L 25,48 L 25,42 L 22,42 z"
     id="path2476"
     style="fill:#000000;stroke:#000000;stroke-width:1;stroke-linecap:round;stroke-linejoin:round" />
</svg>
