<?xml version="1.0" encoding="UTF-8" standalone="no"?>
<!-- Created with Inkscape (http://www.inkscape.org/) -->
<svg
   xmlns:svg="http://www.w3.org/2000/svg"
   xmlns="http://www.w3.org/2000/svg"
   version="1.0"
   width="64"
   height="64"
   id="svg2383">
  <defs
     id="defs7" />
  <path
     d="M 59,30 L 59,34 L 54,34 L 54,30 L 59,30 z M 51,30 L 51,34 L 46,34 L 46,30 L 51,30 z M 43,30 L 43,34 L 38,34 L 38,30 L 43,30 z M 35,30 L 35,34 L 30,34 L 30,30 L 35,30 z M 27,30 L 27,34 L 22,34 L 22,30 L 27,30 z M 19,30 L 19,34 L 14,34 L 14,30 L 19,30 z"
     id="path3220"
     style="fill:#ff0000;stroke:none" />
  <path
     d="M 6,14 L 6,18 L 10,18 L 10,46 L 6,46 L 6,50 L 14,50 L 14,14 L 6,14 z"
     id="path3138"
     style="fill:#0000ff;stroke:none" />
  <path
     d="M 26,18 L 41,32 L 26,46 L 26,18 z"
     id="rect2391"
     style="fill:#000000;stroke:none" />
</svg>
