<?xml version="1.0" encoding="UTF-8" standalone="no"?>
<!-- Created with Inkscape (http://www.inkscape.org/) -->
<svg
   xmlns:svg="http://www.w3.org/2000/svg"
   xmlns="http://www.w3.org/2000/svg"
   version="1.0"
   width="64"
   height="64"
   id="svg2383">
  <defs
     id="defs6" />
  <path
     d="M 5,30 L 5,34 L 10,34 L 10,30 L 5,30 z M 13,30 L 13,34 L 18,34 L 18,30 L 13,30 z M 21,30 L 21,34 L 26,34 L 26,30 L 21,30 z M 29,30 L 29,34 L 34,34 L 34,30 L 29,30 z M 37,30 L 37,34 L 42,34 L 42,30 L 37,30 z M 45,30 L 45,34 L 50,34 L 50,30 L 45,30 z"
     id="path3220"
     style="fill:#008000;stroke:#008000;stroke-width:2;stroke-linecap:round;stroke-linejoin:round" />
  <path
     d="M 58,14 L 58,18 L 54,18 L 54,46 L 58,46 L 58,50 L 50,50 L 50,14 L 58,14 z"
     id="path3138"
     style="fill:#0000ff;stroke:#0000ff;stroke-width:2;stroke-linecap:round;stroke-linejoin:round" />
</svg>
