<?xml version="1.0" encoding="UTF-8" standalone="no"?>
<!-- Created with Inkscape (http://www.inkscape.org/) -->
<svg
   xmlns:svg="http://www.w3.org/2000/svg"
   xmlns="http://www.w3.org/2000/svg"
   version="1.0"
   width="64"
   height="64"
   id="svg2383">
  <defs
     id="defs5" />
  <path
     d="M 33.161858,20.377106 C 33.795007,18.971042 34.083667,16.602891 32.12161,16.173848 C 31.365083,16.297951 29.20935,16.059701 30.598224,15.146332 C 35.229251,15.21269 39.877832,15.154222 44.515862,15.173981 C 44.269993,16.722278 42.25833,15.772655 41.238519,16.437146 C 39.336312,17.180837 38.467454,19.188012 37.946818,21.018238 C 35.352317,28.599085 32.770871,36.18773 30.217981,43.78063 C 29.591089,45.410264 30.859023,47.138488 32.59943,46.887738 C 33.757606,46.462645 33.997957,48.135083 32.758784,47.817679 C 28.245201,47.830221 23.7316,47.818112 19.21801,47.822418 C 19.466235,46.273183 21.479434,47.222622 22.503467,46.563645 C 24.401988,45.834688 25.282971,43.843115 25.797716,42.018511 C 28.274242,34.812145 30.701508,27.588987 33.161858,20.377106 z"
     id="text2403"
     style="fill:#000000;stroke:none" />
</svg>
