<?xml version="1.0" encoding="UTF-8" standalone="no"?>
<!-- Created with Inkscape (http://www.inkscape.org/) -->
<svg
   xmlns:svg="http://www.w3.org/2000/svg"
   xmlns="http://www.w3.org/2000/svg"
   version="1.0"
   width="64"
   height="64"
   id="svg2383">
  <defs
     id="defs2385" />
  <path
     d="M 13,6 L 13,57 L 14,57 L 14,6 L 13,6 z M 25,6 L 25,57 L 26,57 L 26,6 L 25,6 z M 37,6 L 37,57 L 38,57 L 38,6 L 37,6 z M 49,6 L 49,57 L 50,57 L 50,6 L 49,6 z"
     id="path2416"
     style="fill:#ff0000;stroke:#ff0000;stroke-width:1;stroke-linecap:butt;stroke-linejoin:round" />
  <path
     d="M 12,6 L 12,12 L 6,12 L 6,15 L 12,15 L 12,21 L 15,21 L 15,15 L 21,15 L 21,12 L 15,12 L 15,6 L 12,6 z M 24,18 L 24,24 L 18,24 L 18,27 L 24,27 L 24,33 L 27,33 L 27,27 L 33,27 L 33,24 L 27,24 L 27,18 L 24,18 z M 19.5,18.5 C 19,18.5 18.5,19 18.5,19.5 C 18.5,20 19,20.5 19.5,20.5 C 20,20.5 20.5,20 20.5,19.5 C 20.5,19 20,18.5 19.5,18.5 z M 36,30 L 36,36 L 30,36 L 30,39 L 36,39 L 36,45 L 39,45 L 39,39 L 45,39 L 45,36 L 39,36 L 39,30 L 36,30 z M 31.5,30.5 C 31,30.5 30.5,31 30.5,31.5 C 30.5,32 31,32.5 31.5,32.5 C 32,32.5 32.5,32 32.5,31.5 C 32.5,31 32,30.5 31.5,30.5 z M 48,42 L 48,48 L 42,48 L 42,51 L 48,51 L 48,57 L 51,57 L 51,51 L 57,51 L 57,48 L 51,48 L 51,42 L 48,42 z M 43.5,42.5 C 43,42.5 42.5,43 42.5,43.5 C 42.5,44 43,44.5 43.5,44.5 C 44,44.5 44.5,44 44.5,43.5 C 44.5,43 44,42.5 43.5,42.5 z"
     id="rect2386"
     style="fill:#000000;stroke:#000000;stroke-width:1;stroke-linecap:butt;stroke-linejoin:round" />
</svg>
