<?xml version="1.0" encoding="UTF-8" standalone="no"?>
<!-- Created with Inkscape (http://www.inkscape.org/) -->
<svg
   xmlns:svg="http://www.w3.org/2000/svg"
   xmlns="http://www.w3.org/2000/svg"
   version="1.0"
   width="64"
   height="64"
   id="svg2383">
  <defs
     id="defs5" />
  <path
     d="M 32.65625,10.4375 C 28.980842,10.232436 25.253966,12.038905 23.48228,15.333807 C 22.395451,16.725244 22.14349,18.962076 21.204036,20.125 C 20.177691,20.125 19.151345,20.125 18.125,20.125 C 17.604167,21.9375 17.083333,23.75 16.5625,25.5625 C 17.666667,25.5625 18.770833,25.5625 19.875,25.5625 C 17.770098,32.870449 17.188843,34.257643 14.975586,41.532468 C 14.41871,43.966179 11.771184,43.443269 10,44 C 8.1154481,44.769299 6.9291957,48.182297 9.3432618,49.042356 C 13.270075,49.687161 18.089412,47.569964 20,44 C 21.891258,40.870042 20.530651,43.433513 21.65625,40 C 22.790321,35.775536 24.097018,31.420859 25.297481,27.146315 C 25.586805,26.451031 25.455799,25.198502 26.544141,25.5625 C 28.008594,25.5625 29.473047,25.5625 30.9375,25.5625 C 31.458333,23.75 31.979167,21.9375 32.5,20.125 C 30.770833,20.125 29.041667,20.125 27.3125,20.125 C 27.80873,18.454413 28.267419,16.132036 30.390003,15.986955 C 32.295773,16.205048 34.370161,15.233703 34.84375,13.25 C 35.389842,11.754882 34.217799,10.290023 32.65625,10.4375 z M 36.21875,24.125 C 33.84375,32.416667 31.46875,40.708333 29.09375,49 C 31.041667,49 32.989583,49 34.9375,49 C 36.458348,43.72576 37.917272,38.430969 39.476799,33.169565 C 41.189111,30.26059 45.270779,28.538252 48.363635,30.265391 C 50.117244,31.42 48.90911,33.518864 48.55485,35.0946 C 47.234483,39.729734 45.914117,44.364867 44.59375,49 C 46.541667,49 48.489583,49 50.4375,49 C 52.008361,43.390001 53.67594,37.805016 55.183333,32.178599 C 55.943797,29.336315 54.826922,25.847465 51.90625,24.75 C 48.827264,23.673063 45.336821,24.03511 42.297965,25.096083 C 41.039403,25.860868 42.879315,23.425334 41.136003,24.125 C 39.496918,24.125 37.857834,24.125 36.21875,24.125 z"
     id="text2402"
     style="fill:#000000;stroke:none" />
</svg>
