<?xml version="1.0" encoding="UTF-8" standalone="no"?>
<!-- Created with Inkscape (http://www.inkscape.org/) -->
<svg
   xmlns:svg="http://www.w3.org/2000/svg"
   xmlns="http://www.w3.org/2000/svg"
   version="1.0"
   width="64"
   height="64"
   id="svg2385">
  <defs
     id="defs2387" />
  <path
     d="M 8,10 L 56,10 C 58,10 60,12 60,14 L 60,50 C 60,52 58,54 56,54 L 8,54 C 6,54 4,52 4,50 L 4,14 C 4,12 6,10 8,10 z"
     id="rect2433"
     style="opacity:0.75;fill:#80b3ff;stroke:#000000;stroke-width:2;stroke-linecap:round;stroke-linejoin:round" />
  <path
     d="M 16,14 C 14,14 12,15 12,16 C 12,17 14,18 16,18 C 18,18 20,17 20,16 C 20,15 18,14 16,14 z M 10,18 C 9,18 8,20 8,22 C 8,24 9,26 10,26 C 11,26 12,24 12,22 C 12,20 11,18 10,18 z"
     id="path2444"
     style="opacity:0.75;fill:#ffffff;stroke:none;stroke-width:2;stroke-linecap:round;stroke-linejoin:round" />
  <path
     d="M 59,37 L 50,46 L 59,55 L 55,59 L 46,50 L 37,59 L 33,55 L 42,46 L 33,37 L 37,33 L 46,42 L 55,33 L 59,37 z"
     id="rect2386"
     style="fill:#ff0000;stroke:#803300;stroke-width:2;stroke-linecap:round;stroke-linejoin:round" />
</svg>
