<?xml version="1.0" encoding="UTF-8" standalone="no"?>
<!-- Created with Inkscape (http://www.inkscape.org/) -->
<svg
   xmlns:svg="http://www.w3.org/2000/svg"
   xmlns="http://www.w3.org/2000/svg"
   version="1.0"
   width="64"
   height="64"
   id="svg2385">
  <defs
     id="defs2387" />
  <path
     d="M 10,4 L 40,4 L 54,18 L 54,60 L 10,60 L 10,4 z"
     id="rect2392"
     style="fill:#ffffff;stroke:#000000;stroke-width:2;stroke-linecap:round;stroke-linejoin:round" />
  <path
     d="M 54,18 L 40,18 L 40,4"
     id="rect3182"
     style="fill:none;stroke:#000000;stroke-width:2;stroke-linecap:round;stroke-linejoin:round" />
  <path
     d="M 32,18.5 C 21.5,18.5 13,27 13,37.5 C 13,48 21.5,56.5 32,56.5 C 42.5,56.5 51,48 51,37.5 C 51,27 42.5,18.5 32,18.5 z"
     id="path2382"
     style="fill:#808080;stroke:#000000;stroke-width:1;stroke-linecap:round;stroke-linejoin:round" />
  <path
     d="M 45,37.5 C 45,45 39.5,50.5 32,50.5 C 24.5,50.5 19,45 19,37.5 C 19,30 24.5,24.5 32,24.5 C 39.5,24.5 45,30 45,37.5 z"
     id="path2391"
     style="fill:#ffffff;stroke:#0066ff;stroke-width:4" />
  <path
     d="M 38.5,35.5 L 32,37.5 L 32,28"
     id="path2401"
     style="fill:none;stroke:#000000;stroke-width:2;stroke-linecap:round;stroke-linejoin:round" />
  <path
     d="M 32,37 L 23,46 L 32,55 L 28,59 L 19,50 L 10,59 L 6,55 L 15,46 L 6,37 L 10,33 L 19,42 L 28,33 L 32,37 z"
     id="rect2386"
     style="fill:#ff0000;stroke:#803300;stroke-width:2;stroke-linecap:round;stroke-linejoin:round" />
</svg>
