<?xml version="1.0" encoding="UTF-8" standalone="no"?>
<!-- Created with Inkscape (http://www.inkscape.org/) -->
<svg
   xmlns:svg="http://www.w3.org/2000/svg"
   xmlns="http://www.w3.org/2000/svg"
   version="1.0"
   width="64"
   height="64"
   id="svg2385">
  <defs
     id="defs2387" />
  <path
     d="M 11,10 L 30,10 L 30,17 L 36,17 L 36,44 L 11,44 L 11,10 z"
     id="path3264"
     style="fill:#ffffff;fill-opacity:1;fill-rule:nonzero;stroke:#000000;stroke-width:1;stroke-linecap:butt;stroke-linejoin:round;stroke-miterlimit:4;stroke-dasharray:none;stroke-dashoffset:0;stroke-opacity:1" />
  <g
     id="layer1"
     style="stroke-width:1;stroke-linecap:butt;stroke-linejoin:round;stroke-miterlimit:4;stroke-dasharray:none" />
  <path
     d="M 15.5,17 L 25.5,17 L 15.5,17 z M 15.5,21 L 25.5,21 L 15.5,21 z M 15.5,25 L 31.5,25 L 15.5,25 z M 15.5,29 L 31.5,29 L 15.5,29 z M 15.5,33 L 31.5,33 L 15.5,33 z M 15.5,37 L 31.5,37 L 15.5,37 z"
     id="path2391"
     style="opacity:1;fill:none;fill-opacity:1;fill-rule:nonzero;stroke:#000000;stroke-width:1;stroke-linecap:butt;stroke-linejoin:round;marker:none;marker-start:none;marker-mid:none;marker-end:none;stroke-miterlimit:4;stroke-dasharray:none;stroke-dashoffset:0;stroke-opacity:1;visibility:visible;display:inline;overflow:visible;enable-background:accumulate" />
  <path
     d="M 30,10 L 36,17 L 30,17 L 30,10 z"
     id="rect3182"
     style="fill:#cccccc;fill-opacity:1;fill-rule:nonzero;stroke:#000000;stroke-width:1;stroke-linecap:butt;stroke-linejoin:round;stroke-miterlimit:4;stroke-dasharray:none;stroke-dashoffset:0;stroke-opacity:1" />
  <path
     d="M 29,20 L 48,20 L 48,27 L 54,27 L 54,54 L 29,54 L 29,20 z"
     id="path3467"
     style="fill:#ffffff;fill-opacity:1;fill-rule:nonzero;stroke:#003380;stroke-width:1;stroke-linecap:butt;stroke-linejoin:round;stroke-miterlimit:4;stroke-dasharray:none;stroke-dashoffset:0;stroke-opacity:1" />
  <path
     d="M 33.5,27 L 43.5,27 L 33.5,27 z M 33.5,31 L 43.5,31 L 33.5,31 z M 33.5,35 L 49.5,35 L 33.5,35 z M 33.5,39 L 49.5,39 L 33.5,39 z M 33.5,43 L 49.5,43 L 33.5,43 z M 33.5,47 L 49.5,47 L 33.5,47 z"
     id="path3469"
     style="opacity:1;fill:none;fill-opacity:1;fill-rule:nonzero;stroke:#003380;stroke-width:1;stroke-linecap:butt;stroke-linejoin:round;marker:none;marker-start:none;marker-mid:none;marker-end:none;stroke-miterlimit:4;stroke-dasharray:none;stroke-dashoffset:0;stroke-opacity:1;visibility:visible;display:inline;overflow:visible;enable-background:accumulate" />
  <path
     d="M 48,20 L 54,27 L 48,27 L 48,20 z"
     id="path3471"
     style="fill:#cccccc;fill-opacity:1;fill-rule:nonzero;stroke:#003380;stroke-width:1;stroke-linecap:butt;stroke-linejoin:round;stroke-miterlimit:4;stroke-dasharray:none;stroke-dashoffset:0;stroke-opacity:1" />
</svg>
