<?xml version="1.0" encoding="UTF-8" standalone="no"?>
<!-- Created with Inkscape (http://www.inkscape.org/) -->
<svg
   xmlns:svg="http://www.w3.org/2000/svg"
   xmlns="http://www.w3.org/2000/svg"
   version="1.0"
   width="64"
   height="64"
   id="svg2385">
  <defs
     id="defs2387" />
  <path
     d="M 9,9 L 28,9 L 28,18 L 36,18 L 36,46 L 9,46 L 9,9 z"
     id="path2395"
     style="fill:#ffffff;stroke:#000000;stroke-width:2;stroke-linecap:round;stroke-linejoin:round" />
  <path
     d="M 14.5,15.5 L 24,15.5 L 14.5,15.5 z M 14.5,20.5 L 24,20.5 L 14.5,20.5 z M 14.5,25.5 L 30.5,25.5 L 14.5,25.5 z M 14.5,30.5 L 30.5,30.5 L 14.5,30.5 z M 14.5,35.5 L 30.5,35.5 L 14.5,35.5 z M 14.5,40.5 L 30.5,40.5 L 14.5,40.5 z"
     id="path2397"
     style="fill:none;stroke:#000000;stroke-width:1;stroke-linecap:round;stroke-linejoin:round" />
  <path
     d="M 28,9 L 36,18 L 28,18 L 28,9 z"
     id="path2399"
     style="fill:#cccccc;stroke:#000000;stroke-width:2;stroke-linecap:round;stroke-linejoin:round" />
  <path
     d="M 28,18 L 47,18 L 47,27 L 55,27 L 55,55 L 28,55 L 28,18 z"
     id="path3467"
     style="fill:#ffffff;stroke:#003380;stroke-width:2;stroke-linecap:round;stroke-linejoin:round" />
  <path
     d="M 33.5,24.5 L 43,24.5 L 33.5,24.5 z M 33.5,29.5 L 43,29.5 L 33.5,29.5 z M 33.5,34.5 L 49.5,34.5 L 33.5,34.5 z M 33.5,39.5 L 49.5,39.5 L 33.5,39.5 z M 33.5,44.5 L 49.5,44.5 L 33.5,44.5 z M 33.5,49.5 L 49.5,49.5 L 33.5,49.5 z"
     id="path3469"
     style="fill:none;stroke:#003380;stroke-width:1;stroke-linecap:round;stroke-linejoin:round" />
  <path
     d="M 47,18 L 55,27 L 47,27 L 47,18 z"
     id="path3471"
     style="fill:#cccccc;stroke:#003380;stroke-width:2;stroke-linecap:round;stroke-linejoin:round" />
</svg>
