<?xml version="1.0" encoding="UTF-8" standalone="no"?>
<!-- Created with Inkscape (http://www.inkscape.org/) -->
<svg
   xmlns:svg="http://www.w3.org/2000/svg"
   xmlns="http://www.w3.org/2000/svg"
   version="1.0"
   width="64"
   height="64"
   id="svg2385">
  <defs
     id="defs2387" />
  <path
     d="M 26.656,37.344 L 25.5,39.5 C 25.103727,40.238996 23.782335,39.305619 22.875,39.0625 C 22.243309,38.893238 21.631452,38.775679 21,38.75 C 18.810508,38.66096 16.790463,39.555879 15.28125,41.0625 C 13.772037,42.569121 12.724276,44.655219 12.0625,47.125 C 11.316912,49.907573 11.143479,52.390266 11.9375,54.53125 C 12.731521,56.672234 14.605652,58.262443 17.125,58.9375 C 19.694454,59.625983 22.195465,59.078083 24.0625,57.5625 C 25.929535,56.046917 27.181614,53.696004 27.9375,50.875 C 28.683088,48.092427 28.640594,46.181451 28,44 C 27.643103,42.784639 27.847283,42.121058 28,41.5 C 28.119392,41.014464 29.344,38.656 29.344,38.656 L 26.656,37.344 z M 37.344,37.344 C 36.447917,37.78125 35.552083,38.21875 34.656,38.656 C 35.302083,39.947917 36,41 36,43 C 36,44 35.332974,46.244217 35.5,48.125 C 36.033756,51.853985 37.357568,55.920081 40.656,58.09375 C 44.586804,60.651074 50.810955,58.730017 52.1875,54.125 C 53.095139,50.925549 52.251018,47.527887 51.03125,44.53125 C 49.783244,41.516156 47.031429,38.849114 43.625,38.75 C 41.900361,38.672241 39.5,40 39,40 C 38.5,40 37.822917,38.3125 37.344,37.344 z M 20.875,41.75 C 21.259034,41.765617 21.670025,41.81559 22.125,41.9375 C 23.952319,42.427128 24.781282,43.236156 25.25,44.5 C 25.718718,45.763844 25.714535,47.691573 25.0625,50.125 C 24.420763,52.519995 23.353142,54.247162 22.15625,55.21875 C 20.959358,56.190338 19.652212,56.538703 17.875,56.0625 C 16.047681,55.572872 15.218718,54.763844 14.75,53.5 C 14.281282,52.236156 14.285465,50.308427 14.9375,47.875 C 15.498644,45.780782 16.390992,44.169764 17.40625,43.15625 C 18.421508,42.142736 19.510294,41.694501 20.875,41.75 z M 43.125,41.75 C 45.720267,41.555711 47.572323,43.873671 48.4375,46.0625 C 49.347041,48.468426 50.062649,51.209984 49.15625,53.71875 C 48.313453,55.74086 45.790777,56.497901 43.78125,56.1875 C 41.037529,55.490714 39.622659,52.642425 38.9375,50.125 C 38.385858,47.902206 37.91861,45.187125 39.46875,43.25 C 40.390072,42.245873 41.800585,41.837642 43.125,41.75 z"
     id="path2505"
     style="fill:#0044aa;stroke:#000000;stroke-width:1;stroke-linecap:butt;stroke-linejoin:round" />
  <path
     d="M 44.5,3.5 L 26,34 L 26.656,37.344 L 29.344,38.656 L 45,9 C 45.5,8 46,7 46,6 C 46,5 45.5,4 44.5,3.5 z"
     id="path2511"
     style="fill:#808080;stroke:#333333;stroke-width:1;stroke-linecap:butt;stroke-linejoin:round" />
  <path
     d="M 19.5,3.5 C 18.5,4 18,5 18,6 C 18,7 18.5,8 19,9 L 34.656,38.656 L 37.344,37.344 L 38,34 L 19.5,3.5 z M 32,27.5 C 32.5,27.5 33,28 33,28.5 C 33,29 32.5,29.5 32,29.5 C 31.5,29.5 31,29 31,28.5 C 31,28 31.5,27.5 32,27.5 z"
     id="path2509"
     style="fill:#b3b3b3;stroke:#333333;stroke-width:1;stroke-linecap:butt;stroke-linejoin:round" />
</svg>
