<?xml version="1.0" encoding="UTF-8" standalone="no"?>
<!-- Created with Inkscape (http://www.inkscape.org/) -->
<svg
   xmlns:svg="http://www.w3.org/2000/svg"
   xmlns="http://www.w3.org/2000/svg"
   version="1.0"
   width="64"
   height="64"
   id="svg2385">
  <defs
     id="defs2387" />
  <path
     d="M 43.5,3.5 L 27,32 L 27.5,35.5 L 32,38.5 L 46,11 C 47.548,7.956 46,5.5 43.5,3.5 z"
     id="path2511"
     style="fill:#808080;stroke:#000000;stroke-width:1;stroke-linecap:round;stroke-linejoin:round" />
  <path
     d="M 20.5,3.5 C 18,5.5 16.451,7.956 18,11 L 32,38.5 L 36.5,35.5 L 37,32 L 20.5,3.5 z M 32,29.5 C 32.5,29.5 33,30 33,30.5 C 33,31 32.5,31.5 32,31.5 C 31.5,31.5 31,31 31,30.5 C 31,30 31.5,29.5 32,29.5 z"
     id="path2509"
     style="fill:#b3b3b3;stroke:#000000;stroke-width:1;stroke-linecap:round;stroke-linejoin:round" />
  <path
     d="M 27.5,35.5 L 24,39.063 C 14,38 6,54 15,59.5 C 22,63.5 32,53.5 30,42 L 32,38.5 L 27.5,35.5 z M 32,38.5 L 34,42 C 32,53.5 42,63.5 49,59.5 C 58,54 50,38 40,39.063 L 36.5,35.5 L 32,38.5 z M 22.75,43.406 C 23.417,43.352 24.031,43.531 24.5,44 C 28,47.5 21,58 17.5,54.5 C 13.703,50.703 19.15,43.7 22.75,43.406 z M 40.844,43.406 C 44.419,43.181 50.438,50.563 46.5,54.5 C 43,58 36,47.5 39.5,44 C 39.875,43.625 40.333,43.438 40.844,43.406 z"
     id="path2387"
     style="fill:#0044aa;stroke:#000000;stroke-width:1;stroke-linecap:round;stroke-linejoin:round" />
</svg>
