<?xml version="1.0" encoding="UTF-8" standalone="no"?>
<!-- Created with Inkscape (http://www.inkscape.org/) -->
<svg
   xmlns:svg="http://www.w3.org/2000/svg"
   xmlns="http://www.w3.org/2000/svg"
   xmlns:xlink="http://www.w3.org/1999/xlink"
   version="1.0"
   width="64"
   height="64"
   id="svg2385">
  <defs
     id="defs2387">
    <linearGradient
       id="linearGradient2684">
      <stop
         id="stop2686"
         style="stop-color:#0044aa;stop-opacity:1"
         offset="0" />
      <stop
         id="stop2692"
         style="stop-color:#0066ff;stop-opacity:1"
         offset="0.5" />
      <stop
         id="stop2688"
         style="stop-color:#aaccff;stop-opacity:1"
         offset="1" />
    </linearGradient>
    <linearGradient
       x1="9"
       y1="11.5"
       x2="56"
       y2="11.5"
       id="linearGradient2690"
       xlink:href="#linearGradient2684"
       gradientUnits="userSpaceOnUse" />
    <linearGradient
       id="linearGradient2425">
      <stop
         id="stop2427"
         style="stop-color:#ffffff;stop-opacity:1"
         offset="0" />
      <stop
         id="stop2429"
         style="stop-color:#0044aa;stop-opacity:1"
         offset="1" />
    </linearGradient>
    <radialGradient
       cx="-46"
       cy="26"
       r="29"
       fx="-46"
       fy="26"
       id="radialGradient2669"
       xlink:href="#linearGradient2425"
       gradientUnits="userSpaceOnUse"
       gradientTransform="matrix(-1.6,2,-1.9,-1.5,-13.1,152.2)" />
  </defs>
  <path
     d="M 4,6 L 60,6 L 60,58 L 4,58 L 4,6 z"
     id="rect2636"
     style="fill:#ffffff;stroke:#000000;stroke-width:2;stroke-linecap:round;stroke-linejoin:round" />
  <path
     d="M 4,6 L 4,17 L 60,17 L 60,6 L 4,6 z"
     id="path2603"
     style="fill:url(#linearGradient2690);stroke:#000080;stroke-width:2;stroke-linecap:round;stroke-linejoin:round" />
  <path
     d="M 7,9 L 7,14 L 12,14 L 12,9 L 7,9 z M 45.5,9 L 45.5,14 L 50.5,14 L 50.5,9 L 45.5,9 z M 52,9 L 52,14 L 57,14 L 57,9 L 52,9 z"
     id="path2601"
     style="fill:#b3b3b3;stroke:#000080;stroke-width:1;stroke-linecap:round;stroke-linejoin:round" />
  <path
     d="M 18,23 L 46,23 C 49.5,23 52,25.5 52,29 L 52,47 C 52,50.5 49.5,53 46,53 L 18,53 C 14.5,53 12,50.5 12,47 L 12,29 C 12,25.5 14.5,23 18,23 z"
     id="rect2380"
     style="fill:url(#radialGradient2669);stroke:#000000;stroke-width:2;stroke-linecap:round;stroke-linejoin:round" />
</svg>
