<?xml version="1.0" encoding="UTF-8" standalone="no"?>
<!-- Created with Inkscape (http://www.inkscape.org/) -->
<svg
   xmlns:svg="http://www.w3.org/2000/svg"
   xmlns="http://www.w3.org/2000/svg"
   xmlns:xlink="http://www.w3.org/1999/xlink"
   version="1.0"
   width="64"
   height="64"
   id="svg2385">
  <defs
     id="defs2387">
    <linearGradient
       id="linearGradient2684">
      <stop
         id="stop2686"
         style="stop-color:#0044aa;stop-opacity:1"
         offset="0" />
      <stop
         id="stop2692"
         style="stop-color:#0066ff;stop-opacity:1"
         offset="0.5" />
      <stop
         id="stop2688"
         style="stop-color:#aaccff;stop-opacity:1"
         offset="1" />
    </linearGradient>
    <linearGradient
       x1="9"
       y1="11.5"
       x2="56"
       y2="11.5"
       id="linearGradient2395"
       xlink:href="#linearGradient2684"
       gradientUnits="userSpaceOnUse"
       gradientTransform="matrix(0.5,0,0,0.5,0.5,0.5)" />
  </defs>
  <path
     d="M 44,32 L 44,38 L 38,38 L 38,62 L 56,62 L 56,56 L 62,56 L 62,38 L 56,32 L 44,32 z"
     id="path2547"
     style="fill:#ffffff;stroke:#000000;stroke-width:2;stroke-linecap:round;stroke-linejoin:round" />
  <path
     d="M 34,9 L 34,12 L 45.5,12 C 48,12 50.5,14.5 50.5,17 L 50.5,20 L 44,20 L 52,30 L 60,20 L 53.5,20 L 53.5,17 C 53.5,13 49.5,9 45.5,9 L 34,9 z M 15,33 L 15,45.5 C 15,49.5 19,53.5 23,53.5 L 26,53.5 L 26,60 L 36,52 L 26,44 L 26,50.5 L 23,50.5 C 20.5,50.5 18,48 18,45.5 L 18,33 L 15,33 z"
     id="path3298"
     style="fill:#2aff2a;stroke:#000000;stroke-width:1;stroke-linecap:round;stroke-linejoin:round" />
  <path
     d="M 56,32 L 56,38 L 62,38 L 56,32 z"
     id="path2433"
     style="fill:#b3b3b3;stroke:#000000;stroke-width:2;stroke-linecap:round;stroke-linejoin:round" />
  <path
     d="M 44,38 L 44,56 L 56,56"
     id="path2530"
     style="fill:none;stroke:#000000;stroke-width:2;stroke-linecap:round;stroke-linejoin:round" />
  <path
     d="M 2.5,3.5 L 30.5,3.5 L 30.5,29.5 L 2.5,29.5 L 2.5,3.5 z"
     id="rect2636"
     style="fill:#ffffff;stroke:#000000;stroke-width:2;stroke-linecap:round;stroke-linejoin:round" />
  <path
     d="M 2.5,3.5 L 2.5,9 L 30.5,9 L 30.5,3.5 L 2.5,3.5 z"
     id="path2603"
     style="fill:url(#linearGradient2395);stroke:#000080;stroke-width:2;stroke-linecap:round;stroke-linejoin:round" />
  <path
     d="M 4,5 L 4,7.5 L 6.5,7.5 L 6.5,5 L 4,5 z M 23.25,5 L 23.25,7.5 L 25.75,7.5 L 25.75,5 L 23.25,5 z M 26.5,5 L 26.5,7.5 L 29,7.5 L 29,5 L 26.5,5 z"
     id="path2601"
     style="fill:#b3b3b3;stroke:#000080;stroke-width:0.5;stroke-linecap:round;stroke-linejoin:round" />
</svg>
