<?xml version="1.0" encoding="UTF-8" standalone="no"?>
<!-- Created with Inkscape (http://www.inkscape.org/) -->
<svg
   xmlns:svg="http://www.w3.org/2000/svg"
   xmlns="http://www.w3.org/2000/svg"
   version="1.0"
   width="64"
   height="64"
   id="svg2385">
  <defs
     id="defs2387" />
  <path
     d="M 12.5,4.5 C 11,4.5 9,5 9,6 L 9,14 L 16,14 L 16,6 C 16,5 14,4.5 12.5,4.5 z M 23.5,4.5 C 22,4.5 20,5 20,6 L 20,14 L 27,14 L 27,6 C 27,5 25,4.5 23.5,4.5 z"
     id="path3220"
     style="fill:#606060;stroke:#000000;stroke-width:1;stroke-linecap:round;stroke-linejoin:round" />
  <path
     d="M 10,11.5 C 8,11.5 5,12 5,13 L 5,26 L 15,26 L 15,13 C 15,12 12,11.5 10,11.5 z M 26,11.5 C 24,11.5 21,12 21,13 L 21,26 L 31,26 L 31,13 C 31,12 28,11.5 26,11.5 z"
     id="path3186"
     style="fill:#606060;stroke:#000000;stroke-width:1;stroke-linecap:round;stroke-linejoin:round" />
  <path
     d="M 10,15 L 13,13 L 23,13 L 26,15 L 26,21 C 24,21 21,21.5 21,22.5 L 15,22.5 C 15,21.5 12,21 10,21 L 10,15 z"
     id="rect3200"
     style="fill:#606060;stroke:#000000;stroke-width:1;stroke-linecap:round;stroke-linejoin:round" />
  <path
     d="M 16,21 C 16,19.75 20,19.75 20,21 L 20,23 L 16,23 L 16,21 z"
     id="rect3194"
     style="fill:#606060;stroke:#000000;stroke-width:1;stroke-linecap:round;stroke-linejoin:round" />
  <path
     d="M 16,23 C 16,24 20,24 20,23 C 20,22 16,22 16,23 z"
     id="path3239"
     style="fill:#606060;stroke:#000000;stroke-width:1;stroke-linecap:round;stroke-linejoin:round" />
  <path
     d="M 5,26 C 5,28 15,28 15,26 C 15,24 5,24 5,26 z M 21,26 C 21,28 31,28 31,26 C 31,24 21,24 21,26 z"
     id="path3237"
     style="fill:#2a7fff;stroke:#000000;stroke-width:1;stroke-linecap:round;stroke-linejoin:round" />
  <path
     d="M 13,19 L 13,13 M 10,21 L 13,19 L 23,19 L 26,21 M 23,13 L 23,19"
     id="path3231"
     style="fill:none;stroke:#000000;stroke-width:1;stroke-linecap:round;stroke-linejoin:round" />
  <path
     d="M 36,28 L 52,28 L 60,36 L 60,60 L 36,60 L 36,28 z"
     id="rect2389"
     style="fill:#ffffff;stroke:#000000;stroke-width:2;stroke-linecap:round;stroke-linejoin:round" />
  <path
     d="M 54,40 L 42,40 M 54,46 L 42,46 M 54,52 L 42,52"
     id="path2465"
     style="fill:#cccccc;stroke:#000000;stroke-width:1;stroke-linecap:round;stroke-linejoin:round" />
  <path
     d="M 52,28 L 52,36 L 60,36 L 52,28 z"
     id="path2392"
     style="fill:#cccccc;stroke:#000000;stroke-width:2;stroke-linecap:round;stroke-linejoin:round" />
  <path
     d="M 48,48 L 32,32 L 28,36 L 44,52 L 48,48 z"
     id="path2394"
     style="fill:#ffcc00;stroke:#000000;stroke-width:1;stroke-linecap:round;stroke-linejoin:round" />
  <path
     d="M 50,54 L 48,48 L 44,52 L 50,54 z"
     id="path2396"
     style="fill:#deaa87;stroke:#000000;stroke-width:1;stroke-linecap:round;stroke-linejoin:round" />
  <path
     d="M 34,34 L 30,38 L 28,36 L 32,32 L 34,34 z"
     id="path2398"
     style="fill:#ff5555;stroke:#000000;stroke-width:1;stroke-linecap:round;stroke-linejoin:round" />
  <path
     d="M 11,33 L 11,43.5 C 11,47.5 15,51.5 19,51.5 L 22,51.5 L 22,58 L 32,50 L 22,42 L 22,48.5 L 19,48.5 C 16.5,48.5 14,46 14,43.5 L 14,33 L 11,33 z"
     id="path2400"
     style="fill:#2aff2a;stroke:#000000;stroke-width:1;stroke-linecap:round;stroke-linejoin:round" />
</svg>
