<?xml version="1.0" encoding="UTF-8" standalone="no"?>
<!-- Created with Inkscape (http://www.inkscape.org/) -->
<svg
   xmlns:svg="http://www.w3.org/2000/svg"
   xmlns="http://www.w3.org/2000/svg"
   version="1.0"
   width="64"
   height="64"
   id="svg2385">
  <defs
     id="defs2387" />
  <path
     d="M 26.5,4.5 C 25,4.5 23,5 23,6 L 23,14 L 30,14 L 30,6 C 30,5 28,4.5 26.5,4.5 z M 37.5,4.5 C 36,4.5 34,5 34,6 L 34,14 L 41,14 L 41,6 C 41,5 39,4.5 37.5,4.5 z"
     id="path3220"
     style="fill:#606060;stroke:#000000;stroke-width:0.5;stroke-linecap:round;stroke-linejoin:round" />
  <path
     d="M 24,11.5 C 22,11.5 19,12 19,13 L 19,26 L 29,26 L 29,13 C 29,12 26,11.5 24,11.5 z M 40,11.5 C 38,11.5 35,12 35,13 L 35,26 L 45,26 L 45,13 C 45,12 42,11.5 40,11.5 z"
     id="path3186"
     style="fill:#606060;stroke:#000000;stroke-width:0.5;stroke-linecap:round;stroke-linejoin:round" />
  <path
     d="M 24,15 L 27,13 L 37,13 L 40,15 L 40,21 C 38,21 35,21.5 35,22.5 L 29,22.5 C 29,21.5 26,21 24,21 L 24,15 z"
     id="rect3200"
     style="fill:#606060;stroke:#000000;stroke-width:0.5;stroke-linecap:round;stroke-linejoin:round" />
  <path
     d="M 30,21 C 30,19.75 34,19.75 34,21 L 34,23 L 30,23 L 30,21 z"
     id="rect3194"
     style="fill:#606060;stroke:#000000;stroke-width:0.5;stroke-linecap:round;stroke-linejoin:round" />
  <path
     d="M 30,23 C 30,24 34,24 34,23 C 34,22 30,22 30,23 z"
     id="path3239"
     style="fill:#606060;stroke:#000000;stroke-width:0.5;stroke-linecap:round;stroke-linejoin:round" />
  <path
     d="M 19,26 C 19,28 29,28 29,26 C 29,24 19,24 19,26 z M 35,26 C 35,28 45,28 45,26 C 45,24 35,24 35,26 z"
     id="path3237"
     style="fill:#2a7fff;stroke:#000000;stroke-width:0.5;stroke-linecap:round;stroke-linejoin:round" />
  <path
     d="M 27,19 L 27,13 M 24,21 L 27,19 L 37,19 L 40,21 M 37,13 L 37,19"
     id="path3231"
     style="fill:none;stroke:#000000;stroke-width:0.5;stroke-linecap:round;stroke-linejoin:round" />
  <path
     d="M 34,58 L 34,50 L 17,50 L 17,38 L 34,38 L 34,30 L 48,44 L 34,58 z"
     id="path2392"
     style="fill:#2aff2a;stroke:#000000;stroke-width:2;stroke-linecap:round;stroke-linejoin:round" />
</svg>
