<?xml version="1.0" encoding="UTF-8" standalone="no"?>
<!-- Created with Inkscape (http://www.inkscape.org/) -->
<svg
   xmlns:svg="http://www.w3.org/2000/svg"
   xmlns="http://www.w3.org/2000/svg"
   version="1.0"
   width="64"
   height="64"
   id="svg2385">
  <defs
     id="defs2387" />
  <path
     d="M 25,2.5 C 23,2.5 20.75,3 20.75,4.5 L 20.75,14.5 L 29.5,14.5 L 29.5,4.5 C 29.5,3 27,2.5 25,2.5 z M 39,2.5 C 37,2.5 34.5,3 34.5,4.5 L 34.5,14.5 L 43.25,14.5 L 43.25,4.5 C 43.25,3 41,2.5 39,2.5 z"
     id="path3220"
     style="fill:#606060;stroke:#000000;stroke-width:1;stroke-linecap:round;stroke-linejoin:round" />
  <path
     d="M 22,11 C 19.5,11 15.75,11.5 15.75,13.25 L 15.75,29.5 L 28.25,29.5 L 28.25,13.25 C 28.25,11.5 24.5,11 22,11 z M 42,11 C 39.5,11 35.75,11.5 35.75,13.25 L 35.75,29.5 L 48.25,29.5 L 48.25,13.25 C 48.25,11.5 44.5,11 42,11 z"
     id="path3186"
     style="fill:#606060;stroke:#000000;stroke-width:1;stroke-linecap:round;stroke-linejoin:round" />
  <path
     d="M 22,15.75 L 25.75,13.25 L 38.25,13.25 L 42,15.75 L 42,23.25 C 39.5,23.25 35.75,23.5 35.75,25 L 28.25,25 C 28.25,23.5 24.5,23.25 22,23.25 L 22,15.75 z"
     id="rect3200"
     style="fill:#606060;stroke:#000000;stroke-width:1;stroke-linecap:round;stroke-linejoin:round" />
  <path
     d="M 29.5,23.25 C 29.5,21.5 34.5,21.5 34.5,23.25 L 34.5,25.75 L 29.5,25.75 L 29.5,23.25 z"
     id="rect3194"
     style="fill:#606060;stroke:#000000;stroke-width:1;stroke-linecap:round;stroke-linejoin:round" />
  <path
     d="M 29.5,25.75 C 29.5,27.5 34.5,27.5 34.5,25.75 C 34.5,24 29.5,24 29.5,25.75 z"
     id="path3239"
     style="fill:#606060;stroke:#000000;stroke-width:1;stroke-linecap:round;stroke-linejoin:round" />
  <path
     d="M 15.75,29.5 C 15.75,32 28.25,32 28.25,29.5 C 28.25,27 15.75,27 15.75,29.5 z M 35.75,29.5 C 35.75,32 48.25,32 48.25,29.5 C 48.25,27 35.75,27 35.75,29.5 z"
     id="path3237"
     style="fill:#2a7fff;stroke:#000000;stroke-width:1;stroke-linecap:round;stroke-linejoin:round" />
  <path
     d="M 25.75,20.75 L 25.75,13.25 M 22,23.25 L 25.75,20.75 L 38.25,20.75 L 42,23.25 M 38.25,13.25 L 38.25,20.75"
     id="path3231"
     style="fill:none;stroke:#000000;stroke-width:1;stroke-linecap:round;stroke-linejoin:round" />
  <path
     d="M 16.5,55 L 35.5,55 L 35.5,62.5 L 49.5,48.5 L 35.5,34.5 L 35.5,42 L 16.5,42 L 16.5,55 z"
     id="path3298"
     style="fill:#2aff2a;stroke:#000000;stroke-width:2;stroke-linecap:round;stroke-linejoin:round" />
</svg>
