<?xml version="1.0" encoding="UTF-8" standalone="no"?>
<!-- Created with Inkscape (http://www.inkscape.org/) -->
<svg
   xmlns:svg="http://www.w3.org/2000/svg"
   xmlns="http://www.w3.org/2000/svg"
   version="1.0"
   width="64"
   height="64"
   id="svg2385">
  <defs
     id="defs2387" />
  <path
     d="M 12.899,52 C 17.54,63.337 28.472,69.525 46.899,44 C 55.939,42.637 57.128,34.183 55.945,21.051 C 55.664,13.236 52.015,12.075 46.899,10 C 46.818,7.1921 44.437,6.0102 39.275,5.3157 C 35.584,4.8189 32.71,6.2392 30.899,8 C 23.437,4.57 14.273,13.014 9.933,18.375 C 8.9832,19.882 7.3857,21.38 10.899,24 C 14.024,30.969 13.17,28.997 12.23,35.208 C 13.35,36.929 13.6,41.825 12.899,44 C 5.8788,45.927 11.056,49.139 12.899,52 z"
     id="path3239"
     style="fill:#5aa02c;stroke:#000000;stroke-width:2;stroke-linecap:round;stroke-linejoin:round;stroke-opacity:1" />
  <path
     d="M 13.04,44.029 C 11.379,41.779 9.93,39.275 20.139,38.437 C 24.24,38.1 30.939,37.666 33.215,40.788 C 36.51,38.644 42.284,39.334 44.433,39.415 C 40.717,41.698 37.266,44.45 35.41,46"
     id="path3309"
     style="fill:#aade87;stroke:#000000;stroke-width:2;stroke-linecap:round;stroke-linejoin:round" />
  <path
     d="M 22.634,35.467 C 21.82,37.058 20.82,39.36 21.118,41.8 C 19.63,40.559 18.919,39.342 18.555,37.345 C 17.6,39.143 17.26,40.389 17.556,42.4 C 16.248,41.367 15.789,39.297 15.337,37.25 C 14.475,39.038 14.041,41.085 14.181,43.5 L 32.482,44.219 C 31.374,41.8 30.911,36.656 30.746,33.163 C 29.662,34.714 27.611,39.886 27.649,41.6 C 26.25,39.999 26.036,38.058 25.868,36 C 24.975,37.764 24.326,39.516 24.306,41.53 C 23.045,39.884 22.906,37.361 22.634,35.467 z M 39.51,36.714 C 39.182,38.041 38.455,40.334 39.087,41.78 C 37.852,41.928 37.07,40.702 36.447,40 C 35.694,40.994 35.859,42.459 36.103,43.453 C 35.201,43.16 34.364,42.555 33.587,41.641 C 33.094,42.626 33.016,43.671 33.399,44.78 L 43.387,39.763 C 41.578,39.231 40.464,37.799 39.51,36.714 z"
     id="path3278"
     style="fill:#ffff00;stroke:#d4aa00;stroke-width:1;stroke-linecap:round;stroke-linejoin:round" />
  <path
     d="M 23.99,24.533 C 24.91,26.853 33.3,26.994 34.992,21.521 C 31.454,18.101 27.169,20.114 23.99,24.533 z"
     id="path3245"
     style="fill:#000000;stroke:none" />
  <path
     d="M 29.541,25.18 C 25.233,25.668 26.984,20.655 29.776,21.004 C 32.475,21.341 32.487,24.856 29.541,25.18 z"
     id="path3247"
     style="fill:#ff0000;stroke:none" />
  <path
     d="M 18.35,30.731 C 20.071,25.675 30.471,30.155 27.05,32.961 C 24.474,35.08 13.58,32.576 8.3529,41.419 C 4.3841,48.133 2.5451,43.678 3.129,37.403 C 3.6496,31.809 6.9058,27.271 10.365,23.776 C 13,21.23 17.594,19.611 20.797,19.078"
     id="path3250"
     style="fill:#5aa02c;stroke:#000000;stroke-width:2;stroke-linecap:round;stroke-linejoin:round" />
  <path
     d="M 10.65,15.96 C 8.0012,15.8 7.4347,20.087 8.78,20.09 C 10.66,20.102 11.022,20.874 11.8,22 C 14.706,21.191 15.675,20.155 16.84,20 C 14.177,16.992 13.29,17.019 11.9,16.34 C 11.473,16.112 11.035,15.992 10.65,15.96 z M 33.78,16 C 30.635,16.066 27.407,16.961 23.5,20.15 C 18.264,24.43 20.102,27.186 22.65,25.21 C 27.504,21.483 28.807,19.468 37.4,21.75 C 41.05,22.704 40.801,16.526 36.9,16.15 C 35.853,16.056 34.829,15.977 33.78,16 z"
     id="path3252"
     style="fill:#aade87;stroke:#000000;stroke-width:2;stroke-linecap:round;stroke-linejoin:round" />
  <path
     d="M 41.096,13.72 C 42.578,9.2259 54.406,9.366 57,4.2 L 49.46,23.119"
     id="path3243"
     style="fill:#5aa02c;stroke:#000000;stroke-width:2;stroke-linecap:round;stroke-linejoin:round" />
  <path
     d="M 22.864,14.66 C 23.753,11.923 26.3,9.62 30.946,7.8942731"
     id="path3305"
     style="fill:none;stroke:#000000;stroke-width:2;stroke-linecap:round;stroke-linejoin:round" />
  <path
     d="M 57,4.21 C 55.702,10.345 49.628,13.893 44,19 C 41.173,21.657 41.678,29.907 48.9,28.46 C 63.179,25.627 64.114,11.739 57,4.21 z M 44.46,39.46 L 33.28,45.21 C 32.94,45.393 30.464,41.78 26.15,41.71 C 17.24,41.58 14.401,44.119 13,44.15 C 8.552,44.273 7.6675,49.482 12,49.25 C 16.954,49.046 23,43.5 32,48 C 36,50 41.518,42.273 44.46,39.46 z"
     id="path3241"
     style="fill:#aade87;stroke:#000000;stroke-width:2;stroke-linecap:round;stroke-linejoin:round" />
</svg>
