<?xml version="1.0" encoding="UTF-8" standalone="no"?>
<!-- Created with Inkscape (http://www.inkscape.org/) -->
<svg
   xmlns:svg="http://www.w3.org/2000/svg"
   xmlns="http://www.w3.org/2000/svg"
   version="1.0"
   width="64"
   height="64"
   id="svg2385">
  <defs
     id="defs2387" />
  <path
     d="M 20.370,59.192 C 16.113,59.820 12.091,57.314 9.1401,54.521 C 7.2442,52.72 7.3090,49.839 5.8336,47.691 C 4.4080,45.615 5.6790,43.084 6.574,41.349 C 7.4749,39.602 8.8051,37.027 9.6346,34.835 C 10.605,32.268 11.630,30.104 11.746,27.242 C 11.93,22.526 11.276,17.523 13.269,13.084 C 14.363,10.646 17.683,9.6655 16.779,6.279 C 16.349,4.668 18.5,3.2928 18.5,4 C 18.5,5 18.552,13.744 21.204,10.095 C 22,9 17.923,3.711 18.5,4 C 19.5,4.5 24.310,9.8698 21.173,11.357 C 19.45,12.174 23.754,12.975 21.145,12.684 C 18.652,12.40 14.18,12.000 14.144,15.337 C 14.106,18.871 19.97,17.840 22.451,17.045 C 24.315,16.445 19.870,19.937 22.895,20.626 C 24.636,21.022 26.593,23.418 23.556,23.565 C 20.356,23.719 16.796,22.678 13.922,24.649 C 12.730,25.466 13.434,28.775 14.373,26.180 C 14.844,24.877 18.738,22.886 16.736,25.050 C 13.76,28.260 13.291,32.938 10.352,36.213 C 8.4309,38.353 9.8469,42.582 13.152,42.697 C 15.91,42.79 19.36,42.529 20.69,39.604 C 22.18,36.335 22.064,31.866 25.492,29.9 C 27.23,28.908 31.433,30.97 30.509,27.264 C 29.929,24.933 26.756,25.979 25.89,24.999 C 24.644,23.590 32.827,25.151 29.706,22.877 C 28.518,22.012 28.027,21.949 27.177,20.720 C 26.608,19.898 24.206,16.206 25.52,17.259 C 27.756,19.043 30.227,19.251 32.532,17.562 C 35.189,15.615 41.708,17.827 41.627,19.10 C 41.562,20.132 38.035,22.243 35.700,23.067 C 33.832,23.726 38.462,23.316 39.301,22.569 C 40.330,21.654 41.300,25.321 40.980,25.481 C 40.528,25.70 36.050,24.835 33.607,25.454 C 30.455,26.252 31.939,30.355 32.824,32.379 C 33.807,34.628 35.67,36.457 36.100,38.999 C 36.375,40.64 36.667,41.279 34.923,41.291 C 33.381,41.302 34.969,38.855 34.571,37.822 C 33.705,35.573 32.081,32.909 30.192,31.839 C 27.701,30.426 23.988,31.602 23.456,35.163 C 23.127,37.360 21.55,41.648 25.269,40.942 C 26.998,40.613 28.424,39.893 29.922,39.469 C 31.018,39.159 32.813,36.262 32.833,38.869 C 32.857,41.951 35.293,43.772 36.431,46.036 C 37.248,47.660 32.715,44.403 30.675,45.00 C 28.64,45.605 25.507,42.380 24.873,43.586 C 24.021,45.205 23.882,44.070 23.521,42.656 C 22.868,40.093 19.129,44.426 16.668,44.505 C 13.656,44.602 10.944,42.779 8.0865,42.851 C 5.476,42.917 5.8905,47.172 8.8553,46.67 C 10.414,46.417 13.705,46.196 13.623,46.461 C 13.527,46.774 9.2975,46.922 8.3340,48.473 C 6.9534,50.69 10.101,53.351 11.823,54.996 C 13.915,56.995 16.783,58.413 19.772,57.730 C 23.769,56.817 27.655,55.366 31.775,54.992 C 35.885,54.618 38.748,50.912 39.295,46.940 C 39.851,42.908 38.454,38.918 38.865,34.956 C 39.195,31.779 43.62,30.577 44.004,27.478 C 44.202,25.865 41.407,22.5 42.564,22.41 C 43.725,22.275 45.770,28.652 46.245,24.676 C 46.575,21.910 45.749,19.000 47.535,16.452 C 49.030,14.318 51.624,13.609 53.186,11.779 C 55.144,9.4865 54.722,4.3705 56.5,4 C 57.702,3.7493 55.083,8.7779 54.528,11.071 C 53.938,13.509 50.90,14.373 50.298,15.9 C 49.86,17.116 45.670,18.468 48.533,19.012 C 50.748,19.432 53.974,18.880 53.454,22.126 C 53.356,22.742 53.965,25.20 53.329,23.596 C 52.757,22.150 52.596,19.576 50.982,19.488 C 48.155,19.333 48.204,23.654 47.714,25.922 C 47.30,27.80 49.350,30.806 48.546,31.067 C 47.463,31.419 44.847,28.205 43.592,30.913 C 42.5,33.17 47.265,33.964 49.097,34.22 C 52.074,34.63 52.687,30.287 53.865,28.177 C 54.828,26.452 55.920,3.3583 56.5,4 C 57.610,5.2301 54.554,28.500 53.789,31.680 C 53.586,32.524 52.656,34.306 52,34.5 C 49.548,35.221 46.820,35.386 44.407,34.108 C 43.754,33.763 42.385,32.613 42.015,33.219 C 40.010,36.50 41.01,41.485 41.340,45.37 C 41.51,47.485 40.584,49.037 39.5,51.5 C 38.161,54.539 34.035,56.839 31.334,57.287 C 29.96,57.514 29.943,56.327 27.123,57.266 C 23.943,58.327 21.993,58.952 20.370,59.192 z M 32.059,40.718 C 32.083,36.587 28.739,45.199 31.522,42.874 C 32.092,42.398 32.055,41.461 32.059,40.718 z M 28.473,41.896 C 27.888,39.312 25.315,43.19 27.92,42.725 C 28.269,42.663 28.551,42.241 28.473,41.896 z M 14.973,21.75 C 15.169,19.866 11.534,17.317 12.522,20.71 C 12.881,21.955 14.694,24.443 14.973,21.75 z M 32.973,22.599 C 32.219,20.142 29.93,22.981 32.423,22.965 C 32.626,22.963 33.04,22.845 32.973,22.599 z M 36.573,21.196 C 36.119,18.530 32.422,22.772 35.715,22.025 C 36.103,21.937 36.650,21.645 36.573,21.196 z M 35.88,19.116 C 38.587,18.106 33.986,17.814 32.76,18.805 C 31.615,19.730 30.011,20.470 32.557,19.671 C 33.628,19.335 34.846,19.504 35.88,19.116 z M 30.273,51.280 C 29.761,50.990 27.831,49.912 28.339,49.988 C 30.933,50.380 33.725,51.167 36.083,49.193 C 38.710,46.994 35.841,51.34 34.812,52.014 C 33.155,53.091 31.636,52.053 30.273,51.280 z M 23.973,39.19 C 24.779,36.802 26.261,40.167 24.216,40.025 C 23.928,40.005 23.883,39.465 23.973,39.19 z M 11.373,38.296 C 9.3061,36.475 17.551,37.94 13.338,39.13 C 12.640,39.331 11.902,38.762 11.373,38.296 z M 28.023,37.396 C 27.768,34.72 30.126,39.77 28.53,38.032 C 28.53,38.032 28.344,37.836 28.271,37.745 C 28.190,37.645 28.033,37.524 28.023,37.396 C 28.023,37.396 28.023,37.396 28.023,37.396 z M 44.181,15.697 C 44.912,12.987 41.082,10.089 40.623,9.9465 C 40.306,9.8478 44.193,13.20 43.417,13.792 C 42.241,14.688 39.536,9.7896 36.345,11.117 C 33.62,12.24 28.477,14.171 27.686,13.277 C 27.062,12.572 32.786,11.1 35.17,10.160 C 36.326,9.7050 41.219,8.573 37.371,8.6886 C 34.486,8.7751 27.659,9.2946 24.910,10.028 C 22.757,10.603 20.375,8.6257 23.68,8.640 C 26.636,8.6532 33.440,7.6644 36.309,7.2948 C 39.549,6.8775 41.994,10.225 44.427,11.493 C 46.043,12.336 45.904,10.605 49,8 C 51.039,6.2827 58.453,1.2187 56.5,4 C 54.097,7.4192 46.769,11.286 45.060,15.10 C 44.910,15.445 43.829,17.000 44.181,15.697 z"
     id="path2406"
     style="fill:#112b00;stroke:none" />
  <path
     d="M 18.59,4.4 L 18.,5.90 C 18.71,8.3698 19.078,10.101 19.,10.6 C 19.771,10.844 19.956,10.96 20.03,10.96 C 20.230,10.96 20.895,10.459 21.09,10.15 C 21.487,9.5546 21.039,8.3949 19.40,5.75 L 18.59,4.4 z M 55.25,5.5 C 53.235,7.3012 51.141,8.9558 49.09,10.65 C 47.117,12.124 45.653,14.080 44.34,16. C 44.209,14.92 43.814,12.317 42.15,11.25 C 40.30,9.4464 42.454,11.860 43.0,12. C 44.504,14.892 41.399,13.341 40.75,12.46 C 38.939,10.539 36.215,10.816 34.09,12.03 C 32.333,12.470 28.764,14.429 27.75,12.90 C 31.261,11.130 35.21,10.34 38.84,8.84 C 35.639,8.5565 32.385,9.1474 29.1,9.40 C 26.925,9.3917 24.589,10.728 22.40,9.71 C 22.36,10.690 19.641,12.030 21.96,12.6 C 19.637,12.79 16.886,11.956 14.90,13.59 C 12.485,16.364 16.54,18.566 19.0,17.65 C 20.017,18.112 23.472,15.900 22.,17.78 C 19.583,20.69 26.548,20.757 24.71,23. C 21.766,24.069 18.634,22.973 15.6,23. C 14.039,23.635 12.401,26.966 14,26.8 C 14.089,25.69 17.212,23.279 17.15,24.5 C 14.183,27.759 13.418,32.240 10.84,35.6 C 8.8278,37.538 9.3194,41.305 11.90,42. C 14.345,42.899 17.200,42.75 19.3,41.28 C 21.957,38.770 21.504,34.621 23.53,31.71 C 24.793,29.235 27.598,29.687 29.,29. C 32.136,27.127 28.543,25.125 26.,25.34 C 24.377,23.343 31.027,25.155 30.0,23.25 C 27.808,21.903 26.279,19.76 25.15,17.4 C 25.615,16.673 27.784,19.158 29.,18.65 C 31.674,18.676 33.541,16.160 36.21,16.8 C 38.037,17.081 41.335,17.331 41.53,19.5 C 39.954,21.260 37.738,22.290 35.59,23.1 C 36.492,24.303 40.155,20.907 40.71,23.6 C 42.07,25.916 40.066,25.672 38.53,25.40 C 36.349,25.400 32.981,24.553 31.90,27.09 C 31.34,30.424 33.430,33.424 35.03,36.15 C 35.84,37.616 37.681,41.784 34.53,41.25 C 34.05,39.383 35.043,36.902 33.21,35.1 C 31.950,32.741 29.092,30.352 26.21,31.65 C 23.560,32.649 23.269,35.796 23,38.21 C 22.128,41.736 26.255,41.08 28.21,40 C 29.920,40.328 31.983,36.55 32.84,38.53 C 32.766,41.514 35.133,43.563 36.4,46 C 35.343,47.116 32.257,44.217 30.21,45.0 C 28.049,45.342 25.71,41.98 24.09,44. C 23.768,40.271 20.269,42.841 18.21,44.09 C 14.735,45.554 11.343,42.640 7.8,42.96 C 4.7649,43.872 7.3748,47.968 9.,46.5 C 10.664,46.356 14.928,46.071 12.71,46.75 C 10.261,46.791 6.541,48.650 8.71,51.5 C 10.845,54.251 13.522,57.01 17.0,57.75 C 17.395,57.806 17.7,57.80 18.0,57.8 C 22.372,57.435 26.410,55.571 30.71,55.09 C 33.77,54.991 36.6,53.257 38.03,50.5 C 40.600,45.916 38.554,40.620 38.78,35.71 C 38.623,33.185 40.960,31.688 42.46,30.03 C 45.286,28.020 43.00,25.047 42.3,22.65 C 43.688,22.023 44.317,25.100 45.46,25.8 C 46.965,24.793 46.000,21.624 46.,19.78 C 46.41,16.562 49.218,14.594 51.65,13.03 C 54.310,11.495 54.550,8.2316 55.25,5.5 z M 28.15,36.71 C 28.452,36.677 29.089,37.346 29.09,38.09 C 29.224,38.895 28.3,37.849 28.1,37.71 C 27.902,37.024 27.978,36.743 28.15,36.71 z M 12.03,37.4 C 13.437,37.441 15.779,38.31 13.53,39.09 C 12.896,39.499 12.204,38.897 11.6,38.59 C 10.678,37.732 11.187,37.435 12.03,37.4 z M 24.78,38.21 C 25.086,38.130 25.293,38.485 25.0,39.75 C 22.973,40.69 24.109,38.412 24.78,38.21 z M 36.84,48. C 37.657,49.254 35.487,51.582 34.53,52.1 C 32.647,53.114 30.940,51.611 29.34,50.8 C 27.85,50.12 28.397,49.83 29.6,50.15 C 32.187,50.752 34.898,50.416 36.84,48. z"
     id="path2411"
     style="fill:#008000;stroke-none" />
  <path
     d="M 31.75,39.65 C 31.439,39.739 30.85,40.841 30.59,41.90 C 30.415,42.628 30.400,42.786 30.53,43.03 C 30.655,43.263 30.865,43.237 31.25,43 C 31.679,42.734 31.809,42.483 31.9,41.75 C 32.056,41.068 32.001,39.845 31.84,39.6 C 31.812,39.655 31.794,39.644 31.75,39.65 z M 27.65,41.15 C 27.582,41.161 27.512,41.17 27.4,41.21 C 27.042,41.430 26.800,42.269 27.0,42.53 C 27.243,42.712 27.849,42.654 28.,42.4 C 28.410,42.212 28.432,42.012 28.21,41.5 C 28.091,41.294 27.877,41.141 27.65,41.15 z"
     id="path2415"
     style="fill:#ffcc00;stroke-none" />
  <path
     d="M 35.21,18.25 C 34.460,18.264 33.572,18.429 33.,18.65 C 32.979,18.73 32.512,19.036 32.09,19.34 C 31.67,19.65 31.394,19.907 31.46,19.90 C 31.542,19.905 31.924,19.792 32.3,19.6 C 32.700,19.58 33.535,19.447 34.15,19. C 35.418,19.228 36.140,19.049 36.46,18.78 C 36.77,18.533 36.59,18.38 35.90,18.28 C 35.701,18.251 35.471,18.245 35.21,18.25 z M 12.90,19.15 C 12.687,19.144 12.513,19.220 12.4,19.4 C 12.220,20.058 12.857,21.641 13.,22.4 C 14.248,23.084 14.629,23.021 14.84,22.25 C 15.057,21.481 14.876,20.796 14.25,20.03 C 13.798,19.480 13.271,19.175 12.90,19.15 z M 35.8,20. C 35.394,20. 34.792,20.812 34.53,21.3 C 34.360,21.638 34.337,21.71 34.53,21.90 C 34.856,22.231 36.225,21.955 36.46,21.5 C 36.672,21.11 36.232,20. 35.8,20. z M 32.03,21.6 C 31.43,21.6 31.122,22.477 31.,22.75 C 31.891,22.894 32.487,22.944 32.75,22.84 C 32.942,22.769 32.914,22.450 32.71,22.15 C 32.48,21.810 32.325,21.6 32.03,21.6 z"
     id="path2419"
     style="fill:#ff0000;stroke-none" />
  <path
     d="M 47.985,33.990 C 46.576,33.684 45.059,33.396 43.919,32.453 C 42.865,31.45 44.155,29.42 45.509,29.947 C 46.517,30.243 47.374,31.01 48.440,31.097 C 49.237,30.489 48.184,29.227 48.096,28.386 C 47.721,27.365 47.654,26.26 47.879,25.208 C 48.204,23.484 48.255,21.544 49.427,20.134 C 50.131,19.319 51.650,19.288 52.138,20.35 C 52.779,21.535 52.937,22.913 53.537,24.104 C 53.71,23.221 53.469,21.968 53.468,20.948 C 53.271,19.656 51.792,19.324 50.699,19.233 C 49.703,19.020 48.500,19.185 47.662,18.560 C 47.911,17.593 49.23,17.275 49.874,16.528 C 50.532,15.701 51.139,14.824 52.03,14.211 C 53.101,13.38 54.179,12.430 54.557,11.075 C 54.987,9.8882 55.338,8.6474 55.904,7.525 C 55.450,13.081 55.053,18.64 54.472,24.189 C 54.236,25.848 54.229,27.605 53.389,29.106 C 52.656,30.723 52.217,32.629 50.769,33.784 C 49.95,34.386 48.902,34.136 47.985,33.990 z"
     id="path2429"
     style="fill:#55d400;stroke:none" />
</svg>
