<?xml version="1.0" encoding="UTF-8" standalone="no"?>
<!-- Created with Inkscape (http://www.inkscape.org/) -->
<svg
   xmlns:svg="http://www.w3.org/2000/svg"
   xmlns="http://www.w3.org/2000/svg"
   version="1.0"
   width="64"
   height="64"
   id="svg2385">
  <defs
     id="defs2387" />
  <path
     d="M 31.96875,9.65625 C 17.06475,9.65625 4.9687498,17.132571 4.96875,26.34375 C 4.96875,35.554929 17.06475,43.031249 31.96875,43.03125 C 39.220155,42.738654 41.930292,49.960134 41.84375,56.15625 C 43.778853,51.616391 43.834178,44.984543 47,41 C 53.422035,37.948595 58.96875,31.733467 58.96875,26.34375 C 58.96875,17.132571 46.87275,9.65625 31.96875,9.65625 z"
     id="path3369"
     style="fill:#d5e5ff;stroke:#4d4d4d;stroke-width:1;stroke-linecap:round;stroke-linejoin:round" />
  <path
     d="M 21.966168,17.151923 L 25.461217,17.151923 C 26.025325,17.151941 26.593525,17.172379 27.165819,17.21324 C 27.738101,17.254135 28.285862,17.337934 28.809106,17.464638 C 29.332332,17.591376 29.820821,17.773282 30.274574,18.010356 C 30.728307,18.247464 31.122776,18.564266 31.457985,18.960764 C 31.793171,19.357294 32.056832,19.845783 32.24897,20.426232 C 32.441083,21.00671 32.537145,21.697543 32.537158,22.498735 C 32.537145,23.095561 32.46561,23.643323 32.322549,24.142021 C 32.179465,24.640739 31.979164,25.094482 31.721646,25.50325 C 31.464105,25.912036 31.157523,26.275848 30.801896,26.594686 C 30.44625,26.91354 30.05178,27.191509 29.618485,27.428592 C 29.929147,27.96001 30.252081,28.51186 30.587289,29.084142 C 30.922476,29.656436 31.259717,30.232812 31.599013,30.813271 C 31.938287,31.393739 32.273484,31.963983 32.604606,32.524006 C 32.935703,33.084032 33.248418,33.613399 33.54275,34.112106 L 30.636342,34.982804 L 26.65076,28.372869 C 26.462716,28.397402 26.24402,28.413753 25.994671,28.421922 C 25.745312,28.430104 25.424422,28.434192 25.032,28.434185 L 25.032,34.737537 L 21.966168,34.737537 L 21.966168,17.151923 z M 35.766302,25.79757 C 35.7663,24.783811 35.909372,23.864062 36.195518,23.038321 C 36.48166,22.212602 36.869999,21.47476 37.360534,20.82479 C 37.851064,20.174849 38.415176,19.61278 39.052874,19.138582 C 39.690562,18.664416 40.365044,18.271991 41.076322,17.961303 C 41.787589,17.650649 42.507037,17.41969 43.234668,17.268425 C 43.962284,17.117195 44.657205,17.041571 45.319434,17.041553 C 45.940765,17.041571 46.553931,17.106976 47.158933,17.237766 C 47.763912,17.368593 48.321893,17.521884 48.832878,17.697642 C 49.343835,17.873432 49.789403,18.055338 50.169581,18.243359 C 50.549728,18.431414 50.825653,18.586749 50.997355,18.709366 L 50.028553,21.100715 C 49.4726,20.871813 48.982067,20.679688 48.556953,20.524339 C 48.131811,20.369018 47.737341,20.244341 47.373542,20.150307 C 47.009717,20.056303 46.664301,19.990899 46.337291,19.954094 C 46.010258,19.917319 45.670972,19.898924 45.319434,19.898909 C 44.518221,19.898924 43.729281,20.027688 42.952612,20.285203 C 42.175927,20.542748 41.481006,20.918823 40.867847,21.41343 C 40.254674,21.908063 39.760054,22.521229 39.383984,23.252929 C 39.007904,23.984652 38.819866,24.824689 38.81987,25.773043 C 38.819866,26.78682 38.999728,27.679998 39.359457,28.452581 C 39.719176,29.225175 40.193357,29.873087 40.782003,30.396318 C 41.370636,30.919557 42.041031,31.314027 42.793189,31.579729 C 43.545331,31.845437 44.31792,31.97829 45.110958,31.978287 C 45.617831,31.97829 46.10632,31.931281 46.576425,31.83726 C 47.046508,31.743243 47.487987,31.628786 47.900865,31.493886 C 48.313717,31.358993 48.695923,31.213877 49.047486,31.058538 C 49.399021,30.903207 49.713779,30.764222 49.991762,30.641585 L 50.862459,33.13104 C 50.600825,33.302728 50.284023,33.488722 49.912051,33.689022 C 49.540048,33.889324 49.11492,34.075317 48.636665,34.247003 C 48.158381,34.418691 47.629015,34.561763 47.048563,34.67622 C 46.468088,34.790678 45.846746,34.847907 45.184538,34.847907 C 44.440552,34.847907 43.692491,34.770238 42.940348,34.614903 C 42.18819,34.459568 41.462611,34.224521 40.763608,33.909761 C 40.064593,33.595004 39.412593,33.192358 38.807607,32.701824 C 38.202612,32.211294 37.673246,31.63083 37.219506,30.960431 C 36.765761,30.290041 36.410124,29.525627 36.152597,28.667189 C 35.895065,27.808762 35.7663,26.852224 35.766302,25.79757 L 35.766302,25.79757 z M 13.597612,17.151923 L 16.663444,17.151923 L 16.663444,34.737537 L 13.597612,34.737537 L 13.597612,17.151923 z M 25.032,20.021542 L 25.032,25.564567 L 25.632903,25.564567 C 26.139782,25.564576 26.624183,25.505303 27.086108,25.386748 C 27.548019,25.268212 27.956797,25.082219 28.312441,24.828767 C 28.668069,24.575335 28.952169,24.252401 29.164742,23.859964 C 29.377297,23.467548 29.48358,23.001543 29.483589,22.461944 C 29.48358,22.110408 29.418175,21.785431 29.287376,21.48701 C 29.156558,21.188616 28.97874,20.931086 28.75392,20.71442 C 28.529085,20.497782 28.265423,20.32814 27.962936,20.205492 C 27.660434,20.082874 27.337499,20.021556 26.994133,20.021542 L 25.032,20.021542 z"
     id="path3409"
     style="fill:#ff0000;stroke:#000000;stroke-width:1;stroke-linecap:butt;stroke-linejoin:miter;stroke-miterlimit:4" />
</svg>
