<?xml version="1.0" encoding="UTF-8" standalone="no"?>
<!-- Created with Inkscape (http://www.inkscape.org/) -->
<svg
   xmlns:svg="http://www.w3.org/2000/svg"
   xmlns="http://www.w3.org/2000/svg"
   version="1.0"
   width="64"
   height="64"
   id="svg2385">
  <defs
     id="defs2387" />
  <path
     d="M 32,8 C 16,8 4,16 4,28 C 4,38 16,46 32,46 C 40,46 42,54 42,60 C 46,54 42,48 46,46 C 54,42 60,36 60,28 C 60,16 48,8 32,8 z"
     id="path3369"
     style="fill:#ccddff;fill-opacity:1;stroke:#000000;stroke-width:2;stroke-linecap:round;stroke-linejoin:round" />
  <path
     d="M 23,17 C 30,17 33.5,17.5 33.5,23 C 33.5,27 31,27 30.5,27.5 L 35,36.5 L 31.5,36.5 L 27.5,28 L 26,28 L 26,36.5 L 22.966168,36.5 L 23,17 z M 51,18 L 50,20.5 C 38,17 38,36.5 50,33 L 51,35.5 C 34,42 34,11.5 51,18 z M 13.5,17 L 16.5,17 L 16.5,36.5 L 13.5,36.5 L 13.5,17 z M 26,20 L 26,25.5 C 29.5,25.5 30.5,24.5 30.5,23 C 30.5,21.5 29.5,20 26,20 z"
     id="path3409"
     style="fill:#ff0000;stroke:#ff0000;stroke-width:1;stroke-linecap:butt;stroke-linejoin:miter;stroke-miterlimit:4" />
</svg>
