<?xml version="1.0" encoding="UTF-8" standalone="no"?>
<!-- Created with Inkscape (http://www.inkscape.org/) -->
<svg
   xmlns:svg="http://www.w3.org/2000/svg"
   xmlns="http://www.w3.org/2000/svg"
   version="1.0"
   width="64"
   height="64"
   id="svg2385">
  <defs
     id="defs2387" />
  <path
     d="M 38.5,5.5 C 38,12 37,18 35,24 C 34,27 39,28.5 40,24.5 C 41.5,20.5 42.5,17 43,13 L 45.5,13 L 45.5,31 C 44.5,40.5 42,50 35,56.5 C 33,59 36.5,62 39,59.5 C 44.5,54 46.5,49.5 47.5,41.5 C 50,49.5 51,53.5 55.5,59.5 C 58,62.5 61.5,59.5 59.5,56.5 C 54,49 50.5,40.5 49.5,31 L 49.5,13 L 54.5,13 C 55.5,13 56,13.5 56,14.5 C 56,15.5 55.5,18 53.5,26 C 52.5,29.5 57,31 58,27 C 60,19 60.5,14.5 60.5,13.5 C 60.5,10 59,8.5 55.5,8.5 L 43,8.5 L 43,5.5 C 43,2.5 38.5,2.5 38.5,5.5 z M 5.5,4.5 C 2.5,4.5 2.5,9 5.5,9 L 27.5,9 L 27.5,24.5 C 27.5,27 26.5,26.5 21.5,26.5 C 18.5,26.5 18.5,31.5 21.5,31.5 L 27,31.5 C 30,31.5 32.5,30 32.5,27 L 32.5,9 L 34,9 C 37,9 37,4.5 34,4.5 L 5.5,4.5 z M 11,11.5 C 8,11.5 7,12.5 7,15.5 L 7,20.5 C 7,23.5 8,24.5 11,24.5 L 21,24.5 C 24,24.5 25,23.5 25,20.5 L 25,15.5 C 25,12.5 24,11.5 21,11.5 L 11,11.5 z M 13,15.5 L 19,15.5 C 20.5,15.5 21,16 21,17.5 L 21,18.5 C 21,20 20.5,20.5 19,20.5 L 13,20.5 C 11.5,20.5 11,20 11,18.5 L 11,17.5 C 11,16 11.5,15.5 13,15.5 z M 5.5,33.5 C 2.5,33.5 2.5,38 5.5,38 L 27.5,38 L 27.5,53.5 C 27.5,56 26.5,55.5 21.5,55.5 C 18.5,55.5 18.5,60.5 21.5,60.5 L 27,60.5 C 30,60.5 32.5,59 32.5,56 L 32.5,38 L 34,38 C 37,38 37,33.5 34,33.5 L 5.5,33.5 z M 11,40.5 C 8,40.5 7,41.5 7,44.5 L 7,49.5 C 7,52.5 8,53.5 11,53.5 L 21,53.5 C 24,53.5 25,52.5 25,49.5 L 25,44.5 C 25,41.5 24,40.5 21,40.5 L 11,40.5 z M 13,44.5 L 19,44.5 C 20.5,44.5 21,45 21,46.5 L 21,47.5 C 21,49 20.5,49.5 19,49.5 L 13,49.5 C 11.5,49.5 11,49 11,47.5 L 11,46.5 C 11,45 11.5,44.5 13,44.5 z"
     id="path2416"
     style="fill:#000000;stroke:none" />
</svg>
