<?xml version="1.0" encoding="UTF-8" standalone="no"?>
<!-- Created with Inkscape (http://www.inkscape.org/) -->
<svg
   xmlns:svg="http://www.w3.org/2000/svg"
   xmlns="http://www.w3.org/2000/svg"
   version="1.0"
   width="64"
   height="64"
   id="svg2385">
  <defs
     id="defs2387" />
  <g
     id="layer1" />
  <path
     d="M 39.307796,7.1263241 C 39.5,4.5 43,5 42.844449,7.3621017 C 42.530039,9.7199148 42.137079,11.763312 41.665565,13.4923 L 54.633294,13.4923 C 57.776931,13.492341 59.270181,14.828408 59.113054,17.500507 C 58.798629,22.058893 56.833822,27.24598 53.218633,33.061783 C 51.5,35.5 49.5,33.5 50.625087,31.411344 C 53.139988,26.695834 54.63324,22.451854 55.104847,18.679392 C 55.261978,17.421952 54.94761,16.793215 54.16174,16.793177 L 47.088433,16.793177 C 47.088388,20.880011 46.601933,25.514524 46.381103,30.704013 C 46.287563,32.902193 47.795717,36.598454 50.153532,41.785527 C 52.982804,47.601363 55.890716,52.238306 58.877278,55.696364 C 60.5,57.5 58,60 56.047955,58.28991 C 52.747028,55.460586 49.131785,48.623064 45.202218,37.77732 C 43.787515,45.479374 40.250864,52.316898 34.592258,58.28991 C 32.5,60 31,57.5 32.470266,55.932141 C 36.714214,50.902238 39.700719,45.400781 41.429788,39.427759 C 43.001592,33.611948 43.787515,26.067095 43.787557,16.793177 L 40.958234,16.793177 C 40.329456,19.622535 39.150574,22.766223 37.421581,26.224253 C 36,28.5 33.5,27.5 34.592258,25.045368 C 37.107176,19.543943 38.679021,13.570933 39.307796,7.1263241 L 39.307796,7.1263241 z M 19.26676,14.199632 C 21.31014,14.199672 22.331839,15.22137 22.331859,17.264731 L 22.331859,22.6876 C 22.331839,24.731029 21.31014,25.752728 19.26676,25.752699 L 10.778792,25.752699 C 8.7353849,25.752728 7.7136855,24.731029 7.7136922,22.6876 L 7.7136922,17.264731 C 7.7136855,15.22137 8.7353849,14.199672 10.778792,14.199632 L 19.26676,14.199632 z M 33.64915,7.3621017 C 35.5074,7.3621017 35.509873,10.191424 33.64915,10.191424 L 30.112497,10.191424 L 30.112497,26.460029 C 30.112497,29.00249 26.811621,29.006976 26.811621,26.460029 L 26.811621,10.191424 L 6.5348074,10.191424 C 4.4910158,10.191424 4.4953327,7.3621017 6.5348074,7.3621017 L 33.64915,7.3621017 z M 11.7219,17.028954 C 10.935968,17.028991 10.543006,17.421952 10.543015,18.207838 L 10.543015,21.744491 C 10.543006,22.530446 10.935968,22.923407 11.7219,22.923376 L 18.323652,22.923376 C 19.109558,22.923407 19.502519,22.530446 19.502537,21.744491 L 19.502537,18.207838 C 19.502519,17.421952 19.109558,17.028991 18.323652,17.028954 L 11.7219,17.028954 L 11.7219,17.028954 z M 35.063811,30.23246 C 37.500039,30.23246 37.500228,33.533336 35.063811,33.533336 L 30.112497,33.533336 L 30.112497,53.574372 C 30.112468,57.346799 28.226255,59.233012 24.453851,59.233017 C 19.423927,59.233012 14.944171,58.447091 11.014569,56.875248 C 9,56 9.5,53.5 12.193454,54.281702 C 15.6515,55.381994 19.18815,55.932139 22.803414,55.932141 C 25.475527,55.932139 26.811595,54.831849 26.811621,52.631265 L 26.811621,33.533336 L 6.5348074,33.533336 C 3.9997808,33.533336 3.9991291,30.23246 6.5348074,30.23246 L 35.063811,30.23246 z M 19.26676,37.305767 C 21.31014,37.305785 22.331839,38.327483 22.331859,40.370866 L 22.331859,46.972619 C 22.331839,49.016024 21.31014,50.037722 19.26676,50.037718 L 10.778792,50.037718 C 8.7353849,50.037722 7.7136855,49.016024 7.7136922,46.972619 L 7.7136922,40.370866 C 7.7136855,38.327483 8.7353849,37.305785 10.778792,37.305767 L 19.26676,37.305767 z M 11.7219,40.135089 C 10.935968,40.135103 10.543006,40.528065 10.543015,41.313974 L 10.543015,46.029511 C 10.543006,46.815442 10.935968,47.208404 11.7219,47.208396 L 18.323652,47.208396 C 19.109558,47.208404 19.502519,46.815442 19.502537,46.029511 L 19.502537,41.313974 C 19.502519,40.528065 19.109558,40.135103 18.323652,40.135089 L 11.7219,40.135089 L 11.7219,40.135089 z"
     id="text3283"
     style="fill:#ffd42a;stroke:#000000;stroke-width:1;stroke-linecap:round;stroke-linejoin:round" />
</svg>
