<?xml version="1.0" encoding="UTF-8" standalone="no"?>
<!-- Created with Inkscape (http://www.inkscape.org/) -->
<svg
   xmlns:svg="http://www.w3.org/2000/svg"
   xmlns="http://www.w3.org/2000/svg"
   version="1.0"
   width="64"
   height="64"
   id="svg2385">
  <defs
     id="defs2387" />
  <path
     d="M 11.5,9 L 11.5,21 L 14,21 L 14,13 C 14,11.5 18.5,13 18.5,10.5 C 18.5,9.5 18,9 16.5,9 C 16,9 15,9 14,9.5 L 14,9 L 11.5,9 z M 49.5,9 C 47,9 44.5,11 44.5,15.5 C 45,23.5 52.5,21.5 54.5,19.5 L 53,17.5 C 51,19 47,19.5 47,15.5 L 54.5,15.5 C 55,11 52,9 49.5,9 z M 49.5,11.5 C 50.5,11.5 51.5,12 51.5,13 L 47.5,13 C 47.5,12 48.5,11.5 49.5,11.5 z M 23.5,45 L 23.5,57 L 26,57 L 26,49 C 26,47.5 30.5,49 30.5,46.5 C 30.5,45.5 30,45 28.5,45 C 28,45 27,45 26,45.5 L 26,45 L 23.5,45 z M 36,45 C 33.5,45 31,47 31,51.5 C 31.5,59.5 39,57.5 41,55.5 L 39.5,53.5 C 37.5,55 33.5,55.5 33.5,51.5 L 41,51.5 C 41.5,47 38.5,45 36,45 z M 36,47.5 C 37,47.5 38,48 38,49 L 34,49 C 34,48 35,47.5 36,47.5 z"
     id="path2638"
     style="fill:#0000ff;stroke:none" />
  <path
     d="M 9,4 C 6,4 5,7.5 5,9 C 5,12 5,12 3,14 C 5,16 5,16 5,19 C 5,20.5 6,24 9,24 L 9,22 C 7.5,22 7,19.5 7,18 C 7,16.5 7,15.5 5.5,14 C 7,12.5 7,11.5 7,10 C 7,8.5 7.5,6 9,6 L 9,4 z M 20,4 L 20,6 C 21.5,6 22,8.5 22,10 C 22,11.5 22,12.5 23.5,14 C 22,15.5 22,16.5 22,18 C 22,19.5 21.5,22 20,22 L 20,24 C 23,24 24,20.5 24,19 C 24,16 24,16 26,14 C 24,12 24,12 24,9 C 24,7.5 23,4 20,4 z M 44,4 C 41,4 40,7.5 40,9 C 40,12 40,12 38,14 C 40,16 40,16 40,19 C 40,20.5 41,24 44,24 L 44,22 C 42.5,22 42,19.5 42,18 C 42,16.5 42,15.5 40.5,14 C 42,12.5 42,11.5 42,10 C 42,8.5 42.5,6 44,6 L 44,4 z M 55.5,4 L 55.5,6 C 57,6 57.5,8.5 57.5,10 C 57.5,11.5 57.5,12.5 59,14 C 57.5,15.5 57.5,16.5 57.5,18 C 57.5,19.5 57,22 55.5,22 L 55.5,24 C 58.5,24 59.5,20.5 59.5,19 C 59.5,16 59.5,16 61.5,14 C 59.5,12 59.5,12 59.5,9 C 59.5,7.5 58.5,4 55.5,4 z M 22,40 C 19,40 18,43.5 18,45 C 18,48 18,48 16,50 C 18,52 18,52 18,55 C 18,56.5 19,60 22,60 L 22,58 C 20.5,58 20,55.5 20,54 C 20,52.5 20,51.5 18.5,50 C 20,48.5 20,47.5 20,46 C 20,44.5 20.5,42 22,42 L 22,40 z M 42,40 L 42,42 C 43.5,42 44,44.5 44,46 C 44,47.5 44,48.5 45.5,50 C 44,51.5 44,52.5 44,54 C 44,55.5 43.5,58 42,58 L 42,60 C 45,60 46,56.5 46,55 C 46,52 46,52 48,50 C 46,48 46,48 46,45 C 46,43.5 45,40 42,40 z"
     id="path2626"
     style="fill:#ff00ff;stroke:none" />
  <path
     d="M 32,43 L 26,33 L 38,33 L 32,43 z"
     id="path2466"
     style="fill:#000000;stroke:#000000;stroke-width:1;stroke-linecap:round;stroke-linejoin:round" />
  <path
     d="M 50,25 C 46,31 38,23 32,33 C 26,23 18,31 14,25"
     id="path2470"
     style="fill:none;stroke:#000000;stroke-width:3;stroke-linecap:round;stroke-linejoin:round" />
</svg>
