<?xml version="1.0" encoding="UTF-8" standalone="no"?>
<!-- Created with Inkscape (http://www.inkscape.org/) -->
<svg
   xmlns:svg="http://www.w3.org/2000/svg"
   xmlns="http://www.w3.org/2000/svg"
   version="1.0"
   width="64"
   height="64"
   id="svg2385">
  <defs
     id="defs2387" />
  <path
     d="M 50,15.5 C 63.5,15.5 57.5,24 52,30 L 48,26 L 46,38 L 58,36 L 54,32 C 58,28 61,24 61,20 C 61,18 60,16 58,14.5 C 56,13 53.5,12.5 50,12.5 C 48,12.5 48,15.5 50,15.5 z"
     id="path3168"
     style="fill:#2aff2a;stroke:#000000;stroke-width:1;stroke-linecap:round;stroke-linejoin:round" />
  <path
     d="M 24,2 L 24,24 L 46,24 L 46,2 L 24,2 z M 40,40 L 40,62 L 62,62 L 62,40 L 40,40 z"
     id="rect2380"
     style="fill:#ffffff;stroke:#000000;stroke-width:1.5;stroke-linecap:round;stroke-linejoin:round" />
  <path
     d="M 2,2 L 2,24 L 24,24 L 24,2 L 2,2 z M 18,40 L 18,62 L 40,62 L 40,40 L 18,40 z"
     id="rect3159"
     style="fill:#afdde9;stroke:#000000;stroke-width:1.5;stroke-linecap:round;stroke-linejoin:round" />
  <path
     d="M 11,5 L 5.5,21 L 8.5,21 L 10,17 L 16,17 L 17.5,21 L 20.5,21 L 15,5 L 11,5 z M 13,8 L 15,14.5 L 11,14.5 L 13,8 z M 32.5,10.5 L 32.5,10 L 29.5,10 L 29.5,21 L 32.5,21 L 32.5,15 C 32.5,12.5 37.5,12.5 37.5,15 L 37.5,21 L 40.5,21 L 40.5,15 C 40.5,10 35.5,9.5 32.5,10.5 z M 22.5,43.5 L 22.5,46 L 33,46 C 32.5,48 32,49 30.5,50 L 32,52 C 34.5,50.5 35.5,47 35.5,43.5 L 22.5,43.5 z M 46.5,45.5 L 45,47.5 C 46.5,48 47.5,49 48.5,50 L 50,48 C 49,47 48,46 46.5,45.5 z M 25.5,48.5 C 25.5,53 25,54.5 22.5,56.5 L 24,58.5 C 27.5,56.5 28,53 28,48.5 L 25.5,48.5 z M 56,46.5 C 54.5,51.5 50.5,55 45.5,56.5 L 47,58.5 C 52,57.5 57,53 58,48 L 56,46.5 z"
     id="text3174"
     style="fill:#000000;stroke:none" />
</svg>
