<?xml version="1.0" encoding="UTF-8" standalone="no"?>
<!-- Created with Inkscape (http://www.inkscape.org/) -->
<svg
   xmlns:svg="http://www.w3.org/2000/svg"
   xmlns="http://www.w3.org/2000/svg"
   version="1.0"
   width="64"
   height="64"
   id="svg2385">
  <defs
     id="defs2387" />
  <path
     d="M 60,24.5 C 60,30 55.5,34.5 50,34.5 C 44.5,34.5 40,30 40,24.5 C 40,19 44.48,14.5 50,14.5 C 55.5,14.5 60,19 60,24.5 z"
     id="path2380"
     style="fill:#808080;stroke:#000000;stroke-width:1;stroke-linecap:round;stroke-linejoin:round" />
  <path
     d="M 15,54.5 C 12.5,57 17.5,62 20,59.5 L 48,34.5 C 43,32.5 42,31.5 40,26.5 L 15,54.5 z"
     id="path2382"
     style="fill:#0066ff;stroke:#000000;stroke-width:1;stroke-linecap:round;stroke-linejoin:round" />
  <path
     d="M 40,34.5 C 40,38.5 36,42.5 32,42.5 C 32,38.5 36,34.5 40,34.5 z"
     id="path2384"
     style="fill:#4d4d4d;stroke:#000000;stroke-width:1;stroke-linecap:round;stroke-linejoin:round" />
  <path
     d="M 30,6 L 14,14 L 14,31.5 C 10,31.5 6,34 6,38 C 6,42 16,40 16,36 L 16,22 L 28,16 L 28,25.53125 C 24,25.5 20,28 20,32 C 20,36 30,34 30,30 L 30,6 z M 28,9.5 L 28,14 L 16,20 L 16,15.5 L 28,9.5 z"
     id="path3162"
     style="fill:#000000;stroke:#000000;stroke-width:1;stroke-linecap:round;stroke-linejoin:round" />
</svg>
