<?xml version="1.0" encoding="UTF-8" standalone="no"?>
<!-- Created with Inkscape (http://www.inkscape.org/) -->
<svg
   xmlns:svg="http://www.w3.org/2000/svg"
   xmlns="http://www.w3.org/2000/svg"
   version="1.0"
   width="64"
   height="64"
   id="svg2385">
  <defs
     id="defs2387" />
  <path
     d="M 23.5,9 L 23.5,21 L 26,21 L 26,13 C 26,11.5 30.5,13 30.5,10.5 C 30.5,9.5 30,9 28.5,9 C 28,9 27,9 26,9.5 L 26,9 L 23.5,9 z M 36,9 C 33.5,9 31,11 31,15.5 C 31.5,23.5 39,21.5 41,19.5 L 39.5,17.5 C 37.5,19 33.5,19.5 33.5,15.5 L 41,15.5 C 41.5,11 38.5,9 36,9 z M 36,11.5 C 37,11.5 38,12 38,13 L 34,13 C 34,12 35,11.5 36,11.5 z M 11.5,45 L 11.5,57 L 14,57 L 14,49 C 14,47.5 18.5,49 18.5,46.5 C 18.5,45.5 18,45 16.5,45 C 16,45 15,45 14,45.5 L 14,45 L 11.5,45 z M 49.5,45 C 47,45 44.5,47 44.5,51.5 C 45,59.5 52.5,57.5 54.5,55.5 L 53,53.5 C 51,55 47,55.5 47,51.5 L 54.5,51.5 C 55,47 52,45 49.5,45 z M 49.5,47.5 C 50.5,47.5 51.5,48 51.5,49 L 47.5,49 C 47.5,48 48.5,47.5 49.5,47.5 z"
     id="path2556"
     style="fill:#0000ff;stroke:none" />
  <path
     d="M 22,4 C 19,4 18,7.5 18,9 C 18,12 18,12 16,14 C 18,16 18,16 18,19 C 18,20.5 19,24 22,24 L 22,22 C 20.5,22 20,19.5 20,18 C 20,16.5 20,15.5 18.5,14 C 20,12.5 20,11.5 20,10 C 20,8.5 20.5,6 22,6 L 22,4 z M 42,4 L 42,6 C 43.5,6 44,8.5 44,10 C 44,11.5 44,12.5 45.5,14 C 44,15.5 44,16.5 44,18 C 44,19.5 43.5,22 42,22 L 42,24 C 45,24 46,20.5 46,19 C 46,16 46,16 48,14 C 46,12 46,12 46,9 C 46,7.5 45,4 42,4 z M 9,40 C 6,40 5,43.5 5,45 C 5,48 5,48 3,50 C 5,52 5,52 5,55 C 5,56.5 6,60 9,60 L 9,58 C 7.5,58 7,55.5 7,54 C 7,52.5 7,51.5 5.5,50 C 7,48.5 7,47.5 7,46 C 7,44.5 7.5,42 9,42 L 9,40 z M 20,40 L 20,42 C 21.5,42 22,44.5 22,46 C 22,47.5 22,48.5 23.5,50 C 22,51.5 22,52.5 22,54 C 22,55.5 21.5,58 20,58 L 20,60 C 23,60 24,56.5 24,55 C 24,52 24,52 26,50 C 24,48 24,48 24,45 C 24,43.5 23,40 20,40 z M 44,40 C 41,40 40,43.5 40,45 C 40,48 40,48 38,50 C 40,52 40,52 40,55 C 40,56.5 41,60 44,60 L 44,58 C 42.5,58 42,55.5 42,54 C 42,52.5 42,51.5 40.5,50 C 42,48.5 42,47.5 42,46 C 42,44.5 42.5,42 44,42 L 44,40 z M 55.5,40 L 55.5,42 C 57,42 57.5,44.5 57.5,46 C 57.5,47.5 57.5,48.5 59,50 C 57.5,51.5 57.5,52.5 57.5,54 C 57.5,55.5 57,58 55.5,58 L 55.5,60 C 58.5,60 59.5,56.5 59.5,55 C 59.5,52 59.5,52 61.5,50 C 59.5,48 59.5,48 59.5,45 C 59.5,43.5 58.5,40 55.5,40 z"
     id="path2443"
     style="fill:#ff00ff;stroke:none" />
  <path
     d="M 12,28 L 12,38 L 22,38 L 12,28 z M 52,28 L 42,38 L 52,38 L 52,28 z"
     id="path2466"
     style="fill:#000000;stroke:#000000;stroke-width:1;stroke-linecap:round;stroke-linejoin:round" />
  <path
     d="M 48,34 C 44,28 38,34 32,24 C 26,34 20,28 16,34"
     id="path2470"
     style="fill:none;stroke:#000000;stroke-width:3;stroke-linecap:round;stroke-linejoin:round" />
</svg>
