<?xml version="1.0" encoding="UTF-8" standalone="no"?>
<!-- Created with Inkscape (http://www.inkscape.org/) -->
<svg
   xmlns:svg="http://www.w3.org/2000/svg"
   xmlns="http://www.w3.org/2000/svg"
   version="1.0"
   width="64"
   height="64"
   id="svg2385">
  <defs
     id="defs2387" />
  <path
     d="M 2,24 L 24,24 L 24,2 L 2,2 L 2,24 z"
     id="path2391"
     style="fill:#ffffff;stroke:#000000;stroke-width:1.5;stroke-linecap:round;stroke-linejoin:round" />
  <path
     d="M 21,62 L 21,40 L 43,40 L 43,62 L 21,62 z M 40,24 L 40,2 L 62,2 L 62,24 L 40,24 z"
     id="path2389"
     style="fill:#afdde9;stroke:#000000;stroke-width:1.5;stroke-linecap:round;stroke-linejoin:round" />
  <path
     d="M 10.5,7 L 10.5,19 L 13,19 L 13,11 C 13,9.5 17.5,11 17.5,8.5 C 17.5,7.5 17,7 15.5,7 C 15,7 14,7 13,7.5 L 13,7 L 10.5,7 z M 50.5,7 C 48,7 45.5,9 45.5,13.5 C 46,21.5 53.5,19.5 55.5,17.5 L 54,15.5 C 52,17 48,17.5 48,13.5 L 55.5,13.5 C 56,9 53,7 50.5,7 z M 50.5,9.5 C 51.5,9.5 52.5,10 52.5,11 L 48.5,11 C 48.5,10 49.5,9.5 50.5,9.5 z M 23.5,45 L 23.5,57 L 26,57 L 26,49 C 26,47.5 30.5,49 30.5,46.5 C 30.5,45.5 30,45 28.5,45 C 28,45 27,45 26,45.5 L 26,45 L 23.5,45 z M 36,45 C 33.5,45 31,47 31,51.5 C 31.5,59.5 39,57.5 41,55.5 L 39.5,53.5 C 37.5,55 33.5,55.5 33.5,51.5 L 41,51.5 C 41.5,47 38.5,45 36,45 z M 36,47.5 C 37,47.5 38,48 38,49 L 34,49 C 34,48 35,47.5 36,47.5 z"
     id="path2454"
     style="fill:#000000;stroke:none" />
  <path
     d="M 49.5,26.5 C 47,29 43.5,28.5 41,28 C 38.5,27.5 34,26.5 32,30 C 30,26.5 25.5,27.5 23,28 C 20.5,28.5 17,29 14.5,26.5 C 13.5,25.5 12.5,26.5 13.5,27.5 C 16.5,30.5 21.5,30 24,29.5 C 26.5,29 28.5,28.5 30.5,31 L 26,31 L 32,38 L 38,31 L 33.5,31 C 35.5,28.5 37.5,29 40,29.5 C 42.5,30 47.5,30.5 50.5,27.5 C 51.5,26.5 50.5,25.5 49.5,26.5 z"
     id="path2470"
     style="fill:#2aff2a;stroke:#000000;stroke-width:1;stroke-linecap:round;stroke-linejoin:round" />
</svg>
