<?xml version="1.0" encoding="UTF-8" standalone="no"?>
<!-- Created with Inkscape (http://www.inkscape.org/) -->
<svg
   xmlns:svg="http://www.w3.org/2000/svg"
   xmlns="http://www.w3.org/2000/svg"
   version="1.0"
   width="64"
   height="64"
   id="svg2385">
  <defs
     id="defs2387" />
  <g
     id="layer1" />
  <path
     d="M 53.5,27 L 52.5,28 C 56.5,31 58,35 58,40 C 58,45 56.5,49 52.5,52 L 53.5,53 C 57.5,50 59.5,45.5 59.5,40 C 59.5,34.5 57.5,30 53.5,27 z M 48.5,29.5 L 47.5,30.5 C 50.5,33 52.5,36 52.5,40 C 52.5,44 50.5,47 47.5,49.5 L 48.5,50.5 C 51.5,48 54,44.5 54,40 C 54,35.5 51.5,32 48.5,29.5 z M 44,32 L 43,33 C 45.5,35 46.5,37 46.5,40 C 46.5,43 45.5,45 43,47 L 44,48 C 46.5,46 48,43.5 48,40 C 48,36.5 46.5,34 44,32 z"
     id="path2487"
     style="fill:#0000ff;stroke:#0000ff;stroke-width:2;stroke-linecap:round;stroke-linejoin:round" />
  <path
     d="M 6,18 C 6.5,16 6,10 20,10 C 29,10 33.009818,15.997571 33.5,18 C 34.480967,22.00732 33,24 34,28 C 34.5,30 39,30.5 39,33 C 39,35 34.5,34 35.5,36 C 37,39 36.466979,44.952158 35,46 C 31.5,48.5 30.5,47 28,48 C 25.5,49 26.228759,50.228759 26,52 L 10,52 L 10,46 C 10,42 7.5,36 6,32 C 4.5,28 4.5,24 6,18 z"
     id="path2511"
     style="opacity:1;fill:#e9c6af;fill-opacity:1;fill-rule:nonzero;stroke:#000000;stroke-width:2;stroke-linecap:round;stroke-linejoin:round;marker:none;marker-start:none;marker-mid:none;marker-end:none;stroke-miterlimit:4;stroke-dasharray:none;stroke-dashoffset:0;stroke-opacity:1;visibility:visible;display:inline;overflow:visible;enable-background:accumulate" />
</svg>
