<?xml version="1.0" encoding="UTF-8" standalone="no"?>
<!-- Created with Inkscape (http://www.inkscape.org/) -->
<svg
   xmlns:svg="http://www.w3.org/2000/svg"
   xmlns="http://www.w3.org/2000/svg"
   version="1.0"
   width="64"
   height="64"
   id="svg2385">
  <defs
     id="defs2387" />
  <path
     d="M 6,18 L 18,18 L 18,22 L 48,22 L 48,54 L 6,54 L 6,18 z"
     id="rect3154"
     style="fill:#e9ddaf;stroke:#000000;stroke-width:2;stroke-linecap:round;stroke-linejoin:round" />
  <path
     d="M 16,30 L 58,30 L 48,54 L 6,54 L 16,30 z"
     id="path3157"
     style="fill:#d3bc5f;stroke:#000000;stroke-width:2;stroke-linecap:round;stroke-linejoin:round" />
  <path
     d="M 30,33 L 30,40 L 23,40 L 23,44 L 30,44 L 30,51 L 34,51 L 34,44 L 41,44 L 41,40 L 34,40 L 34,33 L 30,33 z"
     id="path3257"
     style="fill:#ff0000;stroke:#800000;stroke-width:1;stroke-linecap:round;stroke-linejoin:round" />
  <path
     d="M 43.5,5.5 C 36.5,5.5 31,11 31,18 C 31,19.5 33,19.5 33,18 C 33,12 37.5,7.5 43.5,7.5 C 49.5,7.5 54,12 54,18 L 50,18 L 55,26 L 60,18 L 56,18 C 56,11 50.5,5.5 43.5,5.5 z"
     id="path2386"
     style="fill:#000000;stroke:none" />
</svg>
