<?xml version="1.0" encoding="UTF-8" standalone="no"?>
<!-- Created with Inkscape (http://www.inkscape.org/) -->
<svg
   xmlns:svg="http://www.w3.org/2000/svg"
   xmlns="http://www.w3.org/2000/svg"
   version="1.0"
   width="64"
   height="64"
   id="svg2385">
  <defs
     id="defs2387" />
  <path
     d="M 10,4 L 40,4 L 40,18 L 54,18 L 54,60 L 10,60 L 10,4 z"
     id="rect2392"
     style="fill:#ffffff;stroke:#000000;stroke-width:2;stroke-linecap:round;stroke-linejoin:round" />
  <path
     d="M 40,4 L 54,18 L 40,18 L 40,4 z"
     id="rect3182"
     style="fill:#cccccc;stroke:#000000;stroke-width:2;stroke-linecap:round;stroke-linejoin:round" />
  <path
     d="M 32,20.5 C 22.5,20.5 15,28 15,37.5 C 15,47 22.5,54.5 32,54.5 C 41.5,54.5 49,47 49,37.5 C 49,28 41.5,20.5 32,20.5 z"
     id="path2382"
     style="fill:#999999;stroke:#000000;stroke-width:1;stroke-linecap:round;stroke-linejoin:round" />
  <path
     d="M 44,37.5 C 44,44.5 39,49.5 32,49.5 C 25,49.5 20,44.5 20,37.5 C 20,30.5 25,25.5 32,25.5 C 39,25.5 44,30.5 44,37.5 z"
     id="path2391"
     style="fill:#ffffff;stroke:#0066ff;stroke-width:3" />
  <path
     d="M 36.5,43.5 L 32,37.5 L 32,29"
     id="path2401"
     style="fill:none;stroke:#000000;stroke-width:2;stroke-linecap:round;stroke-linejoin:round" />
</svg>
