<?xml version="1.0" encoding="UTF-8" standalone="no"?>
<!-- Created with Inkscape (http://www.inkscape.org/) -->
<svg
   xmlns:svg="http://www.w3.org/2000/svg"
   xmlns="http://www.w3.org/2000/svg"
   version="1.0"
   width="64"
   height="64"
   id="svg2385">
  <defs
     id="defs2387" />
  <path
     d="M 8,10 L 56,10 C 58,10 60,12 60,14 L 60,50 C 60,52 58,54 56,54 L 8,54 C 6,54 4,52 4,50 L 4,14 C 4,12 6,10 8,10 z"
     id="rect2433"
     style="fill:#80b3ff;stroke:#000000;stroke-width:2;stroke-linecap:round;stroke-linejoin:round" />
  <path
     d="M 16,14 C 14,14 12,15 12,16 C 12,17 14,18 16,18 C 18,18 20,17 20,16 C 20,15 18,14 16,14 z M 10,18 C 9,18 8,20 8,22 C 8,24 9,26 10,26 C 11,26 12,24 12,22 C 12,20 11,18 10,18 z"
     id="path2444"
     style="fill:#ffffff;stroke:none;stroke-width:2;stroke-linecap:round;stroke-linejoin:round" />
  <path
     d="M 14.5,25.5 L 14.5,38.5 L 19.5,38.5 L 25.5,48.5 L 25.5,15.5 L 19.5,25.5 L 14.5,25.5 z"
     id="path2382"
     style="fill:#999999;stroke:#000000;stroke-width:2;stroke-linecap:round;stroke-linejoin:round" />
  <path
     d="M 43.5,14.5 L 42,16 C 46.5,20 49.5,25.5 49.5,32 C 49.5,38.5 46.5,44 42,48 L 43.5,49.5 C 48.5,45.5 51.5,39 51.5,32 C 51.5,25 48.5,18.5 43.5,14.5 z M 37,18 L 35.5,19.5 C 39,22.5 42,27 42,32 C 42,37 39,41.5 35.5,44.5 L 37,46 C 41,42.5 44,37.5 44,32 C 44,26.5 41,21.5 37,18 z M 30.5,21.5 L 29,23 C 31.5,25 34,28.5 34,32 C 34,35.5 31.5,39 29,41 L 30.5,42.5 C 33.5,40 36,36 36,32 C 36,28 33.5,24 30.5,21.5 z"
     id="path2487"
     style="fill:#0000ff;stroke:#0000ff;stroke-width:1;stroke-linecap:round;stroke-linejoin:round" />
</svg>
