<?xml version="1.0" encoding="UTF-8" standalone="no"?>
<!-- Created with Inkscape (http://www.inkscape.org/) -->
<svg
   xmlns:svg="http://www.w3.org/2000/svg"
   xmlns="http://www.w3.org/2000/svg"
   version="1.0"
   width="64"
   height="64"
   id="svg2385">
  <defs
     id="defs2387" />
  <path
     d="M 7,13.5 L 41,47.5 C 37,53.5 44,63 52,57 L 46,51 L 50.5,46.5 L 56.5,52.5 C 62.5,44.5 53,37.5 47,41.5 L 13,7.5 C 9,3.5 3,9.5 7,13.5 z"
     id="path3178"
     style="fill:#b3b3b3;stroke:#000000;stroke-width:2;stroke-linecap:round;stroke-linejoin:round" />
  <path
     d="M 7,50.5 L 39,18.5 L 45,24.5 L 13,56.5 C 9,60.5 3,54 7,50.5 z"
     id="rect2380"
     style="fill:#aa4400;stroke:#000000;stroke-width:2;stroke-linecap:round;stroke-linejoin:round" />
  <path
     d="M 22,11.5 C 34,9.5 38,9.5 37,16.5 L 49.5,29 L 48.5,30 L 50.5,32 L 59.5,23 L 57.5,21 L 56.5,22 L 43,8.5 C 38,3.5 27.5,7 22,11.5 z"
     id="rect3153"
     style="fill:#000000;stroke:#000000;stroke-width:2;stroke-linecap:round;stroke-linejoin:round" />
</svg>
