<?xml version="1.0" encoding="UTF-8" standalone="no"?>
<!-- Created with Inkscape (http://www.inkscape.org/) -->
<svg
   xmlns:svg="http://www.w3.org/2000/svg"
   xmlns="http://www.w3.org/2000/svg"
   version="1.0"
   width="64"
   height="64"
   id="svg2385">
  <defs
     id="defs2387" />
  <path
     d="M 9.6875,9.9375 C 7.4375,9.9375 5.75,12.75 8,15 L 40,47 C 39,48 39,49.5 39,50 C 39,54.416 42.584,58 47,58 C 48.169236,58 49.4985,57.451428 50.5,57 L 43.5,50 L 47,46.5 L 54,53.5 C 54.451428,52.4985 55,51.169236 55,50 C 55,45.584 51.416,42 47,42 C 46.5,42 45,42 44,43 L 12,11 C 11.25,10.25 10.4375,9.9375 9.6875,9.9375 z"
     id="path3178"
     style="fill:#999999;stroke:#000000;stroke-width:1;stroke-linecap:round;stroke-linejoin:round" />
  <path
     d="M 8,52 L 38,22 L 42,26 L 12,56 C 9,59 5,55 8,52 z"
     id="rect2380"
     style="fill:#aa4400;stroke:#000000;stroke-width:1;stroke-linecap:round;stroke-linejoin:round" />
  <path
     d="M 42,10 L 58,26 L 50,34 L 35,19 C 36,12 30,10 18,12 C 22,8 36,4 42,10 z"
     id="rect3153"
     style="fill:#4d4d4d;stroke:#000000;stroke-width:1;stroke-linecap:round;stroke-linejoin:round" />
  <path
     d="M 46,33 L 57,22 L 61,26 L 50,37 L 46,33 z"
     id="path3156"
     style="fill:#4d4d4d;stroke:#000000;stroke-width:1;stroke-linecap:round;stroke-linejoin:round" />
</svg>
