<?xml version="1.0" encoding="UTF-8" standalone="no"?>
<!-- Created with Inkscape (http://www.inkscape.org/) -->
<svg
   xmlns:svg="http://www.w3.org/2000/svg"
   xmlns="http://www.w3.org/2000/svg"
   version="1.0"
   width="64"
   height="64"
   id="svg2385">
  <defs
     id="defs2387" />
  <path
     d="M 9.6875,7.9375 C 7.4375,7.9375 5.75,10.75 8,13 L 42,47 C 41,48 41,49.5 41,50 C 41,54.416 44.584,58 49,58 C 50.169236,58 51.4985,57.451428 52.5,57 L 45.5,50 L 49,46.5 L 56,53.5 C 56.451428,52.4985 57,51.169236 57,50 C 57,45.584 53.416,42 49,42 C 48.5,42 47,42 46,43 L 12,9 C 11.25,8.25 10.4375,7.9375 9.6875,7.9375 z"
     id="path3178"
     style="fill:#b3b3b3;stroke:#000000;stroke-width:1;stroke-linecap:round;stroke-linejoin:round" />
  <path
     d="M 8,52 L 40,20 L 44,24 L 12,56 C 9,59 5,55 8,52 z"
     id="rect2380"
     style="fill:#aa4400;stroke:#000000;stroke-width:1;stroke-linecap:round;stroke-linejoin:round" />
  <path
     d="M 22,12 C 34,10 38,10 37,17 L 49.5,29.5 L 48.5,30.5 L 50.5,32.5 L 58.5,24.5 L 56.5,22.5 L 55.5,23.5 L 42,10 C 37,5 27.60944,7.2858742 22,12 z"
     id="rect3153"
     style="fill:#000000;stroke:#000000;stroke-width:1;stroke-linecap:round;stroke-linejoin:round" />
</svg>
