<?xml version="1.0" encoding="UTF-8" standalone="no"?>
<!-- Created with Inkscape (http://www.inkscape.org/) -->
<svg
   xmlns:svg="http://www.w3.org/2000/svg"
   xmlns="http://www.w3.org/2000/svg"
   version="1.0"
   width="64"
   height="64"
   id="svg2385">
  <defs
     id="defs2387" />
  <path
     d="M 8,10 L 56,10 C 58,10 60,12 60,14 L 60,50 C 60,52 58,54 56,54 L 8,54 C 6,54 4,52 4,50 L 4,14 C 4,12 6,10 8,10 z"
     id="rect2433"
     style="fill:#2a7fff;stroke:#000000;stroke-width:2;stroke-linecap:round;stroke-linejoin:round;" />
  <path
     d="M 8,50 L 8,32 L 15,39 L 45,21 L 38,14 L 56,14 L 56,32 L 49,25 L 19,43 L 26,50 L 8,50 z"
     id="path2436"
     style="fill:#ffff00;stroke:#000000;stroke-width:2;stroke-linecap:round;stroke-linejoin:round;" />
  <path
     d="M 16,14 C 14,14 12,15 12,16 C 12,17 14,18 16,18 C 18,18 20,17 20,16 C 20,15 18,14 16,14 z M 10,18 C 9,18 8,20 8,22 C 8,24 9,26 10,26 C 11,26 12,24 12,22 C 12,20 11,18 10,18 z"
     id="path2444"
     style="fill:#ffffff;stroke:none;stroke-width:2;stroke-linecap:round;stroke-linejoin:round;" />
</svg>
