<?xml version="1.0" encoding="UTF-8" standalone="no"?>
<!-- Created with Inkscape (http://www.inkscape.org/) -->
<svg
   xmlns:svg="http://www.w3.org/2000/svg"
   xmlns="http://www.w3.org/2000/svg"
   version="1.0"
   width="64"
   height="64"
   id="svg2385">
  <defs
     id="defs2387" />
  <path
     d="M 14,10 L 42,10 C 44,10 46,12 46,14 L 46,56 C 46,58 44,60 42,60 L 14,60 C 12,60 10,58 10,56 L 10,14 C 10,12 12,10 14,10 z"
     id="rect2383"
     style="fill:#a05a2c;stroke:#000000;stroke-width:2;stroke-linecap:round;stroke-linejoin:round" />
  <path
     d="M 18,8 L 13,15 L 43,15 L 38,8 L 32,8 C 32,5.5 30.5,4 28,4 C 25.5,4 24,5.5 24,8 L 18,8 z"
     id="path2388"
     style="fill:#ffcc00;stroke:#000000;stroke-width:2;stroke-linecap:round;stroke-linejoin:round" />
  <path
     d="M 29,19 L 48,19 L 48,28 L 56,28 L 56,56 L 29,56 L 29,19 z"
     id="path2463"
     style="fill:#ffffff;stroke:#003380;stroke-width:2;stroke-linecap:round;stroke-linejoin:round" />
  <path
     d="M 34.5,25.5 L 44,25.5 L 34.5,25.5 z M 34.5,30.5 L 44,30.5 L 34.5,30.5 z M 34.5,35.5 L 50.5,35.5 L 34.5,35.5 z M 34.5,40.5 L 50.5,40.5 L 34.5,40.5 z M 34.5,45.5 L 50.5,45.5 L 34.5,45.5 z M 34.5,50.5 L 50.5,50.5 L 34.5,50.5 z"
     id="path2465"
     style="fill:none;stroke:#003380;stroke-width:1;stroke-linecap:round;stroke-linejoin:round" />
  <path
     d="M 48,19 L 56,28 L 48,28 L 48,19 z"
     id="path2467"
     style="fill:#cccccc;stroke:#003380;stroke-width:2;stroke-linecap:round;stroke-linejoin:round" />
</svg>
