<?xml version="1.0" encoding="UTF-8" standalone="no"?>
<!-- Created with Inkscape (http://www.inkscape.org/) -->
<svg
   xmlns:svg="http://www.w3.org/2000/svg"
   xmlns="http://www.w3.org/2000/svg"
   version="1.0"
   width="64"
   height="64"
   id="svg2385">
  <defs
     id="defs2387" />
  <path
     d="M 50,12 L 50,58 L 14,58 L 14,12 L 50,12 z"
     id="rect2383"
     style="fill:#ffffff;stroke:#003380;stroke-width:2;stroke-linecap:round;stroke-linejoin:round" />
  <path
     d="M 24,10 L 24,18 L 40,18 L 40,10 L 24,10 z"
     id="path2388"
     style="fill:#000000;stroke:#000000;stroke-width:1;stroke-linecap:round;stroke-linejoin:round" />
  <path
     d="M 20,28.25 L 27,28.25 L 20,28.25 z M 32,28.25 L 36,28.25 L 32,28.25 z M 41,28.25 L 44,28.25 L 41,28.25 z M 20,36.25 L 24,36.25 L 20,36.25 z M 29,36.25 L 33,36.25 L 29,36.25 z M 38,36.25 L 44,36.25 L 38,36.25 z M 20,44.25 L 27,44.25 L 20,44.25 z M 32,44.25 L 44,44.25 L 32,44.25 z M 20,52.25 L 33,52.25 L 20,52.25 z M 38,52.25 L 44,52.25 L 38,52.25 z"
     id="path2395"
     style="fill:none;stroke:#003380;stroke-width:2;stroke-linecap:round;stroke-linejoin:round" />
  <path
     d="M 27,9 L 30.5,19.5 C 29.5,20.5 29,21 29,22 C 29,23.5 30.5,25 32,25 C 33.5,25 35,23.5 35,22 C 35,21 34.5,20.5 33.5,19.5 L 37,9"
     id="path3232"
     style="fill:none;stroke:#808080;stroke-width:2;stroke-linecap:round;stroke-linejoin:round" />
</svg>
