<?xml version="1.0" encoding="UTF-8" standalone="no"?>
<!-- Created with Inkscape (http://www.inkscape.org/) -->
<svg
   xmlns:svg="http://www.w3.org/2000/svg"
   xmlns="http://www.w3.org/2000/svg"
   version="1.0"
   width="64"
   height="64"
   id="svg2383">
  <defs
     id="defs8" />
  <path
     d="M 56,11 L 56,13 L 52,13 L 52,21 L 56,21 L 56,23 L 52,23 L 52,31 L 56,31 L 56,33 L 52,33 L 52,41 L 56,41 L 56,43 L 52,43 L 52,51 L 56,51 L 56,53 L 8,53 L 8,51 L 12,51 L 12,43 L 8,43 L 8,41 L 12,41 L 12,33 L 8,33 L 8,31 L 12,31 L 12,23 L 8,23 L 8,21 L 12,21 L 12,13 L 8,13 L 8,11 L 56,11 z"
     id="path3170"
     style="fill:#000000;stroke:#000000;stroke-width:1;stroke-linecap:round;stroke-linejoin:round" />
  <path
     d="M 14.5,13.5 L 49.5,13.5 L 49.5,50.5 L 14.5,50.5 L 14.5,13.5 z"
     id="rect2407"
     style="fill:#5f8dd3;stroke:none" />
  <path
     d="M 13,22 L 51,22 L 50.930435,32 L 13,32 L 13,22 z"
     id="rect3192"
     style="fill:#ffcc00;stroke:#000000;stroke-width:3;stroke-linecap:round;stroke-linejoin:round" />
  <path
     d="M 12,42 L 52,42 L 12,42 z M 28,12 L 28,52 L 28,12 z"
     id="path2414"
     style="fill:none;stroke:#000000;stroke-width:3;stroke-linecap:round;stroke-linejoin:round" />
</svg>
