<?xml version="1.0" encoding="UTF-8" standalone="no"?>
<!-- Created with Inkscape (http://www.inkscape.org/) -->
<svg
   xmlns:svg="http://www.w3.org/2000/svg"
   xmlns="http://www.w3.org/2000/svg"
   version="1.0"
   width="64"
   height="64"
   id="svg2383">
  <defs
     id="defs2385" />
  <path
     d="M 43.5,11 L 43.5,7 L 45.5,7 L 45.5,57.5 L 43.5,57.5 L 43.5,53.5 L 7.5,53.5 L 7.5,57.5 L 5.5,57.5 L 5.5,7 L 7.5,7 L 7.5,11 L 43.5,11 z"
     id="path3170"
     style="fill:#000000;stroke:#000000;stroke-width:1;stroke-linecap:round;stroke-linejoin:round" />
  <path
     d="M 23,13.5 L 43,13.5 L 43,51 L 23,51 L 23,13.5 z"
     id="rect2407"
     style="fill:#00ffff;stroke:none" />
  <path
     d="M 8,23 L 20,23 L 20,51 L 8,51 L 8,23 z"
     id="rect3192"
     style="fill:#00ff00;stroke:none" />
  <path
     d="M 20,20.5 L 8,20.5 L 8,13.5 L 20,13.5 L 20,20.5 z"
     id="path2415"
     style="fill:#ff0000;stroke:none" />
  <path
     d="M 6.5,22 L 44.5,22 L 6.5,22 z M 6.5,32.5 L 44.5,32.5 L 6.5,32.5 z M 6.5,42.5 L 44.5,42.5 L 6.5,42.5 z"
     id="path3191"
     style="fill:none;stroke:#000000;stroke-width:3;stroke-linecap:round;stroke-linejoin:round" />
  <path
     d="M 46,17 L 58.5,6.5 L 58.5,27.5 L 46,17 z"
     id="path3206"
     style="fill:#00ff00;stroke:#000000;stroke-width:2;stroke-linecap:round;stroke-linejoin:round" />
</svg>
