<?xml version="1.0" encoding="UTF-8" standalone="no"?>
<!-- Created with Inkscape (http://www.inkscape.org/) -->
<svg
   xmlns:svg="http://www.w3.org/2000/svg"
   xmlns="http://www.w3.org/2000/svg"
   version="1.0"
   width="64"
   height="64"
   id="svg2383">
  <defs
     id="defs2385" />
  <path
     d="M 54.75,12.293577 C 54.031431,12.359769 53.368412,12.708135 52.90625,13.262327 L 24.1875,47.543577 L 16.21875,36.418577 C 15.366018,35.279823 13.781037,34.98816 12.578792,35.748764 C 11.376547,36.509368 10.961228,38.066527 11.625,39.324827 L 21.625,57.324827 C 22.06795,58.135721 22.891464,58.667082 23.812841,58.736501 C 24.734217,58.805919 25.628051,58.403947 26.1875,57.668577 L 57.1875,16.668577 C 57.851604,15.805588 57.938494,14.630189 57.408505,13.678928 C 56.878517,12.727667 55.833309,12.183008 54.75,12.293577 L 54.75,12.293577 z"
     id="path3168"
     style="fill:#0066ff;stroke:#000000;stroke-width:1;stroke-linecap:round;stroke-linejoin:round" />
  <path
     d="M 10.736328,15.886719 L 13.646485,15.886719 C 13.155896,14.611947 12.689307,13.328187 12.210938,12.048828 L 10.736328,15.886719 z M 11.3125,7.996094 L 13.109375,7.996094 L 18.421875,22 L 15.960938,22 L 14.486328,18.181641 L 9.935547,18.181641 C 9.4387343,19.453651 8.9470005,20.727631 8.451172,22 L 6,22 L 11.3125,7.996094 z"
     id="text3217"
     style="fill:#0066ff;stroke:#000000;stroke-width:1;stroke-linecap:round;stroke-linejoin:miter;stroke-miterlimit:4" />
  <path
     d="M 22.441406,16.28125 C 22.441406,17.417318 22.441406,18.553385 22.441406,19.689453 C 23.542028,19.731016 24.819077,19.503347 25.458984,18.507812 C 25.938889,17.791515 25.75102,16.562539 24.822994,16.325128 C 24.032129,16.25066 23.235326,16.2802 22.441406,16.28125 z M 22.441406,21.984375 C 22.441406,23.227865 22.441406,24.471354 22.441406,25.714844 C 23.267493,25.702593 24.096349,25.740824 24.920497,25.692873 C 25.895423,25.512404 26.805377,24.476266 26.485972,23.455097 C 26.170582,22.521128 25.105854,22.206565 24.229198,22.069371 C 23.637794,21.975087 23.038217,21.983403 22.441406,21.984375 z M 24.589844,14.030273 C 25.762199,14.109473 27.108465,14.413401 27.736809,15.512216 C 28.267751,16.465691 28.249589,17.645569 27.958674,18.672003 C 27.743612,19.405343 27.270543,20.045636 26.660156,20.5 C 27.739687,20.958434 28.713575,21.852996 28.906777,23.057835 C 29.297384,24.819165 28.275117,26.675091 26.720596,27.508706 C 25.971765,27.966071 25.085025,28.028041 24.230869,28 C 22.820579,28 21.41029,28 20,28 C 20,23.332031 20,18.667969 20,14 C 21.529976,13.991928 23.060376,13.983721 24.589844,14.030273 z"
     id="text3222"
     style="fill:#d40000;stroke:#000000;stroke-width:1;stroke-linecap:round;stroke-linejoin:miter;stroke-miterlimit:4" />
  <path
     d="M 30,14.792969 C 29.934438,12.531463 31.174208,10.324361 33.101843,9.1553123 C 35.075812,7.9008279 37.59983,7.4484813 39.849712,8.1693484 C 40.644585,8.400519 41.431664,8.696046 42.128906,9.1484375 C 41.871745,9.7832031 41.614583,10.417969 41.357422,11.052734 C 39.988398,10.471215 38.525388,9.9388728 37.012134,10.125751 C 35.123087,10.291794 33.240078,11.474976 32.643964,13.338144 C 32.049301,15.261484 32.680314,17.567819 34.357907,18.748354 C 35.909873,19.890922 38.016682,19.925576 39.776922,19.329971 C 40.420383,19.109327 40.433912,19.146987 41.328,18.65 C 41.542693,19.263838 41.806792,20.018974 42.021484,20.632812 C 39.307435,22.477022 35.477646,22.448504 32.79022,20.570863 C 30.917344,19.291043 29.952673,17.02396 30,14.792969 z"
     id="text3226"
     style="fill:#ffd42a;stroke:#000000;stroke-width:1;stroke-linecap:round;stroke-linejoin:miter;stroke-miterlimit:4" />
</svg>
