<?xml version="1.0" encoding="UTF-8" standalone="no"?>
<!-- Created with Inkscape (http://www.inkscape.org/) -->
<svg
   xmlns:svg="http://www.w3.org/2000/svg"
   xmlns="http://www.w3.org/2000/svg"
   version="1.0"
   width="64"
   height="64"
   id="svg2385">
  <defs
     id="defs2387" />
  <path
     d="M 14.5,44 C 16.5,56 40.5,60 46,44.5 C 49,36 40,31.5 35.5,25.5 C 32.5,21.5 34,16 39,16 C 40.5,16 44,17.5 41,19 C 37,21 36,26 44,24.5 C 46.5,24 50.2,21 49.5,15.5 C 49,11.5 41,5 29,13 C 27.5,14 18,23 31.5,33 C 35.5,36 37.3,38 37,42.2 C 37,45 34,47 30,47.5 C 25.5,48 20,45.5 22,41.5 C 23,39.5 24.5,37.5 22,35 C 21,34 18,35 16,38 C 15.4,39 14,41 14.5,44 z"
     id="path2382"
     style="fill:#ff5599;stroke:#000000;stroke-width:1;stroke-linecap:round;stroke-linejoin:round" />
</svg>
