<?xml version="1.0" encoding="UTF-8" standalone="no"?>
<!-- Created with Inkscape (http://www.inkscape.org/) -->
<svg
   xmlns:svg="http://www.w3.org/2000/svg"
   xmlns="http://www.w3.org/2000/svg"
   xmlns:xlink="http://www.w3.org/1999/xlink"
   version="1.0"
   width="64"
   height="64"
   id="svg2385">
  <defs
     id="defs2387">
    <linearGradient
       id="linearGradient3183">
      <stop
         id="stop3185"
         style="stop-color:#000000;stop-opacity:1"
         offset="0" />
      <stop
         id="stop3187"
         style="stop-color:#000000;stop-opacity:0"
         offset="1" />
    </linearGradient>
    <linearGradient
       id="linearGradient3175">
      <stop
         id="stop3177"
         style="stop-color:#00ffff;stop-opacity:1"
         offset="0" />
      <stop
         id="stop3179"
         style="stop-color:#00ffff;stop-opacity:0"
         offset="1" />
    </linearGradient>
    <linearGradient
       x1="28"
       y1="28"
       x2="30"
       y2="48"
       id="linearGradient3255"
       xlink:href="#linearGradient3183"
       gradientUnits="userSpaceOnUse" />
    <linearGradient
       x1="24"
       y1="28"
       x2="25"
       y2="38"
       id="linearGradient3257"
       xlink:href="#linearGradient3175"
       gradientUnits="userSpaceOnUse" />
  </defs>
  <path
     d="M 3,30 C 1.5,30 1.5,32 3,32 L 27.965,32 C 27.19,31.351 27.019,30.924 26.109,30 L 3,30 z M 41.773,30 C 42.436,30.674 42.993,31.147 43.675,32 L 61,32 C 62.5,32 62.5,30 61,30 L 41.773,30 z"
     id="path3252"
     style="fill:#2a7fff;stroke:#2a7fff;stroke-width:1" />
  <path
     d="M 14.5,44 C 16.5,56 40.5,60 46,44.5 C 49,36 40,31.5 35.5,25.5 C 32.5,21.5 34,16 39,16 C 40.5,16 44,17.5 41,19 C 37,21 36,26 44,24.5 C 46.5,24 50.2,21 49.5,15.5 C 49,11.5 41,5 29,13 C 27.5,14 18,23 31.5,33 C 35.5,36 37.3,38 37,42.2 C 37,45 34,47 30,47.5 C 25.5,48 20,45.5 22,41.5 C 23,39.5 24.5,37.5 22,35 C 21,34 18,35 16,38 C 15.4,39 14,41 14.5,44 z"
     id="path3172"
     style="fill:url(#linearGradient3257);stroke:url(#linearGradient3255);stroke-width:2;stroke-linecap:round;stroke-linejoin:round" />
</svg>
