<?xml version="1.0" encoding="UTF-8" standalone="no"?>
<!-- Created with Inkscape (http://www.inkscape.org/) -->
<svg
   xmlns:svg="http://www.w3.org/2000/svg"
   xmlns="http://www.w3.org/2000/svg"
   xmlns:xlink="http://www.w3.org/1999/xlink"
   version="1.0"
   width="64"
   height="64"
   id="svg2385">
  <defs
     id="defs2387">
    <linearGradient
       id="linearGradient2425">
      <stop
         id="stop2427"
         style="stop-color:#ffffff;stop-opacity:1"
         offset="0" />
      <stop
         id="stop2429"
         style="stop-color:#0044aa;stop-opacity:1"
         offset="1" />
    </linearGradient>
    <radialGradient
       cx="-52"
       cy="31"
       r="29"
       fx="-52"
       fy="31"
       id="radialGradient2431"
       xlink:href="#linearGradient2425"
       gradientUnits="userSpaceOnUse"
       gradientTransform="matrix(-1.6,2,-1.9,-1.5,-19.1,157.2)" />
  </defs>
  <path
     d="M 6,50 L 58,50 L 58,58 L 6,58 L 6,50 z"
     id="rect2383"
     style="fill:none;stroke:#000000;stroke-width:1;stroke-linecap:round;stroke-linejoin:round" />
  <path
     d="M 34,50 L 34,58"
     id="path3192"
     style="fill:none;stroke:#000000;stroke-width:1;stroke-linecap:round;stroke-linejoin:round" />
  <path
     d="M 6,50 L 20,50 L 20,58 L 6,58 L 6,50 z"
     id="rect3167"
     style="fill:#2aff2a;stroke:#000000;stroke-width:1;stroke-linecap:round;stroke-linejoin:round" />
  <path
     d="M 12,6 L 40,6 C 43.5,6 46,8.5 46,12 L 46,30 C 46,33.5 43.5,36 40,36 L 12,36 C 8.5,36 6,33.5 6,30 L 6,12 C 6,8.5 8.5,6 12,6 z"
     id="rect2380"
     style="fill:url(#radialGradient2431);stroke:#000000;stroke-width:2;stroke-linecap:round;stroke-linejoin:round" />
  <path
     d="M 13,50 L 20,43 L 15,43 L 15,36 L 11,36 L 11,43 L 6,43 L 13,50 z"
     id="path3170"
     style="fill:#00ccff;stroke:#000000;stroke-width:1;stroke-linecap:round;stroke-linejoin:round" />
</svg>
