<?xml version="1.0" encoding="UTF-8" standalone="no"?>
<!-- Created with Inkscape (http://www.inkscape.org/) -->
<svg
   xmlns:svg="http://www.w3.org/2000/svg"
   xmlns="http://www.w3.org/2000/svg"
   xmlns:xlink="http://www.w3.org/1999/xlink"
   version="1.0"
   width="64"
   height="64"
   id="svg2385">
  <defs
     id="defs2387">
    <linearGradient
       id="linearGradient2425">
      <stop
         id="stop2427"
         style="stop-color:#ffffff;stop-opacity:1"
         offset="0" />
      <stop
         id="stop2429"
         style="stop-color:#0044aa;stop-opacity:1"
         offset="1" />
    </linearGradient>
    <radialGradient
       cx="-49"
       cy="22"
       r="29"
       fx="-49"
       fy="22"
       id="radialGradient2431"
       xlink:href="#linearGradient2425"
       gradientUnits="userSpaceOnUse"
       gradientTransform="matrix(-1.6,2,-1.9,-1.5,-25.1,137.2)" />
  </defs>
  <path
     d="M 18,8 L 46,8 C 49.5,8 52,10.5 52,14 L 52,32 C 52,35.5 49.5,38 46,38 L 18,38 C 14.5,38 12,35.5 12,32 L 12,14 C 12,10.5 14.5,8 18,8 z"
     id="rect2380"
     style="fill:url(#radialGradient2431);stroke:#000000;stroke-width:2;stroke-linecap:round;stroke-linejoin:round" />
  <path
     d="M 44,23 L 35,14 L 35,20 L 20,20 L 20,26 L 35,26 L 35,32 L 44,23 z"
     id="path3251"
     style="fill:#00ccff;stroke:#000000;stroke-width:1;stroke-linecap:round;stroke-linejoin:round" />
  <path
     d="M 10.5,54 L 13.5,54 L 12,50 L 10.5,54 z M 11,46 L 13,46 L 18,60 L 15.5,60 L 14,56 L 10,56 L 8.5,60 L 6,60 L 11,46 z M 19.5,46 L 22,46 L 22,55 C 22,58.5 28,58.5 28,55 L 28,46 L 30.5,46 L 30.5,55 C 30.5,62 19.5,62 19.5,55 L 19.5,46 z M 36.5,60 L 36.5,48.5 L 32.5,48.5 L 32.5,46 L 43,46 L 43,48.5 L 39,48.5 L 39,60 L 36.5,60 z M 51,57.5 C 57,57.5 57,48.5 51,48.5 C 45,48.5 45,57.5 51,57.5 z M 51,46 C 60.5,46 60.5,60 51,60 C 41.5,60 41.5,46 51,46 z"
     id="text2381"
     style="fill:#0000ff;stroke:#0000ff;stroke-width:1;stroke-linecap:butt;stroke-linejoin:miter;stroke-miterlimit:4" />
</svg>
