<?xml version="1.0" encoding="UTF-8" standalone="no"?>
<!-- Created with Inkscape (http://www.inkscape.org/) -->
<svg
   xmlns:svg="http://www.w3.org/2000/svg"
   xmlns="http://www.w3.org/2000/svg"
   version="1.0"
   width="64"
   height="64"
   id="svg2385">
  <defs
     id="defs2387" />
  <path
     d="M 17,9 C 11.5,9 9,11.5 9,17 L 9,26 C 9,30 6,31 3.5,32 C 6,33 9,34 9,38 L 9,47 C 9,52.5 11.5,55 17,55 L 17,51 C 14,51 13,50 13,47 L 13,38 C 13,34 10,33 7.5,32 C 10,31 13,30 13,26 L 13,17 C 13,14 14,13 17,13 L 17,9 z M 47,9 L 47,13 C 50,13 51,14 51,17 L 51,26 C 51,30 54,31 56.5,32 C 54,33 51,34 51,38 L 51,47 C 51,50 50,51 47,51 L 47,55 C 52.5,55 55,52.5 55,47 L 55,38 C 55,34 58,33 60.5,32 C 58,31 55,30 55,26 L 55,17 C 55,11.5 52.5,9 47,9 z"
     id="path3171"
     style="fill:#ff00ff;stroke:#ff00ff;stroke-width:1;stroke-linecap:butt;stroke-linejoin:miter;stroke-miterlimit:4" />
  <path
     d="M 41,15.28125 L 37,16.875 L 37,22 L 35,22 L 35,27 L 37,27 C 37,27 37,39 37,40 C 37,43.5 37,44.5 38.5,46 C 40.5,48 44,48 46,47.5 L 45.5,43 C 43.5,43.5 41,44 41,41 C 41,40.5 41,27 41,27 L 45,27 L 45,22 L 41,22 L 41,15.28125 z M 20.5,16 L 17.5,17 L 31,49 L 34,48 L 20.5,16 z"
     id="path2385"
     style="fill:#0000ff;stroke:#0000ff;stroke-width:1;stroke-linecap:butt;stroke-linejoin:miter;stroke-miterlimit:4" />
</svg>
