<?xml version="1.0" encoding="UTF-8" standalone="no"?>
<!-- Created with Inkscape (http://www.inkscape.org/) -->
<svg
   xmlns:svg="http://www.w3.org/2000/svg"
   xmlns="http://www.w3.org/2000/svg"
   xmlns:xlink="http://www.w3.org/1999/xlink"
   version="1.0"
   width="64"
   height="64"
   id="svg2385">
  <defs
     id="defs2387">
    <linearGradient
       id="linearGradient3171">
      <stop
         id="stop3173"
         style="stop-color:#002255;stop-opacity:1"
         offset="0" />
      <stop
         id="stop3179"
         style="stop-color:#003380;stop-opacity:1"
         offset="0.15959503" />
      <stop
         id="stop3175"
         style="stop-color:#5599ff;stop-opacity:1"
         offset="0.83882058" />
      <stop
         id="stop3177"
         style="stop-color:#d5e5ff;stop-opacity:1"
         offset="1" />
    </linearGradient>
    <linearGradient
       x1="30"
       y1="41"
       x2="30"
       y2="22"
       id="linearGradient3169"
       xlink:href="#linearGradient3171"
       gradientUnits="userSpaceOnUse"
       gradientTransform="matrix(1,0,0,1.4,0,-12.552031)" />
  </defs>
  <path
     d="M 3.7324219,45.036642 C 4.5996094,43.519063 5.4667969,42.001485 6.3339844,40.483906 C 8.4038272,42.560955 11.099514,44.598492 13.648126,42.88717 C 15.928134,41.226946 14.86173,36.61419 13.02465,35.072931 C 10.311927,32.190147 6.5845876,30.286429 5.3247522,25.379719 C 4.1816134,21.515707 5.4814845,16.867945 8.1147276,14.975353 C 11.116223,12.638678 15.034905,13.31425 17.891602,15.76379 L 16.311211,21.24093 C 14.417379,19.74669 11.891403,18.625804 9.9265088,20.49804 C 8.0594206,23.537248 11.425914,26.208262 12.978516,27.711642 C 15.868467,30.326007 19.233648,33.954175 19.315287,39.328808 C 19.663072,44.597918 16.104951,48.597858 12.628047,49.117184 C 9.3795288,49.735459 6.2916305,47.653544 3.7324219,45.036642 z M 20.818359,45.036642 C 21.685547,43.519063 22.552734,42.001485 23.419922,40.483906 C 25.489765,42.560955 28.185452,44.598492 30.734064,42.88717 C 33.01407,41.226945 31.947668,36.61419 30.110588,35.072931 C 27.397865,32.190147 23.670525,30.286431 22.41069,25.379719 C 21.267551,21.515707 22.567422,16.867945 25.200665,14.975353 C 28.20216,12.638679 32.120843,13.31425 34.977539,15.76379 L 33.397148,21.24093 C 31.503316,19.746689 28.977341,18.625804 27.012446,20.49804 C 25.145358,23.537248 28.511851,26.20826 30.064453,27.711642 C 32.954403,30.326006 36.319586,33.954175 36.401224,39.328808 C 36.74901,44.597918 33.190888,48.59786 29.713984,49.117184 C 26.465466,49.735459 23.377568,47.653544 20.818359,45.036642 z M 46.166016,33.642501 L 51.404297,33.642501 L 48.71679,25.495207 L 46.166016,33.642501 z M 47.203125,13.758126 C 48.28125,13.758126 49.359375,13.758126 50.4375,13.758126 C 53.625,25.521406 56.8125,37.284688 60,49.047969 C 58.523438,49.047969 57.046875,49.047969 55.570312,49.047969 C 54.685547,45.840547 53.800781,42.633126 52.916016,39.425704 C 50.185547,39.425704 47.455078,39.425704 44.724609,39.425704 C 43.833813,42.633027 42.942725,45.840198 42.052734,49.047969 C 40.582031,49.047969 39.111328,49.047969 37.640625,49.047969 C 40.828125,37.284688 44.015625,25.521408 47.203125,13.758126 z"
     id="text3218"
     style="fill:url(#linearGradient3169);stroke:#000000;stroke-width:1;stroke-linecap:butt;stroke-linejoin:miter;stroke-miterlimit:4" />
</svg>
