<?xml version="1.0" encoding="UTF-8" standalone="no"?>
<!-- Created with Inkscape (http://www.inkscape.org/) -->
<svg
   xmlns:svg="http://www.w3.org/2000/svg"
   xmlns="http://www.w3.org/2000/svg"
   version="1.0"
   width="64"
   height="64"
   id="svg2383">
  <defs
     id="defs2385" />
  <path
     d="M 46,13 L 46,6 L 48,6 L 48,13 L 55,13 L 55,15 L 48,15 L 48,24 L 55,24 L 55,22 L 48,22 L 48,31 L 55,31 L 55,33 L 48,33 L 48,40 L 55,40 L 55,42 L 48,42 L 48,49 L 55,49 L 55,51 L 48,51 L 48,58 L 46,58 L 46,51 L 18,51 L 18,58 L 16,58 L 16,51 L 9,51 L 9,49 L 16,49 L 16,42 L 9,42 L 9,40 L 16,40 L 16,33 L 9,33 L 9,31 L 16,31 L 16,22 L 9,22 L 9,24 L 16,24 L 16,15 L 9,15 L 9,13 L 16,13 L 16,6 L 18,6 L 18,13 L 46,13 z"
     id="path3170"
     style="fill:#000000;stroke:#000000;stroke-width:1;stroke-linecap:round;stroke-linejoin:round" />
  <path
     d="M 18.5,15.5 L 45.5,15.5 L 45.5,48.5 L 18.5,48.5 L 18.5,15.5 z"
     id="path3172"
     style="fill:#b3b3b3;stroke:none" />
  <path
     d="M 25,18 C 25,18 25,33.5 25,35 C 24,40 22,41.5 20,43 L 22,45 C 24,43.5 27,41.5 28,35 L 39,35 L 39,41 C 39,41.5 38.5,42 38,42 L 36,42 L 37,45 L 39,45 C 40.5,45 42,43.5 42,42 L 42,18 L 25,18 z M 28,21 L 39,21 L 39,25 L 28,25 L 28,21 z M 28,28 L 39,28 L 39,32 L 28,32 L 28,28 z"
     id="path3176"
     style="fill:#ff0000;stroke:none" />
</svg>
