<?xml version="1.0" encoding="UTF-8" standalone="no"?>
<!-- Created with Inkscape (http://www.inkscape.org/) -->
<svg
   xmlns:svg="http://www.w3.org/2000/svg"
   xmlns="http://www.w3.org/2000/svg"
   version="1.0"
   width="64"
   height="64"
   id="svg2385">
  <defs
     id="defs2387" />
  <path
     d="M 33.8125,13.125 C 29.90625,13.222656 26,14 26,14 C 29,16 30,19 28,22 L 46,20 C 46,20 42,15 40,14 C 38.5,13.25 36.15625,13.066406 33.8125,13.125 z M 6,20 C 8,30 8,34 6,44 C 10,38 12,35.5 16,36 C 12,35.5 12,28.5 16,28 C 12,28.5 10,26 6,20 z M 20,36 C 19,40 17,42.5 20,42.5 C 22,42.5 24,46 26.5,42.5 L 20,36 z M 48,42 L 40,44 C 36,51 36,51.5 44,47.5 C 47,46 46,46 48,42 z"
     id="path4824"
     style="fill:#ff7f2a;stroke:#000000;stroke-width:1;stroke-linecap:round;stroke-linejoin:round" />
  <path
     d="M 37.8125,19.4375 C 35.845658,19.483325 33.886116,19.685647 32,20 C 20,22 26.055793,26.563458 16,28 C 12,28.5 12,35.5 16,36 C 26.055793,37.436542 20,42 32,44 C 41.711879,45.618647 54,44 60,34 L 52,32 L 60,30 C 55.125,21.875 46.335482,19.238927 37.8125,19.4375 z"
     id="path2380"
     style="fill:#ff6600;stroke:#000000;stroke-width:1;stroke-linecap:round;stroke-linejoin:round" />
  <path
     d="M 52,26 C 52,27.104 51.104,28 50,28 C 48.896,28 48,27.104 48,26 C 48,24.896 48.896,24 50,24 C 51.104,24 52,24.896 52,26 z"
     id="path2389"
     style="fill:#000000;stroke:none" />
  <g
     transform="translate(48,0)"
     id="g5007"
     style="fill:#ff9955">
    <path
       d="M -30.5,30 C -33.5,30 -33.5,34 -30.5,34"
       id="path4968"
       style="fill:#ff9955;stroke:#000000;stroke-width:0.25;stroke-linecap:round;stroke-linejoin:round" />
    <path
       d="M -28.5,28 C -31.5,28 -31.5,32 -28.5,32"
       id="path4960"
       style="fill:#ff9955;stroke:#000000;stroke-width:0.25;stroke-linecap:round;stroke-linejoin:round" />
    <path
       d="M -28.5,32 C -31.5,32 -31.5,36 -28.5,36"
       id="path4962"
       style="fill:#ff9955;stroke:#000000;stroke-width:0.25;stroke-linecap:round;stroke-linejoin:round" />
    <path
       d="M -26.5,27 C -29.5,27 -29.5,30 -26.5,30"
       id="path4936"
       style="fill:#ff9955;stroke:#000000;stroke-width:0.25;stroke-linecap:round;stroke-linejoin:round" />
    <path
       d="M -26.5,30 C -29.5,30 -29.5,34 -26.5,34"
       id="path4940"
       style="fill:#ff9955;stroke:#000000;stroke-width:0.25;stroke-linecap:round;stroke-linejoin:round" />
    <path
       d="M -26.5,34 C -29.5,34 -29.5,37 -26.5,37"
       id="path4964"
       style="fill:#ff9955;stroke:#000000;stroke-width:0.25;stroke-linecap:round;stroke-linejoin:round" />
    <path
       d="M -24.5,28 C -27.5,28 -27.5,32 -24.5,32"
       id="path4942"
       style="fill:#ff9955;stroke:#000000;stroke-width:0.25;stroke-linecap:round;stroke-linejoin:round" />
    <path
       d="M -24.5,32 C -27.5,32 -27.5,36 -24.5,36"
       id="path4944"
       style="fill:#ff9955;stroke:#000000;stroke-width:0.25;stroke-linecap:round;stroke-linejoin:round" />
    <path
       d="M -22.5,26 C -25.5,26 -25.5,30 -22.5,30"
       id="path4920"
       style="fill:#ff9955;stroke:#000000;stroke-width:0.25;stroke-linecap:round;stroke-linejoin:round" />
    <path
       d="M -22.5,34 C -25.5,34 -25.5,38 -22.5,38"
       id="path4926"
       style="fill:#ff9955;stroke:#000000;stroke-width:0.25;stroke-linecap:round;stroke-linejoin:round" />
    <path
       d="M -22.5,30 C -25.5,30 -25.5,34 -22.5,34"
       id="path4958"
       style="fill:#ff9955;stroke:#000000;stroke-width:0.25;stroke-linecap:round;stroke-linejoin:round" />
    <path
       d="M -20.5,24 C -23.5,24 -23.5,28 -20.5,28"
       id="path4922"
       style="fill:#ff9955;stroke:#000000;stroke-width:0.25;stroke-linecap:round;stroke-linejoin:round" />
    <path
       d="M -20.5,28 C -23.5,28 -23.5,32 -20.5,32"
       id="path4924"
       style="fill:#ff9955;stroke:#000000;stroke-width:0.25;stroke-linecap:round;stroke-linejoin:round" />
    <path
       d="M -20.5,32 C -23.5,32 -23.5,36 -20.5,36"
       id="path4928"
       style="fill:#ff9955;stroke:#000000;stroke-width:0.25;stroke-linecap:round;stroke-linejoin:round" />
    <path
       d="M -20.5,36 C -23.5,36 -23.5,40 -20.5,40"
       id="path4932"
       style="fill:#ff9955;stroke:#000000;stroke-width:0.25;stroke-linecap:round;stroke-linejoin:round" />
    <path
       d="M -18.5,22 C -21.5,22 -21.5,26 -18.5,26"
       id="path4896"
       style="fill:#ff9955;stroke:#000000;stroke-width:0.25;stroke-linecap:round;stroke-linejoin:round" />
    <path
       d="M -18.5,26 C -21.5,26 -21.5,30 -18.5,30"
       id="path4900"
       style="fill:#ff9955;stroke:#000000;stroke-width:0.25;stroke-linecap:round;stroke-linejoin:round" />
    <path
       d="M -18.5,34 C -21.5,34 -21.5,38 -18.5,38"
       id="path4906"
       style="fill:#ff9955;stroke:#000000;stroke-width:0.25;stroke-linecap:round;stroke-linejoin:round" />
    <path
       d="M -18.5,38 C -21.5,38 -21.5,42 -18.5,42"
       id="path4910"
       style="fill:#ff9955;stroke:#000000;stroke-width:0.25;stroke-linecap:round;stroke-linejoin:round" />
    <path
       d="M -18.5,30 C -21.5,30 -21.5,34 -18.5,34"
       id="path4956"
       style="fill:#ff9955;stroke:#000000;stroke-width:0.25;stroke-linecap:round;stroke-linejoin:round" />
    <path
       d="M -16.5,20.5 C -19.5,20.5 -19.5,24 -16.5,24"
       id="path4898"
       style="fill:#ff9955;stroke:#000000;stroke-width:0.25;stroke-linecap:round;stroke-linejoin:round" />
    <path
       d="M -16.5,24 C -19.5,24 -19.5,28 -16.5,28"
       id="path4902"
       style="fill:#ff9955;stroke:#000000;stroke-width:0.25;stroke-linecap:round;stroke-linejoin:round" />
    <path
       d="M -16.5,28 C -19.5,28 -19.5,32 -16.5,32"
       id="path4904"
       style="fill:#ff9955;stroke:#000000;stroke-width:0.25;stroke-linecap:round;stroke-linejoin:round" />
    <path
       d="M -16.5,32 C -19.5,32 -19.5,36 -16.5,36"
       id="path4908"
       style="fill:#ff9955;stroke:#000000;stroke-width:0.25;stroke-linecap:round;stroke-linejoin:round" />
    <path
       d="M -16.5,36 C -19.5,36 -19.5,40 -16.5,40"
       id="path4912"
       style="fill:#ff9955;stroke:#000000;stroke-width:0.25;stroke-linecap:round;stroke-linejoin:round" />
    <path
       d="M -16.5,40 C -19.5,40 -19.5,43.5 -16.5,43.5"
       id="path4914"
       style="fill:#ff9955;stroke:#000000;stroke-width:0.25;stroke-linecap:round;stroke-linejoin:round" />
    <path
       d="M -14.5,30 C -17.5,30 -17.5,34 -14.5,34"
       id="path4841"
       style="fill:#ff9955;stroke:#000000;stroke-width:0.25;stroke-linecap:round;stroke-linejoin:round" />
    <path
       d="M -14.5,22 C -17.5,22 -17.5,26 -14.5,26"
       id="path4876"
       style="fill:#ff9955;stroke:#000000;stroke-width:0.25;stroke-linecap:round;stroke-linejoin:round" />
    <path
       d="M -14.5,26 C -17.5,26 -17.5,30 -14.5,30"
       id="path4880"
       style="fill:#ff9955;stroke:#000000;stroke-width:0.25;stroke-linecap:round;stroke-linejoin:round" />
    <path
       d="M -14.5,34 C -17.5,34 -17.5,38 -14.5,38"
       id="path4886"
       style="fill:#ff9955;stroke:#000000;stroke-width:0.25;stroke-linecap:round;stroke-linejoin:round" />
    <path
       d="M -14.5,38 C -17.5,38 -17.5,42 -14.5,42"
       id="path4890"
       style="fill:#ff9955;stroke:#000000;stroke-width:0.25;stroke-linecap:round;stroke-linejoin:round" />
    <path
       d="M -12.5,20 C -15.5,20 -15.5,24 -12.5,24"
       id="path4878"
       style="fill:#ff9955;stroke:#000000;stroke-width:0.25;stroke-linecap:round;stroke-linejoin:round" />
    <path
       d="M -12.5,24 C -15.5,24 -15.5,28 -12.5,28"
       id="path4882"
       style="fill:#ff9955;stroke:#000000;stroke-width:0.25;stroke-linecap:round;stroke-linejoin:round" />
    <path
       d="M -12.5,28 C -15.5,28 -15.5,32 -12.5,32"
       id="path4884"
       style="fill:#ff9955;stroke:#000000;stroke-width:0.25;stroke-linecap:round;stroke-linejoin:round" />
    <path
       d="M -12.5,32 C -15.5,32 -15.5,36 -12.5,36"
       id="path4888"
       style="fill:#ff9955;stroke:#000000;stroke-width:0.25;stroke-linecap:round;stroke-linejoin:round" />
    <path
       d="M -12.5,36 C -15.5,36 -15.5,40 -12.5,40"
       id="path4892"
       style="fill:#ff9955;stroke:#000000;stroke-width:0.25;stroke-linecap:round;stroke-linejoin:round" />
    <path
       d="M -12.5,40 C -15.5,40 -15.5,44 -12.5,44"
       id="path4894"
       style="fill:#ff9955;stroke:#000000;stroke-width:0.25;stroke-linecap:round;stroke-linejoin:round" />
    <path
       d="M -10.5,22 C -13.5,22 -13.5,26 -10.5,26"
       id="path4865"
       style="fill:#ff9955;stroke:#000000;stroke-width:0.25;stroke-linecap:round;stroke-linejoin:round" />
    <path
       d="M -10.5,26 C -13.5,26 -13.5,30 -10.5,30"
       id="path4867"
       style="fill:#ff9955;stroke:#000000;stroke-width:0.25;stroke-linecap:round;stroke-linejoin:round" />
    <path
       d="M -10.5,30 C -13.5,30 -13.5,34 -10.5,34"
       id="path4869"
       style="fill:#ff9955;stroke:#000000;stroke-width:0.25;stroke-linecap:round;stroke-linejoin:round" />
    <path
       d="M -10.5,34 C -13.5,34 -13.5,38 -10.5,38"
       id="path4871"
       style="fill:#ff9955;stroke:#000000;stroke-width:0.25;stroke-linecap:round;stroke-linejoin:round" />
    <path
       d="M -10.5,38 C -13.5,38 -13.5,42 -10.5,42"
       id="path4873"
       style="fill:#ff9955;stroke:#000000;stroke-width:0.25;stroke-linecap:round;stroke-linejoin:round" />
    <path
       d="M -8.5,24 C -11.5,24 -11.5,28 -8.5,28"
       id="path4843"
       style="fill:#ff9955;stroke:#000000;stroke-width:0.25;stroke-linecap:round;stroke-linejoin:round" />
    <path
       d="M -8.5,28 C -11.5,28 -11.5,32 -8.5,32"
       id="path4845"
       style="fill:#ff9955;stroke:#000000;stroke-width:0.25;stroke-linecap:round;stroke-linejoin:round" />
    <path
       d="M -8.5,32 C -11.5,32 -11.5,36 -8.5,36"
       id="path4847"
       style="fill:#ff9955;stroke:#000000;stroke-width:0.25;stroke-linecap:round;stroke-linejoin:round" />
    <path
       d="M -8.5,36 C -11.5,36 -11.5,40 -8.5,40"
       id="path4849"
       style="fill:#ff9955;stroke:#000000;stroke-width:0.25;stroke-linecap:round;stroke-linejoin:round" />
    <path
       d="M -8.5,40 C -11.5,40 -11.5,44 -8.5,44"
       id="path4851"
       style="fill:#ff9955;stroke:#000000;stroke-width:0.25;stroke-linecap:round;stroke-linejoin:round" />
    <path
       d="M -8.5,20 C -11.5,20 -11.5,24 -8.5,24"
       id="path4970"
       style="fill:#ff9955;stroke:#000000;stroke-width:0.25;stroke-linecap:round;stroke-linejoin:round" />
    <path
       d="M -6.5,38 C -9.5,38 -9.5,42 -6.5,42"
       id="path4972"
       style="fill:#ff9955;stroke:#000000;stroke-width:0.25;stroke-linecap:round;stroke-linejoin:round" />
    <path
       d="M -6.5,22 C -9.5,22 -9.5,26 -6.5,26"
       id="path4974"
       style="fill:#ff9955;stroke:#000000;stroke-width:0.25;stroke-linecap:round;stroke-linejoin:round" />
    <path
       d="M -4.5,20.5 C -7.5,20.5 -7.5,24 -4.5,24"
       id="path4976"
       style="fill:#ff9955;stroke:#000000;stroke-width:0.25;stroke-linecap:round;stroke-linejoin:round" />
    <path
       d="M -4.5,40 C -7.5,40 -7.5,43.5 -4.5,43.5"
       id="path4978"
       style="fill:#ff9955;stroke:#000000;stroke-width:0.25;stroke-linecap:round;stroke-linejoin:round" />
    <path
       d="M -6,37.5 C -7.027579,38.647074 -6.700472,40 -4.5,40"
       id="path4980"
       style="fill:#ff9955;stroke:#000000;stroke-width:0.25;stroke-linecap:round;stroke-linejoin:round" />
    <path
       d="M -4.5,24 C -6.629181,24 -6.893094,25.330287 -6,26.5"
       id="path4982"
       style="fill:#ff9955;stroke:#000000;stroke-width:0.25;stroke-linecap:round;stroke-linejoin:round" />
  </g>
  <path
     d="M 46,26 C 38,24 38,40 46,38"
     id="path2401"
     style="fill:#ff6600;stroke:#000000;stroke-width:1;stroke-linecap:round;stroke-linejoin:round" />
</svg>
