<?xml version="1.0" encoding="UTF-8" standalone="no"?>
<!-- Created with Inkscape (http://www.inkscape.org/) -->
<svg
   xmlns:svg="http://www.w3.org/2000/svg"
   xmlns="http://www.w3.org/2000/svg"
   version="1.0"
   width="64"
   height="64"
   id="svg2385">
  <defs
     id="defs2387" />
  <path
     d="M 31.5,6 C 22,6 12.4,13.2 13.5,23.5 C 14,28 19.6,28 20.5,25 C 21.5,21.5 20.5,19 24.5,16 C 26.5,14.5 31.9,13.3 35.5,14.5 C 41.5,16.5 44,23.5 38,26.5 C 31,30 27.5,33.5 27.5,41 C 27.5,47 35.5,47 35.5,41 C 35.5,34 40.5,34.5 44.5,31.5 C 48,29 49.5,26 49.5,22 C 49.5,11.5 40.5,6 31.5,6 z M 31.5,50 C 29.3,50 27.5,51.8 27.5,54 C 27.5,56.2 29.3,58 31.5,58 C 33.7,58 35.5,56.2 35.5,54 C 35.5,51.8 33.7,50 31.5,50 z"
     id="path2380"
     style="fill:#ffcc00;stroke:#000000;stroke-width:1;stroke-linecap:round;stroke-linejoin:round" />
</svg>
