<?xml version="1.0" encoding="UTF-8" standalone="no"?>
<!-- Created with Inkscape (http://www.inkscape.org/) -->
<svg
   xmlns:svg="http://www.w3.org/2000/svg"
   xmlns="http://www.w3.org/2000/svg"
   version="1.0"
   width="64"
   height="64"
   id="svg2383">
  <defs
     id="defs5" />
  <path
     d="M 2,8 L 8,12 L 8,50 L 2,54 L 12,54 L 12,8 L 2,8 z M 52,8 L 52,54 L 62,54 L 56,50 L 56,12 L 62,8 L 52,8 z M 17,18 L 17,46 L 21,46 L 21,18 L 17,18 z M 43,18 L 43,46 L 47,46 L 47,18 L 43,18 z M 26,26 L 26,38 L 38,38 L 38,26 L 26,26 z"
     id="rect2448"
     style="fill:#ff8080;stroke:#800000;stroke-width:1;stroke-linecap:round;stroke-linejoin:round" />
</svg>
