<?xml version="1.0" encoding="UTF-8" standalone="no"?>
<!-- Created with Inkscape (http://www.inkscape.org/) -->
<svg
   xmlns:svg="http://www.w3.org/2000/svg"
   xmlns="http://www.w3.org/2000/svg"
   version="1.0"
   width="64"
   height="64"
   id="svg2385">
  <defs
     id="defs2387" />
  <path
     d="M 12,52 C 20,58 46,62 52,52 C 64,32 46,10 25,12 C 8,14 4,40 12,52 z"
     id="path3353"
     style="fill:#aaccff;stroke:#803300;stroke-width:3;stroke-linecap:round;stroke-linejoin:round" />
  <path
     d="M 26,45 C 26,47 27,49 29,50 C 27,51 25.5,52.95 25,55.45 C 26.5,56 27.5,56 29,56.15 C 30,50.95 37.5,51.55 38,56.55 C 39.5,56.55 40,56.5 42,56.1 C 41.5,53 40,51 38,50 C 40,49 41,47 41,45 C 41,36 26,36 26,45 z M 37,45 C 37,48.5 30,48.5 30,45 C 30,41 37,41 37,45 z"
     id="text3383"
     style="fill:#000000;stroke:none" />
  <path
     d="M 7,13 L 53,6"
     id="path3433"
     style="fill:none;stroke:#e08040;stroke-width:3;stroke-linecap:round;stroke-linejoin:round" />
  <path
     d="M 51.5,4.5 L 51.5,7.5 L 54.5,7.5 L 54.5,4.5 L 51.5,4.5 z M 20.5,5.5 L 20.5,14.5 L 29.5,14.5 L 29.5,5.5 L 20.5,5.5 z M 5.5,11.5 L 5.5,14.5 L 8.5,14.5 L 8.5,11.5 L 5.5,11.5 z M 5.5,49.5 L 5.5,58.5 L 14.5,58.5 L 14.5,49.5 L 5.5,49.5 z M 49.5,49.5 L 49.5,58.5 L 58.5,58.5 L 58.5,49.5 L 49.5,49.5 z"
     id="path2398"
     style="fill:#ffffff;stroke:#ff0000;stroke-width:3;stroke-linecap:round;stroke-linejoin:round" />
</svg>
