<?xml version="1.0" encoding="UTF-8" standalone="no"?>
<!-- Created with Inkscape (http://www.inkscape.org/) -->
<svg
   xmlns:svg="http://www.w3.org/2000/svg"
   xmlns="http://www.w3.org/2000/svg"
   version="1.0"
   width="64"
   height="64"
   id="svg2385">
  <defs
     id="defs2387" />
  <path
     d="M 27,27 L 37,27 L 37,37 L 27,37 L 27,27 z"
     id="rect3294"
     style="fill:#ff0000;stroke:#803300;stroke-width:2;stroke-linecap:round;stroke-linejoin:round" />
  <path
     d="M 33,2.5 L 27,9.5 L 33,16.5 L 33,11 C 36.814997,11 40.130129,15.078889 41.96875,21.15625 C 39.131478,20.564421 36.010756,20.25 32.75,20.25 C 19.518406,20.25 8.75,25.634203 8.75,32.25 L 3.25,32.25 L 10.25,38.25 L 17.25,32.25 L 11.75,32.25 C 11.75,26.445797 21.141594,21.75 32.75,21.75 C 36.266039,21.75 39.558821,22.206842 42.46875,22.96875 C 43.122329,25.707299 43.5,28.760102 43.5,32 C 43.5,43.608406 38.804203,53 33,53 C 32,53 32,56 33,56 C 39.615797,56 45,45.231594 45,32 C 45,28.984162 44.729006,26.099068 44.21875,23.4375 C 49.958108,25.31052 53.75,28.563339 53.75,32.25 C 53.75,33.25 56.75,33.25 56.75,32.25 C 56.75,27.627395 51.49393,23.597235 43.8125,21.59375 C 41.870296,13.559569 37.752185,8 33,8 L 33,2.5 z"
     id="path2445"
     style="fill:#002060;stroke:#002060;stroke-width:1;stroke-linecap:round;stroke-linejoin:round" />
</svg>
