<?xml version="1.0" encoding="UTF-8" standalone="no"?>
<!-- Created with Inkscape (http://www.inkscape.org/) -->
<svg
   xmlns:svg="http://www.w3.org/2000/svg"
   xmlns="http://www.w3.org/2000/svg"
   version="1.0"
   width="64"
   height="64"
   id="svg2385">
  <defs
     id="defs2387" />
  <path
     d="M 53,6 L 30,9.5413561"
     id="path3435"
     style="fill:none;stroke:#e08040;stroke-width:3;stroke-linecap:round;stroke-linejoin:round" />
  <path
     d="M 7,13 L 20,11"
     id="path3433"
     style="fill:none;stroke:#e08040;stroke-width:3;stroke-linecap:round;stroke-linejoin:round" />
  <path
     d="M 20.5,13.21875 C 8.559158,20.062911 1.317123,39.858975 8.8125,49.5 L 14.5,49.5 L 14.5,54 C 22.255201,57.941001 40.47332,60.053609 49.5,56.125 L 49.5,49.5 L 54.21875,49.5 C 61.979353,22.113406 38.861326,14.164829 29.5,12 L 29.5,14.5 L 20.5,14.5 L 20.5,13.21875 z"
     id="path3353"
     style="fill:#808080;stroke:#803300;stroke-width:3;stroke-linecap:round;stroke-linejoin:round" />
  <path
     d="M 27.292878,56.041608 C 27.544813,54.505325 28.869889,53.289217 30.34375,52.875 C 32.835386,52.061856 36.003339,53.994652 35.854033,56.721126 C 39.01652,56.71086 38.665279,56.78356 40.091668,56.657 C 40.032923,54.421197 38.845919,52.165853 37.03125,50.84375 C 36.516174,50.537283 36.314024,50.475989 36.03125,50.34375 C 36.803727,49.833059 37.227023,49.448378 37.5,49.125 C 39.342711,47.252577 39.761771,44.086957 38.21875,41.90625 C 36.082945,38.743256 31.616117,37.799595 28.15625,39.125 C 25.546925,40.031578 23.35922,42.632365 23.6875,45.5 C 23.832685,47.513356 25.082305,49.305836 26.78125,50.34375 C 24.985697,51.429635 23.543199,53.273368 23.07075,55.32 C 24.71902,55.693644 25.810742,55.809179 27.292878,56.041608 z M 32.34375,42.71875 C 33.207738,42.871583 33.981423,43.277108 34.5,44.03125 C 35.321024,45.405259 34.296611,47.157958 32.96875,47.75 C 30.999246,48.842162 28.054324,47.376428 28,45.0625 C 27.974117,44.047589 28.838708,43.273656 29.71875,42.9375 C 30.518887,42.670369 31.479762,42.565917 32.34375,42.71875 z"
     id="text3383"
     style="fill:#000000;stroke:none" />
  <path
     d="M 51.53125,4.5 L 51.53125,7.5 L 54.53125,7.5 L 54.53125,4.5 L 51.53125,4.5 z M 20.5,5.5 L 20.5,14.5 L 29.5,14.5 L 29.5,5.5 L 20.5,5.5 z M 5.53125,11.5625 L 5.53125,14.5625 L 8.53125,14.5625 L 8.53125,11.5625 L 5.53125,11.5625 z M 5.5,49.5 L 5.5,58.5 L 14.5,58.5 L 14.5,49.5 L 5.5,49.5 z M 49.5,49.5 L 49.5,58.5 L 58.5,58.5 L 58.5,49.5 L 49.5,49.5 z"
     id="path2398"
     style="fill:none;stroke:#ff0000;stroke-width:3;stroke-linecap:round;stroke-linejoin:round" />
</svg>
