<?xml version="1.0" encoding="UTF-8" standalone="no"?>
<!-- Created with Inkscape (http://www.inkscape.org/) -->
<svg
   xmlns:svg="http://www.w3.org/2000/svg"
   xmlns="http://www.w3.org/2000/svg"
   version="1.0"
   width="64"
   height="64"
   id="svg2385">
  <defs
     id="defs2387" />
  <path
     d="M 24,27.5 C 19,32.5 14,40.5 10,52 M 58,52 C 58,27 45.5,14 31.5,21"
     id="path2385"
     style="fill:none;stroke:#803300;stroke-width:3;stroke-linecap:round;stroke-linejoin:round" />
  <path
     d="M 22,18 L 31,18 L 31,27 L 22,27 L 22,18 z"
     id="rect3201"
     style="fill:none;stroke:#ff0000;stroke-width:3;stroke-linecap:round;stroke-linejoin:round" />
  <path
     d="M 26.5,11 L 26.5,14 L 26.5,11 z M 17,13 L 19,15 L 17,13 z M 36,13 L 34,15 L 36,13 z M 15,22.5 L 18,22.5 L 15,22.5 z M 35,22.5 L 38,22.5 L 35,22.5 z M 19,30 L 17,32 L 19,30 z M 26.5,31 L 26.5,34 L 26.5,31 z M 34,30 L 36,32 L 34,30 z"
     id="path2479"
     style="fill:none;stroke:#ff0000;stroke-width:2;stroke-linecap:round;stroke-linejoin:round" />
</svg>
