<?xml version="1.0" encoding="UTF-8" standalone="no"?>
<!-- Created with Inkscape (http://www.inkscape.org/) -->
<svg
   xmlns:svg="http://www.w3.org/2000/svg"
   xmlns="http://www.w3.org/2000/svg"
   version="1.0"
   width="64"
   height="64"
   id="svg2385">
  <defs
     id="defs2387" />
  <path
     d="M 9.5,24 L 5,25.5 L 5,28 L 8,27 L 8,44 L 11,44 L 11,24 L 9.5,24 z M 22,24 C 17.5,24 16,29.5 16,34 C 16,38.5 17.5,44 22,44 C 26.5,44 28,38.5 28,34 C 28,29.5 26.5,24 22,24 z M 43.5,24 L 39,25.5 L 39,28 L 42,27 L 42,44 L 45,44 L 45,24 L 43.5,24 z M 22,27 C 24,27 25,31 25,34 C 25,37 24,41 22,41 C 20,41 19,37 19,34 C 19,31 20,27 22,27 z M 32,40 C 30.9,40 30,40.9 30,42 C 30,43 31,43.9 32,44 C 31.7,44.6 30.8,45 30,45 L 30,47 C 32,47 33.6,45.7 34,44 C 34.1,43.7 34.1,43 34,42 C 33.8,40.8 33.1,40 32,40 z"
     id="path2410"
     style="fill:#000000;stroke:none" />
  <path
     d="M 51,59 L 51,5 L 51,59 z M 5,51 L 59,51 L 5,51 z"
     id="path3317"
     style="fill:none;stroke:#000000;stroke-width:3;stroke-linecap:round;stroke-linejoin:round" />
</svg>
