<?xml version="1.0" encoding="UTF-8" standalone="no"?>
<!-- Created with Inkscape (http://www.inkscape.org/) -->
<svg
   xmlns:svg="http://www.w3.org/2000/svg"
   xmlns="http://www.w3.org/2000/svg"
   version="1.0"
   width="64"
   height="64"
   id="svg2385">
  <defs
     id="defs2387" />
  <path
     d="M 27,27 L 37,27 L 37,37 L 27,37 L 27,27 z"
     id="rect3294"
     style="fill:#ff0000;stroke:#803300;stroke-width:2;stroke-linecap:round;stroke-linejoin:round" />
  <path
     d="M 3.25,34.85 L 11.25,42.05 L 19.25,34.85 L 13.75,34.85 C 13.75,28.55 22.25,23.45 32.75,23.45 C 43.25,23.45 51.75,28.55 51.75,34.85 C 51.75,37.25 56.75,37.25 56.75,34.85 C 56.75,26.75 46.25,20.45 32.75,20.45 C 19.25,20.45 8.75,26.75 8.75,34.85 L 3.25,34.85 z"
     id="path2424"
     style="fill:#80b3ff;stroke:#002060;stroke-width:1;stroke-linecap:round;stroke-linejoin:round" />
  <path
     d="M 32.4,2.5 L 25.2,10.5 L 32.4,18.5 L 32.4,13 C 38.7,13 43.8,21.5 43.8,32 C 43.8,42.5 38.7,51 32.4,51 C 30,51 30,56 32.4,56 C 40.5,56 46.8,45.5 46.8,32 C 46.8,18.5 40.5,8 32.4,8 L 32.4,2.5 z"
     id="path3305"
     style="fill:#80b3ff;stroke:#002060;stroke-width:1;stroke-linecap:round;stroke-linejoin:round" />
</svg>
