<?xml version="1.0" encoding="UTF-8" standalone="no"?>
<!-- Created with Inkscape (http://www.inkscape.org/) -->
<svg
   xmlns:svg="http://www.w3.org/2000/svg"
   xmlns="http://www.w3.org/2000/svg"
   xmlns:xlink="http://www.w3.org/1999/xlink"
   version="1.0"
   width="64"
   height="64"
   id="svg2385">
  <defs
     id="defs2387">
    <linearGradient
       id="linearGradient3321">
      <stop
         id="stop3323"
         style="stop-color:#008000;stop-opacity:1"
         offset="0" />
      <stop
         id="stop3325"
         style="stop-color:#00ff00;stop-opacity:1"
         offset="1" />
    </linearGradient>
    <linearGradient
       id="linearGradient3313">
      <stop
         id="stop3315"
         style="stop-color:#0000ff;stop-opacity:1"
         offset="0" />
      <stop
         id="stop3317"
         style="stop-color:#00aad4;stop-opacity:1"
         offset="1" />
    </linearGradient>
    <radialGradient
       cx="35"
       cy="46"
       r="30"
       fx="35"
       fy="46"
       id="radialGradient3319"
       xlink:href="#linearGradient3313"
       gradientUnits="userSpaceOnUse"
       gradientTransform="matrix(-0.97,-1.64,1.35,-0.80,16.83,148.07)" />
    <radialGradient
       cx="59"
       cy="24"
       r="29"
       fx="59"
       fy="24"
       id="radialGradient3330"
       xlink:href="#linearGradient3321"
       gradientUnits="userSpaceOnUse"
       gradientTransform="matrix(-1.02,-1.73,1.43,-0.84,71.94,176.67)" />
  </defs>
  <path
     d="M 62,32 C 62,48.5 48.5,62 32,62 C 15.5,62 2,48.5 2,32 C 2,15.5 15.5,2 32,2 C 48.5,2 62,15.5 62,32 z"
     id="path2393"
     style="fill:url(#radialGradient3319);stroke:#000080;stroke-width:0.5;stroke-linecap:round;stroke-linejoin:round" />
  <path
     d="M 24.5,3.48 C 21.95,5.75 26.93,5.73 28.3,4.84 C 31.49,2.99 35.23,3.09 38.26,5.24 C 40.25,6.63 43.87,8.38 43.5,11.08 C 40.24,12.05 41.95,16.21 43.07,18.29 C 45.36,20.73 46.38,16.86 44.19,15.7 C 42.35,13.83 47.88,15.82 47.36,17.59 C 47.53,19.96 45.99,24.52 43.14,21.38 C 40.12,18.37 39.64,26.12 43.38,24.52 C 47.21,24.51 44.65,28.7 43.11,29.92 C 43.58,33.48 48.68,31.83 47.34,28.57 C 46.9,25.29 49.4,23.86 52.3,23.8 C 54.2,23.18 58.51,21.01 57.07,25.02 C 57.09,28.77 53.77,29.72 50.69,29.62 C 47.19,30.33 45.63,34.16 44.58,37.2 C 43.28,40.32 42.72,44.64 45.4,47.18 C 48.05,48.62 50.9,46.53 51.88,44.05 C 54.35,41.02 56.36,45.09 55.09,47.41 C 54.99,48.67 52.64,53.99 55,51 C 61.75,43.48 63.79,32.3 60.53,22.77 C 57.02,11.54 46.61,2.17 34.55,1.88 C 31.14,1.76 27.72,2.35 24.5,3.48 z M 22.6,5.38 C 20.39,4.33 15.79,5.76 17.17,8.84 C 18.31,12.28 12.63,12.37 11.05,14.8 C 8.6,16.69 7.31,19.61 6.99,22.63 C 6.35,26.14 4.44,29.77 5.89,33.34 C 6.9,37.33 10.06,40.1 12.27,43.39 C 14.25,45.54 12.11,48.08 12.64,50.41 C 15.08,52.78 17.73,55.22 18.8,58.58 C 20.97,60.5 23.66,60.63 25.88,60.78 C 29.89,60.82 34.05,58.09 35.02,54.11 C 33.76,51.68 29.18,55.1 27.68,52.18 C 24.49,48.81 21.28,44.89 16.7,43.47 C 13.79,43.8 10.92,41.51 11.2,38.47 C 11.06,37.02 11.58,35.34 10.69,34.11 C 6.91,34.49 10.05,27.46 12.54,30.92 C 13.8,32.14 12.28,36.7 15,35.78 C 14.49,33.71 14.22,31.61 16.77,30.78 C 19.61,29.06 21.91,25.17 25.67,25.98 C 27.33,26.53 29.26,26.7 27.67,24.47 C 26.51,22.8 25.9,18.47 23.62,18.86 C 22.41,19.89 20.73,24.47 19.78,20.91 C 18.56,18.47 20.6,15.41 23.29,17.2 C 27.04,16.08 22.24,11.72 22.6,9.18 C 22.62,8 23.95,6.25 22.6,5.38 z M 28.3,11.08 C 26.15,13.38 32.71,14.15 29.78,16.81 C 28.19,19.56 31.3,22.25 32.82,18.82 C 34.68,16.77 35.26,12.87 32.48,11.36 C 31.2,10.71 29.66,10.66 28.3,11.08 z"
     id="path3306"
     style="fill:url(#radialGradient3330);stroke:#008000;stroke-width:0.5;stroke-linecap:round;stroke-linejoin:round" />
</svg>
