/* XPM */
const char *arrow_sort_xpm[] = {
/* columns rows colors chars-per-pixel */
"15 16 2 1",
"  c black",
". c None",
/* pixels */
"...............",
"...    ........",
"....   ..  ....",
"...    ..   ...",
"..  .. ....  ..",
"..  .......  ..",
".  .........  .",
".  .........  .",
".  .........  .",
"..  .......  ..",
"..  .... ..  ..",
"...   ..    ...",
"....  ..   ....",
"........    ...",
"...............",
"..............."
};
