/* XPM */
const char *assdraw_xpm[] = {
/* columns rows colors chars-per-pixel */
"16 16 35 1",
"  c #404020204040",
". c gray25",
"X c #C0C0A0A00000",
"o c #E0E0C0C00000",
"O c #808080804040",
"+ c #C0C080804040",
"@ c #E0E080804040",
"# c #E0E0E0E04040",
"$ c #404040408080",
"% c #606040408080",
"& c #404060608080",
"* c #606060608080",
"= c #40404040C0C0",
"- c #60604040C0C0",
"; c #60606060C0C0",
": c #80806060C0C0",
"> c #808080808080",
", c #A0A0A0A08080",
"< c #A0A0A0A0A4A4",
"1 c #C0C0A0A08080",
"2 c #E0E0A0A08080",
"3 c #A0A0C0C08080",
"4 c #C0C0C0C08080",
"5 c #E0E0C0C08080",
"6 c #E0E0E0E08080",
"7 c #80808080C0C0",
"8 c #A0A08080C0C0",
"9 c #8080A0A0C0C0",
"0 c #A0A0A0A0C0C0",
"q c #C0C0A0A0C0C0",
"w c #A0A0C0C0C0C0",
"e c #A6A6CACAF0F0",
"r c #C0C0DCDCC0C0",
"t c #FFFFFBFBF0F0",
"y c None",
/* pixels */
"yyyyy66yyy6yyyyy",
"yyyy66664664yyyy",
"yyy6666446#608yy",
"yy#6648884##qe8y",
"yy660e76686#4eey",
"yrte806666846ee0",
"y0888666t608<088",
"778866ttt6t88e88",
"*7876tttttt68e88",
"y88:,.4661O4e877",
"y87<>r65564.e88y",
"y7766tt66ttye78y",
"y*-$56t52t6q8;:y",
"yy=$ 76tt6<;:%yy",
"yy$yy&9++9*7*yyy",
"yyyo#3w@1yrtXyyy"
};
