/* XPM */
const char *attach_button_xpm[] = {
/* columns rows colors chars-per-pixel */
"16 15 4 1",
"  c black",
". c #00009999FFFF",
"X c #9999FFFFFFFF",
"o c None",
/* pixels */
"oo     ooooooooo",
"o XXXXX oooooooo",
" X.....X ooooooo",
" X.    .X oooooo",
" X. XXX .X ooooo",
" X. X..X .X oooo",
" .X .X .X .X ooo",
"o .X .X .X .X oo",
"oo .X .X .X .X o",
"ooo .X .X    .X ",
"oooo .X .X o .X ",
"ooooo .  .X  .X ",
"oooooo  o .XXX. ",
"oooooooooo ... o",
"ooooooooooo   oo"
};
