/* XPM */
const char *button_track_points_xpm[] = {
/* columns rows colors chars-per-pixel */
"15 15 2 1",
"  c red",
". c None",
/* pixels */
"...............",
"... ...........",
"... ...... ....",
".     .... ....",
"... ....     ..",
"... ...... ....",
".......... ....",
"...............",
"...... ........",
"...... ........",
"....     ......",
"...... ........",
"...... ........",
"...............",
"..............."
};
