/* XPM */
const char *button_pause_xpm[] = {
/* columns rows colors chars-per-pixel */
"16 15 2 1",
"  c black",
". c None",
/* pixels */
"................",
"................",
"................",
"................",
".....  ..  .....",
".....  ..  .....",
".....  ..  .....",
".....  ..  .....",
".....  ..  .....",
".....  ..  .....",
".....  ..  .....",
"................",
"................",
"................",
"................"
};
