/* XPM */
const char *button_color_four_xpm[] = {
/* columns rows colors chars-per-pixel */
"20 12 3 1",
"  c black",
". c red",
"X c None",
/* pixels */
"XXXXXXXXXXXXXXXXXXXX",
"XXXXXXXXXXXXXXXXXXXX",
"XXXXXX    X     XXXX",
"XXXXXX    .      XXX",
"XXXXX  .  .  ..  .XX",
"XXXXX     .     ...X",
"XXXX      .     ...X",
"XXXX  ..  .  ..  .XX",
"XXX  ...  .      .XX",
"XXX  ...  .     ...X",
"XXXX...XX..........X",
"XXXXX..XXX..X.....XX"
};
