/* XPM */
const char *button_playline_xpm[] = {
/* columns rows colors chars-per-pixel */
"16 15 3 1",
"  c black",
". c red",
"X c None",
/* pixels */
"XXXXXXXXXXXXXXXX",
"XXXXXXXXXXXXXXXX",
"XXXXXXXXXXXXXXXX",
"XX..XXXXXXXX..XX",
"XX.XXX XXXXXX.XX",
"XX.XXX  XXXXX.XX",
"XX.XXX   XXXX.XX",
"XX.XXX    XXX.XX",
"XX.XXX   XXXX.XX",
"XX.XXX  XXXXX.XX",
"XX.XXX XXXXXX.XX",
"XX..XXXXXXXX..XX",
"XXXXXXXXXXXXXXXX",
"XXXXXXXXXXXXXXXX",
"XXXXXXXXXXXXXXXX"
};
