/* XPM */
const char *button_track_split_line_xpm[] = {
/* columns rows colors chars-per-pixel */
"15 15 3 1",
"  c black",
". c red",
"X c None",
/* pixels */
"X.XXX.XXX.XXX.X",
"X XXX.XXX.XXX.X",
"   XX.XXX.XXX.X",
"X XXX.XXX.XXX.X",
"X.X X.XXX.XXX.X",
"X.XXX XXX.XXX.X",
"X.XX   XX.XXX.X",
"X.XXX XXX.XXX.X",
"X.XXX.X X.XXX.X",
"X.XXX.XXX XXX.X",
"X.XXX.XX   XX.X",
"X.XXX.XXX XXX.X",
"X.XXX.XXX.X X X",
"X.XXX.XXX.XX   ",
"X.XXX.XXX.XXX X"
};
