/* XPM */
const char *button_bold_xpm[] = {
/* columns rows colors chars-per-pixel */
"12 12 2 1",
"  c black",
". c None",
/* pixels */
"............",
"............",
"...     ....",
"...      ...",
"...  ..  ...",
"...     ....",
"...     ....",
"...  ..  ...",
"...      ...",
"...     ....",
"............",
"............"
};
