/* XPM */
const char *button_track_trail_xpm[] = {
/* columns rows colors chars-per-pixel */
"15 15 2 1",
"  c black",
". c None",
/* pixels */
"...............",
". .............",
"   ............",
". .............",
"... ...........",
"..... .........",
"....   ........",
"..... .........",
"....... .......",
"......... .....",
"........   ....",
"......... .....",
"........... . .",
"............   ",
"............. ."
};
