/* XPM */
const char *button_playlastfiveh_xpm[] = {
/* columns rows colors chars-per-pixel */
"16 15 4 1",
"  c black",
". c red",
"X c blue",
"o c None",
/* pixels */
"oooooooooooooooo",
"oooooooooooooooo",
"oooooooooooooooo",
"ooooooooooooXXoo",
"oooooo ooooooXoo",
"oooooo  oooooXoo",
"oo.ooo   ooooXoo",
"oo....    ...Xoo",
"oo.ooo   ooooXoo",
"oooooo  oooooXoo",
"oooooo ooooooXoo",
"ooooooooooooXXoo",
"oooooooooooooooo",
"oooooooooooooooo",
"oooooooooooooooo"
};
