/* XPM */
const char *button_audio_commit_xpm[] = {
/* columns rows colors chars-per-pixel */
"16 15 5 1",
"  c black",
". c #0000BFBF0000",
"X c green",
"o c gray100",
"O c None",
/* pixels */
"OOOOOOOOOOOOOOOO",
"OOOOOOOOOOOOOOOO",
"OOOOOOOOOOOOO OO",
"OOOOOOOOOOOO  OO",
"OOOOOOOOOOO X OO",
"OO   OOOOO X OOO",
"OO oo OOO X OOOO",
"OO oX OO X. OOOO",
"OO .XX  X. OOOOO",
"OOO .XXX. OOOOOO",
"OOOO .X.. OOOOOO",
"OOOOO .. OOOOOOO",
"OOOOOO  OOOOOOOO",
"OOOOOOOOOOOOOOOO",
"OOOOOOOOOOOOOOOO"
};
