/* XPM */
const char *button_playtoend_xpm[] = {
/* columns rows colors chars-per-pixel */
"16 15 3 1",
"  c red",
". c blue",
"X c None",
/* pixels */
"XXXXXXXXXXXXXXXX",
"XXXXXXXXXXXXXXXX",
"XXXXXXXXXXXXXXXX",
"XX..XXXXXXXXXXXX",
"XX.XXXXXXX XXXXX",
"XX.XXXXXXX  XXXX",
"XX.X X X X   XXX",
"XX.           XX",
"XX.X X X X   XXX",
"XX.XXXXXXX  XXXX",
"XX.XXXXXXX XXXXX",
"XX..XXXXXXXXXXXX",
"XXXXXXXXXXXXXXXX",
"XXXXXXXXXXXXXXXX",
"XXXXXXXXXXXXXXXX"
};
