/* XPM */
const char *button_playsel_xpm[] = {
/* columns rows colors chars-per-pixel */
"16 15 3 1",
"  c black",
". c blue",
"X c None",
/* pixels */
"XXXXXXXXXXXXXXXX",
"XXXXXXXXXXXXXXXX",
"XXXXXXXXXXXXXXXX",
"X..XXXXXXXXXX..X",
"XX.XXX XXXXXX.XX",
"XX.XXX  XXXXX.XX",
"XX.XXX   XXXX.XX",
"XX.XXX    XXX.XX",
"XX.XXX   XXXX.XX",
"XX.XXX  XXXXX.XX",
"XX.XXX XXXXXX.XX",
"X..XXXXXXXXXX..X",
"XXXXXXXXXXXXXXXX",
"XXXXXXXXXXXXXXXX",
"XXXXXXXXXXXXXXXX"
};
