/* XPM */
const char *button_track_point_del_xpm[] = {
/* columns rows colors chars-per-pixel */
"15 15 2 1",
"  c red",
". c None",
/* pixels */
"...............",
"......   ......",
"....       ....",
"...         ...",
"..           ..",
"..           ..",
".             .",
".             .",
".             .",
"..           ..",
"..           ..",
"...         ...",
"....       ....",
"......   ......",
"..............."
};
