/* XPM */
const char *button_fontname_xpm[] = {
/* columns rows colors chars-per-pixel */
"20 12 2 1",
"  c black",
". c None",
/* pixels */
"....................",
"....................",
".......  ...........",
"...... .............",
"...... .... .  .....",
".....    ..  .. ....",
"...... .... ... ....",
"..... ..... ... ....",
"..... ..... ... ....",
"...  .....  .. .....",
"....................",
"...................."
};
