/* XPM */
const char *button_leadin_xpm[] = {
/* columns rows colors chars-per-pixel */
"16 15 3 1",
"  c #0000BFBF0000",
". c blue",
"X c None",
/* pixels */
"XXXXXXXXXXXXXXXX",
"XXXXXXXXXXXXXXXX",
"XXXXXXXXXXXXXXXX",
"XXXXXXXXXXXXX..X",
"XXXXXXXXXXXXX.XX",
"XXXXXXXXXXXXX.XX",
"XX  X  X  X  .XX",
"XX  X  X  X  .XX",
"XX  X  X  X  .XX",
"XXXXXXXXXXXXX.XX",
"XXXXXXXXXXXXX.XX",
"XXXXXXXXXXXXX..X",
"XXXXXXXXXXXXXXXX",
"XXXXXXXXXXXXXXXX",
"XXXXXXXXXXXXXXXX"
};
