/* XPM */
const char *delete_button_xpm[] = {
/* columns rows colors chars-per-pixel */
"16 15 6 1",
"  c black",
". c #808000000000",
"X c red",
"o c #E0E080808080",
"O c gray100",
"+ c None",
/* pixels */
"++++++++++++++++",
"+++ +++++++ ++++",
"++ O +++++ o +++",
"+ ooo +++ oX. ++",
"++ .XX + oX. +++",
"+++ .XX oX. ++++",
"++++ .XXX. +++++",
"+++++ XXX ++++++",
"++++ oXXXX +++++",
"+++ oX. .Xo ++++",
"++ oX. + .Xo +++",
"+ oX. +++ ... ++",
"++ . +++++ . +++",
"+++ +++++++ ++++",
"++++++++++++++++"
};
