/* XPM */
const char *eyedropper_tool_xpm[] = {
/* columns rows colors chars-per-pixel */
"32 31 7 1",
"  c black",
". c navy",
"X c blue",
"o c magenta",
"O c #808080808080",
"+ c gray100",
"@ c None",
/* pixels */
"oooooooooooooooooooooooooooooooo",
"oooooooooooooooooooooooooooooooo",
"oooooooooooooooooooooooooooooooo",
"oooooooooooooooooooooooooooooooo",
"oooooooooooooooooooooooooooooooo",
"oooooooooooooooooooooooooooooooo",
"ooooooooooooooooooooooo   oooooo",
"oooooooooooooooooooo  @O  oooooo",
"oooooooooooooooooo        oooooo",
"oooooooooooooooooo OOOO  ooooooo",
"ooooooooooooooooooOo++O  ooooooo",
"oooooooooooooooooOo++@O  ooooooo",
"ooooooooooooooooOo++@   oooooooo",
"oooooooooooooooOo++@    oooooooo",
"ooooooooooooooOo++@  ooooooooooo",
"oooooooooooooOo++@  oooooooooooo",
"ooooooooooooOo++@  ooooooooooooo",
"oooooooooooOo++@  oooooooooooooo",
"ooooooooooOo++X  ooooooooooooooo",
"oooooooooOo+XX  oooooooooooooooo",
"ooooooXXXOXX.  .oooooooooooooooo",
"oooooXX.XO..  ...ooooooooooooooo",
"oooooX...X   X...ooooooooooooooo",
"ooooo....XXXX...oooooooooooooooo",
"oooooo.........ooooooooooooooooo",
"oooooooooooooooooooooooooooooooo",
"oooooooooooooooooooooooooooooooo",
"oooooooooooooooooooooooooooooooo",
"oooooooooooooooooooooooooooooooo",
"oooooooooooooooooooooooooooooooo",
"oooooooooooooooooooooooooooooooo"
};
