/* XPM */
const char *font_collector_button_xpm[] = {
/* columns rows colors chars-per-pixel */
"16 15 28 1",
"  c gray20",
". c gray40",
"X c #000033339999",
"o c #33336666CCCC",
"O c #66666666CCCC",
"+ c #666699999999",
"@ c #33339999CCCC",
"# c #66669999CCCC",
"$ c #6666CCCCFFFF",
"% c gray59",
"& c gray60",
"* c #A0A0A0A0A4A4",
"= c #B2B2B2B2B2B2",
"- c #99999999CCCC",
"; c #99999999FFFF",
": c #9999CCCCCCCC",
"> c #A6A6CACAF0F0",
", c gray80",
"< c #D7D7D7D7D7D7",
"1 c #DDDDDDDDDDDD",
"2 c #CCCCCCCCFFFF",
"3 c #CCCCECECFFFF",
"4 c gray89",
"5 c #EAEAEAEAEAEA",
"6 c #F1F1F1F1F1F1",
"7 c #F8F8F8F8F8F8",
"8 c gray100",
"9 c None",
/* pixels */
"5555411159999999",
"57666554:=999999",
"58776663$@=99999",
"56555453>;-99999",
"5,=*=*933&&&&999",
"59>=*>-3&....&99",
"133*ooo#..-9..&&",
"166+##X>o>-99...",
"<31%%#X>>>-9..  ",
"<3<::#X>32-.  99",
"<3333#X#32-  999",
",333>#O#>2-99999",
",3333333>>-99999",
"9>>>>>>>>>-99999",
"9*********999999"
};
