/* XPM */
const char *irc_button_xpm[] = {
/* columns rows colors chars-per-pixel */
"16 15 12 1",
"  c gray25",
". c #A0A020204040",
"X c #606060608080",
"o c #6060A0A0C0C0",
"O c #808080808080",
"+ c #8080A0A0C0C0",
"@ c #A0A0A0A0C0C0",
"# c #A0A0C0C0C0C0",
"$ c #A6A6CACAF0F0",
"% c #FFFFFBFBF0F0",
"& c gray100",
"* c None",
/* pixels */
"****************",
"****************",
"***OOOOOOOOOX***",
"**O%&&&&%%$$@ **",
"*O%&&&.*%.*$$+ *",
"*O&&&&.*$.#$$$ *",
"*O&&&%%$$$$$$$ *",
"*O%&&%.*$.@$$o *",
"**O%%%$$$$$$o **",
"***O    O$$  ***",
"********O$ *****",
"********O ******",
"******** *******",
"****************",
"****************"
};
