/* XPM */
const char *jumpto_button_xpm[] = {
/* columns rows colors chars-per-pixel */
"16 15 5 1",
"  c black",
". c #000080800000",
"X c green",
"o c gray100",
"O c None",
/* pixels */
"OOOOOOOOOOOOOOOO",
"OOOOOOO OOOOOOOO",
"OOOOOOO  OOOOOOO",
"OOOOOOO X OOOOOO",
"OO      XX OOOOO",
"OO ooooXXXX OOOO",
"OO XooXXXXXX OOO",
"OO XXXXXXXX.. OO",
"OO XXXXXX... OOO",
"OO ........ OOOO",
"OO      .. OOOOO",
"OOOOOOO . OOOOOO",
"OOOOOOO  OOOOOOO",
"OOOOOOO OOOOOOOO",
"OOOOOOOOOOOOOOOO"
};
