/* XPM */
const char *open_with_toolbutton_xpm[] = {
/* columns rows colors chars-per-pixel */
"16 15 7 1",
"  c black",
". c #808000000000",
"X c red",
"o c #C0C0C0C00000",
"O c yellow",
"+ c gray100",
"@ c None",
/* pixels */
"@@@@@@@@@@@@@@@@",
"@@@@@@@@@@   @@@",
"@@@@@@@@@ @@@ @ ",
"@@@@@@@@@@@@@@  ",
"@@   @@@@@@@@   ",
"@ O+O       @@@@",
"@ +O+O+O+O...@@@",
"@ O+O+O+O+.X.@@@",
"@ +O+O    .X.   ",
"@ O+O o....X....",
"@ ++ oo.XXXXXXX.",
"@ O ooo....X....",
"@  ooooooo.X.@@@",
"@         .X.@@@",
"@@@@@@@@@@...@@@"
};
