/* XPM */
const char *options_button_xpm[] = {
/* columns rows colors chars-per-pixel */
"16 15 8 1",
"  c black",
". c #040404040404",
"X c #FFFF66663333",
"o c #FFFF99993333",
"O c #33336666CCCC",
"+ c #9999CCCCFFFF",
"@ c gray100",
"# c None",
/* pixels */
"####....########",
"#####.OO..######",
"######.O++.#####",
"#######.O++.####",
"#######.O+++.###",
"#######.OO++@..#",
"######.X.OO@OO@.",
"#####.Xoo.OOO+@.",
"####.Xoo.#.O+@.#",
"###.Xoo.##.O+.##",
"##.Xoo.####..###",
"# Xoo.##########",
".Xoo.###########",
".oo ############",
"#..#############"
};
