/* XPM */
const char *paste_button_xpm[] = {
/* columns rows colors chars-per-pixel */
"16 15 9 1",
"  c black",
". c gray25",
"X c #A0A0A0A04040",
"o c #E0E0E0E04040",
"O c navy",
"+ c #A0A0A0A0A4A4",
"@ c #C0C0DCDCC0C0",
"# c gray100",
"$ c None",
/* pixels */
"$$$$$    $$$$$$$",
"$     oo     $$$",
" X+X o..o +X+ $$",
" ++ @@@@@@ +X $$",
" X+        ++ $$",
" +X+X+X+X+X+X $$",
" X+X+XOOOOOOO $$",
" +X+X+O#####OO$$",
" X+X+XO#####O#O$",
" +X+X+O#OOO#OOOO",
" X+X+XO########O",
" +X+X+O#OOOOOO#O",
"$     O########O",
"$$$$$$OOOOOOOOOO",
"$$$$$$$$$$$$$$$$"
};
