/* XPM */
const char *redo_button_xpm[] = {
/* columns rows colors chars-per-pixel */
"16 15 2 1",
"  c navy",
". c None",
/* pixels */
"................",
"................",
"................",
"................",
"...     ........",
"..  ....  ... ..",
".. ....... .  ..",
".. ........   ..",
".. .......    ..",
"..  .....     ..",
"...  ...........",
"................",
"................",
"................",
"................"
};
