/* XPM */
const char *resample_toolbutton_xpm[] = {
/* columns rows colors chars-per-pixel */
"16 15 6 1",
"  c black",
". c yellow",
"X c #00009999FFFF",
"o c cyan",
"O c #808080808080",
"+ c None",
/* pixels */
"+++.           .",
"+++OooooooooooO ",
"++O oooooooooOo ",
"++O ooooooooOoo ",
"+O+ oooooooOooo ",
"+O+ ooooooOoooo ",
"+O+ oooooOooooo ",
"O++ ooooOoooooo ",
".      .ooooooo ",
" XXXXXX ooooooo ",
" XXXXXX ooooooo ",
" XXXXXX       O.",
" XXXXXX +++OOO++",
" XXXXXX +OO+++++",
".      .O+++++++"
};
