/* XPM */
const char *shift_times_toolbutton_xpm[] = {
/* columns rows colors chars-per-pixel */
"16 15 7 1",
"  c black",
". c #808040400000",
"X c #E0E080804040",
"o c #00008080C0C0",
"O c #E0E0A0A0C0C0",
"+ c #A6A6CACAF0F0",
"@ c None",
/* pixels */
"@@@@@@@@@@@@@@@@",
"@@@@@@@@@@@@@@@@",
"  @  @@@@@@     ",
" @@@ @@o@@@ XX. ",
"@@@@@@@oo@@ OX. ",
" @@@ ooo+o@ OX. ",
" @@@ o+++o@ OX. ",
"@@@@@o++++o XX. ",
" @@@ o+++o@ XX. ",
" @@@ ooo+o@ XX. ",
"@@@@@@@oo@@ X.. ",
" @@@ @@o@@@ ... ",
"  @  @@@@@@     ",
"@@@@@@@@@@@@@@@@",
"@@@@@@@@@@@@@@@@"
};
