/* XPM */
const char *snap_subs_to_scene_xpm[] = {
/* columns rows colors chars-per-pixel */
"16 15 5 1",
"  c #808000000000",
". c yellow",
"X c navy",
"o c #000040408080",
"O c None",
/* pixels */
"OOOOOOOOOOOOOOOO",
"OOOOOOOOOOOOOOOO",
"oooooooooooooooo",
"oOoOoOoOoOoOoOoO",
"oooooooooooooooo",
"..oo........oo..",
"..oo........oo..",
"..oX. .... .oo..",
"..oX        oo..",
"..oo. .... .oo..",
"oooooooooooooooo",
"oOoOoOoOoOoOoOoO",
"oooooooooooooooo",
"OOOOOOOOOOOOOOOO",
"OOOOOOOOOOOOOOOO"
};
