/* XPM */
const char *sort_times_button_xpm[] = {
/* columns rows colors chars-per-pixel */
"16 15 6 1",
"  c black",
". c #000040400000",
"X c #000080800000",
"o c green",
"O c #C0C0DCDCC0C0",
"+ c None",
/* pixels */
"++++++++++   +++",
"+++++++   ooo ++",
"++++   o oOOoX +",
"+++ O oO oOOoX +",
"++X o oX oooX. +",
"+++..  X. XX. ++",
"++X.. +. + . +++",
"++. oX . + . +++",
"+++ XX oX  X +++",
"++     oX ooX ++",
"+++++ XXX ooX ++",
"+++++    oooX. +",
"++++++++ XXX.. +",
"++++++++       +",
"++++++++++++++++"
};
