/* XPM */
const char *spellcheck_toolbutton_xpm[] = {
/* columns rows colors chars-per-pixel */
"16 15 22 1",
"  c black",
". c #808000000000",
"X c #A0A020204040",
"o c yellow",
"O c navy",
"+ c #000020208080",
"@ c #202020208080",
"# c #202040408080",
"$ c #404040408080",
"% c #40404040C0C0",
"& c #40406060C0C0",
"* c #60606060C0C0",
"= c #7D7D86869292",
"- c #60608080C0C0",
"; c #ACACB5B5BABA",
": c #80808080C0C0",
"> c #8080A0A0C0C0",
", c #A0A0A0A0C0C0",
"< c #A0A0C0C0C0C0",
"1 c #C3C3CECED3D3",
"2 c #D4D4DBDBDEDE",
"3 c None",
/* pixels */
"33X3333333333oo3",
"3.3.33333333o333",
"3.3.33OOO333o333",
"3.XX33O33O33o33-",
"3.3.33@OO3333oo;",
"333333%33O333,-3",
"333333OOO332>: 3",
"3333333333,-=  3",
"333333333>,*  33",
"333<>333><#  333",
"33,>,-3,1$  3333",
"33+#-1><-  33333",
"333 +--&  333333",
"3333 O&  3333333",
"33333   33333333"
};
