/* XPM */
const char *style_toolbutton_xpm[] = {
/* columns rows colors chars-per-pixel */
"16 15 3 1",
"  c black",
". c #FFFF9999FFFF",
"X c None",
/* pixels */
"XXXXXXXXXXXXXXXX",
"XXXXXXXXXXXXXXXX",
"XXXXXXX      XXX",
"XXXXXX ..... XXX",
"XXXXX .. .. XXXX",
"XXXXX .. .. XXXX",
"XXXXX ..   XXXXX",
"XXXXXX .. XXXXXX",
"XXXXXXX .. XXXXX",
"XXX  XXX .. XXXX",
"XX .. XX .. XXXX",
"XX ..   .. XXXXX",
"XXX ..... XXXXXX",
"XXXX     XXXXXXX",
"XXXXXXXXXXXXXXXX"
};
