/* XPM */
const char *styling_toolbutton_xpm[] = {
/* columns rows colors chars-per-pixel */
"16 15 4 1",
"  c black",
". c #00009999FFFF",
"X c cyan",
"o c None",
/* pixels */
"oooooooooooooooo",
"oooooooo.ooooooo",
"ooooooo      ooo",
"oooooo XXXXX ooo",
"ooooo XX XX oooo",
"ooooo XX XX oooo",
"ooooo XX   ooooo",
"o......XX .....o",
"ooooooo .X ooooo",
"oooooooo Xo oooo",
"oooXo oo XX oooo",
"oo oXo  Xo ooooo",
"ooo XooXX oooooo",
"ooooo o .ooooooo",
"oooooooooooooooo"
};
