/* XPM */
const char *subend_to_video_xpm[] = {
/* columns rows colors chars-per-pixel */
"16 15 6 1",
"  c black",
". c red",
"X c green",
"o c #00009999FFFF",
"O c gray100",
"+ c None",
/* pixels */
"+           ++++",
" oOOoooooooo +++",
" ooooooooooo +++",
" oOooooooooo +++",
" oOooooooooo +++",
" ooooooooooo +++",
" ooooooooooo +++",
"+           ++++",
"++++++X+++++++++",
"++++++X+++++++++",
"+++++XXX++++++++",
"++++++X+++++++++",
"                ",
" +++ ... ++++++ ",
"                "
};
