/* XPM */
const char *substart_to_video_xpm[] = {
/* columns rows colors chars-per-pixel */
"16 15 5 1",
"  c black",
". c green",
"X c #00009999FFFF",
"o c gray100",
"O c None",
/* pixels */
"O           OOOO",
" XooXXXXXXXX OOO",
" XXXXXXXXXXX OOO",
" XoXXXXXXXXX OOO",
" XoXXXXXXXXX OOO",
" XXXXXXXXXXX OOO",
" XXXXXXXXXXX OOO",
"O           OOOO",
"OO.OOOOOOOOOOOOO",
"OO.OOOOOOOOOOOOO",
"O...OOOOOOOOOOOO",
"OO.OOOOOOOOOOOOO",
"                ",
" ... OOO OOOOOO ",
"                "
};
