/* XPM */
const char *timing_processor_toolbutton_xpm[] = {
/* columns rows colors chars-per-pixel */
"16 15 7 1",
"  c black",
". c #808000000000",
"X c #000080800000",
"o c #FFFF99993333",
"O c #00009999FFFF",
"+ c gray100",
"@ c None",
/* pixels */
"@@@@@@ooo@@@@@@@",
"@@@@@@@o@@@@@@@@",
"@@@@@     @@@@@@",
"@@@@ OOOOO @@@@@",
"@@@ O++.++O @@@@",
"@@ O+++.+++O @@@",
"@@ O+++.+++O @@@",
"@ O++++.+XX+O @@",
"@ O++++XX+++O @@",
"@ O+++++++++O @@",
"@@ O+++++++O @@@",
"@@ O+++++++O @@@",
"@@@ O+++++O @@@@",
"@@@@ OOOOO @@@@@",
"@@@@@     @@@@@@"
};
