/* XPM */
const char *toggle_audio_autoscroll_xpm[] = {
/* columns rows colors chars-per-pixel */
"20 15 5 1",
"  c black",
". c #0000C0C0C0C0",
"X c cyan",
"o c gray100",
"O c None",
/* pixels */
"OOOOOOOOOOOOOOOOOOOO",
"OOOOOOOOOOOOOOOOOOOO",
"OOOOOOOOO OOOOOOOOOO",
"OOOOOOOOO  OOOOOOOOO",
"OOOOO     X OOOOOOOO",
"OOOOO XooXXX OOOOOOO",
"OOOOO XoXXXXX OOOOOO",
"OOOOO XXXXXXX. OOOOO",
"OOOOO .XXXX.. OOOOOO",
"OOOOO ...... OOOOOOO",
"OOOOO     . OOOOOOOO",
"OOOOOOOOO  OOOOOOOOO",
"OOOOOOOOO OOOOOOOOOO",
"OOOOOOOOOOOOOOOOOOOO",
"OOOOOOOOOOOOOOOOOOOO"
};
