/* XPM */
const char *toggle_audio_link_xpm[] = {
/* columns rows colors chars-per-pixel */
"26 15 3 1",
"  c black",
". c cyan",
"X c None",
/* pixels */
"XXXXXXXXXXXXXXXXXXXXXXXXXX",
"XXXXXXXXXXXXXXXXXXXXXXXXXX",
"XXX   XXXXXXXXXXXXXX   XXX",
"XXX . XXXXXXXXXXXXXX . XXX",
"XXX . XXXXXXXXXXXXXX . XXX",
"XXX . XXXXXXXXXXXXXX . XXX",
"XXX . XXXXXXXXXXXXXX . XXX",
"XXX . XXXXXXXXXXXXXX . XXX",
"XXX . XXXXXXXXXXXXXX . XXX",
"XXX .                . XXX",
"XXX .................. XXX",
"XXX                    XXX",
"XXXXXXXXXXXXXXXXXXXXXXXXXX",
"XXXXXXXXXXXXXXXXXXXXXXXXXX",
"XXXXXXXXXXXXXXXXXXXXXXXXXX"
};
