/* XPM */
const char *toggle_audio_ssa_xpm[] = {
/* columns rows colors chars-per-pixel */
"20 15 5 1",
"  c black",
". c #00008080C0C0",
"X c #A6A6CACAF0F0",
"o c gray100",
"O c None",
/* pixels */
"OOOOOOOOOOOOOOOOOOOO",
"OOOOOOOOOOOOOOOOOOOO",
"OOOOOOOOOOOOOOOOOOOO",
"OOO    O    OO   OOO",
"OO oXX  oXX O oXX OO",
"O oX   oX  OO X X OO",
"O XX O XX OO X O X O",
"OO XX O XX O X   X O",
"OOO XX O XX  XXX.X O",
"O  O X  O X  X   . O",
"O X X. X X.  X O . O",
"O X..  X.. O . O . O",
"OO   OO   OO   O   O",
"OOOOOOOOOOOOOOOOOOOO",
"OOOOOOOOOOOOOOOOOOOO"
};
