/* XPM */
const char *toggle_tag_hiding_xpm[] = {
/* columns rows colors chars-per-pixel */
"16 15 3 1",
"  c blue",
". c magenta",
"X c None",
/* pixels */
"XXXXXXXXXXXXXXXX",
"XXXXXXXXXXXXXXXX",
"XXX.XXXXXXXX.XXX",
"XX.XXXXXXXXXX.XX",
"XX.X XXXXXXXX.XX",
"XX.X XXXX XXX.XX",
"XX.X XXX   XX.XX",
"X.XXX XXX XXXX.X",
"XX.XX XXX XXX.XX",
"XX.XX XXX XXX.XX",
"XX.XXX XX XXX.XX",
"XX.XXX XXX XX.XX",
"XXX.XXXXXXXX.XXX",
"XXXXXXXXXXXXXXXX",
"XXXXXXXXXXXXXXXX"
};
