/* XPM */
const char *toggle_audio_medusa_xpm[] = {
/* columns rows colors chars-per-pixel */
"20 15 4 1",
"  c black",
". c red",
"X c #A0A0A0A0A4A4",
"o c None",
/* pixels */
"oooo oooooooooo oooo",
"oo                oo",
"oooo XXXXXXXXXX oooo",
"oooo XXX.....XX oooo",
"oo   XXX.XXX.XX   oo",
"oooo XXX.....XX oooo",
"oooo XXX.XXX.XX oooo",
"oo   XXX.....XX   oo",
"oooo XXX.XXX.XX oooo",
"oooo XXX.XXX.XX oooo",
"oo   XX.XXXX.XX   oo",
"oooo X.XXXXX.XX oooo",
"oooo XXXXXXXXXX oooo",
"oo                oo",
"oooo oooooooooo oooo"
};
