/* XPM */
const char *toggle_audio_autocommit_xpm[] = {
/* columns rows colors chars-per-pixel */
"20 15 5 1",
"  c black",
". c #0000BFBF0000",
"X c green",
"o c gray100",
"O c None",
/* pixels */
"OOOOOOOOOOOOOOOOOOOO",
"OOOOOOOOOOOOOOOOOOOO",
"OOOOOOOOOOOOOOO OOOO",
"OOOOOOOOOOOOOO  OOOO",
"OOOOOOOOOOOOO X OOOO",
"OOOO   OOOOO X OOOOO",
"OOOO oo OOO X OOOOOO",
"OOOO oX OO X. OOOOOO",
"OOOO .XX  X. OOOOOOO",
"OOOOO .XXX. OOOOOOOO",
"OOOOOO .X.. OOOOOOOO",
"OOOOOOO .. OOOOOOOOO",
"OOOOOOOO  OOOOOOOOOO",
"OOOOOOOOOOOOOOOOOOOO",
"OOOOOOOOOOOOOOOOOOOO"
};
