/* XPM */
const char *toggle_audio_nextcommit_xpm[] = {
/* columns rows colors chars-per-pixel */
"20 15 7 1",
"  c black",
". c #0000C0C00000",
"X c green",
"o c blue",
"O c #A6A6CACAF0F0",
"+ c gray100",
"@ c None",
/* pixels */
"@@@@@@@@@@@@@@@@@@@@",
"@@@@@@@@@@@@@@@@@@@@",
"@@@@@@@@@@@@ @@@@@@@",
"@@@@@@@@@@@  @o@@@@@",
"@@@@@@@@@@ X @oo@@@@",
"@   ooooo X oooOo@@@",
"@ ++ OOO X OOOOOOo@@",
"@ +X OO X. OOOOOOoo@",
"@ .XX  X. oooooooo@@",
"@@ .XXX. oooooooo@@@",
"@@@ .X.. @@@@@oo@@@@",
"@@@@ .. @@@@@@o@@@@@",
"@@@@@  @@@@@@@@@@@@@",
"@@@@@@@@@@@@@@@@@@@@",
"@@@@@@@@@@@@@@@@@@@@"
};
