/* XPM */
const char *video_to_subend_xpm[] = {
/* columns rows colors chars-per-pixel */
"16 15 6 1",
"  c black",
". c red",
"X c #000080800000",
"o c green",
"O c cyan",
"+ c None",
/* pixels */
"                ",
" +++ ... ++++++ ",
"                ",
"++++++O+++++++++",
"++++++O+++++++++",
"+++++OOO++++++++",
"++++++O+++++++++",
"++++           +",
"+++ XXXXXXXXXXX ",
"+++ XXXXXXoXXXX ",
"+++ XXXXXXooXXX ",
"+++ XXoooooooXX ",
"+++ XXXXXXooXXX ",
"+++ XXXXXXoXXXX ",
"++++           +"
};
