/* XPM */
const char *visual_vector_clip_drag_xpm[] = {
/* columns rows colors chars-per-pixel */
"16 15 5 1",
"  c black",
". c #808000000000",
"X c red",
"o c #A6A6CACAF0F0",
"O c None",
/* pixels */
"OOOOOOO OOOOOOOO",
"OOOOOO o OOOOOOO",
"OOOOO ooo OOOOOO",
"OOOOO  o  OOOOOO",
"OOOOOO o OOOOOOO",
"OO  OO o OO  OOO",
"O o   ...   o OO",
" ooooo.X.ooooo O",
"O o   ...   o OO",
"OO  OO o OO  OOO",
"OOOOOO o OOOOOOO",
"OOOOO  o  OOOOOO",
"OOOOO ooo OOOOOO",
"OOOOOO o OOOOOOO",
"OOOOOOO OOOOOOOO"
};
