/* XPM */
const char *visual_vector_clip_freehand_smooth_xpm[] = {
/* columns rows colors chars-per-pixel */
"16 15 7 1",
"  c #808000000000",
". c yellow",
"X c #E0E080804040",
"o c navy",
"O c #00008080C0C0",
"+ c #A6A6CACAF0F0",
"@ c None",
/* pixels */
"@@@@@ooo@@@@@@@@",
"@@@@@o++o@@@@@@@",
"@@@@@oOO+o@@@@@@",
"@@@@@@oOO+o@@@@@",
"@@@@@@@ooO+o@@@@",
"@@@@@@@@@oO+o@@@",
"@@@@@@@@@@oO+o@@",
"@@@    @@@@oX.@@",
"@@ @@@@ @@@@X.@@",
"@ @@@@@ @@@@@.@@",
"@ @@@@@@ @@@@ @@",
"@ @@@@@@ @@@ @@@",
"@ @@@@@@@   @@@@",
"@ @@@@@@@@@@@@@@",
"@@@@@@@@@@@@@@@@"
};
