/* XPM */
const char *visual_vector_clip_line_xpm[] = {
/* columns rows colors chars-per-pixel */
"16 15 3 1",
"  c #808000000000",
". c red",
"X c None",
/* pixels */
"XXXXXXXXXXXXXXXX",
"XXXXXXXXXXXX...X",
"XXXXXXXXXXXX.X.X",
"XXXXXXXXXXX ...X",
"XXXXXXXXXX XXXXX",
"XXXXXXXXX XXXXXX",
"XXXXXXXX XXXXXXX",
"XXXXXXX XXXXXXXX",
"XXXXXX XXXXXXXXX",
"XXXXX XXXXXXXXXX",
"X... XXXXXXXXXXX",
"X.X.XXXXXXXXXXXX",
"X...XXXXXXXXXXXX",
"XXXXXXXXXXXXXXXX",
"XXXXXXXXXXXXXXXX"
};
