/* XPM */
const char *visual_vector_clip_xpm[] = {
/* columns rows colors chars-per-pixel */
"16 15 6 1",
"  c black",
". c #808000000000",
"X c red",
"o c #E0E080804040",
"O c #808080808080",
"+ c None",
/* pixels */
"OOOOOOOOOOOOOOOO",
"OOOOOOOOOOOXXOOO",
"OOOOXXXooooXXOOO",
"XXooX+X...OOOOOO",
"XXO.XXX+++.OOOOO",
"OO.++++++++.OOOO",
"OO.+++++++++.OOO",
"O.++++   +++.OOO",
"O.+++ +++ +++.OO",
"O.+++ +++ +++.OO",
"OO.+++   ++++.OO",
"OXXX+ +++ ++XXXO",
"OX+X........X+XO",
"OXXXOOOOOOOOXXXO",
"OOOOOOOOOOOOOOOO"
};
