/* XPM */
const char *visual_scale_xpm[] = {
/* columns rows colors chars-per-pixel */
"16 15 4 1",
"  c #808000000000",
". c red",
"X c #000040408080",
"o c None",
/* pixels */
"oooooooooooooooo",
"oooo.        .oo",
"oooo.ooooooo. oo",
"ooo. oooooo.o oo",
"ooo. ooooo.oo oo",
"ooo. oooo.ooo oo",
"oo.o ooo.oooo oo",
"oo.X XX.ooooo oo",
"ooXo ooXooooo oo",
"ooXo ooXooooo oo",
"ooXo.       ..oo",
"ooX.oooXo...oooo",
"oo.XXXX..ooooooo",
"oooooooooooooooo",
"oooooooooooooooo"
};
