/* XPM */
const char *visual_vector_clip_convert_xpm[] = {
/* columns rows colors chars-per-pixel */
"16 15 3 1",
"  c #808000000000",
". c red",
"X c None",
/* pixels */
"XXXXXXXXXXXXXXXX",
"XX...XXXXXXXXXXX",
"XX.X.XXXXXXXXXXX",
"XX...XXXXXXXXXXX",
"XXX X XXXXXXXXXX",
"XXX XX XXXXXXXXX",
"XXX XXX XXXXXXXX",
"XXX XXXX XXXXXXX",
"XXX XXXXX XXXXXX",
"XXX XXXXXX XXXXX",
"XXX XXXXXXX XXXX",
"XXX XXXXXXXX XXX",
"XXX XXXXXXXXX XX",
"XXXXXXXXXXXXXXXX",
"XXXXXXXXXXXXXXXX"
};
