/* XPM */
const char *visual_rotatexy_xpm[] = {
/* columns rows colors chars-per-pixel */
"16 15 4 1",
"  c #808000000000",
". c red",
"X c #000040408080",
"o c None",
/* pixels */
"ooooXoXXXooooooo",
"ooooXXoooXoooooo",
"ooooXXXoooXooooo",
"ooooooooooXooooo",
"oooooXXXXXXooooo",
"ooXXXoooooXXXooo",
"oXoooo   ooXoXoo",
"Xooooo . ooXoooo",
"Xooooo   ooXoooo",
"oXooXooooooXoooo",
"ooXXXoooooXooooo",
"oooXXXooooXooooo",
"ooXoooooooXooooo",
"oooooXoooXoooooo",
"ooooooXXXooooooo"
};
