/* XPM */
const char *visual_move_conv_move_xpm[] = {
/* columns rows colors chars-per-pixel */
"30 15 3 1",
"  c #000040408080",
". c #00008080C0C0",
"X c None",
/* pixels */
"XXXXXXXXXXXXXXXXXXXXX XXXXXXXX",
"XXXXXXXXXXXXXXXXXXXXX  XXXXXXX",
"XXXXXXXXXXXXXXXX    X . XXXXXX",
"XXXXXXXXXXX    X .. X .. XXXXX",
"XXXXXX    X .. X .. X ... XXXX",
"X    X .. X .. X .. X .... XXX",
"X .. X .. X .. X .. X ..... XX",
"X .. X .. X .. X .. X ...... X",
"X .. X .. X .. X .. X ..... XX",
"X    X .. X .. X .. X .... XXX",
"XXXXXX    X .. X .. X ... XXXX",
"XXXXXXXXXXX    X .. X .. XXXXX",
"XXXXXXXXXXXXXXXX    X . XXXXXX",
"XXXXXXXXXXXXXXXXXXXXX  XXXXXXX",
"XXXXXXXXXXXXXXXXXXXXX XXXXXXXX"
};
