/* XPM */
const char *website_button_xpm[] = {
/* columns rows colors chars-per-pixel */
"16 15 11 1",
"  c black",
". c #000040400000",
"X c #000080800000",
"o c #0000C0C00000",
"O c #808080800000",
"+ c navy",
"@ c blue",
"# c #808080808080",
"$ c #C0C0DCDCC0C0",
"% c gray100",
"& c None",
/* pixels */
"&&&&&     &&&&&&",
"&&&  +@@++  &&&&",
"&& +@+X$+$$$ &&&",
"& +%%%X++$+$$ &&",
"& +%%%%###+X$ &&",
" +@@+++XXo&XX. &",
" +%@+XoXoXXoXX &",
" +%%%%%%####.. &",
" +++++%%#####. &",
" ##++XX+++###. &",
"& #@OOOXOOOO. &&",
"& ++O#OOO###+ &&",
"&& ++X###### &&&",
"&&&  ...++  &&&&",
"&&&&&     &&&&&&"
};
