/* XPM */
const char *zoom_in_button_xpm[] = {
/* columns rows colors chars-per-pixel */
"16 15 6 1",
"  c black",
". c #808000000000",
"X c blue",
"o c #99999999FFFF",
"O c gray100",
"+ c None",
/* pixels */
"+++++++++   ++++",
"+++++++  ooo  ++",
"++++++ ooOoooo +",
"++++++ OOo ooo +",
"+++++ oOOo oooX ",
"+++++ oo     oX ",
"+++++ oooo oooX ",
"++++++ ooo ooX +",
"++++++ oooooXX +",
"+++++ .  XXX  ++",
"++++ . ++   ++++",
"+++ . ++++++++++",
"++ . +++++++++++",
"+ . ++++++++++++",
"+  +++++++++++++"
};
